<svg xmlns="http://www.w3.org/2000/svg" width="1254" height="1254" viewBox="0 0 1254 1254" fill="none">
  <rect width="1254" height="1254" fill="#fefefe"/>
  <path d="
      M 467 1020 L 467 1022 L 468 1024 L 471 1028 L 479 1035 L 478 1032 L 471 1024 Z
      M 631 933 L 629 933 L 628 936 L 630 936 Z
      M 650 935 L 650 936 L 654 936 L 652 933 Z
      M 598 932 L 598 936 L 602 940 L 608 940 L 609 942 L 611 943 L 619 943 L 622 942 L 624 941 L 625 939 L 622 939 L 621 940 L 616 941 L 610 941 L 604 937 Z
      M 715 926 L 713 926 L 711 928 L 708 929 L 706 929 L 706 931 L 711 931 Z
      M 699 920 L 700 926 L 702 926 Z
      M 578 919 L 578 924 L 579 922 Z
      M 552 910 L 551 913 L 552 917 L 554 921 L 557 925 L 558 926 L 559 926 L 561 928 L 563 929 L 568 931 L 572 931 L 574 929 L 572 927 L 565 927 L 563 926 L 558 923 L 556 921 L 554 917 L 553 912 Z
      M 760 893 L 759 897 L 757 901 L 754 905 L 753 906 L 752 906 L 750 908 L 747 909 L 743 912 L 745 915 L 749 914 L 754 910 L 755 909 L 756 907 L 756 905 L 757 903 L 759 901 L 760 899 Z
      M 598 888 L 596 888 L 595 890 L 596 900 L 596 896 L 598 891 Z
      M 497 888 L 501 891 L 500 888 Z
      M 372 887 L 372 889 L 375 894 L 376 897 L 376 894 L 374 891 L 374 890 Z
      M 682 886 L 683 888 L 683 889 L 686 889 L 685 887 Z
      M 703 890 L 705 890 L 709 885 L 704 886 L 704 888 Z
      M 531 880 L 534 883 L 533 879 Z
      M 364 865 L 363 868 L 364 871 L 367 875 L 367 873 L 365 867 Z
      M 622 856 L 624 856 L 626 855 L 627 852 L 622 854 Z
      M 781 851 L 779 851 L 780 853 Z
      M 497 848 L 496 851 L 498 851 Z
      M 594 847 L 593 849 L 596 851 L 596 849 Z
      M 529 846 L 529 848 L 531 848 L 531 846 Z
      M 573 845 L 572 847 L 570 849 L 574 849 Z
      M 547 846 L 548 848 L 550 850 L 554 850 L 552 848 L 551 848 Z
      M 732 836 L 731 838 L 730 839 L 730 842 L 729 845 L 727 848 L 729 848 L 731 846 L 733 839 Z
      M 510 829 L 508 830 L 509 833 Z
      M 490 830 L 492 830 L 495 832 L 495 830 L 493 828 Z
      M 346 824 L 347 830 L 348 835 L 350 842 L 351 845 L 353 850 L 354 852 L 356 853 L 356 850 L 355 849 L 355 845 L 351 831 L 350 828 L 348 824 Z
      M 766 818 L 764 819 L 767 823 L 768 826 L 769 831 L 770 829 L 770 826 L 769 825 L 769 821 Z
      M 751 818 L 755 815 L 758 815 L 758 813 L 752 814 L 751 816 Z
      M 550 805 L 548 806 L 547 808 L 546 811 L 546 817 L 548 816 L 548 810 L 549 807 Z
      M 728 801 L 728 803 L 729 805 L 731 807 L 732 809 L 732 812 L 733 813 L 734 815 L 734 810 L 733 807 L 731 803 Z
      M 711 799 L 708 800 L 707 802 L 707 804 L 710 802 L 711 802 Z
      M 569 799 L 572 804 L 573 807 L 573 801 L 572 799 Z
      M 561 798 L 554 797 L 551 800 L 550 803 L 556 799 L 559 798 Z
      M 944 793 L 942 795 L 937 810 L 938 814 L 938 812 L 940 808 L 940 803 L 942 798 L 943 795 Z
      M 681 790 L 685 796 L 685 798 L 687 800 L 687 797 L 686 794 L 685 792 L 683 790 Z
      M 660 788 L 658 788 L 655 791 L 654 793 L 654 798 L 655 795 L 660 790 Z
      M 622 788 L 625 791 L 627 794 L 628 796 L 628 793 L 627 790 L 625 788 Z
      M 606 786 L 603 786 L 599 790 L 595 791 L 593 795 L 594 801 L 594 798 L 595 796 L 597 793 L 600 790 L 602 790 L 604 788 L 605 788 Z
      M 664 788 L 667 787 L 672 788 L 673 789 L 675 789 L 673 787 L 671 786 L 668 785 L 666 786 Z
      M 309 589 L 308 599 L 309 600 L 310 609 L 310 596 L 309 595 Z
      M 629 576 L 631 576 L 632 573 Z
      M 685 570 L 683 574 L 681 577 L 679 579 L 676 580 L 674 581 L 673 583 L 675 583 L 679 581 L 682 578 L 685 572 Z
      M 552 569 L 555 572 L 558 573 L 562 572 L 560 572 L 557 571 L 554 569 Z
      M 574 570 L 576 570 L 577 567 Z
      M 716 573 L 721 573 L 723 572 L 726 570 L 729 567 L 729 565 L 723 570 L 719 572 Z
      M 545 554 L 544 558 L 545 560 L 548 563 L 548 560 Z
      M 751 551 L 752 553 L 756 553 L 753 550 Z
      M 738 550 L 736 552 L 737 556 L 737 553 L 738 552 Z
      M 509 546 L 516 554 L 518 555 L 520 555 L 522 554 L 523 551 L 521 551 L 516 552 L 514 551 L 511 547 Z
      M 774 538 L 772 539 L 772 541 L 770 545 L 766 550 L 769 548 L 770 548 L 771 547 L 774 541 Z
      M 481 530 L 482 533 L 484 534 L 486 534 L 485 532 L 484 532 Z
      M 791 526 L 790 532 L 792 532 Z
      M 594 525 L 593 527 L 594 532 L 595 530 L 595 528 Z
      M 685 523 L 685 525 L 689 528 L 688 526 L 687 523 Z
      M 710 520 L 707 521 L 707 525 L 710 522 Z
      M 552 519 L 549 518 L 546 519 L 544 521 L 543 524 L 544 528 L 545 526 L 545 524 L 546 522 L 548 520 Z
      M 523 517 L 524 520 L 526 520 L 525 517 Z
      M 506 517 L 503 519 L 504 526 L 505 524 L 505 520 L 506 519 Z
      M 773 516 L 775 519 L 776 521 L 776 518 L 775 517 Z
      M 803 508 L 804 510 L 805 514 L 806 510 L 805 508 Z
      M 710 486 L 710 488 L 713 488 L 712 486 Z
      M 777 487 L 779 486 L 779 485 L 780 483 Z
      M 684 487 L 686 487 L 688 486 L 689 483 Z
      M 502 483 L 505 487 L 506 485 Z
      M 560 483 L 558 482 L 554 483 L 555 485 L 558 485 Z
      M 757 479 L 759 485 L 759 479 Z
      M 523 479 L 524 484 L 525 482 Z
      M 806 461 L 806 463 L 809 467 L 809 464 L 808 462 Z
      M 797 456 L 794 458 L 793 460 L 794 464 L 794 462 L 795 460 L 796 459 L 797 459 Z
      M 779 449 L 781 453 L 782 457 L 783 460 L 783 457 L 782 451 Z
      M 542 448 L 540 449 L 540 452 L 542 454 Z
      M 502 445 L 500 446 L 499 448 L 498 451 L 499 454 L 500 450 L 502 447 Z
      M 762 444 L 760 446 L 759 449 L 761 448 L 762 446 Z
      M 520 441 L 518 443 L 521 446 L 523 449 L 523 445 L 522 443 Z
      M 542 438 L 543 435 L 545 432 L 541 435 Z
      M 715 431 L 712 433 L 712 437 Z
      M 568 430 L 569 433 L 571 435 L 572 437 L 572 432 L 570 430 Z
      M 731 429 L 736 433 L 737 436 L 739 437 L 739 435 L 737 431 L 736 430 L 734 429 Z
      M 546 430 L 549 429 L 554 426 L 556 426 L 561 427 L 560 425 L 551 425 L 549 426 Z
      M 687 422 L 689 427 L 691 429 L 693 433 L 693 437 L 694 438 L 694 441 L 695 435 L 693 429 L 691 425 Z
      M 624 421 L 627 424 L 629 427 L 630 429 L 630 426 L 629 424 L 626 421 Z
      M 601 420 L 603 420 L 604 419 L 608 418 L 603 418 Z
      M 667 418 L 663 419 L 660 419 L 657 422 L 655 426 L 655 430 L 657 426 L 659 423 L 663 419 Z
      M 539 83 L 537 84 L 534 85 L 533 87 L 537 85 Z
      M 602 60 L 551 76 L 591 67 L 505 102 L 524 98 L 459 128 L 447 139 L 481 125 L 432 159 L 407 186 L 445 134 L 496 92 L 481 99 L 436 139 L 366 229 L 322 315 L 303 392 L 305 353 L 295 422 L 296 438 L 300 427 L 296 550 L 299 495 L 301 573 L 299 564 L 297 583 L 292 570 L 306 655 L 304 623 L 315 692 L 309 685 L 331 801 L 335 809 L 334 783 L 394 926 L 367 888 L 385 929 L 405 956 L 395 931 L 425 965 L 424 974 L 454 1011 L 441 987 L 519 1059 L 513 1061 L 546 1076 L 510 1044 L 557 1074 L 607 1088 L 591 1080 L 630 1082 L 626 1085 L 680 1076 L 643 1089 L 649 1092 L 698 1073 L 679 1086 L 718 1077 L 800 1020 L 776 1054 L 804 1032 L 811 1022 L 797 1032 L 866 941 L 836 1001 L 880 930 L 871 941 L 898 902 L 898 915 L 926 857 L 910 882 L 923 822 L 955 742 L 946 789 L 969 707 L 979 622 L 981 462 L 973 420 L 979 486 L 975 539 L 969 404 L 974 415 L 947 301 L 918 235 L 936 290 L 873 178 L 881 197 L 845 154 L 890 211 L 906 249 L 841 158 L 804 124 L 834 131 L 761 107 L 694 74 L 750 89 L 719 74 L 676 64 L 678 70 L 593 73 L 622 78 L 558 85 L 609 63 Z
      M 581 1076 L 585 1075 L 589 1077 L 595 1078 L 587 1079 Z
      M 694 1069 L 692 1071 L 682 1074 L 682 1070 L 690 1068 Z
      M 672 1067 L 665 1070 L 661 1071 L 647 1074 L 641 1074 L 637 1076 L 625 1075 L 631 1073 L 638 1073 L 647 1070 L 653 1070 L 658 1069 L 663 1067 L 667 1067 L 668 1066 Z
      M 583 1063 L 590 1062 L 600 1064 L 600 1066 L 608 1066 L 613 1068 L 619 1069 L 628 1070 L 620 1072 L 613 1072 L 608 1071 L 604 1070 L 601 1069 L 598 1067 L 594 1066 L 587 1065 Z
      M 562 1062 L 566 1063 L 569 1065 L 574 1064 L 582 1068 L 591 1071 L 601 1074 L 595 1075 L 594 1074 L 588 1074 L 578 1072 L 574 1071 L 571 1070 L 567 1068 L 565 1066 L 562 1065 Z
      M 716 1062 L 711 1065 L 708 1064 L 711 1062 L 713 1061 Z
      M 717 1060 L 719 1059 L 722 1059 L 720 1061 Z
      M 539 1059 L 541 1058 L 557 1066 L 570 1072 L 572 1074 L 574 1074 L 576 1076 L 573 1077 L 570 1076 L 562 1072 L 559 1072 L 547 1066 L 543 1063 Z
      M 708 1057 L 704 1060 L 698 1063 L 692 1065 L 689 1064 L 692 1062 L 695 1061 L 700 1058 L 705 1056 Z
      M 616 1053 L 625 1052 L 639 1054 L 623 1055 Z
      M 608 1051 L 613 1050 L 617 1052 L 613 1053 L 612 1052 Z
      M 671 1048 L 671 1051 L 668 1052 L 659 1054 L 644 1053 L 652 1052 L 664 1049 Z
      M 554 1048 L 556 1047 L 558 1048 L 567 1053 L 572 1054 L 577 1056 L 579 1058 L 575 1059 L 572 1058 L 567 1056 L 557 1051 Z
      M 526 1042 L 530 1042 L 532 1041 L 532 1043 L 536 1043 L 536 1045 L 540 1047 L 546 1049 L 552 1052 L 557 1055 L 560 1058 L 557 1058 L 552 1057 L 547 1055 L 543 1053 L 532 1047 L 529 1045 Z
      M 745 1040 L 741 1044 L 737 1047 L 729 1051 L 724 1053 L 721 1052 L 728 1047 L 730 1046 L 732 1046 L 739 1042 L 741 1040 Z
      M 770 1039 L 768 1041 L 763 1045 L 749 1055 L 746 1056 L 740 1061 L 734 1065 L 726 1069 L 723 1072 L 718 1072 L 716 1073 L 714 1075 L 703 1079 L 699 1078 L 703 1076 L 708 1072 L 718 1067 L 721 1064 L 724 1063 L 731 1057 L 737 1053 L 744 1049 L 753 1046 L 766 1039 Z
      M 577 1033 L 580 1032 L 581 1033 L 583 1034 L 580 1035 L 579 1034 Z
      M 570 1031 L 573 1030 L 574 1031 L 576 1032 L 573 1033 L 572 1032 Z
      M 563 1028 L 566 1027 L 571 1030 L 568 1031 Z
      M 496 1028 L 498 1027 L 500 1028 L 506 1033 L 512 1037 L 517 1039 L 520 1041 L 522 1043 L 520 1044 L 510 1039 L 505 1036 L 499 1031 Z
      M 506 1023 L 508 1022 L 510 1024 L 508 1025 Z
      M 782 1018 L 776 1024 L 769 1030 L 762 1034 L 756 1039 L 752 1039 L 754 1037 L 762 1030 L 770 1025 L 775 1020 L 778 1019 Z
      M 515 1016 L 517 1015 L 520 1018 L 518 1019 Z
      M 474 1016 L 476 1015 L 485 1023 L 487 1028 L 485 1026 L 484 1026 Z
      M 604 1013 L 608 1012 L 609 1013 L 613 1014 L 607 1015 L 606 1014 Z
      M 511 1013 L 513 1012 L 516 1015 L 514 1016 Z
      M 596 1011 L 599 1010 L 601 1012 L 598 1012 Z
      M 482 1004 L 484 1003 L 488 1007 L 497 1013 L 502 1017 L 507 1022 L 505 1023 L 500 1019 L 496 1017 L 492 1014 Z
      M 471 1002 L 474 1008 L 470 1004 Z
      M 810 1001 L 809 1003 L 793 1019 L 783 1027 L 779 1030 L 776 1032 L 770 1033 L 772 1031 L 781 1024 L 785 1022 L 789 1019 Z
      M 492 1001 L 494 1000 L 500 1005 L 502 1007 L 500 1008 L 498 1007 Z
      M 785 997 L 786 999 L 784 1002 L 782 1004 L 774 1008 Z
      M 463 993 L 469 1002 L 462 995 Z
      M 791 993 L 790 995 L 786 996 L 787 994 Z
      M 458 986 L 459 990 L 457 988 Z
      M 446 987 L 449 985 L 451 987 L 454 991 L 454 992 L 457 996 L 458 997 L 463 1001 L 461 1002 L 459 1001 L 447 989 Z
      M 816 983 L 817 985 L 809 990 Z
      M 834 981 L 835 983 L 831 988 L 826 993 L 825 991 L 827 988 Z
      M 437 974 L 442 979 L 443 979 L 449 985 L 447 986 L 444 986 L 437 978 L 436 976 Z
      M 445 971 L 448 970 L 452 975 L 455 977 L 453 978 L 454 981 L 456 986 L 452 982 L 451 980 L 451 978 L 447 974 L 447 973 Z
      M 428 970 L 429 974 L 427 972 Z
      M 449 964 L 451 963 L 453 965 L 451 966 Z
      M 643 962 L 644 959 L 650 959 L 652 961 L 657 962 Z
      M 456 961 L 457 959 L 459 961 Z
      M 846 958 L 847 960 L 845 964 L 843 967 L 839 972 L 836 975 L 835 973 L 836 971 L 840 967 L 844 960 Z
      M 618 962 L 626 961 L 627 959 L 639 959 L 638 964 L 625 964 L 624 963 Z
      M 427 957 L 433 963 L 445 976 L 443 977 L 436 971 L 428 963 L 426 959 Z
      M 433 955 L 434 959 L 432 957 Z
      M 452 953 L 453 957 L 451 955 Z
      M 701 953 L 699 955 L 696 956 L 693 955 L 690 958 L 685 955 L 688 954 L 692 953 Z
      M 431 952 L 432 956 L 430 954 Z
      M 511 951 L 513 950 L 514 954 Z
      M 577 949 L 580 951 L 582 951 L 589 955 L 584 956 L 578 954 L 576 953 Z
      M 428 948 L 430 953 L 427 950 Z
      M 717 946 L 717 943 L 721 944 Z
      M 678 942 L 678 945 L 676 946 L 673 945 L 676 943 Z
      M 504 941 L 507 947 L 503 943 Z
      M 637 939 L 637 949 L 630 948 L 635 943 Z
      M 591 939 L 592 942 L 595 945 L 593 946 L 590 943 Z
      M 643 938 L 647 944 L 649 946 L 653 948 L 642 948 Z
      M 683 937 L 684 939 L 679 941 Z
      M 735 935 L 735 939 L 731 942 L 728 943 L 725 941 L 731 937 Z
      M 693 936 L 693 939 L 695 941 L 693 942 L 692 943 L 689 944 L 686 943 L 688 941 L 690 938 Z
      M 796 934 L 797 936 L 792 941 L 791 939 Z
      M 585 932 L 587 937 L 586 944 L 579 942 L 578 941 L 576 940 L 579 939 L 581 938 L 584 935 Z
      M 534 931 L 536 930 L 544 934 L 553 938 L 558 941 L 558 944 L 556 944 L 553 943 L 543 938 L 536 933 Z
      M 414 927 L 416 929 L 420 934 L 422 937 L 426 945 L 427 949 L 423 945 L 418 938 L 416 935 L 415 932 L 413 929 Z
      M 729 926 L 729 930 L 728 930 L 724 931 Z
      M 867 921 L 868 923 L 866 927 L 859 937 L 856 940 L 855 938 L 857 936 L 858 933 L 864 924 Z
      M 543 919 L 545 925 L 544 928 L 542 926 L 541 926 L 539 924 L 541 922 L 541 921 Z
      M 869 918 L 870 920 L 868 922 L 867 920 Z
      M 744 922 L 741 924 L 738 925 L 734 926 L 736 923 L 737 917 L 738 919 L 740 921 Z
      M 505 915 L 507 914 L 511 918 L 509 919 Z
      M 402 913 L 404 920 L 402 918 L 401 916 Z
      M 884 912 L 885 914 L 882 917 L 881 915 Z
      M 769 911 L 768 913 L 763 914 Z
      M 868 906 L 869 908 L 868 910 L 865 913 L 864 911 L 866 909 L 866 908 Z
      M 513 904 L 515 907 L 512 907 Z
      M 389 902 L 391 904 L 393 907 L 396 912 L 398 917 L 400 920 L 404 924 L 406 927 L 415 942 L 419 954 L 416 951 L 412 946 L 399 927 L 393 916 L 391 912 L 388 905 Z
      M 408 901 L 410 903 L 410 907 L 408 905 L 407 903 Z
      M 426 898 L 428 905 L 426 903 L 425 901 Z
      M 770 896 L 771 898 L 772 899 L 774 900 L 771 903 L 769 904 L 768 901 L 769 900 Z
      M 424 895 L 425 899 L 423 897 Z
      M 890 894 L 891 896 L 889 898 L 888 896 Z
      M 486 896 L 487 894 L 489 896 Z
      M 874 883 L 875 885 L 873 889 L 870 893 L 869 890 L 872 885 Z
      M 685 884 L 688 887 L 689 892 L 689 911 L 687 920 L 685 926 L 681 934 L 675 940 L 669 943 L 665 944 L 657 944 L 654 943 L 652 942 L 648 938 L 645 931 L 644 920 L 644 895 L 645 891 L 646 889 L 650 885 L 652 884 L 656 884 L 657 886 L 677 886 L 680 883 Z
      M 658 883 L 662 881 L 665 881 L 668 879 L 677 879 L 678 880 L 680 881 L 672 882 L 668 884 Z
      M 608 880 L 619 879 L 623 880 L 628 883 L 631 884 L 633 888 L 634 885 L 636 890 L 637 903 L 637 918 L 636 926 L 634 934 L 632 939 L 626 945 L 621 947 L 610 947 L 607 946 L 601 943 L 597 939 L 595 935 L 593 928 L 591 917 L 590 909 L 590 901 L 591 892 L 593 887 L 596 884 L 598 883 L 605 883 L 607 885 L 616 885 L 617 886 L 625 886 L 624 884 L 607 882 Z
      M 686 879 L 691 879 L 690 882 L 688 880 Z
      M 593 879 L 591 880 L 590 882 L 590 878 Z
      M 705 879 L 707 877 L 710 878 L 708 879 Z
      M 696 879 L 697 877 L 700 878 Z
      M 569 878 L 576 877 L 579 883 L 577 881 L 574 881 Z
      M 470 877 L 481 888 L 481 892 L 479 892 L 472 885 L 470 882 L 469 880 Z
      M 722 876 L 726 878 L 729 884 L 725 881 L 727 884 L 729 893 L 730 891 L 731 888 L 732 900 L 731 906 L 730 910 L 727 917 L 724 917 L 718 924 L 717 927 L 720 926 L 722 924 L 722 923 L 724 921 L 725 923 L 724 925 L 716 933 L 709 935 L 706 935 L 702 934 L 698 930 L 697 926 L 698 904 L 699 904 L 700 903 L 701 901 L 701 892 L 699 892 L 698 888 L 700 884 L 701 883 L 704 881 L 706 882 L 714 879 L 718 879 L 717 877 Z
      M 557 876 L 562 875 L 569 877 L 558 879 L 557 881 L 554 881 L 552 883 L 551 885 L 552 890 L 553 886 L 554 884 L 558 880 L 566 880 L 573 881 L 576 884 L 574 885 L 577 889 L 578 884 L 580 884 L 582 886 L 581 896 L 581 900 L 583 903 L 582 921 L 581 929 L 579 933 L 574 935 L 571 935 L 565 934 L 561 932 L 558 930 L 554 926 L 552 923 L 548 915 L 546 906 L 546 892 L 548 885 L 550 881 L 554 877 Z
      M 760 874 L 760 879 L 761 880 L 762 885 L 766 882 L 766 888 L 763 900 L 761 905 L 759 909 L 753 915 L 749 917 L 743 917 L 741 916 L 741 908 L 742 908 L 742 904 L 741 906 L 740 890 L 741 886 L 743 884 L 744 884 L 745 883 L 745 882 L 746 880 L 744 880 L 743 878 L 746 875 L 748 874 Z
      M 517 873 L 521 876 L 528 876 L 529 873 L 531 874 L 536 879 L 537 882 L 537 892 L 539 901 L 538 914 L 534 917 L 532 915 L 534 914 L 534 911 L 531 912 L 520 905 L 521 907 L 527 913 L 531 915 L 526 916 L 524 915 L 522 913 L 521 913 L 520 912 L 520 911 L 518 909 L 515 902 L 515 897 L 512 889 L 513 878 L 514 882 L 516 881 L 517 879 L 517 876 L 515 877 L 514 879 L 513 876 Z
      M 907 872 L 908 875 L 907 878 L 906 879 L 905 885 L 903 890 L 902 892 L 900 895 L 891 905 L 888 910 L 885 913 L 884 911 L 886 909 L 888 904 L 894 893 L 898 888 L 902 879 L 905 876 Z
      M 385 872 L 387 874 L 389 879 L 388 882 L 385 877 Z
      M 751 872 L 754 871 L 756 870 L 758 872 Z
      M 377 870 L 380 875 L 388 892 L 388 894 L 389 896 L 387 898 L 386 895 L 384 893 L 383 891 L 383 889 L 381 887 L 380 884 L 380 881 L 377 876 L 376 873 Z
      M 488 868 L 489 871 L 490 869 L 493 866 L 497 867 L 500 870 L 501 872 L 504 874 L 505 892 L 503 894 L 499 894 L 496 892 L 492 888 L 494 887 L 493 884 L 492 882 L 489 882 L 487 876 Z
      M 789 865 L 791 867 L 790 870 L 787 868 L 789 872 L 790 870 L 791 874 L 790 875 L 790 880 L 788 884 L 787 880 L 785 880 L 784 882 L 782 887 L 780 889 L 779 889 L 778 891 L 781 892 L 779 894 L 777 895 L 773 894 L 774 887 L 775 889 L 777 888 L 777 885 L 774 887 L 773 882 L 775 871 L 778 870 L 781 870 L 783 869 L 784 866 Z
      M 375 865 L 376 867 L 377 868 L 376 871 L 375 869 L 374 868 Z
      M 800 864 L 802 867 L 799 868 L 798 870 L 799 872 L 801 873 L 800 875 L 796 879 L 795 876 L 797 864 Z
      M 474 866 L 481 865 L 482 873 L 481 876 L 479 872 L 477 869 Z
      M 390 864 L 393 868 L 396 873 L 400 880 L 403 886 L 406 893 L 406 896 L 407 897 L 406 900 L 405 898 L 404 897 L 402 892 L 399 884 L 396 878 L 393 875 L 389 867 Z
      M 902 859 L 903 862 L 902 865 L 901 867 L 893 881 L 892 878 L 894 873 L 895 871 L 899 866 Z
      M 699 857 L 701 855 L 703 857 Z
      M 578 855 L 578 858 L 575 857 Z
      M 542 856 L 543 854 L 545 856 Z
      M 734 856 L 735 854 L 738 854 L 737 856 Z
      M 378 851 L 382 858 L 381 861 L 377 854 Z
      M 911 850 L 912 853 L 911 856 L 908 864 L 900 880 L 896 887 L 894 889 L 893 887 L 895 882 L 900 874 L 906 859 Z
      M 913 845 L 914 848 L 913 849 L 912 851 L 911 848 L 912 847 Z
      M 803 842 L 805 846 L 804 852 L 801 853 L 798 852 L 799 849 L 802 846 Z
      M 915 840 L 916 843 L 915 844 L 914 846 L 913 843 L 914 842 Z
      M 473 840 L 474 845 L 473 849 L 471 849 L 469 847 L 470 845 L 472 843 Z
      M 387 838 L 388 840 L 389 841 L 390 844 L 389 847 L 388 845 L 387 844 L 386 841 Z
      M 907 837 L 908 840 L 905 845 L 899 857 L 898 854 L 901 849 Z
      M 362 834 L 364 837 L 365 840 L 368 847 L 371 851 L 373 856 L 374 859 L 374 862 L 375 863 L 374 866 L 371 861 L 366 850 L 364 842 L 361 837 Z
      M 851 831 L 852 834 L 850 836 L 850 833 Z
      M 462 830 L 463 833 L 459 834 L 460 832 Z
      M 824 829 L 827 834 L 824 836 L 823 833 Z
      M 374 826 L 375 828 L 376 829 L 375 833 L 374 830 L 373 829 Z
      M 787 825 L 789 826 L 791 831 L 789 831 L 790 833 L 792 836 L 794 840 L 795 837 L 796 847 L 795 850 L 794 852 L 789 853 L 786 855 L 776 854 L 776 848 L 777 841 L 779 837 L 780 833 L 782 836 L 786 831 L 785 829 L 783 830 L 782 828 L 784 826 Z
      M 489 825 L 493 825 L 497 829 L 498 832 L 499 839 L 500 848 L 499 853 L 490 853 L 488 852 L 487 851 L 487 850 L 485 848 L 482 847 L 481 845 L 482 839 L 484 838 L 484 835 L 485 833 L 486 830 L 483 830 L 487 826 Z
      M 822 824 L 823 826 L 824 827 L 823 830 L 822 828 L 821 827 Z
      M 861 821 L 862 824 L 860 826 L 859 823 Z
      M 372 820 L 373 823 L 374 824 L 373 827 L 372 825 L 371 824 Z
      M 362 820 L 363 824 L 366 831 L 365 834 L 362 829 L 361 826 Z
      M 496 819 L 498 821 L 497 824 L 496 822 Z
      M 781 818 L 783 819 L 785 821 L 782 822 L 780 824 L 780 821 Z
      M 800 817 L 802 818 L 804 820 L 807 825 L 807 829 L 804 826 L 801 822 L 799 819 Z
      M 481 819 L 480 821 L 478 823 L 477 823 L 473 826 L 469 830 L 468 828 L 471 824 L 474 821 L 475 821 Z
      M 918 815 L 919 818 L 917 821 L 917 824 L 915 828 L 914 823 L 915 820 Z
      M 752 809 L 756 809 L 758 810 L 760 812 L 762 813 L 766 812 L 769 815 L 770 817 L 771 820 L 772 824 L 772 837 L 771 843 L 770 846 L 769 848 L 767 851 L 765 853 L 763 854 L 762 852 L 766 848 L 765 846 L 763 849 L 760 850 L 761 853 L 756 854 L 755 855 L 751 855 L 747 853 L 746 849 L 749 851 L 751 850 L 749 844 L 747 845 L 746 848 L 745 834 L 746 827 L 748 822 L 748 814 L 749 812 Z
      M 516 809 L 519 808 L 525 808 L 527 809 L 528 810 L 528 811 L 530 813 L 530 817 L 527 815 L 527 818 L 530 822 L 531 817 L 532 823 L 534 829 L 534 845 L 535 846 L 537 855 L 531 855 L 532 852 L 529 852 L 525 854 L 515 853 L 512 854 L 509 851 L 513 851 L 513 849 L 509 845 L 508 849 L 506 845 L 505 837 L 505 825 L 506 822 L 509 817 L 510 820 L 509 821 L 509 825 L 511 825 L 511 821 L 517 815 L 518 812 L 516 813 L 513 815 L 510 818 L 509 816 L 511 813 L 514 810 Z
      M 866 806 L 867 809 L 865 811 L 865 808 Z
      M 350 801 L 351 803 L 352 804 L 352 806 L 353 808 L 356 812 L 357 814 L 359 820 L 358 824 L 356 821 L 355 819 L 352 814 L 351 812 L 350 809 L 349 805 Z
      M 746 811 L 745 807 L 747 801 L 749 800 L 752 802 L 754 802 L 755 803 L 757 804 L 751 805 Z
      M 869 799 L 870 802 L 869 803 L 868 805 L 867 802 L 868 801 Z
      M 774 799 L 780 805 L 778 806 L 776 804 L 775 804 L 774 803 Z
      M 534 797 L 534 813 L 532 811 L 532 809 L 528 805 L 526 804 L 523 803 L 526 801 Z
      M 738 797 L 741 796 L 743 798 L 742 804 L 741 801 Z
      M 710 794 L 721 795 L 725 794 L 729 796 L 731 798 L 731 800 L 734 804 L 736 808 L 737 811 L 738 830 L 737 837 L 736 842 L 734 847 L 732 850 L 729 853 L 727 854 L 725 854 L 723 856 L 723 857 L 712 857 L 715 855 L 713 854 L 711 855 L 705 854 L 703 852 L 704 848 L 706 848 L 705 839 L 703 849 L 701 839 L 701 817 L 705 799 Z
      M 863 794 L 861 796 L 860 798 L 859 795 Z
      M 544 794 L 540 798 L 539 801 L 538 796 L 540 794 Z
      M 520 793 L 518 795 L 512 799 L 507 802 L 506 799 L 509 796 L 515 792 Z
      M 568 791 L 570 792 L 576 798 L 577 802 L 578 808 L 579 819 L 579 838 L 578 851 L 575 854 L 573 855 L 559 855 L 557 857 L 555 857 L 554 856 L 551 856 L 548 854 L 545 851 L 544 849 L 542 843 L 541 838 L 541 818 L 542 811 L 544 804 L 546 800 L 553 793 L 556 792 L 566 791 Z
      M 760 790 L 762 791 L 766 794 L 769 800 L 767 798 L 766 798 L 760 793 Z
      M 863 787 L 863 791 L 861 789 Z
      M 738 786 L 741 785 L 743 786 L 745 788 L 743 789 Z
      M 364 784 L 367 790 L 366 794 L 363 788 Z
      M 699 795 L 700 783 L 702 783 L 707 784 L 713 786 L 716 790 L 714 789 L 708 790 L 705 792 L 703 794 L 703 796 L 702 797 L 701 799 Z
      M 567 786 L 571 784 L 576 783 L 582 784 L 582 789 L 580 799 L 578 794 L 577 792 L 574 789 L 572 788 Z
      M 665 781 L 675 781 L 678 782 L 683 785 L 687 789 L 689 792 L 690 794 L 691 797 L 692 802 L 694 818 L 694 834 L 692 843 L 690 847 L 690 852 L 687 855 L 684 854 L 677 858 L 672 859 L 660 859 L 655 858 L 652 856 L 648 855 L 647 853 L 645 844 L 644 838 L 644 830 L 645 808 L 647 799 L 648 796 L 652 788 L 655 785 L 661 782 Z
      M 594 782 L 589 786 L 587 790 L 587 782 L 589 781 Z
      M 685 781 L 689 781 L 688 784 Z
      M 610 780 L 616 780 L 624 783 L 630 789 L 634 800 L 636 810 L 636 838 L 635 844 L 633 853 L 629 857 L 627 858 L 624 859 L 618 860 L 606 859 L 611 858 L 610 856 L 604 856 L 603 855 L 599 855 L 599 857 L 597 857 L 596 856 L 593 856 L 590 853 L 589 851 L 588 848 L 585 832 L 585 819 L 586 811 L 588 802 L 592 791 L 594 788 L 598 784 L 600 783 L 604 782 L 608 782 Z
      M 643 792 L 643 789 L 642 781 L 644 777 L 659 778 L 657 780 L 654 780 L 651 782 L 647 786 L 645 790 Z
      M 623 778 L 639 778 L 638 790 L 638 793 L 636 791 L 635 788 L 633 785 L 629 781 L 626 779 Z
      M 543 777 L 540 779 L 535 778 L 539 776 Z
      M 868 775 L 869 778 L 866 785 L 864 783 L 865 780 Z
      M 721 775 L 726 775 L 732 778 L 730 779 L 729 781 L 726 778 L 723 777 Z
      M 576 774 L 572 776 L 568 775 L 572 773 Z
      M 580 772 L 582 771 L 585 771 L 583 773 Z
      M 342 770 L 343 772 L 344 773 L 344 775 L 346 777 L 352 791 L 354 796 L 355 799 L 356 805 L 357 810 L 355 808 L 354 806 L 352 800 L 351 798 L 347 792 L 346 790 L 345 787 L 343 777 L 341 773 Z
      M 589 772 L 589 769 L 593 770 Z
      M 359 765 L 360 767 L 361 768 L 360 775 L 358 770 Z
      M 653 765 L 671 764 L 679 765 L 682 766 L 684 767 L 684 770 L 679 770 L 678 769 L 672 769 L 665 768 L 661 766 Z
      M 620 764 L 622 763 L 628 764 L 634 763 L 636 764 L 636 767 Z
      M 939 761 L 940 765 L 938 771 L 934 782 L 932 784 L 932 781 L 934 773 L 936 770 Z
      M 931 759 L 932 762 L 931 763 L 931 766 L 930 769 L 928 774 L 927 775 L 926 777 L 925 774 L 926 771 L 928 768 L 929 765 L 929 762 L 930 761 Z
      M 933 755 L 933 758 L 932 760 L 931 757 Z
      M 346 754 L 347 756 L 348 757 L 348 760 L 350 763 L 349 771 L 347 767 L 346 764 L 346 759 L 345 758 Z
      M 415 752 L 416 759 L 415 763 L 413 759 L 412 754 Z
      M 777 746 L 779 745 L 782 748 L 780 749 Z
      M 940 744 L 941 748 L 940 752 L 937 757 L 936 754 L 937 751 Z
      M 773 742 L 775 741 L 777 746 Z
      M 328 739 L 330 743 L 331 749 L 333 752 L 336 766 L 339 773 L 341 780 L 341 785 L 343 790 L 342 794 L 341 792 L 340 791 L 336 782 L 333 771 L 329 763 L 326 751 L 326 747 L 325 746 L 325 743 L 327 743 Z
      M 337 725 L 340 732 L 343 744 L 344 750 L 343 756 L 342 754 L 341 753 L 340 749 L 338 740 L 338 735 L 336 730 Z
      M 941 724 L 942 728 L 940 735 L 937 742 L 936 738 L 938 731 Z
      M 332 721 L 334 726 L 333 731 L 331 726 Z
      M 887 717 L 888 720 L 887 721 L 886 724 L 885 720 L 886 719 Z
      M 329 708 L 331 712 L 332 717 L 331 722 L 329 717 L 329 713 L 328 712 Z
      M 437 702 L 439 709 L 436 709 Z
      M 488 703 L 489 701 L 491 703 Z
      M 343 699 L 344 701 L 345 702 L 346 705 L 347 711 L 346 719 L 344 714 L 343 709 L 343 704 L 342 703 Z
      M 483 698 L 484 696 L 486 698 Z
      M 943 693 L 945 697 L 944 702 L 942 710 L 939 717 L 938 724 L 936 728 L 935 724 L 936 723 L 936 719 L 938 715 L 938 711 L 940 707 L 941 702 L 941 696 L 942 695 Z
      M 939 685 L 940 690 L 939 694 L 938 695 L 937 697 L 936 693 L 938 689 Z
      M 965 684 L 966 689 L 964 694 L 962 706 L 962 713 L 961 719 L 959 725 L 957 730 L 950 744 L 948 752 L 947 753 L 946 755 L 945 752 L 946 751 L 947 747 L 948 738 L 952 722 L 958 701 L 962 694 L 964 688 Z
      M 316 676 L 317 679 L 320 682 L 321 686 L 322 689 L 324 701 L 324 707 L 325 708 L 324 714 L 323 712 L 322 711 L 320 704 L 319 700 L 317 691 L 316 686 L 316 681 L 315 680 Z
      M 806 675 L 807 677 L 805 679 L 804 677 Z
      M 335 670 L 338 670 L 339 674 L 339 679 L 341 683 L 343 692 L 342 700 L 340 695 L 340 691 L 337 683 L 336 678 Z
      M 812 666 L 813 668 L 812 670 L 810 672 L 809 670 L 810 668 Z
      M 944 661 L 945 666 L 944 667 L 943 672 L 942 666 Z
      M 969 659 L 970 665 L 968 671 L 967 679 L 965 678 L 963 686 L 962 689 L 961 691 L 958 694 L 957 697 L 954 708 L 953 702 L 954 697 L 958 682 L 963 669 L 964 660 L 965 662 L 968 662 Z
      M 361 637 L 363 639 L 362 647 L 360 639 Z
      M 317 612 L 318 620 L 320 632 L 323 642 L 324 647 L 325 653 L 326 665 L 329 676 L 330 682 L 329 688 L 327 684 L 324 675 L 321 663 L 318 648 L 317 641 L 315 623 L 315 614 Z
      M 643 600 L 645 598 L 651 599 L 649 601 L 644 602 Z
      M 640 600 L 638 602 L 629 602 L 623 600 Z
      M 704 594 L 701 597 L 689 600 L 675 599 L 677 598 L 678 597 L 684 597 L 696 594 L 701 593 Z
      M 589 595 L 590 592 L 592 593 L 597 596 L 594 597 L 593 596 Z
      M 482 591 L 483 595 L 481 593 Z
      M 848 590 L 849 593 L 847 595 L 847 592 Z
      M 405 589 L 407 591 L 408 593 L 407 596 L 404 591 Z
      M 891 588 L 892 591 L 890 593 L 890 590 Z
      M 568 589 L 571 588 L 572 589 L 575 589 L 582 591 L 584 595 L 580 594 L 571 591 L 570 590 Z
      M 547 586 L 550 585 L 551 586 L 553 587 L 550 588 L 549 587 Z
      M 298 585 L 299 586 L 300 585 L 300 604 L 298 596 L 297 589 Z
      M 738 585 L 736 587 L 729 590 L 729 587 L 735 584 Z
      M 645 580 L 647 582 L 647 583 L 650 586 L 654 588 L 644 588 Z
      M 694 578 L 696 583 L 694 585 L 690 586 L 686 585 Z
      M 590 577 L 592 579 L 596 584 L 593 585 L 589 583 Z
      M 752 577 L 751 579 L 750 580 L 749 580 L 747 582 L 741 585 L 737 584 L 739 582 L 743 581 L 748 578 Z
      M 638 576 L 640 580 L 639 589 L 635 589 L 634 588 L 629 587 L 634 584 L 636 581 L 637 579 Z
      M 700 575 L 702 579 L 706 582 L 699 582 Z
      M 648 574 L 649 576 L 649 579 L 647 577 Z
      M 584 572 L 584 583 L 581 583 L 580 582 L 575 581 L 578 580 L 582 576 Z
      M 857 570 L 858 575 L 857 579 L 855 581 L 854 579 L 855 574 Z
      M 694 568 L 695 572 L 693 576 L 692 572 Z
      M 499 567 L 501 566 L 503 567 L 504 568 L 508 569 L 519 575 L 523 578 L 525 580 L 523 581 L 511 575 L 508 572 L 505 572 L 501 569 Z
      M 973 561 L 974 571 L 973 578 L 971 584 L 970 590 L 972 594 L 972 597 L 970 608 L 967 618 L 966 624 L 966 629 L 968 629 L 968 626 L 969 625 L 971 615 L 972 602 L 974 595 L 975 609 L 974 623 L 971 639 L 967 652 L 966 657 L 963 656 L 961 654 L 962 648 L 964 641 L 964 630 L 964 632 L 963 633 L 963 639 L 962 645 L 960 650 L 959 656 L 959 661 L 957 668 L 956 660 L 957 659 L 958 650 L 958 638 L 961 624 L 963 621 L 964 618 L 967 599 L 968 595 L 969 594 L 969 592 L 967 594 L 965 601 L 965 606 L 963 612 L 962 601 L 965 590 L 968 583 L 970 576 L 971 571 L 971 567 Z
      M 745 556 L 747 559 L 748 562 L 750 564 L 752 565 L 750 566 L 749 567 L 747 567 L 744 570 L 738 571 L 740 569 L 742 566 L 744 560 Z
      M 535 556 L 537 562 L 539 565 L 539 570 L 537 570 L 526 565 L 529 564 L 534 559 Z
      M 306 545 L 308 549 L 308 555 L 310 560 L 313 581 L 312 609 L 312 616 L 313 617 L 313 624 L 311 627 L 311 630 L 312 631 L 311 636 L 309 631 L 307 621 L 307 613 L 306 604 L 303 601 L 303 582 L 305 568 Z
      M 861 543 L 859 551 L 859 547 Z
      M 789 545 L 784 549 L 776 552 L 779 549 L 781 544 L 783 540 L 785 542 L 785 543 Z
      M 490 544 L 494 543 L 496 540 L 497 544 L 499 548 L 500 552 L 497 549 L 492 546 Z
      M 966 534 L 966 549 L 967 557 L 967 561 L 966 570 L 965 576 L 963 583 L 962 570 L 963 557 L 964 546 Z
      M 972 532 L 973 538 L 975 541 L 975 543 L 974 549 L 972 554 L 971 560 L 970 552 Z
      M 444 529 L 445 533 L 443 531 Z
      M 827 526 L 828 528 L 824 532 L 823 530 Z
      M 450 525 L 451 529 L 449 527 Z
      M 867 521 L 868 524 L 867 525 L 866 527 L 865 524 L 866 523 Z
      M 693 520 L 697 520 L 696 529 L 695 524 Z
      M 593 521 L 595 520 L 600 520 L 606 517 L 613 517 L 617 519 L 609 520 L 602 523 L 608 523 L 627 522 L 626 520 L 628 519 L 633 520 L 635 522 L 635 524 L 637 526 L 637 528 L 636 530 L 637 564 L 634 578 L 633 580 L 630 583 L 628 584 L 619 585 L 611 585 L 601 581 L 598 579 L 595 576 L 593 572 L 592 569 L 592 565 L 590 561 L 589 555 L 589 530 L 590 526 L 592 522 Z
      M 463 516 L 464 520 L 462 518 Z
      M 736 517 L 738 519 L 740 523 L 740 528 L 742 532 L 742 540 L 740 553 L 739 558 L 738 561 L 736 565 L 728 573 L 722 576 L 717 578 L 709 578 L 706 577 L 703 574 L 701 570 L 700 564 L 701 557 L 704 561 L 704 558 L 702 556 L 701 543 L 703 535 L 703 524 L 705 520 L 707 518 L 711 517 L 719 517 L 723 515 L 730 515 L 734 517 L 731 518 L 732 520 L 733 520 L 735 521 L 735 519 L 733 518 Z
      M 667 514 L 674 514 L 676 516 L 682 517 L 658 518 L 656 519 L 656 521 L 665 522 L 678 522 L 681 521 L 681 520 L 687 519 L 689 521 L 690 523 L 693 533 L 693 554 L 690 568 L 688 575 L 686 579 L 682 583 L 679 585 L 676 586 L 671 587 L 665 587 L 661 585 L 655 585 L 652 583 L 650 581 L 649 579 L 651 578 L 651 576 L 648 572 L 647 575 L 646 569 L 644 563 L 645 528 L 646 525 L 648 521 L 652 517 L 655 516 Z
      M 572 515 L 579 515 L 577 518 L 575 516 Z
      M 545 516 L 551 514 L 556 514 L 559 516 L 568 516 L 572 518 L 573 522 L 575 522 L 577 521 L 579 523 L 579 537 L 581 554 L 581 570 L 580 572 L 576 576 L 574 577 L 568 578 L 563 578 L 559 577 L 555 575 L 545 565 L 543 562 L 540 553 L 539 549 L 538 542 L 538 533 L 540 524 L 543 518 Z
      M 702 513 L 707 513 L 704 515 Z
      M 507 511 L 509 515 L 512 515 L 520 514 L 522 512 L 524 514 L 525 514 L 529 518 L 530 520 L 530 531 L 532 540 L 532 552 L 531 556 L 527 560 L 521 560 L 515 557 L 512 555 L 505 548 L 503 544 L 500 533 L 499 523 L 500 519 L 502 515 L 505 512 Z
      M 436 511 L 438 514 L 439 517 L 442 522 L 444 527 L 443 530 L 441 528 L 440 526 L 440 524 L 438 522 L 437 520 L 435 514 Z
      M 774 511 L 778 515 L 779 520 L 779 527 L 778 535 L 777 540 L 775 546 L 773 550 L 771 553 L 769 555 L 767 553 L 763 555 L 761 557 L 759 558 L 757 558 L 756 559 L 754 560 L 758 561 L 753 562 L 751 560 L 749 556 L 749 538 L 751 526 L 753 519 L 755 525 L 755 523 L 756 522 L 756 517 L 754 519 L 754 514 L 756 513 L 758 513 L 759 515 L 763 515 L 764 514 L 766 514 L 765 512 L 763 511 L 771 510 Z
      M 527 511 L 531 511 L 530 514 Z
      M 737 510 L 744 510 L 743 514 Z
      M 509 510 L 517 509 L 518 510 L 520 511 L 515 512 L 514 511 Z
      M 478 505 L 484 505 L 487 507 L 489 509 L 486 510 L 486 512 L 489 517 L 491 512 L 492 523 L 493 524 L 493 534 L 492 536 L 490 538 L 488 538 L 485 537 L 481 535 L 477 531 L 475 528 L 472 523 L 471 521 L 471 511 L 472 509 L 476 508 L 474 511 L 474 513 L 478 510 L 480 510 L 480 508 L 475 507 L 477 506 Z
      M 805 505 L 807 507 L 808 509 L 809 513 L 809 517 L 807 523 L 803 529 L 795 537 L 793 538 L 787 538 L 787 530 L 788 516 L 790 515 L 790 512 L 789 514 L 788 510 L 791 507 L 793 506 L 800 506 L 796 505 L 802 504 Z
      M 787 504 L 788 506 L 786 508 L 785 506 Z
      M 809 502 L 812 502 L 811 505 Z
      M 451 501 L 454 499 L 456 501 L 457 504 L 459 504 L 461 503 L 463 505 L 464 508 L 462 510 L 463 513 L 461 514 L 459 512 L 459 511 L 456 508 L 455 505 L 452 503 Z
      M 828 499 L 825 509 L 822 510 L 819 514 L 818 517 L 814 518 L 814 516 L 816 509 L 817 503 L 820 503 L 821 502 L 825 501 L 824 499 Z
      M 832 497 L 835 498 L 835 501 L 832 504 L 830 499 Z
      M 442 498 L 446 498 L 445 501 Z
      M 850 497 L 849 500 L 846 503 L 845 501 L 847 497 Z
      M 705 495 L 706 493 L 708 495 Z
      M 588 492 L 590 495 L 587 495 Z
      M 697 491 L 698 494 L 694 494 Z
      M 577 491 L 578 494 L 576 496 L 573 495 L 576 493 Z
      M 751 493 L 752 490 L 756 491 L 758 493 Z
      M 960 484 L 962 492 L 961 513 L 959 499 Z
      M 841 480 L 845 480 L 845 483 L 841 482 L 842 481 Z
      M 442 478 L 443 481 L 443 484 L 438 482 L 440 481 L 441 480 Z
      M 311 478 L 312 489 L 311 490 L 312 501 L 310 516 L 309 489 Z
      M 847 467 L 847 471 L 845 469 Z
      M 454 466 L 458 466 L 459 470 L 457 472 L 459 472 L 460 469 L 462 476 L 458 482 L 458 485 L 460 484 L 460 487 L 455 487 L 450 483 L 451 481 L 449 482 L 447 480 L 448 474 L 452 473 L 452 472 L 453 470 L 451 469 Z
      M 821 464 L 823 465 L 826 468 L 830 473 L 829 475 L 831 477 L 831 482 L 830 484 L 826 484 L 823 487 L 816 486 L 817 482 L 819 480 L 817 479 L 817 477 L 819 471 L 821 474 L 822 472 L 822 468 L 820 469 L 819 471 L 818 468 L 819 466 Z
      M 460 460 L 460 464 L 458 462 Z
      M 444 454 L 444 457 L 443 457 L 441 459 L 437 459 L 439 457 L 442 455 Z
      M 453 453 L 454 455 L 450 459 L 447 460 L 445 462 L 443 463 L 443 459 L 447 458 L 450 455 L 451 455 Z
      M 795 452 L 799 452 L 802 453 L 806 455 L 809 458 L 811 462 L 812 467 L 812 477 L 811 481 L 810 484 L 808 486 L 806 483 L 805 486 L 807 487 L 803 489 L 795 488 L 797 486 L 795 485 L 793 485 L 790 487 L 790 486 L 788 484 L 788 478 L 789 468 L 790 462 L 792 456 L 793 454 Z
      M 476 452 L 483 452 L 486 455 L 488 459 L 486 460 L 486 463 L 487 465 L 489 466 L 490 468 L 491 480 L 491 486 L 488 489 L 483 490 L 479 489 L 476 488 L 474 487 L 472 485 L 471 485 L 471 482 L 473 483 L 473 481 L 471 479 L 469 481 L 467 476 L 467 466 L 469 460 L 471 456 L 475 455 L 473 458 L 475 458 L 481 454 L 474 454 Z
      M 820 447 L 831 462 L 828 460 L 821 454 L 819 452 L 819 450 Z
      M 788 443 L 790 444 L 795 447 L 793 448 L 792 450 L 789 454 L 788 447 L 786 444 Z
      M 489 442 L 490 446 L 489 447 L 488 451 L 485 448 L 481 447 L 485 444 Z
      M 802 442 L 804 441 L 806 446 Z
      M 340 440 L 341 447 L 339 452 L 338 444 Z
      M 958 437 L 960 443 L 964 467 L 963 479 L 961 475 L 960 469 L 960 461 L 958 455 L 957 443 Z
      M 476 438 L 473 441 L 473 442 L 470 445 L 467 447 L 464 445 L 468 441 Z
      M 766 435 L 770 436 L 768 438 L 765 438 L 765 440 L 770 439 L 773 440 L 775 441 L 776 438 L 778 439 L 782 443 L 785 449 L 786 452 L 786 462 L 785 477 L 783 484 L 782 486 L 778 490 L 776 491 L 772 492 L 763 491 L 771 489 L 766 488 L 763 489 L 761 491 L 758 489 L 756 489 L 754 487 L 755 463 L 756 451 L 757 446 L 758 442 L 759 440 L 763 436 Z
      M 505 436 L 507 436 L 518 437 L 519 434 L 521 435 L 525 439 L 526 441 L 526 449 L 527 458 L 528 476 L 527 484 L 528 488 L 528 490 L 527 492 L 521 492 L 524 491 L 526 489 L 523 489 L 520 490 L 513 491 L 509 491 L 506 490 L 500 487 L 499 486 L 498 484 L 496 478 L 495 472 L 495 454 L 496 449 L 500 441 Z
      M 314 431 L 315 435 L 314 436 L 313 441 L 313 446 L 311 451 L 310 457 L 310 466 L 309 473 L 307 480 L 306 488 L 304 464 L 304 462 L 305 461 L 306 454 L 309 444 Z
      M 764 431 L 762 433 L 757 436 L 756 433 L 757 432 L 759 428 Z
      M 746 423 L 751 425 L 753 427 L 752 442 L 750 440 L 750 432 L 749 429 L 744 424 Z
      M 723 422 L 725 422 L 731 423 L 735 425 L 739 429 L 741 428 L 743 430 L 745 434 L 745 446 L 747 450 L 748 454 L 748 468 L 746 479 L 745 483 L 743 488 L 739 489 L 740 484 L 737 487 L 736 490 L 738 491 L 735 493 L 733 494 L 725 495 L 722 493 L 718 492 L 710 492 L 706 490 L 705 465 L 705 461 L 707 441 L 709 431 L 711 427 L 715 423 Z
      M 500 423 L 496 427 L 493 425 L 496 424 Z
      M 426 422 L 427 425 L 425 427 L 425 424 Z
      M 773 422 L 775 421 L 777 422 L 781 425 L 786 429 L 785 432 L 782 430 L 778 427 Z
      M 555 420 L 561 420 L 566 421 L 570 423 L 572 425 L 574 428 L 576 435 L 576 449 L 578 461 L 578 480 L 576 484 L 576 488 L 575 490 L 574 491 L 572 492 L 571 490 L 564 493 L 559 494 L 552 494 L 550 492 L 550 491 L 547 490 L 542 487 L 540 487 L 539 490 L 538 488 L 537 487 L 535 478 L 534 471 L 534 450 L 537 437 L 540 431 L 542 428 L 547 423 L 551 421 Z
      M 543 421 L 540 423 L 535 425 L 533 427 L 531 431 L 529 437 L 528 433 L 526 431 L 526 426 L 528 425 L 533 424 L 535 422 L 537 421 L 540 420 Z
      M 511 418 L 509 420 L 502 423 L 499 422 L 503 420 L 506 418 Z
      M 716 416 L 718 418 L 714 419 L 712 420 L 708 424 L 705 430 L 703 420 L 704 414 L 707 414 L 708 415 L 712 415 Z
      M 566 417 L 570 415 L 576 414 L 580 415 L 580 424 L 578 429 L 576 426 L 575 423 L 574 421 L 573 420 L 572 420 L 570 418 Z
      M 689 413 L 694 412 L 700 414 L 699 426 L 698 423 L 695 418 Z
      M 677 412 L 679 414 L 682 414 L 687 416 L 690 418 L 693 421 L 695 425 L 698 435 L 699 440 L 700 448 L 700 468 L 697 482 L 696 485 L 694 489 L 693 490 L 692 490 L 690 492 L 681 495 L 675 496 L 667 496 L 655 495 L 652 494 L 650 493 L 649 492 L 649 482 L 648 488 L 646 484 L 645 467 L 645 454 L 647 452 L 647 439 L 648 435 L 651 426 L 654 420 L 659 415 L 665 413 L 671 412 Z
      M 608 412 L 615 412 L 619 414 L 623 414 L 627 416 L 630 419 L 633 425 L 635 431 L 636 437 L 637 451 L 637 473 L 636 482 L 635 484 L 634 485 L 633 485 L 632 488 L 634 487 L 635 485 L 636 490 L 634 492 L 631 493 L 628 493 L 625 495 L 618 497 L 608 496 L 614 493 L 604 492 L 601 492 L 602 494 L 597 494 L 594 492 L 591 492 L 589 490 L 586 484 L 585 480 L 583 465 L 583 452 L 584 444 L 587 430 L 589 426 L 591 424 L 592 427 L 595 425 L 595 424 L 597 421 L 595 421 L 593 423 L 592 421 L 597 416 L 601 414 Z
      M 594 413 L 590 415 L 588 417 L 588 418 L 586 420 L 586 413 L 588 412 Z
      M 532 412 L 528 416 L 523 415 L 526 414 L 528 412 Z
      M 341 410 L 342 415 L 341 420 L 340 421 L 339 423 L 338 420 L 339 414 Z
      M 659 411 L 656 412 L 650 416 L 649 419 L 648 420 L 647 424 L 646 425 L 645 427 L 644 412 L 645 410 L 648 409 L 652 412 L 654 410 Z
      M 624 410 L 640 410 L 639 428 L 637 422 L 636 420 L 634 417 L 631 414 L 627 411 Z
      M 531 411 L 533 410 L 536 410 L 534 412 Z
      M 420 409 L 421 411 L 420 413 L 418 415 L 417 413 L 418 411 Z
      M 554 406 L 552 408 L 548 409 L 544 412 L 542 413 L 539 414 L 536 413 L 539 411 L 544 408 L 550 405 Z
      M 704 406 L 706 404 L 711 405 L 712 406 L 714 407 L 710 408 L 706 407 Z
      M 565 406 L 567 405 L 568 404 L 571 403 L 578 404 L 576 406 L 569 407 Z
      M 312 403 L 313 411 L 312 412 L 313 417 L 314 415 L 315 418 L 314 421 L 313 425 L 307 440 L 307 443 L 305 447 L 304 441 L 305 440 L 305 434 L 306 429 L 309 419 L 310 408 Z
      M 721 403 L 725 402 L 729 403 L 736 406 L 733 407 L 735 408 L 736 409 L 739 410 L 742 410 L 744 411 L 748 414 L 750 415 L 751 418 L 748 416 L 746 416 L 737 412 L 724 406 Z
      M 587 401 L 591 400 L 601 401 L 597 403 L 592 402 L 589 403 Z
      M 616 399 L 617 397 L 633 399 L 621 401 L 618 401 Z
      M 678 400 L 669 401 L 652 399 L 654 398 L 655 397 L 667 396 L 675 398 L 676 399 Z
      M 321 396 L 322 402 L 321 405 L 319 407 L 315 416 L 314 413 L 315 412 L 315 408 L 316 406 L 319 402 Z
      M 945 395 L 946 398 L 947 399 L 946 402 L 945 400 L 944 399 Z
      M 844 394 L 845 397 L 844 401 L 843 399 L 842 398 L 842 396 Z
      M 648 394 L 646 395 L 644 397 L 643 399 L 643 393 Z
      M 630 394 L 638 394 L 637 397 L 634 396 Z
      M 963 387 L 965 392 L 966 398 L 967 422 L 966 435 L 966 449 L 964 444 L 964 440 L 961 431 L 960 426 L 960 421 L 959 420 L 960 415 L 961 418 L 963 420 L 963 412 L 961 408 L 960 398 L 960 396 L 962 394 Z
      M 346 376 L 347 379 L 346 380 L 346 383 L 342 392 L 341 388 L 344 379 L 345 378 Z
      M 310 376 L 311 380 L 310 381 L 309 390 L 308 396 L 306 401 L 305 396 L 306 395 L 307 384 L 308 380 Z
      M 392 374 L 393 377 L 392 378 L 391 380 L 390 377 L 391 376 Z
      M 952 372 L 954 376 L 958 391 L 957 400 L 955 395 L 953 381 L 951 376 Z
      M 945 369 L 946 371 L 947 372 L 948 375 L 951 387 L 952 393 L 950 394 L 948 392 L 947 389 L 946 384 L 946 379 L 945 374 L 944 373 Z
      M 950 366 L 951 369 L 952 370 L 951 373 L 950 371 L 949 370 Z
      M 331 365 L 332 370 L 326 383 L 325 387 L 324 382 L 325 379 L 328 371 Z
      M 938 360 L 940 364 L 941 369 L 940 374 L 938 369 L 938 365 L 937 364 Z
      M 398 357 L 399 360 L 397 362 L 397 359 Z
      M 336 354 L 337 359 L 335 364 L 334 357 L 335 356 Z
      M 857 344 L 860 344 L 859 348 Z
      M 496 343 L 493 346 L 492 344 Z
      M 939 337 L 940 339 L 941 340 L 944 349 L 945 353 L 944 364 L 943 354 L 940 347 L 940 344 L 938 340 Z
      M 934 336 L 935 338 L 936 339 L 935 342 L 934 340 L 933 339 Z
      M 554 330 L 553 332 L 552 333 L 549 335 L 549 331 L 550 330 Z
      M 332 329 L 333 334 L 330 341 L 321 367 L 313 392 L 312 388 L 313 387 L 314 382 L 314 377 L 317 367 L 317 361 L 319 355 L 321 350 L 324 346 Z
      M 354 319 L 355 322 L 351 334 L 345 348 L 342 358 L 341 354 L 342 350 L 344 344 L 348 335 L 348 332 L 351 324 Z
      M 927 318 L 930 324 L 932 330 L 931 333 L 930 331 L 929 330 L 927 325 L 926 322 Z
      M 340 318 L 341 322 L 340 326 L 339 329 L 338 330 L 337 332 L 336 329 L 337 328 L 337 325 Z
      M 933 314 L 935 316 L 938 321 L 937 325 L 935 322 L 932 316 Z
      M 925 313 L 926 315 L 927 316 L 926 319 L 925 317 L 924 316 Z
      M 557 312 L 558 314 L 556 316 L 555 314 Z
      M 783 310 L 783 319 L 782 317 L 781 316 L 781 314 L 782 313 Z
      M 389 309 L 390 311 L 389 313 L 384 315 L 385 313 Z
      M 360 299 L 361 301 L 360 308 L 355 320 L 354 316 L 350 319 L 349 317 L 351 313 L 353 311 L 356 304 L 358 301 Z
      M 464 296 L 465 298 L 463 301 L 455 309 L 454 306 L 455 304 L 461 298 L 462 298 Z
      M 362 296 L 363 298 L 361 300 L 360 298 Z
      M 513 295 L 514 297 L 512 299 L 512 300 L 509 300 L 510 298 Z
      M 397 292 L 398 296 L 395 301 L 394 304 L 389 304 L 390 302 L 393 297 L 395 294 Z
      M 342 289 L 343 293 L 341 298 L 337 307 L 336 310 L 335 316 L 323 341 L 319 348 L 318 345 L 320 341 L 322 334 L 323 330 L 323 325 L 326 314 L 331 301 L 332 300 L 333 298 L 334 302 L 333 303 L 333 307 L 335 306 L 337 302 L 338 297 Z
      M 930 287 L 934 291 L 936 294 L 937 297 L 938 298 L 939 298 L 941 300 L 945 313 L 948 328 L 950 335 L 953 342 L 954 349 L 957 356 L 957 361 L 961 375 L 960 383 L 957 379 L 956 376 L 953 362 L 952 359 L 949 353 L 947 347 L 946 343 L 944 330 L 943 326 L 939 315 L 938 311 L 938 303 L 937 302 L 937 300 L 935 300 L 933 302 L 932 300 L 931 299 L 931 295 L 929 291 Z
      M 925 285 L 926 287 L 927 288 L 928 291 L 927 294 L 926 292 L 925 291 L 924 288 Z
      M 829 281 L 830 283 L 831 284 L 830 287 L 829 285 L 828 284 Z
      M 371 280 L 372 282 L 371 284 L 369 286 L 368 289 L 366 291 L 365 289 L 367 285 L 369 282 Z
      M 921 275 L 922 277 L 923 278 L 922 281 L 921 279 L 920 278 Z
      M 377 274 L 376 276 L 373 279 L 372 277 L 374 275 L 374 274 Z
      M 919 271 L 921 273 L 920 276 L 919 274 Z
      M 790 268 L 791 272 L 789 270 Z
      M 390 266 L 391 268 L 389 272 L 387 275 L 384 278 L 383 276 L 385 274 L 386 271 L 388 268 Z
      M 875 265 L 876 267 L 876 270 L 874 268 Z
      M 609 266 L 607 270 L 603 271 L 604 269 L 606 267 L 606 266 Z
      M 534 264 L 535 266 L 530 268 Z
      M 382 264 L 383 266 L 381 268 L 380 266 Z
      M 873 261 L 875 263 L 874 266 L 873 264 Z
      M 906 259 L 908 261 L 910 264 L 913 272 L 916 275 L 916 277 L 918 279 L 921 287 L 924 296 L 923 299 L 922 297 L 921 296 L 919 288 L 917 283 L 914 277 L 905 261 Z
      M 908 256 L 909 260 L 907 258 Z
      M 895 256 L 897 258 L 899 262 L 902 269 L 904 274 L 903 277 L 901 274 L 898 268 L 896 261 L 894 258 Z
      M 749 256 L 750 260 L 748 258 Z
      M 905 251 L 907 253 L 907 257 L 905 255 L 904 253 Z
      M 875 251 L 877 253 L 876 257 L 875 255 L 874 254 Z
      M 595 251 L 596 253 L 593 257 L 590 256 Z
      M 639 243 L 642 247 L 638 248 Z
      M 893 242 L 895 244 L 896 246 L 896 248 L 897 253 L 895 251 L 894 249 L 894 247 L 892 244 Z
      M 870 242 L 872 244 L 872 248 L 870 246 L 869 244 Z
      M 878 241 L 879 245 L 877 243 Z
      M 380 241 L 381 243 L 380 249 L 375 256 L 370 261 L 367 267 L 364 274 L 363 281 L 355 296 L 354 301 L 353 303 L 350 307 L 347 314 L 346 318 L 344 320 L 344 314 L 345 311 L 351 297 L 351 293 L 350 295 L 348 297 L 347 295 L 350 289 L 354 283 L 355 281 L 355 279 L 362 267 L 363 263 L 361 264 L 360 267 L 358 270 L 355 273 L 353 276 L 351 281 L 349 283 L 348 281 L 349 275 L 350 273 L 354 267 L 362 258 L 369 251 L 370 253 L 370 258 L 370 256 L 373 250 L 377 244 Z
      M 394 239 L 395 242 L 396 244 L 391 249 L 381 262 L 378 269 L 376 272 L 368 280 L 364 286 L 362 290 L 361 287 L 365 279 L 372 268 L 376 262 L 383 252 L 392 241 Z
      M 885 237 L 886 241 L 884 239 Z
      M 379 234 L 380 236 L 378 238 L 377 236 Z
      M 891 233 L 893 238 L 890 235 Z
      M 811 231 L 813 233 L 815 236 L 816 238 L 816 240 L 817 245 L 815 243 L 813 237 L 811 235 L 810 233 Z
      M 425 230 L 426 232 L 422 236 L 421 234 Z
      M 870 229 L 871 233 L 869 231 Z
      M 383 229 L 384 231 L 381 234 L 380 232 Z
      M 876 223 L 877 227 L 875 225 Z
      M 646 224 L 644 226 L 640 225 L 643 224 Z
      M 800 217 L 801 221 L 799 219 Z
      M 680 217 L 682 219 L 683 221 L 682 224 L 680 222 Z
      M 772 215 L 773 219 L 771 217 Z
      M 382 214 L 383 219 L 384 219 L 385 221 L 381 225 L 377 233 L 368 245 L 363 250 L 360 255 L 356 259 L 355 256 L 357 252 L 362 245 L 367 234 L 371 228 L 376 221 L 379 217 Z
      M 392 212 L 393 214 L 388 219 L 387 217 Z
      M 380 212 L 381 214 L 379 216 L 378 214 Z
      M 400 210 L 401 212 L 399 216 L 396 220 L 390 225 L 390 223 L 389 225 L 384 230 L 383 228 L 386 224 L 390 221 Z
      M 444 209 L 445 212 L 438 216 L 441 213 L 441 212 Z
      M 866 209 L 868 207 L 870 209 L 874 214 L 874 215 L 876 217 L 874 218 L 872 216 Z
      M 415 209 L 413 212 L 412 215 L 411 216 L 410 216 L 409 217 L 401 227 L 390 238 L 389 235 L 390 233 L 394 229 L 400 219 L 409 210 Z
      M 857 205 L 863 214 L 856 207 Z
      M 434 204 L 435 206 L 428 210 Z
      M 416 204 L 417 206 L 415 208 L 414 206 Z
      M 454 201 L 455 203 L 451 207 L 450 205 Z
      M 423 201 L 424 203 L 415 212 L 414 210 L 417 206 L 421 202 Z
      M 413 198 L 414 200 L 407 207 L 406 205 L 407 203 L 410 200 L 411 200 Z
      M 417 194 L 418 196 L 414 197 Z
      M 721 193 L 723 198 L 720 195 Z
      M 862 192 L 863 196 L 861 194 Z
      M 834 187 L 838 191 L 838 192 L 840 194 L 838 195 L 836 194 L 834 192 L 833 190 Z
      M 761 187 L 766 191 L 768 193 L 767 196 L 765 194 L 764 194 L 762 192 L 760 189 Z
      M 622 187 L 622 190 L 619 189 Z
      M 411 185 L 412 187 L 407 193 L 396 205 L 391 210 L 390 208 L 392 204 L 397 196 L 400 193 L 402 194 L 408 187 L 409 187 Z
      M 418 184 L 419 186 L 417 188 L 416 186 Z
      M 824 184 L 826 183 L 828 188 Z
      M 433 180 L 426 187 L 425 186 L 420 188 L 425 183 L 426 184 Z
      M 818 179 L 820 178 L 822 180 L 820 181 Z
      M 553 179 L 550 181 L 546 183 L 534 187 L 536 185 L 541 183 L 550 178 Z
      M 607 178 L 609 177 L 610 176 L 613 177 L 611 178 L 610 179 Z
      M 814 176 L 816 175 L 818 177 L 816 178 Z
      M 658 176 L 659 174 L 661 174 L 663 176 Z
      M 612 176 L 614 175 L 615 174 L 619 175 L 617 176 L 616 177 Z
      M 826 171 L 828 170 L 830 172 L 828 173 Z
      M 432 171 L 429 174 L 429 175 L 419 185 L 418 183 L 420 180 Z
      M 788 165 L 790 164 L 793 167 L 791 168 Z
      M 561 165 L 559 165 L 554 166 L 556 164 L 558 163 Z
      M 827 157 L 829 159 L 830 159 L 834 162 L 837 165 L 842 173 L 849 180 L 854 186 L 856 189 L 856 193 L 848 185 L 839 172 L 826 159 Z
      M 798 158 L 803 158 L 809 161 L 812 163 L 817 167 L 825 175 L 825 179 L 822 176 L 822 175 L 818 171 L 814 168 L 811 166 L 809 166 L 807 165 L 803 161 L 800 160 Z
      M 835 157 L 837 156 L 840 159 L 838 160 Z
      M 580 157 L 576 158 L 570 161 L 568 158 L 571 157 L 575 156 Z
      M 662 150 L 665 150 L 670 151 L 671 152 L 673 153 L 670 154 L 663 152 Z
      M 465 150 L 452 163 L 438 170 L 449 159 L 454 155 Z
      M 819 149 L 821 148 L 823 150 L 821 151 Z
      M 804 148 L 806 147 L 810 150 L 812 152 L 809 153 Z
      M 643 148 L 655 150 L 651 150 Z
      M 585 147 L 580 149 L 575 148 L 580 146 Z
      M 794 143 L 796 142 L 798 144 L 796 145 Z
      M 622 141 L 614 142 L 609 144 L 603 145 L 595 145 L 590 147 L 584 146 L 588 145 L 593 143 L 596 143 L 608 139 L 620 139 Z
      M 799 138 L 801 137 L 803 139 L 801 140 Z
      M 723 133 L 726 132 L 731 135 L 728 136 Z
      M 523 132 L 525 130 L 528 131 L 526 132 Z
      M 709 130 L 712 129 L 714 131 L 711 131 Z
      M 786 129 L 788 128 L 790 129 L 793 131 L 797 134 L 800 137 L 798 138 L 792 134 L 788 131 Z
      M 527 130 L 529 128 L 532 129 L 530 130 Z
      M 783 127 L 785 126 L 787 128 L 785 129 Z
      M 690 125 L 693 125 L 696 126 L 699 126 L 703 128 L 697 129 L 694 128 L 692 127 Z
      M 697 123 L 701 122 L 708 125 L 704 126 Z
      M 493 122 L 494 125 L 491 128 L 488 130 L 483 133 L 476 137 L 474 138 L 471 137 L 478 132 L 481 131 L 484 129 L 491 123 Z
      M 790 122 L 792 121 L 796 123 L 808 131 L 813 135 L 816 139 L 817 140 L 825 146 L 833 154 L 831 155 L 827 153 L 826 152 L 825 150 L 820 147 L 813 141 L 811 139 L 811 138 L 810 137 L 806 134 L 800 131 L 794 126 Z
      M 669 119 L 672 118 L 673 119 L 677 119 L 684 122 L 689 123 L 685 124 L 684 125 L 682 125 L 676 123 L 671 121 Z
      M 523 117 L 519 119 L 513 124 L 510 126 L 503 129 L 498 133 L 494 133 L 496 131 L 500 128 L 504 126 L 508 122 L 520 116 Z
      M 770 115 L 773 114 L 776 115 L 781 118 L 784 121 L 779 121 L 775 119 L 772 117 Z
      M 749 112 L 753 111 L 755 112 L 760 115 L 763 118 L 766 119 L 771 124 L 774 126 L 777 127 L 781 130 L 788 137 L 786 138 L 784 137 L 781 135 L 777 132 L 772 127 L 768 124 L 765 122 L 759 119 L 753 114 Z
      M 716 112 L 720 111 L 723 112 L 735 118 L 729 119 L 725 118 L 721 116 L 717 115 L 718 113 Z
      M 728 110 L 734 109 L 740 111 L 742 112 L 750 117 L 757 122 L 760 125 L 758 126 L 753 122 L 747 119 L 738 115 Z
      M 599 110 L 594 112 L 589 112 L 588 113 L 583 112 L 588 110 L 593 109 Z
      M 552 106 L 551 109 L 547 111 L 545 111 L 538 115 L 535 115 L 530 116 L 532 114 L 539 110 L 541 109 L 546 107 L 548 106 Z
      M 551 100 L 541 105 L 536 106 L 531 109 L 527 110 L 520 111 L 514 113 L 511 115 L 505 117 L 502 116 L 504 114 L 508 112 L 513 110 L 517 109 L 521 109 L 525 107 L 530 107 L 534 105 L 545 99 Z
      M 670 99 L 673 98 L 679 99 L 684 101 L 678 102 L 672 101 Z
      M 576 98 L 570 100 L 563 103 L 559 106 L 556 107 L 554 105 L 556 103 L 558 102 L 568 98 L 572 97 Z
      M 689 95 L 699 94 L 704 95 L 713 98 L 716 100 L 722 102 L 718 103 L 706 100 L 703 98 L 699 98 L 695 96 Z
      M 546 94 L 543 96 L 536 99 L 527 104 L 521 106 L 518 105 L 524 101 L 528 99 L 540 94 L 543 93 Z
      M 680 93 L 685 92 L 690 94 L 685 95 Z
      M 605 92 L 609 90 L 612 89 L 634 89 L 640 91 L 617 93 Z
      M 584 89 L 580 91 L 577 91 L 574 93 L 567 94 L 560 97 L 556 98 L 551 97 L 553 95 L 558 92 L 562 90 L 567 89 L 573 88 Z
      M 630 85 L 635 83 L 640 83 L 641 82 L 645 82 L 654 84 L 662 87 L 670 88 L 672 89 L 671 92 L 666 90 L 660 90 L 654 88 L 648 87 L 640 87 Z
      M 653 80 L 659 78 L 665 80 L 673 80 L 678 82 L 687 83 L 696 83 L 703 84 L 706 85 L 722 92 L 729 96 L 726 97 L 723 96 L 719 94 L 715 94 L 711 93 L 704 90 L 697 89 L 692 86 L 685 84 L 682 84 L 683 86 L 679 87 L 671 86 L 658 81 Z
      M 674 77 L 675 74 L 680 74 L 681 73 L 685 73 L 693 77 L 699 81 L 693 82 L 684 81 L 681 79 L 678 79 Z
    " fill="#000000" fill-rule="evenodd" clip-rule="evenodd"/>
</svg>
