<svg xmlns="http://www.w3.org/2000/svg" width="1254" height="1254" viewBox="0 0 1254 1254" fill="none">
  <rect width="1254" height="1254" fill="#fefefe"/>
  <path d="
      M 669 1111 L 673 1112 L 676 1109 L 672 1109 L 671 1110 Z
      M 622 964 L 620 964 L 614 967 L 619 968 L 621 967 Z
      M 648 961 L 648 963 L 652 967 L 656 967 L 659 969 L 665 969 L 668 967 L 671 963 L 668 963 L 666 965 L 662 966 L 657 967 L 655 966 L 652 963 Z
      M 599 961 L 600 964 L 601 964 L 603 965 L 603 963 Z
      M 551 950 L 551 953 L 553 955 L 559 959 L 562 960 L 569 958 L 571 960 L 574 959 L 574 955 L 572 957 L 570 957 L 568 959 L 563 958 L 561 956 L 557 956 L 555 954 L 555 953 Z
      M 720 946 L 712 954 L 706 956 L 700 956 L 701 959 L 707 959 L 709 958 L 714 955 L 719 950 L 720 948 Z
      M 532 937 L 530 939 L 529 942 L 529 945 L 532 944 Z
      M 628 907 L 628 911 L 630 911 L 630 909 Z
      M 664 906 L 673 904 L 666 904 Z
      M 787 902 L 785 903 L 785 905 L 782 908 L 781 911 L 778 915 L 774 919 L 777 919 L 779 917 L 780 917 L 781 916 L 781 915 L 785 910 L 786 908 L 787 905 Z
      M 547 904 L 556 903 L 555 901 L 550 901 L 548 902 Z
      M 512 898 L 514 898 L 515 899 L 518 899 L 518 897 L 516 896 Z
      M 514 874 L 515 876 L 520 874 Z
      M 700 876 L 704 878 L 709 878 L 710 874 L 707 875 L 704 873 L 702 873 Z
      M 764 835 L 765 838 L 769 844 L 769 840 L 767 836 Z
      M 758 832 L 756 831 L 753 831 L 751 833 L 750 833 L 749 837 L 751 835 L 751 834 L 753 832 Z
      M 519 831 L 517 832 L 519 835 Z
      M 510 830 L 506 830 L 504 832 L 503 832 L 502 833 L 500 837 L 500 841 L 502 840 L 502 838 L 504 835 L 507 832 L 508 832 Z
      M 723 820 L 728 824 L 725 820 Z
      M 706 819 L 704 821 L 703 824 L 703 828 L 705 828 L 706 822 Z
      M 553 815 L 550 815 L 546 816 L 541 821 L 542 825 L 543 822 L 546 820 L 549 817 L 552 818 L 554 817 Z
      M 622 813 L 625 818 L 624 813 Z
      M 677 811 L 677 814 L 681 819 L 682 821 L 682 818 L 681 815 L 680 813 Z
      M 653 810 L 650 812 L 649 814 L 649 817 L 651 816 L 651 815 Z
      M 590 817 L 595 810 L 590 814 Z
      M 428 645 L 434 652 L 437 654 L 448 660 L 452 662 L 457 664 L 461 665 L 469 666 L 473 665 L 473 663 L 466 663 L 461 662 L 457 661 L 454 660 L 449 658 L 442 654 L 439 652 L 436 649 L 433 648 L 430 645 Z
      M 525 644 L 520 645 L 517 647 L 513 651 L 508 654 L 498 658 L 497 659 L 496 661 L 501 660 L 504 659 L 509 657 L 517 653 L 521 650 L 525 646 Z
      M 438 626 L 438 628 L 440 630 L 440 631 L 441 632 L 444 632 L 442 630 L 442 629 Z
      M 541 607 L 538 609 L 538 613 L 536 620 L 535 623 L 531 631 L 528 634 L 525 639 L 527 639 L 529 637 L 533 632 L 536 628 L 538 625 L 539 623 L 539 621 L 541 619 L 542 615 Z
      M 434 606 L 433 609 L 435 611 Z
      M 808 567 L 808 569 L 813 574 L 813 572 L 812 570 L 810 568 Z
      M 460 564 L 458 564 L 456 566 L 458 566 Z
      M 759 561 L 755 563 L 750 569 L 754 566 L 757 565 L 759 564 Z
      M 456 543 L 453 543 L 448 545 L 446 546 L 443 548 L 440 552 L 442 552 L 448 548 L 453 546 L 455 545 Z
      M 467 540 L 461 543 L 467 544 L 465 546 L 460 548 L 455 549 L 446 554 L 439 559 L 426 572 L 422 578 L 420 584 L 420 586 L 422 586 L 422 584 L 425 579 L 428 576 L 429 578 L 427 580 L 424 588 L 422 602 L 422 610 L 423 617 L 425 620 L 424 625 L 420 615 L 417 604 L 416 594 L 414 600 L 414 616 L 416 624 L 418 629 L 421 634 L 423 636 L 423 634 L 421 632 L 420 629 L 421 625 L 423 629 L 428 636 L 435 643 L 447 653 L 455 657 L 462 659 L 468 660 L 486 660 L 490 657 L 497 655 L 499 653 L 501 653 L 509 648 L 514 644 L 523 635 L 527 629 L 533 617 L 533 614 L 536 609 L 537 604 L 537 594 L 535 590 L 535 582 L 532 576 L 523 564 L 523 560 L 519 556 L 519 555 L 511 548 L 503 544 L 497 544 L 492 541 L 487 540 Z
      M 446 648 L 449 647 L 451 649 L 453 650 L 461 653 L 465 654 L 469 654 L 475 656 L 466 657 L 461 656 L 456 654 L 448 650 Z
      M 528 587 L 530 591 L 529 603 L 527 591 Z
      M 533 586 L 535 591 L 532 591 Z
      M 521 567 L 523 572 L 520 569 Z
      M 518 563 L 520 568 L 517 565 Z
      M 515 560 L 516 558 L 518 560 Z
      M 468 554 L 480 554 L 484 555 L 491 558 L 493 562 L 495 563 L 497 563 L 499 561 L 501 563 L 500 565 L 503 568 L 508 572 L 511 570 L 516 576 L 515 581 L 520 582 L 522 587 L 522 590 L 524 593 L 524 598 L 522 600 L 523 609 L 521 614 L 521 621 L 518 626 L 516 625 L 514 627 L 513 629 L 514 633 L 508 639 L 503 639 L 499 642 L 495 646 L 490 648 L 488 646 L 483 648 L 472 650 L 469 648 L 460 648 L 458 647 L 456 645 L 459 644 L 460 645 L 463 644 L 459 643 L 458 642 L 456 642 L 455 644 L 453 642 L 444 636 L 442 636 L 436 630 L 434 627 L 429 617 L 427 608 L 427 600 L 428 595 L 430 588 L 433 584 L 434 587 L 433 588 L 434 592 L 435 590 L 435 588 L 438 583 L 438 580 L 434 581 L 436 577 L 439 574 L 439 573 L 441 571 L 443 570 L 445 571 L 447 570 L 455 562 L 458 561 L 464 560 L 468 557 L 464 556 Z
      M 463 550 L 467 549 L 468 548 L 472 549 L 468 551 Z
      M 471 545 L 473 544 L 474 543 L 490 543 L 494 544 L 497 545 L 504 549 L 507 552 L 503 553 L 500 551 L 497 550 L 492 551 L 483 548 L 478 548 Z
      M 524 420 L 522 418 L 514 422 L 513 424 L 515 424 L 516 423 L 519 423 L 521 421 Z
      M 731 379 L 730 381 L 732 384 L 733 387 L 736 389 L 735 386 Z
      M 558 379 L 554 385 L 553 389 L 552 391 L 546 399 L 546 400 L 545 401 L 544 401 L 542 403 L 537 409 L 536 409 L 532 414 L 534 414 L 537 412 L 539 410 L 539 409 L 541 407 L 546 403 L 550 398 L 554 392 L 556 388 L 558 382 Z
      M 560 371 L 558 371 L 558 376 L 559 374 L 560 373 Z
      M 310 342 L 308 343 L 306 348 L 305 355 L 302 362 L 301 366 L 301 370 L 299 374 L 298 378 L 298 383 L 301 381 L 302 378 L 305 368 L 306 364 L 307 356 L 309 352 L 309 348 L 310 345 Z
      M 762 297 L 760 298 L 760 301 L 768 302 L 762 304 L 758 303 L 753 304 L 747 307 L 741 308 L 733 314 L 733 316 L 719 331 L 711 346 L 712 354 L 710 360 L 710 367 L 712 366 L 713 363 L 714 367 L 712 369 L 711 372 L 711 378 L 714 390 L 716 394 L 718 396 L 718 393 L 717 392 L 718 389 L 720 392 L 720 395 L 723 402 L 726 407 L 728 409 L 734 411 L 739 417 L 746 420 L 753 420 L 765 423 L 778 423 L 795 416 L 799 413 L 804 414 L 815 404 L 824 393 L 826 387 L 826 384 L 824 384 L 823 388 L 813 403 L 808 405 L 811 402 L 819 388 L 820 382 L 822 379 L 822 376 L 827 366 L 828 373 L 830 368 L 828 365 L 828 343 L 826 339 L 826 342 L 825 343 L 826 359 L 824 364 L 823 352 L 821 344 L 820 343 L 821 340 L 823 343 L 823 336 L 821 331 L 818 328 L 814 319 L 811 315 L 802 307 L 800 306 L 797 306 L 791 303 L 792 305 L 798 308 L 804 313 L 805 313 L 807 315 L 809 321 L 801 314 L 795 310 L 787 306 L 781 305 L 777 303 L 782 302 L 783 303 L 786 303 L 785 300 L 774 298 L 768 298 L 767 297 Z
      M 725 402 L 727 401 L 732 406 L 735 408 L 739 411 L 745 411 L 751 414 L 755 415 L 761 416 L 769 417 L 774 417 L 773 420 L 758 420 L 753 419 L 746 416 L 742 415 L 740 416 L 736 413 L 733 411 L 726 404 Z
      M 812 393 L 813 395 L 812 397 L 810 400 L 807 404 L 804 407 L 798 411 L 795 412 L 792 411 L 797 408 L 802 404 L 807 399 L 807 398 Z
      M 735 326 L 736 328 L 734 330 L 733 328 Z
      M 759 309 L 776 310 L 776 313 L 780 313 L 785 314 L 784 313 L 789 313 L 799 320 L 809 331 L 808 333 L 809 335 L 813 338 L 813 341 L 815 344 L 817 352 L 817 360 L 816 365 L 814 367 L 814 369 L 816 371 L 816 375 L 815 378 L 809 389 L 807 391 L 806 389 L 804 389 L 802 391 L 800 394 L 801 397 L 796 402 L 791 406 L 787 408 L 784 407 L 778 410 L 775 410 L 774 412 L 765 412 L 761 413 L 759 410 L 757 410 L 756 409 L 753 409 L 750 406 L 743 403 L 740 401 L 737 402 L 733 398 L 727 389 L 724 382 L 723 376 L 721 374 L 720 372 L 719 368 L 721 363 L 720 358 L 720 356 L 722 352 L 722 349 L 723 346 L 731 331 L 733 329 L 734 333 L 738 328 L 736 325 L 738 323 L 743 319 L 745 318 L 749 318 L 754 315 L 753 313 L 751 312 L 755 310 Z
      M 377 194 L 368 200 L 363 208 L 363 211 L 362 213 L 358 218 L 349 234 L 341 250 L 337 261 L 333 270 L 331 272 L 327 281 L 321 297 L 316 306 L 316 309 L 313 314 L 312 317 L 311 322 L 311 324 L 313 324 L 313 322 L 315 320 L 316 318 L 317 313 L 320 308 L 322 300 L 324 295 L 326 293 L 330 282 L 333 278 L 335 271 L 340 260 L 358 224 L 364 214 L 369 208 L 370 205 L 373 202 L 375 199 Z
      M 605 73 L 553 82 L 548 88 L 572 87 L 489 125 L 503 122 L 479 138 L 426 152 L 432 143 L 405 163 L 410 167 L 462 147 L 425 174 L 439 156 L 376 220 L 366 236 L 402 202 L 335 286 L 364 249 L 328 312 L 283 443 L 277 489 L 282 466 L 286 641 L 277 604 L 276 618 L 306 738 L 305 757 L 333 853 L 373 939 L 371 943 L 362 927 L 367 947 L 393 985 L 381 958 L 443 1039 L 461 1054 L 452 1036 L 489 1074 L 490 1067 L 503 1078 L 496 1078 L 525 1100 L 530 1100 L 507 1078 L 586 1119 L 623 1113 L 672 1119 L 665 1124 L 671 1127 L 717 1107 L 693 1114 L 765 1077 L 753 1090 L 799 1054 L 790 1069 L 867 979 L 853 1015 L 879 971 L 932 832 L 920 891 L 941 829 L 936 836 L 932 828 L 955 761 L 940 820 L 960 765 L 961 754 L 955 759 L 983 634 L 978 621 L 963 681 L 974 566 L 973 626 L 981 560 L 983 571 L 986 526 L 977 560 L 976 497 L 979 479 L 983 503 L 984 478 L 975 421 L 978 468 L 972 502 L 964 422 L 967 432 L 945 326 L 903 224 L 924 285 L 844 170 L 866 180 L 884 202 L 868 176 L 852 161 L 855 175 L 812 146 L 803 146 L 755 100 L 767 102 L 750 91 L 740 91 L 770 118 L 689 85 L 682 86 L 690 92 L 639 96 L 587 84 Z
      M 570 1104 L 575 1103 L 578 1105 L 582 1105 L 584 1103 L 587 1104 L 591 1105 L 598 1108 L 602 1109 L 608 1110 L 603 1112 L 587 1113 L 581 1110 L 577 1107 Z
      M 625 1101 L 633 1101 L 631 1102 L 630 1103 L 627 1103 Z
      M 676 1103 L 671 1103 L 666 1105 L 661 1106 L 654 1106 L 648 1108 L 634 1110 L 623 1109 L 627 1108 L 632 1106 L 640 1106 L 644 1104 L 648 1103 L 661 1103 L 666 1102 L 670 1100 L 673 1099 L 675 1099 Z
      M 710 1100 L 708 1102 L 700 1107 L 693 1110 L 686 1115 L 684 1115 L 682 1117 L 680 1118 L 677 1118 L 676 1117 L 672 1117 L 668 1115 L 656 1115 L 651 1113 L 645 1112 L 649 1110 L 655 1109 L 660 1109 L 678 1105 L 688 1102 L 696 1098 L 700 1099 L 695 1102 L 688 1105 L 683 1106 L 679 1108 L 679 1110 L 683 1110 L 688 1107 L 698 1104 L 703 1102 Z
      M 680 1100 L 682 1099 L 683 1098 L 688 1099 L 686 1100 L 685 1101 Z
      M 580 1096 L 584 1095 L 585 1096 L 590 1097 L 605 1097 L 612 1098 L 617 1099 L 622 1101 L 626 1102 L 608 1103 L 606 1103 L 601 1102 L 597 1100 L 593 1099 L 586 1099 L 583 1098 L 582 1097 Z
      M 574 1092 L 576 1090 L 582 1092 Z
      M 721 1083 L 719 1085 L 711 1089 L 704 1092 L 695 1095 L 692 1095 L 691 1096 L 688 1095 L 690 1093 L 693 1093 L 696 1090 L 698 1089 L 705 1086 L 711 1086 L 715 1083 Z
      M 528 1080 L 530 1079 L 532 1081 L 533 1081 L 535 1083 L 533 1084 L 531 1083 Z
      M 596 1078 L 599 1077 L 600 1078 L 604 1079 L 599 1080 L 598 1079 Z
      M 685 1076 L 683 1077 L 682 1078 L 675 1081 L 670 1082 L 657 1084 L 647 1084 L 649 1082 L 654 1081 L 666 1080 L 673 1077 L 677 1077 L 681 1075 Z
      M 532 1076 L 534 1075 L 542 1079 L 551 1083 L 553 1084 L 558 1087 L 561 1089 L 562 1093 L 560 1093 L 555 1090 L 548 1087 L 543 1084 L 534 1078 Z
      M 692 1073 L 690 1075 L 685 1075 L 687 1073 Z
      M 579 1071 L 582 1070 L 584 1072 L 581 1072 Z
      M 547 1070 L 549 1069 L 552 1072 L 550 1073 Z
      M 750 1065 L 747 1068 L 744 1069 L 738 1074 L 735 1076 L 730 1079 L 728 1080 L 725 1080 L 721 1083 L 718 1081 L 721 1079 L 726 1076 L 730 1074 L 735 1073 L 739 1069 L 744 1067 L 746 1065 Z
      M 533 1062 L 535 1061 L 538 1064 L 536 1065 Z
      M 529 1059 L 531 1058 L 534 1061 L 532 1062 Z
      M 492 1056 L 494 1057 L 500 1062 L 506 1065 L 508 1065 L 514 1069 L 517 1072 L 517 1073 L 520 1076 L 521 1076 L 525 1080 L 523 1081 L 515 1077 L 512 1075 L 508 1072 L 503 1067 L 498 1065 L 491 1058 Z
      M 525 1056 L 527 1055 L 530 1058 L 528 1059 Z
      M 522 1054 L 524 1053 L 526 1055 L 524 1056 Z
      M 776 1052 L 777 1054 L 772 1059 L 768 1065 L 769 1069 L 765 1072 L 760 1075 L 748 1081 L 747 1080 L 745 1081 L 741 1082 L 744 1079 L 748 1077 L 752 1074 L 759 1068 L 773 1054 L 774 1054 Z
      M 778 1049 L 779 1051 L 777 1053 L 776 1051 Z
      M 512 1046 L 514 1045 L 517 1047 L 523 1053 L 521 1054 L 517 1051 Z
      M 783 1044 L 784 1046 L 780 1047 Z
      M 483 1040 L 488 1043 L 500 1052 L 503 1055 L 501 1056 L 499 1055 L 497 1053 L 492 1051 L 489 1049 L 482 1042 Z
      M 500 1037 L 502 1036 L 504 1037 L 506 1042 L 503 1039 L 502 1039 Z
      M 496 1034 L 498 1033 L 500 1035 L 498 1036 Z
      M 453 1033 L 455 1032 L 458 1034 L 463 1039 L 468 1042 L 483 1061 L 477 1055 L 470 1050 Z
      M 803 1024 L 804 1026 L 800 1030 L 796 1035 L 796 1036 L 793 1039 L 792 1039 L 788 1043 L 784 1043 L 793 1033 L 798 1028 L 799 1028 Z
      M 444 1023 L 447 1026 L 445 1027 L 443 1025 Z
      M 483 1023 L 485 1022 L 488 1024 L 493 1028 L 496 1034 L 494 1032 L 493 1032 L 488 1028 Z
      M 462 1021 L 466 1028 L 461 1023 Z
      M 808 1021 L 805 1024 L 804 1022 Z
      M 443 1012 L 445 1011 L 447 1013 L 451 1018 L 451 1019 L 453 1021 L 451 1022 L 448 1019 L 445 1015 L 445 1014 Z
      M 477 1010 L 479 1009 L 481 1011 L 479 1012 Z
      M 687 1010 L 684 1011 L 678 1010 L 682 1008 Z
      M 428 1007 L 434 1013 L 434 1014 L 439 1022 L 432 1015 L 427 1009 Z
      M 827 1004 L 828 1006 L 825 1009 L 822 1013 L 813 1027 L 800 1044 L 795 1048 L 785 1059 L 776 1066 L 773 1067 L 769 1067 L 779 1056 L 782 1053 L 784 1053 L 786 1052 L 788 1050 L 802 1034 L 808 1026 L 811 1020 L 814 1016 L 822 1008 L 823 1008 Z
      M 453 1000 L 461 1008 L 462 1010 L 459 1010 L 452 1002 Z
      M 809 997 L 810 999 L 808 1001 L 807 999 Z
      M 421 992 L 422 996 L 420 994 Z
      M 517 991 L 519 990 L 523 992 L 525 994 L 523 995 L 519 993 Z
      M 591 988 L 595 987 L 597 988 L 599 990 L 597 991 Z
      M 613 986 L 629 985 L 634 987 L 642 987 L 639 989 L 636 988 L 622 989 L 615 988 Z
      M 637 984 L 637 981 L 641 982 Z
      M 424 981 L 428 985 L 434 992 L 439 998 L 441 1002 L 445 1009 L 438 1002 L 428 990 L 425 986 L 423 983 Z
      M 687 979 L 686 982 L 681 983 L 676 982 L 678 981 L 679 980 L 684 979 Z
      M 421 977 L 423 982 L 420 979 Z
      M 844 973 L 845 975 L 843 977 L 842 980 L 838 985 L 828 992 L 832 988 L 832 987 L 837 982 L 840 977 Z
      M 565 977 L 567 973 L 570 975 L 578 977 L 576 978 L 577 980 L 580 981 L 576 982 L 572 981 L 567 979 Z
      M 716 972 L 709 974 L 711 972 L 713 971 Z
      M 857 967 L 858 969 L 856 971 L 855 969 Z
      M 633 965 L 635 969 L 633 975 L 630 974 L 628 975 L 626 973 L 628 972 L 629 971 Z
      M 640 964 L 642 968 L 647 973 L 639 973 Z
      M 879 962 L 879 965 L 878 967 L 877 964 Z
      M 684 962 L 684 970 L 680 969 L 683 965 Z
      M 442 962 L 443 966 L 441 964 Z
      M 589 961 L 590 964 L 591 966 L 593 968 L 594 970 L 596 971 L 593 972 L 589 970 L 588 967 Z
      M 733 960 L 734 964 L 732 966 L 728 968 L 724 969 L 722 970 L 720 972 L 717 971 L 719 969 L 719 966 L 722 966 L 729 963 Z
      M 691 960 L 692 962 L 694 964 L 696 965 L 691 967 Z
      M 583 960 L 585 967 L 584 970 L 581 970 L 574 968 L 578 967 L 582 963 Z
      M 529 961 L 531 960 L 533 961 L 542 966 L 548 968 L 546 969 L 545 971 L 543 971 L 539 967 L 537 966 L 534 966 Z
      M 506 961 L 508 960 L 510 962 L 508 963 Z
      M 512 957 L 514 956 L 516 958 L 514 959 Z
      M 500 957 L 502 956 L 504 958 L 502 959 Z
      M 379 955 L 380 959 L 378 957 Z
      M 542 952 L 545 957 L 547 959 L 545 960 L 540 957 Z
      M 507 952 L 510 952 L 512 955 L 510 956 L 508 954 Z
      M 759 951 L 757 953 L 753 955 L 749 954 L 754 951 Z
      M 404 950 L 407 953 L 411 959 L 412 962 L 413 966 L 410 963 L 404 954 L 403 952 Z
      M 536 948 L 538 953 L 537 955 L 535 956 L 533 954 L 530 953 L 534 951 L 535 950 Z
      M 734 943 L 734 948 L 736 950 L 734 952 L 731 953 L 727 953 L 728 951 L 730 948 Z
      M 883 940 L 884 943 L 880 951 L 878 957 L 874 965 L 868 974 L 853 991 L 840 1004 L 839 1001 L 830 1010 L 829 1008 L 832 1005 L 835 1001 L 835 1000 L 837 998 L 843 993 L 852 983 L 853 980 L 858 973 L 862 969 L 866 962 L 869 958 L 876 950 L 880 943 Z
      M 491 941 L 493 940 L 495 942 L 493 943 Z
      M 505 937 L 506 939 L 508 941 L 506 942 L 504 940 Z
      M 474 935 L 475 939 L 473 937 Z
      M 498 927 L 498 936 L 496 935 L 492 931 L 495 930 Z
      M 407 927 L 410 930 L 409 933 L 406 929 Z
      M 791 926 L 792 928 L 791 930 L 787 930 Z
      M 766 924 L 767 930 L 764 933 L 764 930 Z
      M 403 924 L 406 924 L 406 928 L 404 926 Z
      M 379 919 L 381 921 L 390 935 L 393 942 L 397 949 L 402 955 L 402 959 L 409 967 L 411 970 L 414 976 L 416 979 L 419 982 L 423 989 L 421 990 L 420 993 L 418 991 L 414 986 L 408 977 L 404 968 L 396 954 L 390 946 L 378 922 Z
      M 458 913 L 464 923 L 457 916 Z
      M 893 911 L 894 914 L 890 924 L 887 930 L 885 933 L 879 941 L 872 949 L 869 953 L 865 960 L 861 965 L 858 968 L 857 966 L 858 964 L 861 959 L 863 956 L 868 950 L 870 947 L 872 942 L 874 939 L 881 930 L 886 921 L 889 918 L 891 915 Z
      M 801 909 L 802 911 L 797 913 Z
      M 453 907 L 457 911 L 455 912 L 452 909 Z
      M 412 906 L 413 908 L 414 909 L 413 913 L 412 911 L 411 910 Z
      M 450 903 L 451 907 L 449 905 Z
      M 593 904 L 598 904 L 598 906 L 605 904 L 600 903 L 602 901 L 611 901 L 616 903 L 625 903 L 628 904 L 632 908 L 633 910 L 634 917 L 633 934 L 633 940 L 634 952 L 633 955 L 631 958 L 631 961 L 629 965 L 624 970 L 622 971 L 607 971 L 604 969 L 601 969 L 596 964 L 593 959 L 592 956 L 592 952 L 590 948 L 588 939 L 587 931 L 587 928 L 588 919 L 590 907 Z
      M 677 901 L 679 904 L 683 905 L 684 908 L 684 915 L 686 922 L 686 937 L 685 943 L 683 951 L 680 954 L 679 956 L 676 964 L 677 966 L 675 968 L 672 970 L 666 972 L 655 972 L 652 971 L 650 970 L 646 966 L 644 962 L 642 956 L 640 947 L 640 933 L 641 913 L 646 910 L 646 908 L 645 905 L 647 904 L 661 901 L 668 900 L 671 900 Z
      M 633 899 L 633 903 L 631 901 Z
      M 685 898 L 686 902 L 684 900 Z
      M 546 899 L 550 898 L 562 898 L 564 900 L 568 901 L 572 900 L 577 906 L 580 907 L 580 922 L 582 926 L 582 948 L 581 958 L 579 960 L 575 961 L 575 962 L 573 964 L 564 964 L 561 963 L 555 960 L 553 958 L 552 958 L 551 957 L 551 956 L 549 954 L 546 948 L 542 935 L 541 930 L 541 908 L 542 904 L 543 902 Z
      M 445 898 L 449 902 L 447 904 L 445 902 L 444 900 Z
      M 723 897 L 728 902 L 730 907 L 731 911 L 731 922 L 730 928 L 729 932 L 725 945 L 723 948 L 723 951 L 720 954 L 720 955 L 718 957 L 715 959 L 711 961 L 708 962 L 702 962 L 695 960 L 695 956 L 697 957 L 697 954 L 695 952 L 694 953 L 692 949 L 691 941 L 691 934 L 693 929 L 693 915 L 694 907 L 695 904 L 697 902 L 703 899 L 706 900 L 705 902 L 711 902 L 713 900 L 709 898 Z
      M 694 901 L 694 897 L 698 898 L 696 899 Z
      M 572 898 L 577 897 L 579 899 L 576 900 L 575 899 Z
      M 538 897 L 539 895 L 542 896 Z
      M 759 894 L 761 895 L 762 899 L 760 898 L 760 900 L 762 902 L 763 898 L 764 900 L 765 901 L 765 911 L 763 914 L 763 920 L 760 930 L 757 936 L 752 941 L 747 940 L 755 933 L 758 928 L 759 925 L 757 925 L 756 928 L 753 932 L 750 935 L 747 937 L 743 937 L 743 935 L 739 938 L 740 941 L 748 941 L 744 943 L 737 942 L 737 916 L 738 908 L 739 903 L 740 902 L 741 900 L 742 902 L 744 902 L 747 898 L 744 897 L 746 896 L 747 895 L 751 894 Z
      M 528 895 L 533 895 L 532 899 L 531 897 L 530 896 Z
      M 509 893 L 512 893 L 523 895 L 527 897 L 530 900 L 531 902 L 532 907 L 532 914 L 534 918 L 535 929 L 535 943 L 534 945 L 531 948 L 528 948 L 522 945 L 526 943 L 523 942 L 520 939 L 517 938 L 513 934 L 512 932 L 512 930 L 510 926 L 508 925 L 508 929 L 511 934 L 520 943 L 523 944 L 518 945 L 516 944 L 514 942 L 510 937 L 506 930 L 504 924 L 502 914 L 503 909 L 503 907 L 502 906 L 502 903 L 503 900 L 504 899 L 505 897 L 507 901 L 508 898 L 505 897 L 506 895 L 507 894 Z
      M 765 893 L 769 893 L 768 897 L 767 895 Z
      M 881 890 L 882 892 L 873 910 L 870 915 L 868 918 L 866 920 L 865 918 L 866 916 L 871 909 L 872 907 L 872 904 L 876 899 L 879 892 Z
      M 479 890 L 484 890 L 487 891 L 492 894 L 490 896 L 491 898 L 493 899 L 494 897 L 495 899 L 496 900 L 497 914 L 495 923 L 492 919 L 492 922 L 495 924 L 492 926 L 488 924 L 485 921 L 487 920 L 490 921 L 488 919 L 488 918 L 485 915 L 485 914 L 482 912 L 482 914 L 483 919 L 481 917 L 479 913 L 479 907 L 478 910 L 476 905 L 475 900 L 480 893 L 477 892 Z
      M 785 889 L 787 890 L 790 893 L 790 903 L 789 907 L 786 913 L 783 917 L 779 921 L 778 921 L 776 923 L 774 922 L 772 924 L 770 920 L 770 917 L 772 915 L 771 906 L 771 903 L 772 899 L 773 897 L 775 895 L 775 894 L 779 894 L 781 892 L 778 891 L 782 889 Z
      M 457 886 L 462 886 L 465 889 L 466 889 L 468 891 L 467 902 L 466 899 L 464 897 L 464 896 L 460 896 L 457 891 Z
      M 435 886 L 438 889 L 437 892 L 434 889 Z
      M 372 886 L 375 890 L 378 898 L 384 911 L 386 913 L 387 915 L 386 918 L 382 912 L 376 900 L 371 889 Z
      M 450 885 L 451 889 L 449 887 Z
      M 810 884 L 808 886 L 808 888 L 807 890 L 804 893 L 803 896 L 798 901 L 797 899 L 798 892 L 799 890 L 801 887 L 803 885 Z
      M 723 885 L 725 884 L 726 883 L 733 886 L 731 885 Z
      M 408 883 L 409 885 L 410 886 L 409 889 L 408 887 L 407 886 Z
      M 819 884 L 817 886 L 817 887 L 815 889 L 815 884 Z
      M 351 882 L 353 885 L 358 896 L 362 903 L 366 908 L 369 913 L 375 926 L 380 933 L 385 944 L 386 949 L 390 957 L 397 969 L 398 973 L 395 970 L 386 959 L 383 955 L 377 945 L 376 943 L 375 937 L 372 931 L 367 923 L 358 904 L 355 897 L 354 892 L 350 885 Z
      M 694 880 L 695 878 L 697 880 Z
      M 492 877 L 492 880 L 489 879 Z
      M 365 877 L 367 881 L 367 885 L 368 886 L 367 890 L 364 885 L 363 882 L 363 880 L 364 879 Z
      M 450 870 L 450 874 L 448 872 Z
      M 361 867 L 362 869 L 363 870 L 362 873 L 361 871 L 360 870 Z
      M 906 863 L 907 866 L 904 875 L 901 883 L 896 894 L 892 902 L 885 915 L 883 917 L 882 915 L 890 900 L 894 890 L 895 885 L 897 880 L 901 873 Z
      M 457 864 L 460 866 L 462 863 L 463 867 L 465 871 L 464 876 L 463 873 L 458 873 L 455 874 L 455 868 Z
      M 804 862 L 807 863 L 809 865 L 810 868 L 811 872 L 809 874 L 806 873 L 807 872 L 804 871 L 801 873 L 801 866 L 802 864 Z
      M 822 861 L 823 859 L 825 861 Z
      M 897 857 L 898 859 L 896 861 L 895 859 Z
      M 801 853 L 803 856 L 801 858 Z
      M 434 849 L 435 852 L 433 854 L 433 851 Z
      M 788 844 L 790 845 L 793 851 L 791 849 L 789 849 L 789 851 L 792 854 L 792 856 L 794 858 L 795 854 L 797 861 L 797 864 L 796 870 L 791 874 L 790 872 L 789 873 L 791 874 L 789 875 L 788 876 L 785 876 L 784 877 L 782 877 L 777 872 L 776 870 L 777 862 L 778 856 L 780 852 L 782 854 L 784 850 L 784 848 L 780 848 L 784 844 Z
      M 823 843 L 825 845 L 826 847 L 825 851 L 822 845 Z
      M 480 842 L 482 842 L 484 843 L 486 848 L 484 846 L 483 848 L 484 850 L 486 850 L 487 847 L 489 852 L 489 857 L 491 860 L 489 876 L 486 877 L 479 877 L 477 876 L 475 874 L 473 874 L 471 872 L 470 870 L 469 866 L 469 855 L 471 851 L 473 854 L 475 850 L 478 846 L 475 845 L 478 843 Z
      M 464 841 L 463 843 L 461 846 L 455 852 L 453 853 L 452 851 L 453 849 L 455 847 L 456 844 L 457 843 Z
      M 339 840 L 340 842 L 343 849 L 345 851 L 348 857 L 353 869 L 355 871 L 362 886 L 361 890 L 357 886 L 357 884 L 353 877 L 349 872 L 345 865 L 344 863 L 341 856 L 340 851 L 338 849 L 336 843 Z
      M 359 838 L 362 843 L 366 852 L 369 859 L 369 862 L 371 867 L 374 872 L 373 875 L 371 871 L 369 868 L 367 861 L 363 854 L 362 849 L 359 844 L 358 841 Z
      M 779 837 L 781 837 L 784 840 L 781 840 L 779 841 Z
      M 344 835 L 347 840 L 349 845 L 350 848 L 349 851 L 347 848 L 342 838 Z
      M 794 834 L 796 833 L 800 836 L 805 841 L 809 847 L 810 853 L 807 850 L 804 845 L 800 840 L 799 839 L 798 839 L 796 837 L 796 836 Z
      M 492 832 L 492 838 L 491 839 L 490 841 L 487 836 L 490 833 Z
      M 402 832 L 403 836 L 404 837 L 403 840 L 402 838 L 401 837 Z
      M 812 831 L 814 834 L 815 836 L 816 839 L 813 839 L 812 837 L 811 834 Z
      M 924 827 L 925 830 L 924 831 L 924 834 L 922 839 L 919 844 L 917 842 L 918 840 L 920 834 Z
      M 755 827 L 757 827 L 762 828 L 764 829 L 770 835 L 772 839 L 773 844 L 773 848 L 771 854 L 772 860 L 772 862 L 771 867 L 768 872 L 767 868 L 765 869 L 765 870 L 764 872 L 766 874 L 764 875 L 763 876 L 760 877 L 750 877 L 745 875 L 746 872 L 748 874 L 748 870 L 746 870 L 745 872 L 745 853 L 744 844 L 745 837 L 746 833 L 747 831 L 749 829 L 751 828 L 754 828 Z
      M 508 826 L 516 826 L 519 828 L 523 832 L 524 834 L 527 848 L 528 857 L 527 875 L 523 871 L 523 875 L 526 874 L 527 876 L 525 878 L 523 879 L 519 880 L 512 880 L 507 878 L 505 877 L 503 875 L 502 873 L 499 873 L 499 868 L 496 858 L 496 846 L 497 839 L 499 833 L 500 831 L 502 829 L 505 827 Z
      M 469 823 L 470 825 L 468 828 L 464 829 L 465 827 Z
      M 787 822 L 788 824 L 791 826 L 790 829 L 786 825 Z
      M 745 819 L 748 822 L 751 823 L 747 824 L 745 826 L 744 828 L 743 821 Z
      M 495 819 L 491 823 L 486 826 L 484 826 L 481 828 L 480 826 L 482 824 L 487 820 L 491 820 Z
      M 516 820 L 520 818 L 523 817 L 523 825 L 520 822 Z
      M 733 816 L 738 816 L 740 819 L 738 826 Z
      M 722 813 L 726 815 L 731 820 L 732 822 L 732 825 L 734 828 L 735 831 L 737 841 L 736 849 L 737 859 L 736 865 L 735 868 L 734 870 L 731 871 L 731 875 L 728 878 L 724 879 L 718 880 L 711 880 L 710 881 L 704 881 L 700 879 L 698 877 L 697 872 L 697 843 L 698 834 L 701 820 L 702 818 L 704 816 L 707 814 L 713 813 Z
      M 537 814 L 533 818 L 530 823 L 528 819 L 529 815 L 534 814 Z
      M 396 813 L 398 817 L 397 821 L 395 817 Z
      M 922 812 L 923 815 L 920 820 L 919 817 Z
      M 549 811 L 559 811 L 565 813 L 569 820 L 566 818 L 567 820 L 567 821 L 569 822 L 570 819 L 572 823 L 572 831 L 574 840 L 574 843 L 573 849 L 575 856 L 575 858 L 573 860 L 573 868 L 575 870 L 576 877 L 574 879 L 572 880 L 569 878 L 563 880 L 565 882 L 559 883 L 555 881 L 556 880 L 543 880 L 538 877 L 540 872 L 539 871 L 539 868 L 537 868 L 537 870 L 538 871 L 537 874 L 536 872 L 535 871 L 534 866 L 533 858 L 533 842 L 534 831 L 535 826 L 538 820 L 541 817 L 541 816 L 543 814 L 546 812 Z
      M 518 809 L 511 811 L 513 809 L 515 808 Z
      M 935 807 L 936 810 L 935 811 L 935 815 L 934 818 L 932 821 L 932 824 L 928 832 L 927 828 L 930 822 L 931 819 L 931 816 L 933 810 L 934 809 Z
      M 753 808 L 756 807 L 757 808 L 760 808 L 763 810 L 767 814 L 770 815 L 772 817 L 776 825 L 774 824 L 772 822 L 770 821 L 768 821 L 765 819 L 762 816 L 761 813 L 759 813 L 755 810 Z
      M 335 806 L 337 809 L 344 823 L 344 825 L 343 828 L 341 826 L 340 821 L 334 809 Z
      M 697 817 L 697 805 L 700 806 L 702 808 L 710 808 L 706 809 L 700 812 L 699 815 Z
      M 570 805 L 574 806 L 575 814 L 574 817 L 572 813 L 568 809 L 567 807 L 569 806 Z
      M 682 804 L 685 803 L 686 804 L 691 805 L 690 816 L 689 813 L 688 811 L 686 808 Z
      M 670 803 L 676 805 L 679 807 L 684 812 L 685 814 L 687 820 L 688 824 L 690 835 L 690 858 L 689 866 L 688 870 L 686 872 L 686 876 L 684 878 L 682 879 L 680 879 L 678 881 L 667 883 L 657 883 L 651 882 L 649 881 L 647 879 L 644 878 L 643 871 L 641 865 L 640 857 L 640 844 L 642 827 L 643 821 L 644 817 L 646 811 L 649 808 L 655 805 L 658 804 L 664 803 Z
      M 583 803 L 585 805 L 580 815 L 580 804 Z
      M 645 803 L 644 805 L 642 807 L 639 814 L 639 802 Z
      M 625 803 L 634 803 L 633 815 L 632 812 L 629 807 Z
      M 595 805 L 598 804 L 603 804 L 607 802 L 611 802 L 616 805 L 619 805 L 623 807 L 625 809 L 627 812 L 629 818 L 631 828 L 631 841 L 633 843 L 633 862 L 632 868 L 630 873 L 630 879 L 628 881 L 624 880 L 622 882 L 616 883 L 605 883 L 602 882 L 599 880 L 592 880 L 589 879 L 585 877 L 584 876 L 583 874 L 584 871 L 587 872 L 586 868 L 584 869 L 583 871 L 581 858 L 581 846 L 583 842 L 582 834 L 582 830 L 584 821 L 586 815 L 588 811 L 592 807 Z
      M 712 799 L 716 797 L 721 797 L 724 799 L 726 799 L 728 800 L 733 803 L 736 806 L 734 807 L 731 805 L 728 805 L 716 800 Z
      M 547 798 L 545 800 L 543 801 L 540 802 L 536 801 L 538 799 L 544 797 Z
      M 576 794 L 577 792 L 581 793 L 579 795 Z
      M 573 793 L 572 796 L 564 794 L 570 792 Z
      M 606 790 L 626 789 L 631 790 L 633 792 L 631 793 L 613 793 L 611 791 Z
      M 941 788 L 942 791 L 941 792 L 941 795 L 936 808 L 935 804 L 936 800 L 938 793 L 939 790 Z
      M 859 788 L 860 791 L 858 793 L 858 790 Z
      M 647 787 L 649 785 L 662 785 L 673 786 L 679 787 L 683 788 L 686 789 L 689 792 L 679 793 L 669 791 L 667 792 L 659 791 L 657 790 L 656 788 L 650 788 Z
      M 742 780 L 745 779 L 747 780 L 750 783 L 745 783 Z
      M 318 779 L 320 785 L 324 793 L 331 811 L 333 813 L 336 820 L 340 830 L 341 833 L 338 837 L 336 837 L 333 834 L 331 830 L 328 821 L 328 817 L 324 805 L 319 794 L 318 791 L 317 787 Z
      M 735 778 L 739 777 L 741 779 L 737 780 Z
      M 944 768 L 945 774 L 942 779 L 941 775 Z
      M 326 763 L 328 767 L 328 769 L 331 775 L 333 782 L 332 785 L 331 783 L 330 782 L 329 777 L 325 767 Z
      M 944 746 L 945 751 L 941 766 L 934 789 L 929 798 L 928 795 L 929 794 L 930 787 L 933 777 L 935 775 L 935 771 L 937 764 L 940 755 L 942 752 Z
      M 931 730 L 932 733 L 929 740 L 928 735 Z
      M 329 728 L 331 732 L 328 732 Z
      M 325 721 L 328 721 L 329 725 L 328 729 L 326 725 Z
      M 377 711 L 378 713 L 376 714 L 374 712 Z
      M 305 708 L 308 722 L 310 729 L 312 732 L 312 738 L 314 744 L 317 748 L 318 752 L 320 757 L 325 774 L 326 781 L 329 787 L 329 790 L 331 796 L 333 799 L 332 802 L 329 797 L 322 782 L 316 766 L 316 763 L 314 760 L 313 757 L 309 742 L 309 738 L 307 734 L 307 729 L 305 725 L 304 720 Z
      M 839 705 L 836 708 L 833 707 Z
      M 660 705 L 663 704 L 665 706 L 662 706 Z
      M 327 698 L 328 700 L 329 701 L 329 706 L 330 707 L 329 712 L 328 708 L 325 700 Z
      M 310 698 L 312 702 L 315 711 L 315 716 L 316 717 L 315 721 L 313 717 L 311 710 L 309 702 Z
      M 907 697 L 908 700 L 904 703 L 905 700 L 906 699 Z
      M 671 690 L 672 694 L 670 692 Z
      M 952 684 L 953 694 L 952 702 L 951 709 L 949 717 L 946 723 L 945 719 L 946 718 L 946 714 L 948 709 L 947 706 L 948 701 L 951 692 Z
      M 445 678 L 450 677 L 451 678 L 463 680 L 469 680 L 470 679 L 476 680 L 477 682 L 467 682 L 458 683 L 454 682 L 447 680 Z
      M 744 677 L 747 676 L 750 677 L 756 681 L 751 682 L 747 680 Z
      M 806 678 L 801 680 L 795 681 L 787 682 L 770 681 L 772 679 L 782 679 L 779 677 L 796 675 L 798 678 Z
      M 969 674 L 970 679 L 969 684 L 967 689 L 966 694 L 966 701 L 964 705 L 963 711 L 962 725 L 961 732 L 960 734 L 957 738 L 956 741 L 956 747 L 955 752 L 953 759 L 949 768 L 948 764 L 949 763 L 949 759 L 951 754 L 954 739 L 956 723 L 958 713 L 960 710 L 960 701 L 961 694 L 966 680 Z
      M 293 670 L 295 674 L 295 677 L 297 683 L 300 688 L 302 700 L 303 708 L 302 712 L 300 708 L 300 704 L 298 701 L 293 679 L 293 675 L 292 674 Z
      M 347 669 L 348 673 L 350 677 L 349 683 L 348 679 L 346 674 Z
      M 527 668 L 523 672 L 520 674 L 517 674 L 514 676 L 510 675 L 513 674 L 515 673 L 522 668 L 526 666 Z
      M 406 663 L 407 661 L 409 663 Z
      M 433 662 L 435 660 L 437 662 L 442 665 L 447 666 L 449 668 L 455 670 L 449 671 L 445 670 L 440 668 L 435 664 Z
      M 414 658 L 415 656 L 417 658 Z
      M 795 655 L 793 656 L 792 657 L 788 658 L 781 655 L 790 654 Z
      M 729 651 L 730 655 L 728 653 Z
      M 957 648 L 958 657 L 956 673 L 955 677 L 953 681 L 952 675 L 953 674 L 954 661 L 955 655 Z
      M 409 643 L 412 647 L 414 651 L 417 654 L 414 657 L 409 652 L 409 651 L 406 648 L 408 647 Z
      M 714 642 L 715 645 L 717 647 L 718 649 L 715 651 L 714 648 L 712 645 Z
      M 851 639 L 852 643 L 852 645 L 849 651 L 844 656 L 843 653 L 842 651 L 846 647 L 849 643 Z
      M 941 636 L 942 639 L 941 647 L 940 648 L 939 650 L 938 647 L 938 639 Z
      M 303 635 L 305 641 L 305 646 L 307 651 L 308 657 L 308 662 L 309 668 L 311 673 L 313 684 L 312 693 L 311 688 L 308 679 L 308 672 L 306 667 L 305 656 L 303 651 L 302 641 Z
      M 706 633 L 707 635 L 708 636 L 708 638 L 711 642 L 710 646 L 708 644 L 708 642 L 705 639 L 705 635 Z
      M 732 627 L 737 634 L 738 637 L 739 641 L 735 637 L 733 634 L 731 630 Z
      M 393 629 L 395 628 L 398 627 L 399 629 L 399 631 L 402 635 L 402 638 L 403 643 L 400 640 L 397 639 L 394 633 L 394 631 Z
      M 863 623 L 864 626 L 861 632 L 858 636 L 855 639 L 854 637 L 858 629 L 860 626 Z
      M 555 623 L 556 626 L 555 629 L 550 639 L 545 644 L 544 642 L 546 638 L 548 636 L 549 634 L 550 630 L 553 627 Z
      M 378 618 L 381 618 L 382 623 L 382 627 L 383 631 L 385 634 L 386 637 L 385 640 L 383 638 L 381 632 L 380 628 Z
      M 710 614 L 710 623 L 709 620 L 708 619 L 708 617 L 709 616 Z
      M 297 607 L 299 613 L 299 619 L 300 624 L 302 628 L 301 630 L 303 631 L 302 636 L 301 632 L 301 646 L 302 647 L 302 662 L 304 675 L 306 679 L 306 684 L 307 685 L 307 693 L 305 691 L 302 682 L 299 665 L 300 663 L 299 659 L 300 658 L 300 655 L 299 638 L 298 626 L 297 625 L 296 613 Z
      M 309 603 L 310 605 L 311 606 L 312 610 L 313 617 L 312 625 L 311 620 L 309 617 L 309 610 L 308 609 Z
      M 858 601 L 860 609 L 860 611 L 859 614 L 856 621 L 853 625 L 852 621 L 854 618 L 854 616 L 853 615 L 853 613 L 854 611 L 856 609 L 856 605 Z
      M 552 592 L 555 597 L 556 600 L 555 604 L 553 598 L 551 595 Z
      M 901 591 L 902 594 L 902 597 L 901 600 Z
      M 729 586 L 728 590 L 726 596 L 725 606 L 723 602 L 722 597 L 722 593 L 724 590 L 725 587 L 726 586 Z
      M 714 582 L 715 586 L 714 589 L 712 591 L 711 588 L 712 585 L 713 584 Z
      M 831 579 L 833 581 L 834 585 L 837 590 L 837 600 L 835 605 L 834 594 L 832 586 L 831 585 Z
      M 863 575 L 864 577 L 865 578 L 862 582 Z
      M 342 573 L 343 577 L 341 585 L 340 577 Z
      M 909 569 L 908 575 L 906 573 Z
      M 849 566 L 851 568 L 853 572 L 857 582 L 854 584 L 853 588 L 851 582 L 851 576 L 848 569 Z
      M 548 566 L 550 565 L 553 568 L 553 569 L 555 571 L 550 571 Z
      M 412 557 L 413 562 L 411 565 L 405 572 L 404 575 L 401 578 L 401 585 L 400 590 L 399 592 L 397 594 L 397 596 L 395 598 L 394 596 L 394 590 L 395 588 L 398 583 L 399 577 L 400 574 L 403 568 L 406 564 L 410 561 Z
      M 940 556 L 941 571 L 940 577 L 938 581 L 937 564 L 938 558 Z
      M 856 556 L 857 560 L 855 558 Z
      M 533 556 L 534 560 L 532 558 Z
      M 769 554 L 774 554 L 775 556 L 781 555 L 784 555 L 787 557 L 790 557 L 793 559 L 797 557 L 800 559 L 803 560 L 810 565 L 819 574 L 823 580 L 825 584 L 825 587 L 828 591 L 829 593 L 830 597 L 830 604 L 828 607 L 828 616 L 823 627 L 819 633 L 817 635 L 816 633 L 814 635 L 816 634 L 817 636 L 810 643 L 809 641 L 806 642 L 795 648 L 792 648 L 791 649 L 789 649 L 788 652 L 780 652 L 769 650 L 766 649 L 765 648 L 763 647 L 767 644 L 759 641 L 756 641 L 754 643 L 749 639 L 744 633 L 743 631 L 743 628 L 741 626 L 738 625 L 735 618 L 736 614 L 734 610 L 731 609 L 732 593 L 733 595 L 735 594 L 735 589 L 737 583 L 739 583 L 740 581 L 740 576 L 743 572 L 748 567 L 748 566 L 752 562 L 763 556 Z
      M 306 554 L 307 563 L 309 571 L 308 599 L 307 584 L 305 575 Z
      M 531 553 L 532 557 L 530 555 Z
      M 289 553 L 290 563 L 292 570 L 292 583 L 294 592 L 293 616 L 295 640 L 296 648 L 298 655 L 298 668 L 297 672 L 295 668 L 295 665 L 293 662 L 293 658 L 291 654 L 289 634 L 289 614 L 287 599 L 287 579 L 288 573 L 288 571 L 287 566 L 288 565 L 287 560 Z
      M 849 547 L 855 553 L 855 557 L 852 554 L 848 549 Z
      M 949 543 L 950 558 L 949 559 L 949 575 L 948 583 L 946 587 L 946 578 L 945 575 L 947 565 L 947 557 L 946 553 L 948 551 L 948 548 L 947 547 L 947 545 Z
      M 811 543 L 813 542 L 817 544 L 821 548 L 819 549 L 817 548 L 814 546 Z
      M 804 543 L 806 542 L 808 544 L 806 545 Z
      M 513 538 L 516 537 L 521 540 L 521 544 L 519 543 L 515 540 Z
      M 752 543 L 756 543 L 762 539 L 774 536 L 791 539 L 792 536 L 802 540 L 806 546 L 829 557 L 827 554 L 820 549 L 823 546 L 825 546 L 838 558 L 842 565 L 845 574 L 844 579 L 840 567 L 834 561 L 831 561 L 840 575 L 845 590 L 846 601 L 845 619 L 838 632 L 827 644 L 818 651 L 816 651 L 805 658 L 805 660 L 810 659 L 823 651 L 831 642 L 835 641 L 843 631 L 844 634 L 840 642 L 824 657 L 812 663 L 814 664 L 812 666 L 807 666 L 804 668 L 792 670 L 788 669 L 790 666 L 784 666 L 778 664 L 795 660 L 813 651 L 834 631 L 839 622 L 841 615 L 839 615 L 832 630 L 831 627 L 840 607 L 840 591 L 838 582 L 831 568 L 818 556 L 817 558 L 797 546 L 784 543 L 780 540 L 772 540 L 766 542 L 767 545 L 759 548 L 754 548 L 743 556 L 735 564 L 735 566 L 727 577 L 721 591 L 720 605 L 727 628 L 738 646 L 746 651 L 740 640 L 749 649 L 755 653 L 768 658 L 774 658 L 779 660 L 767 661 L 755 658 L 759 662 L 768 663 L 770 665 L 769 667 L 780 668 L 783 670 L 776 671 L 768 670 L 754 666 L 738 654 L 726 642 L 723 637 L 715 615 L 715 608 L 717 606 L 718 586 L 720 584 L 726 569 L 731 562 L 730 558 L 735 553 L 736 555 L 738 555 L 744 548 Z
      M 525 537 L 527 536 L 529 538 L 527 539 Z
      M 471 536 L 483 536 L 497 538 L 507 542 L 518 549 L 531 562 L 535 568 L 535 570 L 538 574 L 540 578 L 542 587 L 541 590 L 542 597 L 544 600 L 545 605 L 545 614 L 541 627 L 535 639 L 529 648 L 520 656 L 510 661 L 505 663 L 504 662 L 501 663 L 498 665 L 492 666 L 490 668 L 486 668 L 483 670 L 479 670 L 465 668 L 450 665 L 447 664 L 436 658 L 434 655 L 428 651 L 423 646 L 421 643 L 414 628 L 412 625 L 411 628 L 409 624 L 407 613 L 407 611 L 409 604 L 410 605 L 411 596 L 413 586 L 415 584 L 416 580 L 418 576 L 422 570 L 428 563 L 430 558 L 432 555 L 429 556 L 421 565 L 420 563 L 424 558 L 430 552 L 434 549 L 443 544 L 453 540 L 460 538 Z
      M 517 533 L 519 532 L 521 534 L 519 535 Z
      M 508 532 L 511 531 L 513 533 L 510 533 Z
      M 810 531 L 814 531 L 812 533 Z
      M 787 524 L 791 523 L 796 525 L 800 525 L 804 526 L 807 527 L 809 528 L 811 530 L 809 531 L 806 529 L 803 528 L 800 528 L 798 530 L 796 530 L 794 529 L 793 526 L 790 526 L 789 525 Z
      M 783 524 L 781 526 L 783 528 L 775 531 L 770 531 L 769 532 L 764 531 L 763 528 L 767 527 L 772 525 L 776 525 L 780 524 Z
      M 459 524 L 455 526 L 450 527 L 441 532 L 438 531 L 440 529 L 443 527 L 448 525 L 455 523 Z
      M 473 523 L 482 522 L 484 524 L 475 526 Z
      M 295 515 L 296 528 L 299 531 L 299 543 L 297 549 L 296 573 L 294 566 L 293 560 L 291 545 L 291 535 L 293 529 L 293 523 Z
      M 950 501 L 951 509 L 952 510 L 949 517 Z
      M 317 495 L 318 507 L 317 514 L 316 515 L 315 517 L 314 508 L 315 501 Z
      M 957 492 L 958 497 L 960 502 L 961 507 L 963 520 L 962 556 L 960 548 L 960 524 L 958 522 L 957 518 L 957 505 L 956 504 Z
      M 300 491 L 301 499 L 300 500 L 299 508 L 298 499 Z
      M 297 480 L 298 489 L 296 500 L 295 505 L 293 511 L 292 504 L 293 503 L 293 496 L 294 490 L 296 486 Z
      M 754 476 L 760 476 L 756 477 Z
      M 591 448 L 592 450 L 589 453 L 588 451 Z
      M 953 444 L 955 448 L 958 459 L 961 471 L 962 477 L 963 488 L 962 492 L 960 488 L 960 485 L 958 482 L 958 479 L 956 477 L 954 469 L 954 455 L 953 449 L 952 448 Z
      M 291 441 L 292 446 L 290 451 L 289 456 L 288 448 Z
      M 797 435 L 796 436 L 797 437 L 792 439 L 788 440 L 786 439 L 786 436 L 789 436 L 793 434 Z
      M 727 430 L 729 429 L 731 430 L 734 432 L 745 433 L 751 435 L 752 437 L 759 438 L 761 439 L 763 441 L 754 442 L 750 441 L 748 439 L 745 438 L 742 438 L 739 436 L 736 436 L 730 433 Z
      M 652 429 L 653 432 L 654 434 L 650 435 L 650 433 L 651 432 Z
      M 458 434 L 460 429 L 463 432 L 466 434 L 470 436 L 475 438 L 479 439 L 485 440 L 491 443 L 481 442 L 474 442 L 469 440 L 464 437 Z
      M 819 427 L 818 429 L 815 432 L 811 432 Z
      M 547 426 L 546 428 L 543 431 L 540 433 L 538 434 L 533 435 L 529 438 L 524 440 L 524 436 L 521 435 L 523 433 L 526 432 L 535 427 L 537 431 L 540 428 L 542 428 Z
      M 419 425 L 420 429 L 418 427 Z
      M 817 418 L 818 421 L 815 424 L 813 425 L 810 424 L 814 420 L 815 420 Z
      M 312 415 L 313 428 L 312 435 L 309 446 L 309 452 L 306 468 L 305 471 L 302 476 L 301 470 L 302 456 L 304 449 L 304 442 L 308 423 Z
      M 523 412 L 521 414 L 517 416 L 514 417 L 511 416 L 513 415 L 514 414 L 518 413 L 519 412 Z
      M 441 411 L 445 415 L 443 417 L 440 414 Z
      M 934 408 L 936 413 L 935 419 L 934 414 L 933 413 Z
      M 954 402 L 956 405 L 959 411 L 960 414 L 961 423 L 962 440 L 963 448 L 964 449 L 963 455 L 961 450 L 959 437 L 958 432 L 956 430 L 955 426 L 953 410 Z
      M 567 402 L 568 408 L 566 413 L 563 415 L 559 420 L 557 417 L 558 415 L 560 412 L 565 406 Z
      M 932 400 L 933 402 L 933 405 L 931 403 Z
      M 453 400 L 456 403 L 457 403 L 462 408 L 466 411 L 472 414 L 478 416 L 479 420 L 476 420 L 470 418 L 463 414 L 454 405 L 452 402 Z
      M 657 396 L 658 405 L 659 406 L 656 414 L 656 409 L 655 408 L 655 404 Z
      M 536 394 L 537 396 L 535 398 L 534 396 Z
      M 835 392 L 836 395 L 835 398 L 828 408 L 827 404 L 829 401 L 831 397 L 833 394 Z
      M 420 390 L 421 392 L 422 393 L 422 395 L 423 397 L 426 395 L 428 399 L 429 405 L 430 407 L 431 411 L 429 409 L 428 410 L 424 405 L 420 397 L 419 394 Z
      M 424 388 L 426 392 L 425 396 L 423 392 Z
      M 452 387 L 453 391 L 451 389 Z
      M 945 386 L 946 388 L 947 389 L 949 397 L 950 402 L 951 408 L 952 415 L 951 419 L 949 415 L 949 409 L 947 404 L 947 399 L 946 394 L 945 390 L 944 389 Z
      M 570 386 L 571 391 L 569 395 L 565 401 L 562 404 L 561 401 L 562 399 L 566 394 Z
      M 844 385 L 846 387 L 846 390 L 845 393 L 843 397 L 841 400 L 839 402 L 838 398 L 839 395 Z
      M 702 384 L 704 388 L 704 391 L 707 396 L 707 398 L 705 400 L 703 398 L 702 396 L 701 393 Z
      M 615 376 L 616 380 L 614 384 L 613 380 Z
      M 413 375 L 414 377 L 415 378 L 414 386 L 413 384 L 412 383 Z
      M 936 370 L 937 372 L 938 373 L 940 381 L 939 386 L 936 374 L 935 373 Z
      M 940 359 L 943 362 L 945 369 L 947 371 L 948 374 L 949 379 L 951 382 L 952 385 L 951 388 L 949 385 L 948 381 L 946 379 L 945 377 L 943 372 L 942 367 L 940 364 Z
      M 326 358 L 327 362 L 329 363 L 329 365 L 328 366 L 328 369 L 317 403 L 315 405 L 311 405 L 310 410 L 309 412 L 306 415 L 306 421 L 304 430 L 301 440 L 300 445 L 300 450 L 298 460 L 296 463 L 295 469 L 295 474 L 292 484 L 292 491 L 290 497 L 289 508 L 288 472 L 290 467 L 291 457 L 296 436 L 298 429 L 301 425 L 303 421 L 303 416 L 300 418 L 297 423 L 296 428 L 293 434 L 292 430 L 295 422 L 298 417 L 299 412 L 301 407 L 305 401 L 306 404 L 303 411 L 304 413 L 305 411 L 305 408 L 308 404 L 313 387 L 315 385 L 316 382 L 316 379 L 319 371 Z
      M 579 356 L 580 361 L 578 363 L 577 365 L 576 362 L 575 360 Z
      M 695 353 L 696 355 L 694 361 L 693 369 L 692 367 L 691 366 L 690 363 L 690 361 L 693 358 L 693 355 Z
      M 328 353 L 329 356 L 328 357 L 327 359 L 326 356 L 327 355 Z
      M 845 351 L 846 358 L 848 361 L 848 369 L 845 376 L 843 370 L 842 358 L 842 354 Z
      M 874 348 L 876 352 L 875 356 L 873 354 Z
      M 656 346 L 657 353 L 655 357 L 654 351 Z
      M 549 343 L 552 349 L 553 353 L 553 362 L 552 366 L 551 367 L 550 369 L 549 366 L 550 356 L 548 347 Z
      M 838 337 L 842 337 L 843 339 L 843 344 L 840 343 Z
      M 659 333 L 660 338 L 659 339 L 658 341 L 657 338 L 658 337 Z
      M 374 325 L 375 327 L 373 330 L 369 334 L 368 332 L 370 329 Z
      M 877 322 L 879 324 L 878 327 L 877 325 Z
      M 489 313 L 496 313 L 497 315 L 500 315 L 501 316 L 504 316 L 506 314 L 509 314 L 512 315 L 522 320 L 529 326 L 535 332 L 536 334 L 537 341 L 540 344 L 543 356 L 543 363 L 541 365 L 542 374 L 534 388 L 534 391 L 530 397 L 522 405 L 517 408 L 516 406 L 514 406 L 505 411 L 500 411 L 497 413 L 486 413 L 481 411 L 479 409 L 479 408 L 478 407 L 470 406 L 467 404 L 463 400 L 460 398 L 457 397 L 454 390 L 457 391 L 456 388 L 454 385 L 452 385 L 451 388 L 450 386 L 449 385 L 447 380 L 447 376 L 449 373 L 448 371 L 445 368 L 445 364 L 447 361 L 447 357 L 446 356 L 446 351 L 451 340 L 455 334 L 465 324 L 466 324 L 468 322 L 469 325 L 473 323 L 473 321 L 471 320 L 473 318 L 477 316 L 483 314 Z
      M 382 312 L 383 316 L 380 320 L 378 321 L 376 319 L 378 317 L 378 316 Z
      M 919 310 L 921 313 L 926 322 L 929 328 L 933 337 L 935 342 L 938 351 L 938 354 L 939 355 L 938 358 L 937 356 L 936 355 L 936 353 L 934 349 L 932 347 L 929 341 L 922 324 L 920 316 L 918 313 Z
      M 712 310 L 713 313 L 711 316 L 709 318 L 708 314 Z
      M 447 310 L 448 312 L 446 314 L 445 312 Z
      M 704 308 L 705 310 L 703 312 L 702 310 Z
      M 390 304 L 391 306 L 389 308 L 389 309 L 387 311 L 386 309 L 387 307 Z
      M 349 304 L 350 307 L 347 312 L 342 323 L 336 334 L 333 337 L 324 354 L 311 380 L 310 377 L 311 374 L 313 371 L 315 365 L 315 362 L 317 356 L 323 342 L 325 338 L 333 324 L 337 319 L 343 307 L 345 305 Z
      M 392 301 L 393 303 L 391 305 L 390 303 Z
      M 530 301 L 542 311 L 550 324 L 556 328 L 559 334 L 559 340 L 564 356 L 565 370 L 562 380 L 559 384 L 558 390 L 549 406 L 537 417 L 525 424 L 506 430 L 488 429 L 480 427 L 470 422 L 473 421 L 489 426 L 497 426 L 496 423 L 490 423 L 484 421 L 489 419 L 499 420 L 498 422 L 503 422 L 524 415 L 530 410 L 545 393 L 549 387 L 556 368 L 556 351 L 553 339 L 548 328 L 545 327 L 546 329 L 545 332 L 540 325 L 526 313 L 513 308 L 497 306 L 494 304 L 511 303 L 518 305 L 539 317 L 539 315 L 530 307 L 522 303 L 509 300 L 491 300 L 486 303 L 482 303 L 479 306 L 474 307 L 468 311 L 464 312 L 443 333 L 437 346 L 437 348 L 439 349 L 435 365 L 435 380 L 437 385 L 437 389 L 439 391 L 437 386 L 437 372 L 439 369 L 442 387 L 444 390 L 443 395 L 445 399 L 452 408 L 463 415 L 468 420 L 471 421 L 468 422 L 471 426 L 479 430 L 475 431 L 464 427 L 457 419 L 446 410 L 442 405 L 440 400 L 436 397 L 430 376 L 429 379 L 428 370 L 430 369 L 432 352 L 430 350 L 438 336 L 437 333 L 449 318 L 450 320 L 453 319 L 456 315 L 453 314 L 456 311 L 467 305 L 466 302 L 469 300 L 486 296 L 508 295 L 516 296 L 526 301 Z
      M 810 294 L 812 293 L 814 295 L 812 296 Z
      M 777 293 L 781 295 L 789 295 L 794 297 L 804 303 L 807 306 L 816 317 L 819 319 L 820 317 L 822 319 L 824 322 L 824 326 L 830 336 L 835 356 L 835 361 L 834 374 L 833 379 L 831 382 L 831 385 L 825 399 L 818 408 L 810 416 L 803 420 L 790 426 L 785 426 L 781 428 L 771 430 L 761 428 L 763 427 L 763 425 L 760 425 L 755 423 L 749 422 L 750 424 L 747 426 L 745 426 L 733 420 L 729 417 L 723 411 L 721 407 L 717 403 L 712 396 L 710 387 L 708 384 L 708 381 L 706 379 L 705 375 L 704 362 L 706 357 L 707 352 L 705 350 L 705 347 L 706 345 L 708 343 L 708 341 L 716 327 L 716 324 L 717 322 L 723 316 L 727 314 L 733 309 L 739 302 L 745 299 L 749 299 L 759 295 L 765 294 L 771 294 L 772 293 Z
      M 626 293 L 627 299 L 625 311 L 625 323 L 623 325 L 622 323 L 623 318 L 622 306 L 623 300 L 624 295 Z
      M 657 293 L 656 298 L 654 300 L 653 298 Z
      M 883 289 L 884 291 L 884 294 L 882 292 Z
      M 530 291 L 536 288 L 538 289 L 541 291 L 545 294 L 545 297 L 543 296 L 540 298 L 536 294 Z
      M 796 289 L 798 287 L 801 287 L 803 288 L 805 290 L 809 291 L 811 293 L 809 294 L 808 295 L 806 295 Z
      M 753 287 L 758 285 L 768 286 L 766 288 L 761 289 Z
      M 502 287 L 493 287 L 485 289 L 481 288 L 475 289 L 474 291 L 471 290 L 473 286 L 476 285 L 483 285 L 489 283 L 494 284 L 496 286 Z
      M 627 280 L 628 286 L 626 288 L 625 283 L 626 282 Z
      M 887 278 L 889 280 L 889 284 L 887 282 L 886 280 Z
      M 362 270 L 363 272 L 361 275 L 361 277 L 355 289 L 352 294 L 346 302 L 345 305 L 343 301 L 345 297 L 347 295 L 350 288 L 354 281 L 360 272 Z
      M 837 268 L 840 271 L 839 274 L 837 272 L 836 270 Z
      M 365 265 L 366 267 L 364 269 L 363 267 Z
      M 875 258 L 878 261 L 880 264 L 885 272 L 886 274 L 885 277 L 883 275 L 878 267 L 876 262 L 874 260 Z
      M 828 257 L 828 261 L 826 259 Z
      M 544 252 L 546 251 L 549 254 L 547 255 Z
      M 894 250 L 897 253 L 901 259 L 909 268 L 915 276 L 919 282 L 922 288 L 924 291 L 927 294 L 929 297 L 933 305 L 937 316 L 935 317 L 935 321 L 936 323 L 941 328 L 944 336 L 944 339 L 946 342 L 945 350 L 943 347 L 942 344 L 939 339 L 931 320 L 925 310 L 920 298 L 915 291 L 912 284 L 909 281 L 902 269 L 897 258 L 895 256 L 893 252 Z
      M 873 248 L 874 252 L 872 250 Z
      M 632 248 L 633 252 L 632 261 L 631 262 L 630 264 L 629 259 L 630 258 L 630 252 Z
      M 735 248 L 737 246 L 740 248 Z
      M 366 246 L 367 248 L 365 250 L 364 248 Z
      M 888 237 L 889 241 L 887 239 Z
      M 886 234 L 887 238 L 885 236 Z
      M 430 234 L 431 236 L 427 241 L 418 250 L 414 256 L 411 259 L 409 257 L 413 253 L 413 252 L 418 246 Z
      M 634 233 L 635 237 L 633 241 L 632 237 Z
      M 654 233 L 654 237 L 652 242 Z
      M 394 233 L 393 235 L 390 239 L 385 245 L 378 252 L 377 249 L 379 246 L 386 238 L 388 236 L 389 236 L 391 233 Z
      M 395 229 L 396 231 L 394 233 L 393 231 Z
      M 682 226 L 684 228 L 684 231 L 683 232 L 682 234 Z
      M 478 225 L 479 227 L 472 231 Z
      M 863 219 L 870 226 L 876 234 L 877 236 L 876 241 L 872 237 L 868 231 L 863 223 L 862 221 Z
      M 682 218 L 684 222 L 682 224 L 681 220 Z
      M 518 216 L 516 218 L 510 219 L 512 217 L 514 216 Z
      M 869 213 L 872 216 L 878 223 L 882 231 L 881 234 L 879 232 L 876 228 L 872 222 L 869 217 L 868 215 Z
      M 711 213 L 712 215 L 712 218 L 710 216 Z
      M 445 207 L 446 209 L 444 211 L 437 217 L 433 220 L 429 219 L 432 216 L 439 211 L 443 209 Z
      M 541 206 L 541 209 L 538 208 Z
      M 866 204 L 867 208 L 865 206 Z
      M 863 200 L 865 205 L 862 202 Z
      M 714 201 L 717 200 L 719 201 L 720 205 L 716 203 Z
      M 678 200 L 685 202 L 682 204 L 680 201 Z
      M 672 200 L 673 198 L 676 198 L 678 200 L 676 202 Z
      M 850 194 L 852 193 L 855 196 L 853 197 Z
      M 844 194 L 846 193 L 853 200 L 854 200 L 860 206 L 863 210 L 864 213 L 865 217 L 858 210 L 851 201 Z
      M 560 194 L 558 196 L 555 197 L 552 196 L 554 195 L 555 194 Z
      M 837 191 L 842 196 L 848 203 L 854 211 L 855 213 L 855 215 L 857 217 L 857 221 L 854 218 L 849 210 L 842 202 L 836 193 Z
      M 480 192 L 478 194 L 473 197 L 472 195 L 474 193 L 477 191 Z
      M 815 188 L 821 193 L 822 194 L 830 203 L 828 205 L 817 193 L 814 191 Z
      M 422 189 L 419 192 L 418 190 Z
      M 446 177 L 437 185 L 434 188 L 432 191 L 415 206 L 411 210 L 406 217 L 403 220 L 400 220 L 392 227 L 382 237 L 376 245 L 369 252 L 368 250 L 370 246 L 387 223 L 390 220 L 391 224 L 414 200 L 433 183 L 437 180 L 442 177 Z
      M 802 172 L 804 171 L 806 173 L 804 174 Z
      M 658 168 L 662 167 L 666 168 L 669 169 L 671 170 L 671 173 L 665 172 L 663 170 L 660 170 Z
      M 834 166 L 836 165 L 838 167 L 839 169 L 836 169 Z
      M 775 165 L 777 164 L 780 166 L 784 169 L 791 176 L 789 177 L 785 173 L 779 169 Z
      M 608 158 L 603 160 L 596 159 L 602 156 L 605 156 L 606 157 Z
      M 814 154 L 820 157 L 829 164 L 842 177 L 850 186 L 848 189 L 850 192 L 848 193 L 833 179 L 820 165 L 814 158 L 813 156 Z
      M 732 154 L 735 153 L 737 155 L 734 155 Z
      M 469 154 L 467 156 L 462 159 L 453 167 L 448 169 L 445 172 L 440 175 L 436 175 L 434 174 L 441 168 L 445 165 L 448 163 L 451 162 L 454 159 L 456 158 L 465 154 Z
      M 523 152 L 524 154 L 522 156 L 521 156 L 518 159 L 511 163 L 508 164 L 503 165 L 505 163 L 508 161 L 515 158 L 521 154 Z
      M 716 151 L 719 150 L 720 151 L 722 152 L 719 153 L 718 152 Z
      M 483 150 L 484 152 L 480 157 L 476 161 L 473 162 L 462 168 L 467 163 L 477 154 L 481 152 Z
      M 782 144 L 786 143 L 789 144 L 795 147 L 798 147 L 806 155 L 817 168 L 817 169 L 819 171 L 817 172 L 815 170 L 812 169 L 801 159 L 797 157 L 784 146 Z
      M 703 144 L 707 144 L 705 146 Z
      M 485 141 L 483 143 L 481 144 L 479 144 L 477 145 L 475 147 L 471 149 L 460 152 L 462 150 L 467 148 L 482 140 Z
      M 690 140 L 696 140 L 696 144 L 692 142 Z
      M 518 136 L 514 138 L 509 142 L 504 144 L 499 148 L 494 151 L 488 152 L 489 150 L 492 147 L 498 143 L 507 138 L 510 136 L 514 135 Z
      M 536 127 L 538 126 L 539 125 L 543 126 L 540 127 L 539 128 Z
      M 766 122 L 771 122 L 779 126 L 787 134 L 785 135 L 783 133 L 780 132 L 772 127 L 769 125 Z
      M 552 121 L 552 124 L 546 126 L 542 125 L 549 122 Z
      M 722 117 L 724 116 L 725 114 L 729 116 L 732 118 L 734 120 L 731 120 L 724 119 Z
      M 735 110 L 738 109 L 744 112 L 745 115 L 748 118 L 752 119 L 769 128 L 772 130 L 775 133 L 769 134 L 766 131 L 764 130 L 762 130 L 743 120 L 735 115 L 738 114 L 740 115 Z
      M 670 110 L 676 110 L 680 112 L 675 113 L 672 112 Z
      M 598 107 L 594 109 L 591 111 L 588 112 L 585 112 L 579 115 L 569 118 L 563 119 L 558 117 L 560 116 L 561 115 L 573 111 L 580 109 L 589 107 L 595 106 Z
      M 679 105 L 685 104 L 689 106 L 693 106 L 694 107 L 696 108 L 691 109 L 683 107 Z
      M 608 105 L 604 107 L 597 106 L 603 105 L 604 104 Z
      M 618 109 L 622 107 L 628 106 L 638 106 L 639 105 L 645 103 L 651 104 L 657 106 L 663 106 L 668 108 L 654 108 L 652 109 L 650 111 L 637 111 L 628 109 Z
      M 547 104 L 545 105 L 544 106 L 542 106 L 524 115 L 519 120 L 516 122 L 500 130 L 498 132 L 494 132 L 496 130 L 499 128 L 502 127 L 504 124 L 504 122 L 502 121 L 504 120 L 505 119 L 518 114 L 522 112 L 524 110 L 528 108 L 535 105 L 539 104 L 543 104 L 544 103 Z
      M 591 103 L 568 108 L 560 110 L 545 114 L 541 116 L 537 115 L 540 113 L 543 112 L 548 108 L 553 106 L 561 106 L 565 105 L 569 103 L 573 102 L 577 102 L 581 100 Z
      M 707 98 L 710 97 L 716 99 L 720 102 L 725 103 L 730 106 L 736 109 L 733 110 L 732 109 L 729 109 L 726 108 L 721 106 L 717 104 L 713 101 L 711 101 Z
      M 703 96 L 706 96 L 708 97 L 705 98 Z
      M 667 98 L 680 97 L 687 95 L 695 95 L 700 98 L 711 106 L 719 110 L 722 113 L 712 114 L 702 111 L 699 108 L 699 105 L 697 103 L 692 103 L 686 102 L 681 100 L 673 100 Z
      M 561 98 L 563 96 L 570 92 L 578 88 L 581 88 L 582 89 L 592 91 L 603 92 L 608 94 L 615 95 L 621 95 L 622 96 L 624 97 L 612 98 L 603 100 L 586 101 L 582 100 L 585 99 L 586 98 L 588 97 L 587 95 L 582 95 L 581 96 L 575 96 L 569 97 Z
      M 576 84 L 578 82 L 581 83 L 579 84 Z
    " fill="#000000" fill-rule="evenodd" clip-rule="evenodd"/>
</svg>
