<svg xmlns="http://www.w3.org/2000/svg" width="1254" height="1254" viewBox="0 0 1254 1254" fill="none">
  <rect width="1254" height="1254" fill="#fefefe"/>
  <path d="
      M 726 1065 L 722 1067 L 720 1067 L 714 1070 L 714 1072 L 719 1071 L 722 1070 L 726 1068 Z
      M 753 1052 L 751 1053 L 749 1055 L 746 1056 L 743 1059 L 742 1059 L 741 1061 L 743 1060 L 748 1059 L 750 1058 Z
      M 666 945 L 673 946 L 674 945 L 676 944 Z
      M 657 941 L 658 944 L 661 944 L 659 942 Z
      M 620 946 L 623 945 L 625 943 L 625 941 L 620 944 Z
      M 596 935 L 595 938 L 599 942 L 602 942 Z
      M 691 934 L 688 936 L 686 940 L 691 936 Z
      M 592 933 L 590 929 L 590 927 L 589 932 Z
      M 716 921 L 716 925 L 720 924 L 720 922 L 718 921 Z
      M 568 919 L 567 921 L 565 922 L 569 924 Z
      M 539 912 L 541 916 L 549 924 L 551 925 L 557 927 L 560 926 L 558 925 L 557 924 L 555 924 L 553 923 L 550 921 L 545 917 L 541 912 Z
      M 746 903 L 744 905 L 743 908 L 739 914 L 733 920 L 727 924 L 726 926 L 728 926 L 732 924 L 740 916 L 742 913 L 745 907 L 745 905 Z
      M 651 871 L 654 868 L 651 869 Z
      M 626 868 L 627 870 L 628 871 L 630 872 L 631 870 L 629 868 Z
      M 490 864 L 489 867 L 493 875 L 495 878 L 500 882 L 501 883 L 502 886 L 506 890 L 509 890 L 501 881 L 496 875 L 494 872 L 492 867 Z
      M 590 865 L 595 865 L 594 863 Z
      M 565 859 L 569 863 L 568 859 Z
      M 798 857 L 796 858 L 795 861 L 792 866 L 786 875 L 783 879 L 775 887 L 775 888 L 773 890 L 775 890 L 784 881 L 788 876 L 792 870 L 797 860 Z
      M 721 856 L 725 854 L 728 851 L 723 852 L 721 854 Z
      M 530 847 L 533 845 L 530 844 Z
      M 748 842 L 750 842 L 753 845 L 754 842 L 752 840 Z
      M 583 831 L 583 833 L 586 836 L 589 836 L 589 834 Z
      M 804 814 L 803 817 L 804 818 L 804 820 L 804 818 L 805 816 Z
      M 560 814 L 558 818 L 554 821 L 552 819 L 546 818 L 543 819 L 545 820 L 548 820 L 551 822 L 558 822 L 560 820 Z
      M 488 813 L 488 815 L 489 816 L 489 819 L 492 821 L 492 819 L 491 818 L 491 815 Z
      M 728 812 L 727 820 L 729 822 L 732 822 L 732 820 Z
      M 798 811 L 800 811 L 802 809 Z
      M 763 801 L 765 799 L 766 795 L 763 798 Z
      M 518 790 L 517 793 L 518 799 L 519 802 L 520 804 L 522 805 L 521 803 L 521 800 L 520 799 L 519 795 Z
      M 786 786 L 788 789 L 790 787 L 789 785 Z
      M 499 771 L 499 774 L 500 775 L 501 778 L 501 771 Z
      M 441 770 L 441 775 L 442 773 Z
      M 470 767 L 471 770 L 472 772 L 475 776 L 476 777 L 480 780 L 482 780 L 480 778 L 480 777 L 475 772 L 475 771 Z
      M 846 766 L 844 766 L 844 774 L 842 778 L 843 780 L 843 778 L 844 777 L 844 774 L 846 770 Z
      M 814 766 L 812 767 L 812 768 L 809 771 L 809 773 L 813 769 Z
      M 582 757 L 581 759 L 580 760 L 580 762 L 581 760 L 582 759 Z
      M 627 754 L 627 756 L 629 762 L 631 764 L 631 760 L 630 757 L 629 755 Z
      M 705 747 L 707 751 L 707 749 Z
      M 670 745 L 668 745 L 666 746 L 663 749 L 662 749 L 660 752 L 664 749 Z
      M 612 744 L 615 746 L 615 744 Z
      M 592 744 L 589 744 L 587 745 L 585 747 L 584 750 L 586 750 Z
      M 452 745 L 452 742 L 451 741 L 451 739 L 450 743 Z
      M 820 738 L 819 740 L 819 746 L 819 744 L 820 743 Z
      M 846 735 L 842 738 L 842 739 L 840 741 L 839 739 L 837 740 L 837 744 L 841 742 L 846 737 Z
      M 739 733 L 736 734 L 731 739 L 730 742 L 730 744 L 732 743 L 736 737 L 739 735 Z
      M 769 731 L 769 740 L 770 741 L 771 745 L 772 743 L 772 738 L 771 733 Z
      M 434 730 L 434 732 L 435 734 L 437 735 L 435 732 Z
      M 791 728 L 789 730 L 790 734 L 791 732 Z
      M 522 726 L 526 729 L 528 727 L 526 726 Z
      M 763 724 L 765 726 L 765 724 Z
      M 857 714 L 856 716 L 855 717 L 855 719 L 856 717 L 857 716 Z
      M 820 710 L 820 714 L 821 715 L 822 717 Z
      M 487 709 L 493 716 L 493 714 L 492 712 L 489 709 Z
      M 804 700 L 802 701 L 798 705 L 796 709 L 796 712 L 798 710 Z
      M 817 697 L 821 697 L 819 695 Z
      M 874 690 L 874 692 L 876 691 L 876 689 Z
      M 440 675 L 441 678 L 442 680 L 444 681 L 444 679 L 443 677 Z
      M 863 658 L 861 656 L 859 656 L 855 658 L 852 661 L 852 663 L 858 659 L 862 660 Z
      M 378 642 L 378 645 L 380 645 L 380 642 Z
      M 620 605 L 622 605 L 623 606 L 627 607 L 643 606 L 631 606 L 630 605 Z
      M 594 591 L 598 593 L 602 597 L 605 598 L 613 599 L 612 597 L 610 597 L 601 592 L 596 591 Z
      M 693 584 L 691 585 L 689 585 L 680 591 L 674 594 L 671 595 L 667 595 L 662 597 L 660 599 L 659 599 L 658 601 L 666 601 L 672 599 L 676 597 L 677 595 L 680 593 L 685 591 L 689 588 Z
      M 913 583 L 912 585 L 911 586 L 911 593 L 912 591 L 913 590 Z
      M 577 578 L 578 581 L 580 582 L 585 584 L 582 580 L 579 578 Z
      M 546 539 L 545 542 L 547 546 L 555 556 L 564 563 L 563 561 L 560 557 L 553 550 Z
      M 675 534 L 672 537 L 663 543 L 666 543 L 670 541 L 673 538 L 673 537 Z
      M 743 520 L 741 521 L 740 523 L 741 526 L 741 524 L 742 523 Z
      M 529 520 L 529 530 L 532 540 L 534 545 L 536 549 L 538 552 L 543 557 L 545 561 L 554 571 L 560 576 L 554 568 L 547 561 L 544 557 L 541 551 L 536 540 L 534 535 L 532 529 L 532 524 Z
      M 294 517 L 293 521 L 292 522 L 292 527 L 294 526 L 295 519 Z
      M 752 507 L 750 511 L 750 514 L 745 529 L 741 537 L 739 540 L 735 544 L 733 548 L 730 552 L 716 566 L 715 568 L 717 567 L 718 567 L 721 565 L 726 561 L 731 556 L 731 555 L 737 549 L 739 546 L 743 538 L 743 535 L 744 533 L 748 528 L 749 526 L 751 521 L 753 513 Z
      M 692 508 L 692 510 L 694 509 L 694 507 Z
      M 990 503 L 989 508 L 990 509 L 990 514 L 991 515 L 992 518 L 992 511 Z
      M 519 491 L 519 497 L 520 498 L 521 501 Z
      M 697 472 L 696 483 L 697 484 L 698 495 L 699 493 L 700 489 L 700 484 L 699 483 L 699 477 L 697 474 Z
      M 636 472 L 633 474 L 631 476 L 629 481 L 629 486 L 631 489 L 633 491 L 635 492 L 639 492 L 641 491 L 643 489 L 644 487 L 645 484 L 645 480 L 644 477 L 640 473 L 638 472 Z
      M 527 465 L 525 467 L 524 470 L 523 475 L 524 479 L 526 478 L 527 474 L 528 467 Z
      M 746 453 L 744 454 L 745 457 L 748 463 L 750 469 L 752 473 L 751 465 L 748 456 Z
      M 688 452 L 689 454 L 690 457 L 692 458 L 692 456 L 691 454 L 690 453 Z
      M 664 436 L 667 440 L 672 443 L 674 443 L 673 441 L 673 440 L 672 439 L 671 439 L 669 437 L 667 436 Z
      M 652 433 L 639 433 L 636 434 L 634 436 L 629 436 L 622 438 L 619 440 L 616 440 L 609 443 L 597 455 L 594 459 L 586 471 L 585 473 L 584 478 L 586 478 L 588 474 L 589 477 L 588 478 L 588 482 L 587 483 L 586 488 L 586 494 L 589 506 L 595 519 L 599 524 L 606 531 L 609 533 L 615 536 L 623 539 L 625 541 L 627 542 L 635 544 L 640 544 L 646 543 L 649 542 L 652 540 L 655 540 L 668 534 L 675 529 L 681 521 L 685 513 L 685 506 L 690 498 L 689 492 L 689 490 L 690 489 L 689 476 L 687 469 L 685 465 L 682 461 L 682 459 L 680 456 L 672 448 L 668 447 L 661 441 L 656 438 L 657 435 Z
      M 673 517 L 668 522 L 663 525 L 655 529 L 652 529 L 649 531 L 636 531 L 634 529 L 645 528 L 661 520 L 665 516 L 666 516 L 668 514 L 669 517 L 672 515 Z
      M 602 511 L 604 512 L 613 521 L 616 522 L 621 527 L 624 529 L 627 530 L 622 531 L 619 530 L 617 529 L 614 527 L 609 523 L 605 519 L 604 516 L 601 513 Z
      M 599 506 L 601 508 L 601 512 L 599 510 L 598 508 Z
      M 597 475 L 598 478 L 597 484 L 595 490 L 594 480 Z
      M 635 464 L 639 464 L 642 465 L 644 466 L 650 472 L 653 476 L 654 479 L 654 486 L 653 489 L 651 492 L 645 498 L 642 500 L 639 501 L 634 501 L 630 500 L 628 499 L 623 494 L 621 489 L 620 486 L 620 480 L 622 474 L 623 472 L 628 467 L 632 465 Z
      M 616 449 L 614 451 L 605 459 L 605 460 L 598 467 L 597 465 L 598 463 L 602 457 L 607 452 L 611 449 Z
      M 633 441 L 637 439 L 641 438 L 647 438 L 653 440 L 656 442 L 658 444 L 655 445 L 652 443 L 645 441 L 640 441 L 639 442 Z
      M 625 427 L 632 427 L 633 426 L 637 425 Z
      M 730 419 L 730 421 L 733 426 L 737 431 L 739 436 L 745 442 L 743 438 L 743 435 L 738 425 L 736 423 L 736 422 L 735 421 L 734 421 L 732 419 Z
      M 551 412 L 541 422 L 538 426 L 535 432 L 533 437 L 533 441 L 535 439 L 537 436 L 538 433 L 540 430 L 551 416 Z
      M 562 403 L 560 403 L 558 404 L 557 407 L 559 407 Z
      M 697 402 L 700 405 L 703 406 L 706 408 L 702 403 Z
      M 696 386 L 699 390 L 702 391 L 705 393 L 708 396 L 711 398 L 714 397 L 717 399 L 716 396 L 715 396 L 713 394 L 706 390 L 700 387 L 698 387 Z
      M 683 381 L 684 383 L 685 383 L 687 385 L 689 386 L 694 386 L 692 384 L 687 381 Z
      M 593 381 L 587 381 L 579 385 L 576 387 L 571 392 L 574 392 L 583 386 Z
      M 829 154 L 829 156 L 847 174 L 852 178 L 852 176 L 851 174 L 849 171 L 833 155 L 831 154 Z
      M 610 87 L 557 99 L 585 96 L 536 120 L 543 110 L 521 115 L 527 119 L 451 157 L 503 135 L 435 188 L 373 263 L 411 195 L 455 144 L 414 185 L 361 269 L 309 386 L 309 402 L 341 323 L 308 468 L 304 430 L 294 472 L 293 505 L 301 458 L 300 589 L 293 540 L 296 604 L 299 610 L 302 603 L 313 625 L 321 686 L 302 622 L 301 634 L 336 764 L 309 712 L 311 729 L 345 789 L 385 894 L 368 844 L 415 937 L 371 878 L 387 916 L 425 953 L 478 1022 L 447 982 L 523 1056 L 534 1058 L 484 1009 L 557 1056 L 549 1046 L 618 1073 L 597 1077 L 539 1054 L 590 1076 L 569 1075 L 604 1084 L 603 1079 L 664 1078 L 652 1085 L 698 1077 L 817 997 L 791 1036 L 827 1000 L 816 1007 L 901 881 L 890 911 L 921 852 L 951 733 L 976 684 L 982 633 L 952 726 L 975 598 L 978 634 L 989 495 L 954 336 L 963 350 L 958 329 L 946 313 L 959 384 L 932 294 L 873 192 L 863 186 L 888 223 L 812 158 L 776 138 L 803 145 L 740 121 L 732 126 L 703 108 L 738 112 L 687 98 L 653 105 L 607 96 L 642 105 L 589 113 L 609 113 L 528 132 L 590 108 L 592 103 L 569 107 L 616 90 Z
      M 617 1068 L 621 1067 L 630 1069 L 628 1070 L 627 1071 L 625 1071 L 624 1070 L 621 1070 Z
      M 638 1072 L 640 1070 L 646 1069 L 654 1066 L 661 1065 L 662 1064 L 664 1064 L 666 1066 L 662 1067 L 658 1069 L 661 1070 L 662 1069 L 666 1069 L 667 1068 L 677 1067 L 681 1065 L 686 1065 L 690 1067 L 688 1069 L 681 1071 L 674 1075 L 662 1074 L 654 1072 Z
      M 714 1061 L 712 1063 L 709 1065 L 703 1068 L 700 1067 L 704 1064 L 710 1061 Z
      M 589 1058 L 601 1057 L 606 1058 L 610 1060 L 614 1061 L 630 1062 L 646 1061 L 658 1062 L 650 1064 L 647 1066 L 643 1067 L 630 1067 L 620 1065 L 617 1066 L 617 1067 L 614 1068 L 610 1066 L 607 1066 L 598 1063 L 596 1062 L 594 1060 L 592 1059 Z
      M 658 1048 L 656 1050 L 650 1049 L 654 1048 L 655 1047 Z
      M 568 1046 L 570 1045 L 573 1047 L 575 1047 L 580 1050 L 586 1051 L 588 1053 L 585 1054 L 584 1053 L 580 1053 L 570 1048 Z
      M 726 1044 L 724 1046 L 708 1057 L 706 1058 L 704 1058 L 702 1059 L 698 1062 L 696 1060 L 692 1060 L 687 1061 L 680 1064 L 676 1064 L 672 1065 L 671 1066 L 668 1065 L 669 1062 L 671 1062 L 673 1060 L 677 1060 L 684 1057 L 686 1058 L 698 1054 L 703 1052 L 708 1049 L 716 1047 L 721 1045 Z
      M 663 1042 L 657 1044 L 652 1045 L 643 1045 L 644 1042 L 653 1041 Z
      M 596 1041 L 599 1040 L 600 1041 L 604 1041 L 608 1043 L 616 1043 L 624 1045 L 633 1046 L 629 1048 L 621 1048 L 606 1045 L 599 1043 L 598 1042 Z
      M 700 1038 L 697 1041 L 691 1042 L 678 1048 L 675 1047 L 678 1044 L 680 1043 L 688 1040 L 691 1040 L 694 1039 L 697 1037 Z
      M 591 1030 L 594 1029 L 597 1030 L 599 1031 L 599 1034 L 594 1032 L 593 1031 Z
      M 557 1028 L 559 1027 L 561 1029 L 559 1030 Z
      M 585 1027 L 588 1026 L 590 1027 L 592 1029 L 589 1030 Z
      M 765 1025 L 752 1038 L 746 1043 L 743 1045 L 739 1047 L 729 1051 L 724 1052 L 721 1052 L 723 1050 L 733 1043 L 739 1040 L 754 1029 L 759 1026 L 761 1025 Z
      M 580 1024 L 582 1023 L 584 1025 L 582 1026 Z
      M 518 1023 L 520 1022 L 524 1024 L 526 1026 L 533 1029 L 542 1035 L 547 1039 L 549 1041 L 546 1042 L 538 1038 L 529 1032 L 521 1026 Z
      M 575 1021 L 577 1020 L 579 1021 L 581 1023 L 579 1024 L 577 1023 Z
      M 502 1019 L 504 1018 L 506 1020 L 504 1021 Z
      M 814 1007 L 815 1009 L 809 1015 L 808 1013 Z
      M 771 1007 L 761 1017 L 755 1019 L 762 1012 Z
      M 486 1004 L 488 1003 L 499 1014 L 497 1015 Z
      M 462 985 L 471 994 L 477 1001 L 478 1003 L 477 1006 L 469 998 L 463 990 L 461 987 Z
      M 483 979 L 485 980 L 494 988 L 507 1000 L 514 1008 L 517 1011 L 525 1017 L 525 1020 L 523 1019 L 520 1017 L 507 1006 L 495 994 L 492 993 L 489 990 L 484 984 L 482 981 Z
      M 440 970 L 444 973 L 445 974 L 446 976 L 445 979 L 443 977 L 439 972 Z
      M 643 966 L 644 964 L 646 964 L 647 965 L 649 966 Z
      M 441 964 L 443 969 L 440 966 Z
      M 618 964 L 620 963 L 624 963 L 639 965 L 638 968 L 624 968 Z
      M 608 964 L 609 962 L 616 964 Z
      M 678 962 L 673 966 L 669 967 L 662 968 L 659 967 L 661 963 L 667 962 L 674 961 Z
      M 458 962 L 463 962 L 470 970 L 473 974 L 474 978 L 482 985 L 483 987 L 480 988 L 478 989 L 474 985 L 474 984 L 464 973 L 460 968 Z
      M 508 961 L 510 960 L 512 962 L 510 963 Z
      M 469 958 L 474 963 L 475 968 L 471 964 L 468 960 Z
      M 716 953 L 713 956 L 710 957 L 703 960 L 699 961 L 696 961 L 695 957 L 697 957 L 700 955 L 703 954 L 711 954 Z
      M 556 950 L 558 949 L 561 951 L 563 951 L 568 954 L 565 955 L 560 953 L 558 952 Z
      M 845 946 L 846 948 L 840 958 L 836 962 L 832 969 L 826 977 L 817 987 L 809 994 L 807 996 L 807 997 L 784 1019 L 774 1027 L 769 1028 L 772 1025 L 772 1024 L 785 1011 L 790 1009 L 797 1002 L 797 997 L 799 995 L 802 994 L 808 988 L 808 987 L 815 979 L 818 976 L 819 978 L 823 977 L 826 971 L 826 968 L 831 963 L 833 959 L 838 953 Z
      M 637 944 L 639 954 L 626 954 L 629 953 L 634 949 Z
      M 434 944 L 437 946 L 438 947 L 438 948 L 440 950 L 441 956 L 437 952 L 433 946 Z
      M 645 940 L 646 943 L 647 945 L 649 948 L 654 953 L 657 954 L 644 954 Z
      M 858 932 L 859 934 L 856 937 L 854 941 L 851 944 L 847 943 L 851 940 Z
      M 750 932 L 751 935 L 749 937 L 748 937 L 745 940 L 742 941 L 739 944 L 734 945 L 741 938 L 745 935 Z
      M 712 933 L 713 931 L 715 933 L 718 934 L 724 935 L 721 937 L 719 938 L 716 938 L 713 935 Z
      M 582 930 L 583 934 L 584 937 L 585 939 L 587 942 L 591 946 L 588 947 L 587 946 L 583 945 L 581 935 Z
      M 576 926 L 577 934 L 579 942 L 576 943 L 571 940 L 569 940 L 564 937 L 570 936 L 574 932 L 575 930 Z
      M 765 924 L 761 928 L 757 927 L 758 927 Z
      M 705 920 L 706 925 L 708 928 L 708 931 L 709 934 L 710 936 L 713 940 L 711 941 L 708 940 L 707 943 L 704 944 L 701 946 L 696 946 L 699 943 L 701 940 L 702 938 L 704 928 Z
      M 509 915 L 511 913 L 516 917 L 522 922 L 527 928 L 530 929 L 532 931 L 534 931 L 536 932 L 540 935 L 536 936 L 532 935 L 529 932 L 526 931 L 524 928 L 514 920 Z
      M 452 912 L 455 918 L 451 914 Z
      M 416 909 L 420 911 L 421 912 L 421 913 L 428 922 L 430 927 L 430 929 L 429 930 L 428 933 L 421 923 L 419 918 L 415 911 Z
      M 767 907 L 767 898 L 776 899 L 769 906 Z
      M 427 897 L 428 899 L 429 900 L 430 903 L 429 907 L 426 904 L 424 901 L 425 898 Z
      M 761 896 L 762 902 L 764 908 L 763 911 L 758 914 L 755 917 L 754 915 L 755 913 L 757 910 L 760 902 Z
      M 521 896 L 523 902 L 523 906 L 525 908 L 523 912 L 518 908 L 513 903 L 516 902 L 518 901 L 520 899 Z
      M 796 891 L 797 893 L 795 897 L 781 907 L 790 897 Z
      M 395 884 L 397 888 L 403 896 L 407 906 L 408 908 L 412 913 L 416 922 L 433 952 L 440 965 L 434 959 L 431 954 L 426 949 L 423 945 L 421 941 L 417 931 L 415 929 L 415 927 L 414 925 L 410 919 L 407 911 L 403 903 L 398 896 L 396 892 L 394 887 Z
      M 475 881 L 486 896 L 478 888 L 474 883 Z
      M 424 881 L 426 883 L 425 888 L 424 884 Z
      M 647 862 L 648 864 L 645 870 L 645 862 L 646 863 Z
      M 588 857 L 592 857 L 593 858 L 598 858 L 604 860 L 613 860 L 617 862 L 628 862 L 636 864 L 637 866 L 637 868 L 635 870 L 635 872 L 636 875 L 638 879 L 637 921 L 635 926 L 635 935 L 632 938 L 630 942 L 630 946 L 627 949 L 620 952 L 611 952 L 603 950 L 593 943 L 590 940 L 588 936 L 585 927 L 584 923 L 582 912 L 582 905 L 580 900 L 580 878 L 581 868 L 583 861 L 586 858 Z
      M 694 856 L 699 858 L 701 860 L 703 865 L 704 875 L 704 894 L 701 915 L 699 920 L 699 925 L 698 930 L 696 937 L 694 941 L 688 947 L 682 950 L 674 952 L 665 952 L 662 951 L 658 948 L 655 948 L 650 943 L 648 938 L 645 925 L 645 882 L 647 873 L 648 870 L 650 866 L 654 862 L 663 861 L 674 861 L 688 858 L 692 856 Z
      M 820 855 L 821 857 L 819 859 L 818 857 Z
      M 581 854 L 583 856 L 581 859 Z
      M 392 854 L 394 856 L 398 862 L 404 872 L 409 883 L 415 892 L 416 894 L 415 897 L 411 893 L 408 889 L 402 878 L 401 876 L 400 872 L 391 856 Z
      M 700 855 L 702 854 L 705 854 L 704 859 L 703 857 L 702 856 Z
      M 451 850 L 454 854 L 456 858 L 460 862 L 461 867 L 458 865 L 457 864 L 457 863 L 455 861 L 450 853 Z
      M 464 845 L 467 848 L 470 848 L 472 845 L 472 859 L 469 856 L 466 852 L 464 849 L 463 847 Z
      M 811 843 L 813 847 L 817 846 L 818 848 L 814 853 L 812 858 L 807 864 L 806 861 L 807 860 L 807 857 L 809 853 L 809 849 Z
      M 637 841 L 637 846 L 636 845 L 631 845 Z
      M 646 838 L 648 842 L 652 843 L 654 845 L 645 845 Z
      M 754 835 L 756 836 L 757 837 L 759 841 L 760 846 L 759 871 L 757 883 L 753 898 L 750 907 L 748 912 L 744 919 L 736 927 L 732 929 L 723 931 L 720 931 L 716 929 L 712 925 L 711 922 L 710 916 L 710 892 L 712 883 L 713 863 L 714 857 L 715 854 L 717 851 L 720 848 L 725 847 L 741 840 L 743 838 L 750 835 Z
      M 531 834 L 533 835 L 537 838 L 548 842 L 553 845 L 549 846 L 548 845 L 545 846 L 548 848 L 552 849 L 556 849 L 559 847 L 563 848 L 569 851 L 571 853 L 572 857 L 573 872 L 572 876 L 574 889 L 574 911 L 573 922 L 572 927 L 571 929 L 567 933 L 563 933 L 555 932 L 549 929 L 546 927 L 540 921 L 538 918 L 532 905 L 528 890 L 526 879 L 525 871 L 525 842 L 527 837 L 529 835 Z
      M 761 831 L 760 835 L 758 834 L 757 832 Z
      M 716 832 L 712 833 L 714 830 Z
      M 565 828 L 565 833 L 562 831 L 564 830 Z
      M 767 826 L 767 832 L 765 828 Z
      M 922 821 L 923 824 L 921 831 L 914 851 L 910 861 L 906 868 L 903 872 L 897 879 L 895 882 L 887 896 L 885 899 L 883 901 L 882 899 L 889 885 L 894 876 L 907 851 L 907 849 L 909 845 Z
      M 722 822 L 722 827 L 724 829 L 721 831 L 719 827 Z
      M 846 814 L 847 816 L 845 820 L 843 822 L 842 820 L 844 816 Z
      M 436 812 L 437 816 L 435 814 Z
      M 357 810 L 359 813 L 361 818 L 367 823 L 369 825 L 371 828 L 383 853 L 385 855 L 390 866 L 395 879 L 392 876 L 386 868 L 382 862 L 379 857 L 376 850 L 371 843 L 366 834 L 357 816 L 356 813 Z
      M 849 809 L 850 811 L 849 813 L 847 815 L 846 813 L 847 811 Z
      M 381 804 L 384 809 L 384 811 L 387 816 L 386 819 L 384 815 L 382 812 L 380 807 Z
      M 807 804 L 808 807 L 808 825 L 806 838 L 804 843 L 803 854 L 801 862 L 798 870 L 794 878 L 792 881 L 785 888 L 781 891 L 776 894 L 773 894 L 770 896 L 767 893 L 767 891 L 769 887 L 769 883 L 766 884 L 765 874 L 767 867 L 768 859 L 768 848 L 769 840 L 770 836 L 773 833 L 773 831 L 772 828 L 772 826 L 776 822 L 783 818 L 788 813 L 800 804 L 802 803 Z
      M 480 803 L 483 802 L 485 803 L 488 806 L 486 808 L 488 810 L 492 812 L 495 812 L 499 816 L 504 819 L 510 822 L 513 824 L 515 826 L 514 831 L 513 829 L 511 829 L 511 831 L 513 833 L 515 838 L 516 844 L 516 856 L 518 861 L 518 869 L 517 870 L 517 877 L 518 895 L 515 898 L 512 898 L 507 896 L 503 893 L 498 887 L 496 885 L 495 885 L 494 884 L 491 880 L 487 872 L 482 856 L 482 851 L 481 847 L 478 839 L 477 835 L 477 811 L 478 807 Z
      M 805 801 L 807 799 L 810 800 L 809 803 L 807 803 Z
      M 777 797 L 778 800 L 777 801 L 776 804 L 775 800 L 776 799 Z
      M 781 799 L 782 796 L 785 798 Z
      M 815 794 L 815 796 L 814 797 L 813 800 L 812 798 L 811 797 L 811 795 Z
      M 431 792 L 434 792 L 435 794 L 434 797 Z
      M 414 787 L 418 791 L 420 794 L 422 799 L 423 803 L 419 799 L 416 795 L 414 792 L 413 790 Z
      M 852 783 L 855 784 L 852 789 L 851 785 Z
      M 914 777 L 915 781 L 912 788 L 910 798 L 909 801 L 905 809 L 901 815 L 899 817 L 897 814 L 899 810 L 905 797 L 907 795 L 908 793 L 907 791 L 908 789 L 911 785 L 912 783 Z
      M 933 774 L 934 782 L 931 789 L 930 796 L 929 799 L 925 808 L 923 810 L 921 816 L 917 822 L 910 838 L 901 854 L 901 856 L 900 858 L 898 860 L 898 862 L 890 877 L 883 888 L 878 899 L 863 919 L 858 925 L 853 930 L 852 928 L 855 925 L 858 919 L 870 902 L 873 895 L 879 885 L 885 877 L 900 852 L 907 836 L 911 824 L 918 811 L 919 806 L 926 789 L 930 782 Z
      M 355 766 L 359 774 L 363 786 L 365 788 L 364 790 L 372 812 L 374 815 L 373 818 L 370 813 L 366 803 L 363 793 L 360 788 L 354 770 Z
      M 451 759 L 455 759 L 456 760 L 457 762 L 455 763 L 454 761 Z
      M 437 758 L 439 760 L 438 762 L 441 764 L 444 764 L 454 775 L 451 776 L 454 779 L 454 775 L 464 785 L 467 790 L 468 793 L 468 795 L 466 796 L 466 798 L 468 804 L 470 819 L 470 828 L 472 836 L 471 844 L 470 839 L 468 835 L 467 834 L 463 832 L 463 834 L 465 836 L 466 839 L 467 844 L 465 843 L 461 839 L 456 833 L 457 830 L 453 825 L 451 820 L 453 819 L 452 817 L 452 815 L 448 808 L 445 805 L 446 807 L 446 809 L 448 812 L 448 817 L 446 815 L 444 812 L 442 808 L 440 802 L 439 797 L 439 787 L 437 784 L 436 776 Z
      M 903 755 L 904 758 L 902 762 L 900 764 L 899 762 L 900 760 Z
      M 848 755 L 850 757 L 851 759 L 851 768 L 848 776 L 846 790 L 845 794 L 841 804 L 840 797 L 837 803 L 834 811 L 832 815 L 829 819 L 829 821 L 831 820 L 831 819 L 833 817 L 840 803 L 841 807 L 834 823 L 827 834 L 820 841 L 819 839 L 821 836 L 821 833 L 822 832 L 822 829 L 821 831 L 819 833 L 817 838 L 817 841 L 819 842 L 816 844 L 814 842 L 814 829 L 815 813 L 817 807 L 817 800 L 819 797 L 819 794 L 818 793 L 818 790 L 819 788 L 827 780 L 842 760 Z
      M 831 755 L 832 757 L 830 759 L 829 757 Z
      M 907 747 L 908 750 L 906 754 L 904 756 L 903 754 L 904 752 Z
      M 874 747 L 875 753 L 873 759 L 871 764 L 867 771 L 866 768 L 868 765 L 872 750 L 873 749 Z
      M 853 746 L 854 752 L 852 754 L 851 752 L 849 751 L 850 749 Z
      M 385 745 L 386 748 L 387 749 L 386 752 L 385 750 L 384 749 Z
      M 580 742 L 578 744 L 578 745 L 576 747 L 575 744 Z
      M 627 740 L 639 740 L 638 754 L 636 751 L 635 748 L 633 745 Z
      M 655 739 L 652 743 L 651 745 L 651 749 L 647 756 L 645 764 L 643 753 L 644 739 Z
      M 587 740 L 597 737 L 605 737 L 611 739 L 617 739 L 620 740 L 625 743 L 633 751 L 634 753 L 636 760 L 637 766 L 638 779 L 637 798 L 638 811 L 638 822 L 636 827 L 636 834 L 635 838 L 632 841 L 627 843 L 623 844 L 613 844 L 612 843 L 601 843 L 592 841 L 585 839 L 578 836 L 577 835 L 576 833 L 573 823 L 571 807 L 571 778 L 573 766 L 575 758 L 577 753 L 580 747 L 584 742 L 585 742 Z
      M 699 737 L 705 740 L 706 741 L 706 742 L 708 744 L 711 750 L 712 753 L 715 766 L 715 797 L 714 804 L 712 810 L 712 826 L 711 829 L 709 831 L 707 828 L 700 838 L 693 841 L 679 844 L 663 844 L 655 842 L 653 841 L 649 837 L 650 834 L 652 836 L 654 836 L 654 834 L 653 832 L 651 830 L 649 835 L 647 828 L 646 821 L 646 789 L 648 783 L 648 774 L 649 767 L 653 754 L 655 750 L 662 743 L 670 739 L 677 737 L 684 736 L 692 736 Z
      M 417 735 L 419 737 L 419 738 L 426 746 L 428 750 L 428 759 L 430 765 L 430 773 L 431 774 L 432 783 L 431 786 L 428 783 L 424 776 L 421 769 L 420 764 L 421 759 L 417 751 L 415 741 Z
      M 583 735 L 581 736 L 580 737 L 578 737 L 576 738 L 574 740 L 572 743 L 572 750 L 570 754 L 569 736 L 571 732 L 574 732 L 575 733 L 579 733 Z
      M 701 733 L 715 731 L 716 733 L 715 750 L 713 744 L 709 739 L 709 738 L 708 737 L 707 737 Z
      M 415 729 L 418 732 L 417 735 L 414 731 Z
      M 623 729 L 627 727 L 638 731 L 629 731 Z
      M 556 727 L 562 729 L 566 731 L 566 737 L 564 741 L 562 739 L 560 734 L 558 731 L 556 730 Z
      M 730 725 L 730 728 L 727 730 L 727 731 L 724 734 L 723 736 L 721 742 L 720 748 L 720 728 L 724 727 L 727 727 Z
      M 413 725 L 414 727 L 414 730 L 412 728 Z
      M 521 722 L 531 722 L 537 725 L 541 725 L 548 729 L 553 733 L 554 733 L 555 734 L 556 737 L 557 742 L 553 738 L 550 739 L 554 744 L 557 747 L 559 746 L 560 748 L 561 749 L 561 758 L 563 768 L 564 791 L 564 806 L 563 825 L 561 827 L 559 828 L 555 828 L 550 827 L 545 824 L 542 824 L 538 822 L 534 819 L 532 819 L 530 818 L 525 813 L 521 813 L 519 811 L 516 804 L 514 797 L 512 786 L 512 772 L 510 766 L 510 755 L 512 744 L 515 746 L 516 744 L 514 739 L 514 733 L 516 727 Z
      M 765 718 L 767 719 L 770 722 L 774 730 L 775 734 L 776 742 L 777 759 L 775 776 L 773 789 L 771 792 L 771 798 L 770 801 L 766 808 L 763 811 L 763 812 L 761 814 L 740 825 L 731 827 L 729 825 L 727 825 L 725 823 L 724 821 L 723 814 L 723 768 L 724 757 L 725 750 L 728 738 L 730 734 L 737 727 L 740 725 L 746 722 L 752 720 L 760 720 L 763 718 Z
      M 697 721 L 693 723 L 685 723 L 677 725 L 667 726 L 662 725 L 667 723 L 671 723 L 680 720 L 689 718 L 696 719 Z
      M 874 717 L 874 720 L 872 727 L 873 733 L 870 744 L 868 747 L 867 750 L 867 754 L 866 758 L 865 761 L 862 767 L 859 770 L 856 777 L 855 766 L 857 751 L 858 746 L 861 739 L 863 737 L 864 735 L 864 731 L 866 728 L 869 725 L 871 722 L 872 719 Z
      M 582 721 L 585 719 L 587 718 L 590 719 L 596 719 L 599 720 L 605 723 L 595 724 L 589 723 Z
      M 714 718 L 711 719 L 707 720 L 702 718 L 704 717 L 711 716 L 712 715 Z
      M 523 717 L 519 718 L 516 720 L 514 722 L 513 724 L 514 712 L 517 714 L 519 714 L 521 715 Z
      M 760 714 L 762 713 L 763 712 L 770 710 L 772 708 L 774 710 L 776 716 L 775 722 L 771 717 L 768 715 Z
      M 542 709 L 545 708 L 548 710 L 553 711 L 555 712 L 558 715 L 556 716 L 553 714 L 550 714 L 546 712 Z
      M 332 707 L 335 715 L 337 717 L 338 719 L 339 723 L 346 744 L 348 751 L 349 756 L 349 765 L 351 772 L 354 779 L 354 784 L 355 789 L 358 798 L 361 805 L 365 816 L 363 814 L 352 793 L 351 790 L 353 789 L 353 787 L 352 784 L 349 778 L 347 777 L 349 782 L 348 785 L 347 783 L 346 782 L 344 776 L 340 760 L 340 752 L 342 754 L 344 758 L 345 761 L 345 759 L 344 758 L 344 756 L 342 753 L 341 750 L 341 747 L 339 744 L 338 741 L 333 720 L 333 716 L 331 711 Z
      M 743 709 L 735 713 L 729 715 L 727 715 L 726 713 L 724 714 L 722 714 L 720 716 L 718 717 L 716 715 L 718 713 L 724 711 L 730 710 L 733 708 L 736 707 L 740 706 L 741 708 Z
      M 499 705 L 501 707 L 507 709 L 509 711 L 509 713 L 508 720 L 506 727 L 505 723 L 503 717 L 501 715 L 497 706 Z
      M 519 705 L 522 704 L 525 706 L 528 706 L 530 707 L 532 709 L 530 710 L 527 708 L 524 708 L 521 707 Z
      M 791 701 L 788 704 L 786 707 L 784 711 L 784 714 L 783 717 L 782 718 L 781 720 L 779 715 L 778 709 L 779 705 L 781 704 L 784 704 L 788 700 Z
      M 395 700 L 398 700 L 399 703 L 407 715 L 409 719 L 410 733 L 409 738 L 404 731 L 401 725 L 398 716 L 399 711 Z
      M 322 696 L 324 699 L 325 701 L 327 710 L 326 714 L 324 710 L 324 707 L 321 700 Z
      M 468 692 L 474 693 L 473 696 L 479 696 L 481 697 L 489 703 L 493 707 L 499 719 L 499 723 L 501 727 L 501 745 L 503 751 L 504 757 L 505 782 L 503 799 L 501 797 L 495 793 L 498 796 L 496 797 L 494 796 L 486 790 L 480 784 L 476 781 L 474 782 L 470 778 L 467 773 L 462 748 L 461 734 L 461 718 L 463 712 L 463 702 L 464 698 L 466 694 Z
      M 784 691 L 782 693 L 776 694 L 778 692 L 781 690 Z
      M 380 690 L 382 694 L 385 701 L 392 720 L 394 727 L 393 730 L 390 725 L 384 711 L 382 703 L 379 698 Z
      M 948 689 L 949 698 L 946 716 L 945 721 L 943 729 L 941 735 L 938 743 L 932 758 L 931 759 L 930 761 L 929 757 L 932 745 L 933 743 L 936 739 L 936 737 L 935 735 L 936 732 L 939 725 L 944 706 L 944 701 L 946 693 Z
      M 820 689 L 824 693 L 824 699 L 826 703 L 827 708 L 827 736 L 824 751 L 821 761 L 818 769 L 816 773 L 814 776 L 810 780 L 798 789 L 794 791 L 790 791 L 786 793 L 784 793 L 782 791 L 782 787 L 783 777 L 785 769 L 785 762 L 784 761 L 784 754 L 785 733 L 786 723 L 788 715 L 790 710 L 794 704 L 804 694 L 807 692 L 813 689 Z
      M 327 686 L 329 690 L 329 693 L 331 697 L 330 701 L 326 691 Z
      M 894 678 L 895 681 L 894 688 L 893 693 L 890 702 L 888 707 L 887 709 L 882 716 L 881 719 L 880 713 L 882 709 L 882 705 L 884 703 L 886 698 L 887 692 L 890 684 L 892 680 Z
      M 816 684 L 821 680 L 824 680 L 826 678 L 827 680 L 828 681 L 827 691 L 823 686 L 821 685 Z
      M 473 677 L 475 676 L 477 677 L 479 679 L 477 680 L 475 679 Z
      M 383 675 L 385 675 L 387 677 L 390 684 L 391 689 L 391 692 L 389 690 L 387 690 L 385 688 L 383 683 L 382 680 Z
      M 900 674 L 900 677 L 899 680 L 898 676 Z
      M 470 675 L 472 674 L 474 676 L 472 677 Z
      M 451 674 L 453 675 L 456 679 L 462 682 L 466 685 L 469 688 L 466 689 L 464 691 L 462 694 L 461 696 L 461 699 L 459 703 L 458 684 L 457 683 L 456 681 L 454 686 L 453 682 L 450 677 Z
      M 338 673 L 339 677 L 341 682 L 340 686 L 338 682 L 337 678 Z
      M 459 673 L 461 672 L 463 674 L 461 675 Z
      M 834 670 L 835 673 L 834 674 L 833 678 L 832 683 L 830 678 L 829 674 L 832 671 Z
      M 369 657 L 371 661 L 371 664 L 374 674 L 378 681 L 379 684 L 379 686 L 377 687 L 376 690 L 374 688 L 371 678 L 370 673 L 370 668 L 368 662 Z
      M 424 656 L 428 656 L 430 657 L 434 661 L 434 662 L 437 665 L 440 666 L 442 668 L 449 682 L 450 685 L 451 689 L 453 700 L 454 710 L 454 713 L 453 724 L 455 742 L 454 755 L 451 752 L 449 753 L 445 749 L 443 750 L 436 743 L 432 738 L 424 722 L 422 716 L 419 700 L 417 675 L 417 671 L 419 662 L 421 658 L 422 657 Z
      M 904 655 L 906 657 L 906 661 L 904 668 L 903 669 L 902 671 L 899 667 L 899 665 L 901 660 Z
      M 860 650 L 863 652 L 865 654 L 866 657 L 867 662 L 867 672 L 865 676 L 864 667 L 862 667 L 862 672 L 863 673 L 863 676 L 865 677 L 865 692 L 858 724 L 857 726 L 845 743 L 839 749 L 835 751 L 833 749 L 833 728 L 834 706 L 836 690 L 837 686 L 841 678 L 843 675 L 846 672 L 847 669 L 845 669 L 842 672 L 839 677 L 838 674 L 841 667 L 847 660 L 857 650 Z
      M 425 651 L 425 654 L 420 654 L 421 652 L 423 650 Z
      M 435 650 L 437 649 L 438 653 Z
      M 863 644 L 863 648 L 861 646 Z
      M 417 642 L 421 647 L 418 651 L 416 649 Z
      M 859 628 L 860 630 L 851 639 L 850 637 Z
      M 419 630 L 422 628 L 430 636 L 433 640 L 432 644 L 430 643 L 420 633 Z
      M 964 626 L 965 631 L 964 636 L 959 649 L 958 645 L 959 644 L 959 639 L 960 633 L 962 631 L 962 629 L 963 628 Z
      M 607 625 L 633 624 L 638 626 L 636 628 L 615 628 L 611 627 Z
      M 568 621 L 571 620 L 574 622 L 581 623 L 587 626 L 590 627 L 594 628 L 599 628 L 602 629 L 605 631 L 608 632 L 614 632 L 620 634 L 626 635 L 627 637 L 620 638 L 616 636 L 614 636 L 608 637 L 600 635 L 591 632 L 578 627 L 576 625 L 570 623 Z
      M 392 611 L 395 614 L 403 624 L 405 628 L 407 629 L 407 634 L 409 638 L 409 642 L 410 643 L 410 646 L 409 652 L 411 662 L 412 682 L 411 701 L 412 706 L 410 707 L 408 705 L 404 699 L 403 696 L 395 685 L 392 679 L 391 674 L 389 655 L 387 649 L 386 641 L 386 634 L 387 622 L 388 617 L 390 613 Z
      M 892 610 L 895 613 L 897 621 L 897 637 L 896 645 L 893 662 L 891 668 L 886 673 L 885 676 L 888 676 L 888 678 L 884 686 L 880 691 L 880 693 L 879 695 L 874 702 L 871 705 L 870 688 L 872 684 L 872 673 L 874 669 L 875 665 L 873 657 L 873 647 L 875 636 L 879 629 L 879 626 L 880 624 L 887 615 Z
      M 389 606 L 391 609 L 389 610 L 388 611 L 387 613 Z
      M 582 604 L 585 603 L 587 605 L 584 605 Z
      M 723 599 L 717 605 L 713 607 L 706 610 L 693 615 L 695 613 L 702 609 L 709 606 L 716 602 Z
      M 527 590 L 532 594 L 534 596 L 535 599 L 536 600 L 543 605 L 541 606 L 540 608 L 538 607 L 528 598 L 524 593 Z
      M 390 588 L 392 591 L 396 603 L 393 600 L 389 595 L 388 593 L 388 591 L 389 590 Z
      M 312 586 L 314 591 L 314 596 L 316 598 L 318 596 L 320 610 L 319 617 L 318 613 L 317 612 L 317 609 L 317 612 L 316 620 L 315 613 L 313 608 L 312 602 L 311 595 Z
      M 766 580 L 769 583 L 767 587 L 765 590 L 760 596 L 753 600 L 755 598 L 755 597 L 758 594 L 760 591 L 760 588 L 762 585 Z
      M 518 580 L 519 584 L 517 582 Z
      M 324 571 L 326 576 L 325 595 L 323 588 Z
      M 347 570 L 348 574 L 350 579 L 352 591 L 354 595 L 355 600 L 354 611 L 350 606 L 348 611 L 346 603 L 345 582 L 345 576 Z
      M 919 569 L 920 575 L 919 576 L 919 582 L 917 589 L 917 598 L 916 607 L 914 615 L 912 622 L 910 628 L 907 633 L 907 636 L 905 641 L 902 646 L 901 637 L 901 618 L 902 595 L 903 593 L 907 588 L 909 583 L 917 571 Z
      M 378 568 L 383 573 L 387 581 L 387 588 L 385 590 L 382 586 L 381 584 L 381 582 L 379 580 L 378 578 L 378 573 L 377 572 Z
      M 362 569 L 362 570 L 366 575 L 366 576 L 372 584 L 374 589 L 381 597 L 382 599 L 381 621 L 381 634 L 383 643 L 383 654 L 381 651 L 376 647 L 372 634 L 369 629 L 366 616 L 364 605 L 364 597 L 363 596 L 363 589 L 365 581 L 363 578 L 361 580 L 360 585 Z
      M 390 565 L 391 567 L 392 568 L 391 571 L 390 569 L 389 568 Z
      M 908 563 L 909 565 L 907 568 L 906 573 L 905 574 L 904 576 L 903 573 L 905 567 L 906 565 Z
      M 369 563 L 372 563 L 374 565 L 375 567 L 376 571 L 375 575 L 373 573 L 368 565 Z
      M 968 558 L 968 568 L 970 574 L 971 581 L 971 593 L 970 599 L 968 608 L 963 621 L 962 609 L 963 603 L 965 601 L 967 594 L 967 591 L 964 590 L 964 583 L 966 561 L 967 560 Z
      M 897 558 L 894 561 L 893 559 Z
      M 422 556 L 424 559 L 422 561 L 419 559 Z
      M 495 552 L 496 555 L 499 558 L 501 562 L 502 566 L 507 573 L 507 575 L 509 577 L 508 581 L 501 573 L 499 569 L 497 563 L 494 560 Z
      M 377 552 L 379 551 L 381 552 L 383 554 L 381 555 L 379 554 Z
      M 913 549 L 914 551 L 911 554 L 910 552 Z
      M 310 532 L 312 556 L 311 570 L 310 568 L 307 568 L 307 584 L 308 594 L 309 601 L 310 602 L 310 608 L 311 609 L 310 614 L 307 608 L 305 602 L 304 598 L 304 583 L 306 541 L 307 551 L 308 538 Z
      M 321 524 L 322 529 L 324 532 L 324 551 L 322 553 L 321 556 L 319 548 L 319 536 Z
      M 775 510 L 776 514 L 775 518 L 774 521 L 771 527 L 770 523 L 772 515 L 773 512 Z
      M 494 507 L 496 518 L 498 522 L 499 522 L 501 527 L 501 530 L 505 542 L 509 551 L 514 556 L 515 559 L 518 562 L 520 567 L 524 571 L 525 573 L 525 575 L 528 579 L 539 590 L 544 593 L 549 598 L 559 605 L 563 606 L 575 613 L 576 614 L 577 616 L 574 617 L 569 615 L 562 611 L 557 607 L 552 605 L 541 597 L 539 597 L 526 584 L 521 578 L 506 555 L 503 550 L 498 540 L 495 530 L 493 519 Z
      M 345 507 L 346 513 L 345 520 L 342 526 L 341 518 L 342 513 L 343 509 Z
      M 948 505 L 950 510 L 949 518 L 949 520 L 951 525 L 950 538 L 948 529 L 948 522 L 946 519 L 946 515 Z
      M 335 505 L 336 528 L 335 535 L 333 540 L 332 544 L 330 539 L 330 523 L 332 521 L 333 518 L 333 512 Z
      M 361 499 L 362 502 L 360 504 L 359 501 Z
      M 353 499 L 354 511 L 351 514 L 350 509 L 351 504 Z
      M 786 499 L 785 509 L 784 514 L 781 522 L 780 532 L 777 541 L 774 547 L 771 550 L 768 556 L 769 562 L 766 565 L 761 574 L 745 591 L 725 609 L 719 612 L 714 617 L 703 625 L 700 623 L 705 618 L 702 619 L 683 629 L 676 629 L 672 631 L 667 631 L 665 629 L 656 628 L 662 626 L 667 625 L 674 625 L 679 622 L 683 622 L 686 621 L 715 608 L 711 612 L 711 614 L 721 608 L 740 588 L 752 574 L 761 561 L 763 556 L 767 551 L 769 543 L 778 524 L 780 516 L 780 511 L 782 503 Z
      M 792 493 L 793 495 L 793 499 L 791 504 L 790 505 L 789 507 L 788 497 Z
      M 312 491 L 313 495 L 312 496 L 312 501 L 311 502 L 310 504 L 309 497 L 310 494 L 311 493 Z
      M 500 485 L 502 497 L 501 507 L 502 515 L 503 519 L 508 534 L 512 542 L 512 547 L 510 545 L 508 541 L 504 532 L 501 523 L 501 519 L 499 515 L 498 511 L 497 505 L 497 490 Z
      M 467 482 L 467 503 L 466 498 L 463 496 L 463 488 Z
      M 956 476 L 958 480 L 959 486 L 960 495 L 959 498 L 958 496 L 957 495 L 957 487 L 956 481 L 955 480 Z
      M 812 472 L 813 474 L 814 475 L 816 482 L 816 489 L 818 496 L 814 498 L 813 504 L 813 485 L 811 484 Z
      M 356 472 L 357 479 L 355 483 L 354 478 L 355 477 Z
      M 788 471 L 790 474 L 791 476 L 792 480 L 793 489 L 791 491 L 789 489 L 788 487 L 788 479 L 787 478 Z
      M 977 469 L 979 473 L 981 482 L 983 500 L 984 528 L 983 531 L 981 535 L 981 551 L 979 562 L 977 568 L 975 553 L 975 506 Z
      M 472 469 L 473 475 L 471 477 L 470 474 L 471 473 Z
      M 775 468 L 777 470 L 778 475 L 777 485 L 775 478 L 774 470 Z
      M 490 463 L 491 467 L 489 472 L 489 480 L 487 483 L 487 486 L 488 495 L 486 501 L 485 512 L 484 508 L 482 502 L 480 500 L 479 492 L 479 489 L 483 477 L 485 472 Z
      M 313 462 L 319 464 L 319 467 L 317 473 L 315 474 L 313 484 L 311 485 L 310 487 L 309 479 L 310 478 L 310 470 L 311 466 Z
      M 945 459 L 946 463 L 948 468 L 949 473 L 950 481 L 949 486 L 947 482 L 946 478 L 944 468 Z
      M 331 458 L 332 463 L 331 468 L 330 470 L 328 472 L 327 470 L 328 464 Z
      M 402 457 L 403 460 L 400 465 L 399 462 Z
      M 965 438 L 968 442 L 969 444 L 973 456 L 973 474 L 971 514 L 970 490 L 969 480 L 967 471 L 967 461 L 966 453 L 964 445 Z
      M 955 434 L 958 434 L 959 436 L 959 442 L 962 456 L 962 463 L 963 464 L 962 470 L 960 465 L 959 460 L 956 443 Z
      M 515 428 L 516 431 L 514 435 L 510 442 L 507 449 L 504 457 L 503 463 L 502 465 L 499 469 L 497 472 L 497 475 L 494 480 L 493 475 L 497 464 L 499 459 L 504 451 L 507 442 L 513 430 Z
      M 773 427 L 774 429 L 775 430 L 780 442 L 782 448 L 782 452 L 785 459 L 786 463 L 785 480 L 783 475 L 782 466 L 777 451 L 775 443 L 774 434 L 772 430 Z
      M 963 426 L 964 429 L 965 430 L 964 433 L 963 431 L 962 430 Z
      M 338 424 L 339 430 L 338 435 L 336 444 L 335 448 L 332 455 L 330 454 L 329 451 L 330 444 L 333 434 L 335 429 Z
      M 327 423 L 328 428 L 327 433 L 324 446 L 322 451 L 321 453 L 318 456 L 316 453 L 317 448 L 319 441 L 323 434 L 325 429 Z
      M 778 420 L 781 420 L 781 421 L 783 423 L 784 426 L 787 429 L 787 432 L 789 435 L 788 438 L 788 441 L 786 439 L 784 435 L 779 423 Z
      M 955 413 L 957 419 L 957 428 L 955 426 L 954 421 Z
      M 364 411 L 365 414 L 364 415 L 363 418 L 362 414 L 363 413 Z
      M 384 408 L 384 411 L 383 413 L 382 410 Z
      M 330 402 L 331 406 L 330 409 L 322 424 L 321 421 L 323 417 L 327 410 L 328 405 L 329 404 Z
      M 510 401 L 505 407 L 503 409 L 502 406 L 503 404 L 507 400 Z
      M 856 396 L 857 398 L 855 400 Z
      M 762 394 L 769 401 L 765 403 L 763 401 L 762 399 Z
      M 519 386 L 520 388 L 517 391 L 516 394 L 511 399 L 510 395 L 515 389 L 517 387 Z
      M 353 385 L 354 388 L 353 389 L 352 392 L 351 388 L 352 387 Z
      M 363 384 L 364 387 L 363 388 L 362 390 L 361 387 L 362 386 Z
      M 929 383 L 930 387 L 931 388 L 930 391 L 929 389 L 928 388 Z
      M 788 371 L 790 373 L 789 377 L 786 373 Z
      M 338 371 L 339 374 L 338 375 L 338 378 L 337 381 L 334 388 L 326 405 L 325 406 L 324 408 L 323 405 L 324 404 L 324 400 L 325 396 L 326 393 L 329 387 L 331 385 L 333 381 L 333 379 L 336 373 Z
      M 562 369 L 562 372 L 563 375 L 560 378 L 552 385 L 539 395 L 536 396 L 533 399 L 531 399 L 529 401 L 528 401 L 527 402 L 527 403 L 523 408 L 521 413 L 517 418 L 514 423 L 511 430 L 507 437 L 505 439 L 503 437 L 503 435 L 505 431 L 507 428 L 512 422 L 512 420 L 517 412 L 517 410 L 514 409 L 515 407 L 523 399 L 538 385 L 549 377 L 555 374 L 557 372 L 560 370 Z
      M 948 366 L 950 370 L 953 379 L 959 391 L 961 394 L 962 391 L 965 397 L 969 409 L 971 421 L 971 427 L 973 434 L 972 440 L 971 435 L 961 408 L 960 404 L 957 402 L 956 399 L 953 392 L 948 376 L 948 371 L 947 370 Z
      M 362 364 L 362 369 L 358 376 L 357 381 L 354 386 L 353 383 L 355 377 L 357 372 L 360 366 Z
      M 632 363 L 649 363 L 651 365 L 663 365 L 669 368 L 678 369 L 692 374 L 702 379 L 719 390 L 732 403 L 749 426 L 757 443 L 758 452 L 761 458 L 764 476 L 764 500 L 762 510 L 763 518 L 758 533 L 754 541 L 752 543 L 747 555 L 744 560 L 733 572 L 733 573 L 724 581 L 717 585 L 717 587 L 713 591 L 705 595 L 702 594 L 697 598 L 680 606 L 666 610 L 661 609 L 646 612 L 628 612 L 613 610 L 608 608 L 603 608 L 599 605 L 594 603 L 591 603 L 580 597 L 573 591 L 567 588 L 560 581 L 557 580 L 552 576 L 541 565 L 530 549 L 522 531 L 517 514 L 516 504 L 514 502 L 513 508 L 512 498 L 515 467 L 519 452 L 533 422 L 544 406 L 552 398 L 574 381 L 587 374 L 609 367 L 619 367 L 626 364 Z
      M 588 363 L 586 365 L 579 368 L 576 367 L 580 365 L 583 363 Z
      M 561 364 L 560 364 L 554 368 L 541 378 L 533 381 L 544 370 L 549 366 L 554 363 L 558 361 Z
      M 686 358 L 689 357 L 692 359 L 703 362 L 710 365 L 715 368 L 719 371 L 723 375 L 728 379 L 733 381 L 737 384 L 751 398 L 757 405 L 760 409 L 761 411 L 762 415 L 765 419 L 766 421 L 768 427 L 769 432 L 768 439 L 767 437 L 766 436 L 763 429 L 761 423 L 755 413 L 750 406 L 745 400 L 732 387 L 722 378 L 714 372 L 704 366 L 702 366 L 700 368 L 701 368 L 703 370 L 698 370 L 691 366 L 688 366 L 686 365 L 684 363 L 688 359 Z
      M 359 357 L 361 359 L 357 367 L 356 368 L 354 369 L 354 364 L 356 360 Z
      M 720 357 L 722 356 L 724 357 L 727 360 L 730 361 L 735 365 L 747 377 L 750 381 L 749 387 L 747 385 L 735 372 L 726 366 L 720 361 Z
      M 626 352 L 645 351 L 651 353 L 643 354 Z
      M 476 350 L 477 352 L 475 354 L 474 352 Z
      M 933 345 L 935 347 L 938 353 L 942 363 L 944 369 L 943 373 L 940 367 L 939 362 L 937 360 L 935 355 L 934 350 L 932 347 Z
      M 870 346 L 873 346 L 873 347 L 871 349 Z
      M 364 345 L 365 348 L 363 350 L 363 347 Z
      M 455 344 L 456 346 L 454 348 L 453 346 Z
      M 657 342 L 660 341 L 667 342 L 673 343 L 680 345 L 692 349 L 698 353 L 701 354 L 694 355 L 689 354 L 681 352 L 669 347 L 665 347 L 662 344 L 660 344 L 659 343 Z
      M 366 341 L 367 344 L 365 346 L 365 343 Z
      M 647 345 L 637 347 L 631 346 L 624 348 L 614 348 L 609 350 L 604 349 L 598 351 L 592 350 L 598 346 L 600 345 L 608 343 L 619 341 L 625 341 L 626 340 L 631 340 L 637 341 L 639 343 L 643 343 Z
      M 399 340 L 400 343 L 402 345 L 400 347 L 398 351 L 393 357 L 392 354 L 393 351 L 396 346 Z
      M 692 339 L 694 338 L 704 343 L 706 345 L 704 346 L 694 341 Z
      M 608 340 L 606 341 L 600 343 L 592 344 L 588 346 L 584 346 L 583 347 L 580 346 L 584 344 L 587 342 L 593 341 L 596 339 L 599 338 L 603 337 Z
      M 462 337 L 459 342 L 456 345 L 455 343 L 457 339 Z
      M 672 335 L 680 334 L 683 335 L 687 338 L 683 339 L 679 337 L 676 337 Z
      M 355 333 L 356 336 L 352 344 L 348 355 L 346 365 L 345 366 L 344 368 L 343 365 L 341 364 L 341 362 L 348 346 Z
      M 404 331 L 405 335 L 401 335 L 402 333 Z
      M 786 330 L 786 334 L 784 332 Z
      M 371 330 L 372 333 L 371 334 L 370 336 L 369 333 L 370 332 Z
      M 373 326 L 373 329 L 372 331 L 371 328 Z
      M 798 325 L 800 327 L 797 329 Z
      M 787 320 L 788 318 L 790 320 Z
      M 405 304 L 406 306 L 401 316 L 397 323 L 394 326 L 392 324 L 393 322 L 395 317 L 399 311 L 402 307 Z
      M 602 303 L 604 301 L 608 302 L 606 303 L 605 304 Z
      M 361 297 L 362 300 L 360 306 L 358 311 L 346 339 L 342 346 L 341 341 L 343 336 L 345 322 L 346 317 L 347 315 L 349 312 L 353 308 L 355 304 L 358 300 Z
      M 383 294 L 384 296 L 382 299 L 381 302 L 378 306 L 377 302 L 378 300 L 380 297 Z
      M 854 291 L 857 290 L 858 292 L 857 295 L 855 293 Z
      M 895 287 L 896 291 L 894 289 Z
      M 466 284 L 467 286 L 466 288 L 450 301 L 452 299 L 452 298 Z
      M 891 280 L 893 282 L 894 288 L 892 286 L 890 282 Z
      M 664 281 L 666 279 L 670 280 L 667 281 Z
      M 889 277 L 890 281 L 888 279 Z
      M 416 277 L 417 279 L 416 281 L 413 284 L 413 288 L 411 291 L 407 296 L 403 300 L 402 298 L 404 295 L 405 292 L 411 283 L 414 279 Z
      M 904 276 L 907 279 L 912 285 L 931 310 L 936 324 L 936 327 L 938 330 L 938 333 L 940 336 L 941 340 L 941 343 L 939 347 L 937 344 L 935 340 L 932 335 L 927 324 L 926 321 L 924 322 L 923 320 L 922 319 L 919 312 L 917 305 L 903 278 Z
      M 835 275 L 837 280 L 835 279 Z
      M 366 273 L 367 275 L 364 278 L 362 282 L 360 284 L 359 282 L 360 280 L 362 277 Z
      M 860 272 L 864 277 L 864 281 L 862 279 L 859 275 Z
      M 805 264 L 807 266 L 807 270 L 803 266 Z
      M 838 263 L 840 265 L 842 268 L 842 272 L 838 268 Z
      M 431 264 L 428 267 L 425 272 L 423 274 L 423 269 Z
      M 766 261 L 766 265 L 764 263 Z
      M 382 256 L 384 259 L 379 269 L 373 275 L 371 280 L 369 283 L 363 290 L 359 294 L 358 292 L 360 289 L 369 278 L 371 275 L 375 266 L 377 263 L 380 260 L 380 259 Z
      M 797 255 L 799 260 L 796 257 Z
      M 384 253 L 385 255 L 383 257 L 382 255 Z
      M 826 252 L 829 256 L 830 258 L 829 262 L 825 255 Z
      M 698 249 L 701 252 L 699 253 L 697 251 Z
      M 398 248 L 399 250 L 398 252 L 393 259 L 389 267 L 386 270 L 384 273 L 382 277 L 377 289 L 373 295 L 370 303 L 366 310 L 364 312 L 364 313 L 363 314 L 361 315 L 360 312 L 365 300 L 370 290 L 375 283 L 375 280 L 373 277 L 384 266 L 386 262 L 393 253 Z
      M 891 247 L 896 252 L 903 260 L 907 266 L 909 268 L 917 275 L 922 285 L 925 294 L 924 297 L 921 294 L 918 290 L 916 286 L 910 278 L 906 274 L 900 266 L 896 260 L 892 253 L 890 249 Z
      M 447 246 L 448 248 L 443 253 L 442 251 Z
      M 493 243 L 489 246 L 482 254 L 478 257 L 475 259 L 473 260 L 472 258 L 483 247 L 487 244 L 490 242 Z
      M 497 242 L 495 244 L 492 242 L 496 240 Z
      M 736 239 L 738 238 L 741 241 L 739 242 Z
      M 856 234 L 858 236 L 858 237 L 859 241 L 856 238 L 855 236 Z
      M 696 236 L 699 235 L 699 239 Z
      M 619 234 L 616 237 L 613 236 L 616 233 Z
      M 419 231 L 420 233 L 418 237 L 413 244 L 403 264 L 394 275 L 393 270 L 394 267 L 395 265 L 401 255 L 404 252 L 407 246 L 409 243 L 414 236 Z
      M 819 231 L 820 229 L 822 231 Z
      M 725 231 L 727 229 L 730 232 L 727 233 Z
      M 691 225 L 688 228 L 685 228 L 683 226 L 687 224 Z
      M 876 224 L 878 223 L 885 229 L 897 241 L 901 247 L 904 252 L 903 256 L 901 254 L 887 238 L 885 234 L 882 230 Z
      M 716 225 L 718 223 L 720 225 Z
      M 837 222 L 840 225 L 840 226 L 842 228 L 840 229 L 837 226 L 836 224 Z
      M 531 219 L 528 223 L 527 224 L 526 224 L 523 226 L 521 228 L 520 225 L 523 222 L 527 219 Z
      M 749 204 L 752 207 L 753 207 L 755 209 L 753 210 L 751 209 L 748 206 Z
      M 826 201 L 830 205 L 832 211 L 827 206 L 825 203 Z
      M 636 202 L 634 206 L 629 205 L 633 203 Z
      M 450 201 L 451 211 L 446 217 L 433 230 L 429 235 L 426 240 L 420 247 L 416 251 L 415 249 L 416 247 L 420 242 L 425 233 L 429 227 L 436 217 L 439 213 L 444 207 Z
      M 621 196 L 623 195 L 624 194 L 628 195 L 626 197 Z
      M 513 193 L 510 196 L 510 197 L 507 200 L 499 203 L 507 195 Z
      M 699 189 L 702 188 L 703 189 L 706 189 L 709 190 L 711 192 L 708 193 L 705 191 L 701 191 Z
      M 568 187 L 566 189 L 565 189 L 563 191 L 562 189 L 564 187 Z
      M 735 186 L 737 185 L 742 190 L 740 191 Z
      M 584 186 L 586 185 L 587 184 L 590 185 L 588 186 L 587 187 Z
      M 732 184 L 734 183 L 736 185 L 734 186 Z
      M 607 183 L 605 184 L 604 185 L 598 187 L 595 186 L 600 183 L 603 182 Z
      M 474 182 L 475 184 L 469 191 L 456 205 L 450 201 L 458 193 L 462 191 L 467 186 L 470 184 Z
      M 679 178 L 681 176 L 686 178 L 684 179 L 683 180 L 681 180 Z
      M 748 175 L 750 174 L 752 176 L 750 177 Z
      M 483 171 L 484 174 L 481 177 L 475 178 L 478 175 L 479 175 Z
      M 652 170 L 655 173 L 656 173 L 658 175 L 653 175 L 653 174 L 651 172 Z
      M 652 163 L 655 162 L 659 164 L 669 166 L 676 169 L 669 170 L 663 169 L 661 167 Z
      M 743 162 L 746 161 L 749 163 L 754 164 L 763 173 L 765 173 L 768 175 L 772 181 L 777 183 L 780 185 L 786 190 L 804 209 L 802 210 L 799 208 L 784 195 L 777 187 L 774 184 L 772 184 L 769 182 L 762 175 L 757 171 L 754 169 L 752 168 L 749 168 L 747 167 L 745 165 Z
      M 628 162 L 627 165 L 623 168 L 615 172 L 606 175 L 603 175 L 600 177 L 596 177 L 595 178 L 591 177 L 595 174 L 600 171 L 604 169 L 606 169 L 610 166 L 615 164 L 621 162 L 624 162 L 625 161 Z
      M 499 161 L 492 168 L 489 167 L 494 162 Z
      M 736 160 L 740 159 L 741 160 L 743 161 L 740 162 L 739 161 Z
      M 764 158 L 766 157 L 768 159 L 766 160 Z
      M 694 158 L 697 157 L 701 159 L 703 161 L 698 161 L 696 160 Z
      M 674 145 L 681 144 L 686 146 L 684 147 L 683 148 L 681 148 Z
      M 757 144 L 759 143 L 763 145 L 769 150 L 773 154 L 771 155 L 769 153 L 766 152 L 760 147 Z
      M 690 143 L 695 142 L 703 146 L 706 149 L 717 156 L 722 159 L 724 159 L 726 160 L 731 163 L 733 165 L 730 166 L 725 163 L 721 162 L 718 161 L 715 158 L 713 157 L 710 157 L 702 153 L 690 149 L 695 148 L 694 145 Z
      M 708 142 L 711 141 L 715 143 L 718 143 L 724 145 L 733 149 L 737 152 L 733 153 L 726 151 L 719 147 L 716 147 L 712 145 Z
      M 610 140 L 604 141 L 600 142 L 596 144 L 586 146 L 584 143 L 587 142 L 591 141 L 602 139 Z
      M 672 133 L 678 133 L 684 135 L 685 136 L 687 137 L 681 138 L 676 136 L 674 135 Z
      M 747 132 L 750 132 L 753 133 L 754 131 L 765 134 L 768 137 L 771 138 L 775 141 L 779 145 L 783 147 L 789 152 L 796 159 L 805 164 L 810 169 L 817 174 L 819 174 L 820 171 L 822 172 L 825 176 L 838 187 L 850 199 L 872 224 L 873 226 L 874 231 L 879 237 L 880 240 L 885 246 L 898 272 L 898 276 L 900 278 L 901 280 L 900 283 L 898 279 L 888 265 L 886 260 L 877 249 L 875 245 L 874 241 L 871 235 L 869 232 L 864 227 L 862 224 L 862 222 L 859 218 L 837 197 L 832 190 L 829 189 L 828 192 L 823 188 L 816 181 L 811 180 L 809 179 L 805 176 L 800 171 L 789 165 L 786 162 L 784 158 L 781 155 L 772 148 L 767 145 L 765 145 L 751 136 Z
      M 712 132 L 724 131 L 727 133 L 733 133 L 743 138 L 749 143 L 752 146 L 750 147 L 747 145 L 742 144 L 737 141 L 732 139 L 729 139 L 718 135 Z
      M 633 131 L 625 132 L 621 134 L 614 135 L 602 136 L 599 135 L 601 134 L 602 133 L 606 132 L 611 131 L 618 130 Z
      M 581 130 L 577 131 L 572 134 L 567 136 L 564 136 L 525 155 L 523 157 L 517 160 L 513 161 L 509 163 L 507 165 L 503 167 L 503 164 L 512 156 L 520 150 L 533 142 L 543 137 L 552 134 L 568 130 L 573 129 Z
      M 658 129 L 663 128 L 664 129 L 670 129 L 672 131 L 670 132 L 663 131 Z
      M 534 120 L 525 129 L 516 135 L 509 138 L 504 142 L 498 143 L 501 140 L 505 137 L 512 133 L 516 129 L 528 121 L 530 120 Z
      M 609 121 L 613 119 L 625 116 L 628 114 L 637 115 L 638 112 L 640 111 L 644 110 L 650 109 L 656 109 L 659 111 L 675 116 L 685 118 L 704 125 L 708 126 L 694 127 L 687 126 L 682 125 L 672 120 L 668 120 L 667 119 L 664 119 L 664 121 L 666 122 L 661 123 L 654 120 L 642 117 L 640 118 L 641 120 L 645 121 Z
      M 676 108 L 678 106 L 694 106 L 699 109 L 703 111 L 715 118 L 720 122 L 726 125 L 722 126 L 721 125 L 716 125 L 713 124 L 702 120 L 700 119 L 698 117 L 694 115 L 691 114 L 688 114 L 682 112 L 679 109 Z
    " fill="#000000" fill-rule="evenodd" clip-rule="evenodd"/>
</svg>
