<svg xmlns="http://www.w3.org/2000/svg" width="1254" height="1254" viewBox="0 0 1254 1254" fill="none">
  <rect width="1254" height="1254" fill="#fefefe"/>
  <path d="
      M 617 1114 L 619 1114 L 623 1116 L 627 1116 L 637 1115 L 644 1117 L 646 1117 L 653 1116 L 655 1114 L 655 1112 L 653 1112 L 652 1111 L 629 1111 L 622 1112 L 621 1113 Z
      M 529 1093 L 529 1095 L 531 1097 L 532 1097 L 535 1100 L 538 1102 L 549 1108 L 561 1113 L 567 1115 L 572 1115 L 572 1113 L 570 1111 L 553 1103 L 549 1103 L 547 1102 L 531 1093 Z
      M 817 1029 L 805 1039 L 802 1042 L 802 1044 L 800 1046 L 788 1056 L 785 1061 L 787 1061 L 791 1059 L 795 1056 L 808 1044 L 812 1039 L 814 1036 Z
      M 387 958 L 386 961 L 388 967 L 393 976 L 399 982 L 401 985 L 405 994 L 408 998 L 416 1006 L 419 1011 L 423 1016 L 427 1020 L 430 1022 L 431 1022 L 433 1023 L 432 1021 L 430 1019 L 429 1016 L 426 1012 L 425 1011 L 424 1011 L 423 1010 L 419 1005 L 419 1004 L 415 1000 L 411 995 L 404 985 L 404 982 L 400 978 L 398 975 L 395 969 L 393 966 Z
      M 752 915 L 749 917 L 743 917 L 745 918 L 746 919 L 750 919 L 752 917 Z
      M 771 911 L 776 917 L 780 923 L 778 918 L 776 915 Z
      M 731 910 L 734 914 L 736 915 L 738 915 L 740 916 L 738 914 L 735 912 Z
      M 715 902 L 712 902 L 711 903 L 709 904 L 713 904 Z
      M 542 903 L 544 904 L 545 905 L 547 905 L 549 903 L 544 902 Z
      M 690 897 L 693 900 L 695 901 L 700 903 L 704 903 L 701 902 L 692 897 Z
      M 586 893 L 590 895 L 589 893 Z
      M 672 891 L 669 892 L 665 895 L 667 895 L 671 893 Z
      M 699 866 L 698 864 L 695 864 L 692 868 L 696 866 Z
      M 557 863 L 555 863 L 551 866 L 553 866 L 554 865 Z
      M 340 861 L 341 868 L 342 873 L 346 884 L 352 897 L 358 909 L 363 918 L 366 922 L 369 925 L 369 923 L 368 922 L 367 919 L 367 916 L 366 913 L 362 905 L 358 898 L 355 895 L 351 886 L 350 880 L 345 871 L 342 864 Z
      M 590 857 L 587 858 L 586 860 L 586 862 Z
      M 651 854 L 646 854 L 644 855 L 642 857 L 645 855 L 649 855 Z
      M 607 854 L 609 854 L 610 855 L 613 855 L 615 856 L 618 858 L 616 855 L 614 854 L 611 853 Z
      M 932 838 L 930 839 L 929 842 L 927 844 L 926 846 L 926 848 L 924 852 L 920 858 L 916 866 L 916 872 L 912 879 L 912 882 L 911 884 L 908 888 L 907 891 L 907 896 L 909 895 L 909 894 L 913 889 L 915 885 L 926 860 L 930 850 L 931 847 L 931 842 L 932 841 Z
      M 313 782 L 313 788 L 314 792 L 319 807 L 326 827 L 329 834 L 331 837 L 335 841 L 335 838 L 334 834 L 331 825 L 327 818 L 323 807 L 322 799 L 319 794 L 319 791 L 315 783 Z
      M 959 749 L 957 750 L 957 752 L 955 755 L 954 758 L 951 770 L 951 775 L 950 778 L 947 783 L 945 789 L 945 792 L 944 795 L 942 798 L 942 801 L 941 804 L 938 809 L 937 812 L 936 816 L 937 820 L 940 814 L 940 812 L 944 805 L 946 800 L 946 797 L 947 794 L 954 779 L 956 772 L 959 758 Z
      M 965 693 L 963 694 L 962 697 L 960 705 L 957 720 L 956 726 L 956 732 L 958 729 L 959 727 L 963 716 L 964 713 L 965 709 L 966 702 L 966 695 Z
      M 291 681 L 290 694 L 292 702 L 300 730 L 301 738 L 302 742 L 304 748 L 306 753 L 308 755 L 310 758 L 310 756 L 309 750 L 308 746 L 306 742 L 306 738 L 302 727 L 301 723 L 301 713 L 300 707 L 297 702 L 296 699 L 295 692 L 292 683 Z
      M 444 635 L 444 638 L 446 639 L 448 639 L 446 636 Z
      M 516 629 L 512 631 L 504 638 L 503 640 L 505 640 L 509 638 L 515 632 Z
      M 978 618 L 977 620 L 976 621 L 975 627 L 975 634 L 973 639 L 973 649 L 971 657 L 972 659 L 971 666 L 969 675 L 967 679 L 968 690 L 971 685 L 973 679 L 974 674 L 976 658 L 976 648 L 978 641 L 979 629 Z
      M 840 618 L 838 619 L 838 620 L 835 624 L 831 628 L 830 633 L 824 638 L 822 638 L 819 641 L 818 643 L 818 645 L 816 647 L 818 646 L 819 646 L 822 644 L 828 639 L 833 634 L 833 632 L 835 629 L 838 626 L 840 622 Z
      M 773 618 L 775 620 L 777 621 L 780 622 L 784 623 L 787 620 L 783 620 L 778 617 Z
      M 755 615 L 759 620 L 762 622 L 764 623 L 766 623 L 765 621 L 760 617 L 757 615 Z
      M 505 615 L 501 615 L 499 616 L 496 619 L 491 618 L 484 621 L 480 622 L 475 623 L 482 624 L 487 623 L 490 622 L 495 619 L 497 620 L 500 619 L 503 617 Z
      M 727 614 L 729 618 L 737 627 L 745 635 L 749 637 L 747 634 L 747 633 L 742 627 Z
      M 817 611 L 815 611 L 808 618 L 804 621 L 801 622 L 802 625 L 805 623 L 808 622 L 811 620 L 817 614 Z
      M 449 606 L 449 609 L 453 613 L 454 613 L 456 617 L 458 620 L 460 621 L 464 622 L 464 619 L 458 614 L 458 613 L 453 608 Z
      M 283 605 L 281 606 L 281 627 L 283 638 L 285 647 L 287 655 L 289 660 L 290 656 L 289 655 L 289 646 L 287 639 L 286 632 L 286 617 L 284 613 L 284 607 Z
      M 419 602 L 418 604 L 418 609 L 420 610 L 420 616 L 421 618 L 423 620 L 424 622 L 424 624 L 426 628 L 430 635 L 432 638 L 436 643 L 438 645 L 441 647 L 443 648 L 447 647 L 448 645 L 454 645 L 458 646 L 459 648 L 461 649 L 467 649 L 471 648 L 474 645 L 476 644 L 478 644 L 481 642 L 481 640 L 476 640 L 472 642 L 466 642 L 463 640 L 460 639 L 457 640 L 458 642 L 460 643 L 456 644 L 445 643 L 440 641 L 432 633 L 432 630 L 429 627 L 424 617 L 423 612 L 422 612 L 420 610 Z
      M 842 598 L 841 600 L 839 603 L 839 606 L 838 607 L 838 609 L 840 607 L 840 606 L 842 604 Z
      M 550 584 L 548 586 L 544 595 L 543 597 L 545 595 L 547 592 L 550 586 Z
      M 728 583 L 728 586 L 730 591 L 733 593 L 733 591 L 730 587 L 730 586 Z
      M 712 580 L 711 584 L 713 590 L 714 592 L 716 590 L 716 588 Z
      M 435 578 L 433 579 L 433 587 L 434 588 L 435 591 L 436 589 L 436 585 Z
      M 830 576 L 829 584 L 828 591 L 827 597 L 826 600 L 824 602 L 824 604 L 826 603 L 830 595 L 831 591 L 832 585 L 832 582 L 831 581 Z
      M 413 575 L 410 577 L 409 579 L 407 586 L 407 591 L 405 594 L 404 598 L 405 608 L 407 608 L 407 606 L 408 605 L 408 597 L 410 592 L 410 585 L 411 581 L 412 580 L 412 577 Z
      M 562 574 L 560 575 L 559 578 L 558 583 L 557 584 L 557 586 L 559 584 L 561 580 L 562 577 Z
      M 540 563 L 538 563 L 537 565 L 537 567 L 535 570 L 533 576 L 533 580 L 536 578 L 537 575 L 540 567 Z
      M 723 557 L 723 562 L 724 567 L 726 570 L 727 572 L 727 566 L 726 562 L 725 557 Z
      M 561 558 L 562 562 L 564 564 L 563 562 L 563 558 Z
      M 433 551 L 430 554 L 429 556 L 427 561 L 428 563 L 429 560 L 431 558 L 433 553 Z
      M 831 539 L 834 545 L 837 547 L 837 545 L 836 543 L 833 539 Z
      M 815 539 L 816 542 L 819 546 L 819 548 L 820 550 L 823 555 L 825 554 L 823 549 L 822 547 L 820 544 L 817 541 L 817 540 Z
      M 549 540 L 552 557 L 552 555 L 553 554 L 553 549 L 552 544 L 551 540 Z
      M 715 530 L 713 531 L 711 535 L 710 538 L 710 547 L 707 550 L 706 552 L 706 563 L 707 564 L 707 566 L 709 565 L 710 563 L 711 558 L 711 544 L 714 539 L 715 534 Z
      M 428 537 L 432 534 L 434 531 L 435 528 L 429 533 L 428 535 Z
      M 550 518 L 550 522 L 551 527 L 554 532 L 554 535 L 556 537 L 555 535 L 555 526 L 554 522 L 553 520 Z
      M 279 512 L 277 516 L 276 521 L 276 560 L 278 579 L 280 581 L 280 578 L 281 577 L 281 573 L 280 572 L 280 565 L 282 553 L 280 547 L 281 525 Z
      M 486 506 L 481 508 L 473 516 L 456 538 L 453 543 L 452 541 L 450 542 L 449 545 L 445 551 L 443 557 L 444 563 L 441 570 L 441 575 L 443 581 L 446 583 L 445 593 L 450 602 L 453 604 L 453 600 L 456 603 L 460 605 L 470 607 L 472 606 L 478 608 L 477 610 L 472 611 L 466 610 L 467 612 L 469 613 L 476 613 L 478 611 L 484 611 L 488 610 L 509 602 L 513 601 L 510 604 L 510 605 L 506 608 L 504 612 L 506 612 L 508 611 L 520 602 L 523 597 L 523 595 L 520 597 L 519 595 L 523 591 L 527 585 L 529 581 L 532 572 L 532 568 L 534 565 L 534 552 L 536 542 L 535 536 L 531 535 L 530 539 L 523 526 L 522 521 L 523 518 L 525 519 L 530 524 L 533 528 L 533 529 L 535 530 L 535 524 L 532 517 L 530 518 L 529 521 L 527 517 L 522 512 L 518 510 L 518 507 L 513 506 L 511 508 L 498 507 L 493 511 L 487 513 L 480 518 L 476 518 L 478 516 L 478 515 L 485 509 Z
      M 451 585 L 454 588 L 457 593 L 457 597 L 454 595 L 453 594 L 453 593 L 451 591 L 450 589 Z
      M 520 582 L 521 584 L 520 586 L 511 595 L 508 597 L 503 600 L 499 599 L 503 595 L 512 588 L 517 585 Z
      M 451 553 L 452 555 L 451 561 L 449 570 L 448 574 L 446 578 L 445 567 L 446 563 L 448 557 L 449 555 Z
      M 465 537 L 466 539 L 465 541 L 461 547 L 459 549 L 458 545 L 460 542 Z
      M 503 515 L 511 514 L 515 521 L 513 519 L 508 517 L 505 517 Z
      M 742 505 L 738 509 L 735 516 L 735 526 L 734 532 L 732 538 L 731 533 L 729 534 L 728 536 L 730 548 L 731 545 L 731 561 L 739 583 L 743 590 L 745 595 L 743 596 L 740 594 L 748 601 L 750 605 L 753 608 L 757 610 L 757 605 L 764 611 L 768 613 L 773 613 L 771 611 L 768 610 L 764 607 L 768 606 L 769 607 L 774 608 L 780 608 L 782 610 L 780 611 L 780 613 L 792 613 L 792 615 L 799 613 L 796 612 L 804 608 L 807 607 L 810 609 L 818 600 L 819 597 L 822 594 L 824 590 L 823 585 L 822 587 L 821 582 L 822 581 L 823 575 L 823 567 L 822 564 L 820 562 L 817 555 L 815 548 L 812 542 L 806 533 L 794 521 L 791 516 L 787 512 L 782 510 L 788 517 L 786 518 L 778 513 L 772 511 L 755 511 L 759 507 L 761 506 L 769 506 L 769 504 L 764 502 L 772 501 L 769 499 L 768 499 L 765 497 L 761 497 L 760 498 L 758 498 L 758 500 L 760 503 L 757 503 L 751 510 L 740 520 L 739 516 L 741 511 L 744 508 Z
      M 814 585 L 815 589 L 814 592 L 807 599 L 804 601 L 801 602 L 798 601 L 806 595 L 809 592 L 811 588 Z
      M 744 523 L 745 526 L 744 527 L 744 530 L 739 544 L 738 549 L 737 556 L 735 550 L 735 544 L 736 538 L 737 533 L 739 529 L 741 526 Z
      M 765 516 L 757 518 L 759 516 L 761 515 Z
      M 507 500 L 514 500 L 518 501 L 521 503 L 521 501 L 517 498 L 513 496 L 511 496 L 509 497 Z
      M 738 492 L 735 494 L 735 499 L 737 499 L 738 497 L 739 494 Z
      M 525 487 L 527 488 L 530 488 L 528 486 Z
      M 492 486 L 489 486 L 484 488 L 480 490 L 477 494 L 480 493 Z
      M 738 488 L 742 490 L 745 490 L 752 487 L 748 485 L 742 485 L 740 486 Z
      M 779 483 L 782 487 L 783 487 L 788 492 L 793 496 L 796 498 L 798 499 L 798 497 L 797 495 L 794 492 L 793 492 L 789 488 L 785 485 L 781 483 Z
      M 739 477 L 736 477 L 733 475 L 731 476 L 731 481 L 729 484 L 729 486 L 731 486 L 732 484 L 732 482 L 734 480 Z
      M 951 339 L 951 343 L 952 346 L 954 349 L 954 357 L 952 356 L 953 358 L 953 360 L 959 371 L 960 374 L 962 387 L 964 393 L 966 395 L 966 392 L 967 391 L 967 384 L 965 376 L 962 368 L 961 364 L 961 358 L 960 353 L 959 350 L 956 343 L 954 340 Z
      M 931 274 L 929 276 L 931 279 L 931 281 L 934 288 L 935 290 L 938 293 L 938 298 L 940 302 L 944 307 L 947 314 L 948 312 L 947 306 L 946 302 L 944 296 L 942 291 L 940 287 L 936 280 L 934 277 Z
      M 354 247 L 352 248 L 351 248 L 350 249 L 350 250 L 345 256 L 343 259 L 339 267 L 337 273 L 337 277 L 335 281 L 336 288 L 338 284 L 338 282 L 345 266 L 346 264 L 350 259 L 353 254 L 354 251 Z
      M 876 203 L 876 207 L 879 213 L 888 225 L 889 227 L 890 231 L 898 244 L 904 255 L 904 250 L 900 240 L 893 227 L 893 224 L 887 218 L 884 211 L 880 207 L 880 206 Z
      M 423 166 L 419 168 L 415 171 L 406 180 L 405 183 L 400 189 L 398 191 L 397 191 L 395 193 L 390 199 L 389 202 L 386 205 L 383 211 L 383 213 L 397 200 L 401 195 L 405 188 L 408 185 L 412 183 L 424 170 Z
      M 709 106 L 709 108 L 711 109 L 713 109 L 715 111 L 717 112 L 721 112 L 726 114 L 730 118 L 734 120 L 739 120 L 741 122 L 743 123 L 745 122 L 741 119 L 741 118 L 738 115 L 735 113 L 729 110 L 726 109 L 720 108 L 718 106 L 714 106 L 713 105 Z
      M 581 100 L 580 98 L 569 99 L 567 99 L 566 97 L 561 98 L 555 100 L 537 109 L 530 113 L 524 117 L 521 121 L 524 121 L 528 119 L 548 108 L 554 108 L 560 106 L 564 103 L 567 103 L 572 104 L 575 102 L 578 102 Z
      M 591 99 L 606 104 L 565 117 L 559 113 L 508 141 L 505 138 L 520 127 L 518 123 L 429 179 L 408 201 L 441 178 L 377 247 L 396 214 L 347 289 L 346 282 L 295 422 L 299 386 L 292 403 L 281 483 L 287 463 L 292 609 L 287 561 L 283 584 L 303 700 L 302 672 L 312 725 L 311 730 L 305 714 L 309 740 L 353 862 L 335 828 L 363 895 L 407 972 L 370 913 L 439 1022 L 477 1052 L 429 999 L 497 1063 L 484 1056 L 491 1065 L 472 1060 L 453 1044 L 457 1052 L 497 1084 L 481 1067 L 492 1066 L 532 1091 L 525 1082 L 585 1108 L 687 1104 L 678 1110 L 728 1096 L 778 1057 L 770 1059 L 813 1026 L 844 992 L 839 1005 L 879 952 L 880 945 L 852 985 L 849 977 L 887 917 L 881 938 L 894 917 L 912 849 L 924 834 L 948 758 L 943 769 L 953 738 L 971 629 L 975 542 L 972 529 L 970 549 L 968 497 L 970 489 L 979 543 L 980 603 L 985 584 L 980 480 L 979 511 L 969 425 L 934 332 L 949 356 L 938 322 L 864 206 L 879 224 L 876 214 L 840 176 L 827 153 L 809 145 L 840 176 L 873 233 L 817 173 L 826 176 L 817 164 L 764 132 L 754 130 L 760 138 L 713 112 L 651 96 L 645 101 L 656 104 L 643 106 L 626 99 Z
      M 642 1100 L 638 1102 L 635 1103 L 627 1104 L 615 1103 L 619 1101 L 623 1101 L 630 1098 L 634 1098 Z
      M 597 1099 L 600 1098 L 610 1100 L 608 1101 L 607 1102 L 602 1102 Z
      M 667 1095 L 665 1096 L 664 1097 L 658 1099 L 653 1099 L 647 1097 L 656 1096 L 664 1094 Z
      M 565 1092 L 568 1091 L 569 1092 L 572 1092 L 575 1093 L 583 1096 L 590 1100 L 584 1101 L 580 1100 L 569 1095 L 567 1094 Z
      M 629 1092 L 633 1090 L 641 1092 L 637 1094 L 632 1094 L 631 1093 Z
      M 556 1080 L 562 1080 L 569 1083 L 573 1083 L 577 1084 L 580 1085 L 588 1089 L 594 1091 L 601 1090 L 603 1090 L 604 1091 L 615 1094 L 621 1095 L 611 1096 L 586 1093 L 573 1088 L 568 1088 L 565 1085 L 558 1082 Z
      M 658 1079 L 656 1080 L 655 1081 L 652 1082 L 643 1082 L 639 1080 L 649 1079 L 650 1078 Z
      M 534 1079 L 536 1077 L 538 1078 L 542 1081 L 539 1082 Z
      M 701 1073 L 697 1075 L 697 1076 L 696 1077 L 692 1079 L 685 1080 L 681 1082 L 677 1081 L 679 1080 L 680 1079 L 687 1077 L 692 1074 L 697 1072 Z
      M 744 1071 L 741 1074 L 740 1074 L 736 1078 L 736 1080 L 738 1080 L 741 1079 L 744 1079 L 742 1081 L 733 1087 L 731 1088 L 729 1088 L 727 1090 L 725 1091 L 720 1092 L 716 1091 L 709 1095 L 703 1099 L 697 1102 L 693 1103 L 686 1103 L 687 1101 L 668 1100 L 672 1099 L 674 1098 L 676 1096 L 686 1093 L 689 1093 L 690 1092 L 693 1093 L 692 1095 L 696 1095 L 699 1094 L 705 1091 L 709 1087 L 713 1084 L 718 1083 L 722 1081 L 724 1079 L 726 1078 L 732 1076 L 738 1072 L 740 1072 Z
      M 594 1067 L 599 1066 L 609 1067 L 615 1068 L 619 1070 L 609 1071 L 603 1069 L 597 1069 L 596 1068 Z
      M 717 1066 L 715 1068 L 712 1070 L 707 1070 L 709 1068 L 712 1067 Z
      M 763 1065 L 761 1067 L 754 1073 L 750 1075 L 748 1077 L 747 1075 L 749 1072 L 751 1070 L 752 1070 L 755 1067 L 758 1066 Z
      M 768 1062 L 766 1064 L 762 1064 L 764 1062 Z
      M 686 1062 L 683 1065 L 681 1066 L 678 1067 L 674 1066 L 682 1062 Z
      M 565 1061 L 567 1060 L 569 1062 L 575 1065 L 572 1066 L 568 1064 Z
      M 532 1059 L 534 1058 L 536 1059 L 544 1065 L 552 1069 L 556 1072 L 553 1073 L 550 1071 L 545 1070 L 536 1064 L 533 1061 Z
      M 557 1057 L 562 1057 L 563 1058 L 565 1059 L 562 1060 L 559 1059 Z
      M 521 1057 L 525 1057 L 525 1060 L 523 1059 Z
      M 552 1054 L 554 1053 L 556 1054 L 558 1056 L 556 1057 L 554 1056 Z
      M 492 1052 L 494 1051 L 497 1053 L 500 1054 L 506 1058 L 510 1061 L 515 1066 L 520 1070 L 524 1073 L 526 1074 L 528 1074 L 530 1075 L 532 1077 L 529 1078 L 528 1077 L 521 1076 L 516 1075 L 503 1063 Z
      M 664 1044 L 661 1046 L 659 1047 L 655 1047 L 652 1049 L 642 1049 L 644 1047 L 646 1046 L 652 1046 L 658 1045 L 661 1043 Z
      M 775 1042 L 762 1055 L 759 1056 L 756 1059 L 753 1060 L 750 1063 L 741 1065 L 743 1063 L 748 1059 L 761 1049 Z
      M 730 1035 L 728 1037 L 720 1042 L 714 1042 L 716 1040 L 723 1036 Z
      M 536 1032 L 538 1031 L 541 1034 L 539 1035 Z
      M 760 1028 L 762 1031 L 758 1034 L 756 1032 Z
      M 744 1024 L 745 1026 L 741 1027 Z
      M 802 1024 L 798 1028 L 797 1026 Z
      M 479 1021 L 481 1022 L 487 1027 L 494 1033 L 500 1039 L 500 1040 L 502 1042 L 500 1043 L 498 1042 L 492 1038 L 484 1032 L 478 1026 Z
      M 466 1015 L 468 1014 L 470 1015 L 474 1019 L 473 1022 Z
      M 457 999 L 459 998 L 464 1006 L 462 1004 L 461 1004 L 459 1002 L 459 1001 Z
      M 815 997 L 793 1019 L 792 1019 L 789 1022 L 788 1020 L 790 1017 L 802 1005 L 809 999 Z
      M 426 995 L 427 999 L 425 997 Z
      M 572 997 L 573 994 L 577 995 L 580 996 L 582 997 L 580 1000 L 578 1000 Z
      M 752 990 L 749 993 L 746 995 L 744 996 L 742 993 L 747 990 Z
      M 766 984 L 762 988 L 761 986 Z
      M 418 973 L 423 978 L 427 983 L 428 986 L 429 987 L 432 989 L 434 993 L 444 1003 L 449 1010 L 458 1019 L 458 1020 L 465 1027 L 463 1028 L 460 1026 L 455 1022 L 444 1011 L 436 1002 L 433 997 L 428 992 L 424 987 L 421 982 L 419 977 L 417 975 Z
      M 848 969 L 849 971 L 848 973 L 846 975 L 844 980 L 836 992 L 829 999 L 828 998 L 823 1005 L 821 1007 L 817 1008 L 813 1012 L 812 1010 L 820 1002 L 820 1001 L 827 994 L 830 993 L 831 991 L 831 989 L 834 985 L 839 980 L 842 975 Z
      M 840 966 L 841 968 L 839 970 L 838 968 Z
      M 486 960 L 485 962 L 479 962 L 481 960 Z
      M 540 959 L 542 957 L 545 958 L 543 959 Z
      M 777 953 L 781 952 L 783 954 L 780 955 L 779 954 Z
      M 475 950 L 474 955 L 471 956 L 469 956 L 467 954 L 469 952 Z
      M 482 946 L 478 950 L 474 949 L 478 946 Z
      M 765 942 L 767 941 L 770 943 L 773 946 L 776 950 L 778 952 L 774 952 L 773 951 L 770 947 L 769 947 L 766 944 Z
      M 865 940 L 866 942 L 865 944 L 863 946 L 857 958 L 854 961 L 854 962 L 850 962 L 851 960 L 853 958 L 855 953 L 859 947 L 863 942 Z
      M 786 940 L 786 945 L 783 942 Z
      M 791 940 L 790 944 L 788 942 Z
      M 494 939 L 492 941 L 492 942 L 490 944 L 485 948 L 483 946 L 481 945 L 486 941 L 489 940 Z
      M 401 938 L 403 940 L 405 944 L 413 954 L 416 959 L 415 962 L 413 960 L 409 955 L 405 949 L 403 944 L 401 942 L 400 940 Z
      M 467 937 L 470 942 L 468 944 L 466 945 L 465 941 Z
      M 399 935 L 400 939 L 398 937 Z
      M 510 933 L 508 935 L 503 937 L 499 938 L 500 936 L 502 934 L 505 933 L 508 931 Z
      M 741 930 L 743 929 L 745 930 L 749 933 L 746 934 L 743 932 Z
      M 792 930 L 795 929 L 798 935 L 797 940 L 794 937 L 793 935 Z
      M 462 928 L 464 930 L 464 932 L 463 934 L 461 937 L 459 939 L 459 933 Z
      M 871 927 L 872 929 L 870 931 L 869 929 Z
      M 398 922 L 399 926 L 397 924 Z
      M 865 919 L 866 921 L 862 929 L 860 932 L 857 936 L 852 941 L 851 939 L 852 937 L 858 928 L 863 921 Z
      M 711 922 L 715 921 L 716 919 L 718 920 L 721 922 L 726 923 L 726 925 L 728 927 L 730 927 L 733 929 L 735 931 L 733 932 L 730 930 L 725 929 L 721 926 L 717 924 L 714 924 L 713 923 Z
      M 547 918 L 545 920 L 542 922 L 540 923 L 538 923 L 537 922 L 535 922 L 532 923 L 530 924 L 525 928 L 522 928 L 521 929 L 518 928 L 520 926 L 526 923 L 541 917 Z
      M 393 914 L 395 916 L 397 919 L 397 923 L 394 920 L 392 916 Z
      M 677 914 L 684 912 L 692 913 L 697 916 L 697 919 L 693 918 L 687 916 L 683 916 Z
      M 561 912 L 557 914 L 554 915 L 550 914 L 554 912 L 557 911 Z
      M 644 910 L 651 909 L 656 911 L 646 912 Z
      M 638 911 L 612 912 L 614 910 L 631 909 L 633 909 L 634 910 Z
      M 766 907 L 771 907 L 773 908 L 777 912 L 780 917 L 782 921 L 784 926 L 784 932 L 783 935 L 780 938 L 778 939 L 776 939 L 767 933 L 765 931 L 768 931 L 765 927 L 764 930 L 762 928 L 761 926 L 761 917 L 762 912 L 763 910 Z
      M 491 908 L 493 910 L 494 912 L 495 916 L 495 925 L 494 928 L 491 931 L 488 933 L 485 934 L 482 937 L 478 939 L 474 939 L 472 937 L 471 934 L 470 930 L 474 922 L 476 920 L 477 924 L 479 920 L 477 919 L 478 917 L 483 911 L 486 908 L 489 907 Z
      M 599 907 L 595 908 L 592 909 L 587 912 L 582 911 L 584 910 L 585 908 L 587 907 L 593 906 Z
      M 405 906 L 408 909 L 409 911 L 409 916 L 407 914 L 406 911 L 404 908 Z
      M 872 901 L 873 904 L 871 909 L 869 913 L 867 915 L 866 915 L 864 917 L 863 915 L 865 913 L 868 906 L 870 903 Z
      M 483 902 L 481 904 L 481 905 L 478 908 L 476 912 L 471 917 L 470 915 L 472 913 L 474 908 Z
      M 769 891 L 771 890 L 773 892 L 774 892 L 775 893 L 783 903 L 785 907 L 783 908 L 774 899 L 772 896 Z
      M 366 890 L 369 893 L 368 897 L 366 895 Z
      M 427 889 L 429 892 L 427 893 L 425 891 Z
      M 395 887 L 399 891 L 402 896 L 402 898 L 404 900 L 403 905 L 400 901 L 398 896 L 394 889 Z
      M 492 886 L 493 890 L 489 891 L 490 889 Z
      M 734 881 L 740 881 L 746 884 L 754 892 L 756 896 L 757 901 L 757 907 L 755 917 L 754 919 L 752 921 L 750 922 L 747 922 L 740 918 L 735 917 L 731 915 L 729 913 L 728 911 L 727 907 L 727 901 L 729 890 L 730 887 L 732 883 Z
      M 521 881 L 523 882 L 527 886 L 529 894 L 530 900 L 530 905 L 529 908 L 527 912 L 525 914 L 515 919 L 510 921 L 505 921 L 503 920 L 502 919 L 501 917 L 499 911 L 499 904 L 500 900 L 501 897 L 502 895 L 504 893 L 505 895 L 508 891 L 506 890 L 512 884 L 517 881 Z
      M 373 881 L 374 883 L 375 884 L 374 887 L 373 885 L 372 884 Z
      M 509 876 L 503 882 L 498 882 L 504 876 Z
      M 730 873 L 732 874 L 734 876 L 730 878 Z
      M 356 865 L 358 868 L 360 872 L 364 884 L 362 882 L 360 877 L 355 868 Z
      M 741 864 L 744 867 L 748 869 L 756 876 L 759 879 L 758 883 L 752 877 L 746 873 L 742 869 L 740 866 Z
      M 903 863 L 904 866 L 902 871 L 901 873 L 899 875 L 898 877 L 899 883 L 897 887 L 895 889 L 892 896 L 889 901 L 885 906 L 882 913 L 879 918 L 872 928 L 871 925 L 874 920 L 882 905 L 882 903 L 885 899 L 886 897 L 887 893 L 889 889 L 893 883 L 897 873 L 901 865 Z
      M 818 861 L 819 863 L 820 864 L 817 867 Z
      M 694 861 L 703 861 L 709 863 L 711 864 L 714 866 L 717 869 L 719 872 L 721 876 L 722 879 L 723 887 L 723 890 L 722 891 L 722 895 L 721 899 L 719 903 L 716 906 L 714 907 L 707 907 L 698 905 L 692 903 L 687 898 L 686 895 L 686 880 L 687 872 L 689 866 Z
      M 522 862 L 519 865 L 514 869 L 508 870 L 512 866 L 515 864 L 518 863 Z
      M 566 860 L 569 863 L 570 865 L 571 868 L 572 874 L 572 895 L 571 898 L 567 902 L 565 903 L 561 902 L 566 900 L 567 897 L 564 899 L 563 899 L 561 901 L 562 903 L 558 905 L 549 907 L 544 907 L 542 906 L 538 902 L 536 898 L 535 894 L 535 890 L 534 889 L 534 886 L 535 880 L 536 877 L 538 873 L 541 869 L 542 868 L 543 868 L 548 864 L 556 860 L 559 859 L 563 859 Z
      M 464 858 L 463 861 L 460 864 L 459 861 L 461 859 L 461 858 Z
      M 687 855 L 690 857 L 688 858 L 687 860 Z
      M 711 855 L 713 854 L 716 856 L 719 857 L 721 859 L 729 862 L 734 867 L 732 868 L 730 867 L 727 864 L 723 863 L 714 858 Z
      M 570 854 L 572 856 L 571 859 L 568 856 Z
      M 391 853 L 393 855 L 396 862 L 395 865 L 393 863 L 391 858 Z
      M 676 853 L 680 853 L 680 859 Z
      M 579 852 L 579 855 L 578 857 L 577 854 Z
      M 546 853 L 541 858 L 539 859 L 537 859 L 535 861 L 533 861 L 531 863 L 527 863 L 535 855 L 541 852 Z
      M 643 852 L 645 851 L 649 850 L 663 850 L 666 851 L 670 853 L 675 858 L 677 862 L 678 865 L 679 874 L 679 885 L 677 891 L 676 893 L 672 897 L 669 898 L 651 898 L 643 897 L 640 896 L 637 893 L 635 889 L 634 886 L 634 870 L 636 861 L 638 857 Z
      M 618 852 L 622 856 L 625 862 L 627 872 L 627 885 L 626 889 L 625 891 L 621 895 L 619 896 L 615 897 L 606 898 L 590 898 L 586 896 L 582 892 L 580 888 L 579 884 L 579 875 L 580 866 L 581 863 L 583 859 L 585 856 L 588 853 L 590 852 L 593 851 L 597 850 L 603 849 L 609 849 L 614 850 Z
      M 358 849 L 360 852 L 363 857 L 365 862 L 365 865 L 366 866 L 365 869 L 364 867 L 363 866 L 363 863 L 362 861 L 360 859 L 357 852 Z
      M 638 848 L 634 852 L 633 849 L 635 847 Z
      M 621 848 L 626 847 L 627 851 L 626 854 L 625 851 L 623 849 Z
      M 904 846 L 905 850 L 903 854 L 901 856 L 901 851 L 903 849 Z
      M 689 845 L 694 845 L 697 847 L 699 849 L 694 849 L 692 848 Z
      M 909 840 L 910 843 L 908 845 L 908 842 Z
      M 587 844 L 580 844 L 574 845 L 569 846 L 566 847 L 564 849 L 561 850 L 557 848 L 559 846 L 564 843 L 567 842 L 570 842 L 571 843 L 574 843 L 577 840 L 582 840 Z
      M 354 840 L 356 843 L 357 849 L 355 847 L 353 843 Z
      M 637 840 L 641 838 L 646 838 L 651 841 L 648 842 Z
      M 361 838 L 362 840 L 363 841 L 364 844 L 363 847 L 361 844 L 360 842 Z
      M 654 838 L 655 836 L 657 836 L 660 837 L 665 839 L 672 838 L 675 839 L 677 841 L 669 842 L 659 840 Z
      M 901 835 L 902 837 L 900 840 L 899 843 L 899 846 L 898 849 L 895 854 L 894 851 L 895 850 L 895 846 L 898 839 L 899 837 Z
      M 595 839 L 601 836 L 605 835 L 610 835 L 616 836 L 621 839 L 612 841 L 600 841 Z
      M 627 834 L 631 832 L 637 834 L 635 836 L 631 836 Z
      M 866 808 L 867 812 L 866 815 L 865 816 L 864 818 L 863 814 Z
      M 927 807 L 928 810 L 927 811 L 926 813 L 925 810 L 926 809 Z
      M 793 807 L 795 809 L 794 812 L 793 810 Z
      M 495 805 L 496 807 L 493 810 L 493 811 L 490 814 L 489 812 L 491 809 Z
      M 920 802 L 921 805 L 920 808 L 918 812 L 917 819 L 915 823 L 914 817 L 916 814 L 917 807 Z
      M 922 795 L 923 799 L 921 803 L 920 799 Z
      M 521 794 L 522 796 L 520 798 L 519 796 Z
      M 788 791 L 790 793 L 790 797 L 787 794 Z
      M 347 788 L 348 792 L 350 796 L 349 799 L 348 797 L 347 796 L 346 793 Z
      M 417 787 L 419 786 L 420 790 Z
      M 374 786 L 375 788 L 376 789 L 378 794 L 380 801 L 380 808 L 378 806 L 376 797 L 374 794 L 373 791 Z
      M 877 778 L 878 781 L 876 787 L 875 789 L 873 791 L 873 785 Z
      M 778 777 L 781 780 L 780 783 L 777 779 Z
      M 445 776 L 448 775 L 450 777 L 447 777 Z
      M 922 774 L 923 779 L 922 782 L 919 788 L 917 790 L 916 787 L 917 784 L 920 777 L 921 776 Z
      M 350 770 L 352 772 L 353 774 L 354 778 L 353 783 L 352 781 L 351 780 L 350 776 Z
      M 937 767 L 940 771 L 940 774 L 939 781 L 938 785 L 937 788 L 933 798 L 928 808 L 927 804 L 931 794 L 934 783 L 936 775 Z
      M 880 766 L 881 769 L 880 770 L 879 774 L 878 769 L 879 768 Z
      M 459 767 L 455 771 L 453 768 L 455 767 Z
      M 328 764 L 330 768 L 329 774 L 328 769 L 327 768 Z
      M 815 761 L 818 763 L 815 765 L 813 763 Z
      M 678 757 L 680 756 L 681 760 Z
      M 801 754 L 805 754 L 803 756 Z
      M 466 747 L 460 750 L 454 750 L 457 747 L 461 746 Z
      M 335 746 L 336 751 L 337 755 L 339 759 L 340 763 L 340 769 L 342 772 L 341 777 L 338 771 L 335 762 L 334 757 L 334 752 Z
      M 737 745 L 739 744 L 741 746 L 739 747 Z
      M 893 737 L 894 740 L 892 746 L 891 747 L 890 749 L 889 745 L 890 742 Z
      M 730 734 L 732 735 L 734 737 L 734 738 L 736 743 L 734 742 L 733 741 L 729 736 Z
      M 482 734 L 480 736 L 477 738 L 475 739 L 468 738 L 470 737 L 471 736 L 474 736 L 479 733 L 481 732 Z
      M 440 732 L 446 734 L 442 734 Z
      M 390 729 L 392 731 L 391 735 L 390 732 Z
      M 423 721 L 426 720 L 427 721 L 439 721 L 435 723 L 426 724 Z
      M 556 718 L 557 720 L 555 722 L 554 720 Z
      M 314 718 L 317 724 L 317 727 L 319 730 L 319 739 L 321 746 L 322 754 L 321 758 L 320 756 L 319 755 L 317 749 L 316 743 L 314 740 L 313 737 L 312 732 Z
      M 491 717 L 488 720 L 484 720 L 486 718 L 487 718 Z
      M 839 716 L 837 718 L 835 719 L 831 720 L 829 718 L 831 716 L 835 716 L 836 715 Z
      M 357 715 L 358 717 L 359 718 L 359 721 L 361 723 L 362 727 L 362 731 L 364 734 L 365 737 L 364 744 L 362 740 L 362 736 L 359 730 L 357 724 L 356 718 Z
      M 850 716 L 847 719 L 842 718 L 844 716 L 846 715 Z
      M 793 712 L 796 714 L 799 714 L 801 716 L 797 717 L 793 715 Z
      M 719 713 L 720 711 L 722 713 Z
      M 835 705 L 837 703 L 840 704 L 838 706 Z
      M 764 703 L 766 702 L 776 709 L 773 710 L 769 708 Z
      M 756 698 L 758 697 L 760 698 L 763 701 L 761 702 L 759 700 L 758 700 Z
      M 627 696 L 628 694 L 633 695 L 630 696 Z
      M 315 691 L 317 695 L 316 709 L 314 704 Z
      M 950 691 L 950 694 L 948 701 L 948 705 L 949 706 L 949 711 L 947 721 L 945 729 L 943 736 L 941 740 L 940 736 L 941 723 L 943 718 L 944 710 L 944 700 L 945 697 L 947 694 Z
      M 422 691 L 425 689 L 428 690 L 432 692 L 425 693 L 424 692 Z
      M 656 686 L 658 688 L 657 691 L 655 689 Z
      M 616 678 L 617 680 L 614 683 L 611 682 L 613 680 L 614 680 Z
      M 407 678 L 411 680 L 414 682 L 417 685 L 414 687 L 412 686 L 406 680 Z
      M 863 674 L 861 678 L 860 679 L 856 682 L 853 684 L 849 686 L 846 687 L 844 686 L 841 684 L 845 681 L 850 681 L 852 680 L 856 676 L 859 674 Z
      M 802 673 L 804 672 L 805 671 L 825 672 L 822 675 L 815 676 L 809 676 L 804 675 Z
      M 780 671 L 783 670 L 786 671 L 788 672 L 792 675 L 797 677 L 803 679 L 811 681 L 819 680 L 823 680 L 828 682 L 826 683 L 825 684 L 816 686 L 812 686 L 804 685 L 801 684 L 799 682 L 795 681 L 793 680 L 789 676 Z
      M 735 670 L 740 675 L 741 675 L 746 680 L 746 684 L 737 676 L 735 674 L 734 672 Z
      M 773 668 L 775 667 L 779 671 L 779 672 L 782 675 L 783 675 L 785 677 L 782 678 L 776 675 L 773 672 Z
      M 730 664 L 734 671 L 729 666 Z
      M 530 662 L 531 664 L 528 668 L 525 671 L 522 673 L 517 676 L 512 676 L 518 670 L 523 666 L 526 665 L 528 663 Z
      M 508 665 L 503 670 L 499 672 L 494 675 L 492 676 L 490 676 L 488 678 L 482 680 L 478 681 L 473 680 L 474 677 L 470 677 L 460 681 L 456 682 L 445 682 L 443 681 L 442 679 L 440 678 L 462 674 L 470 669 L 482 665 L 489 663 L 493 664 L 489 667 L 478 671 L 475 674 L 482 674 L 489 671 L 495 668 L 497 666 L 503 663 L 506 662 Z
      M 402 662 L 405 661 L 407 664 L 416 671 L 419 675 L 422 676 L 424 678 L 422 679 L 414 675 L 410 671 L 409 671 L 406 668 Z
      M 846 660 L 843 663 L 840 665 L 834 666 L 829 665 L 823 665 L 829 662 L 832 661 L 842 661 Z
      M 752 657 L 754 657 L 755 658 L 758 658 L 761 660 L 766 663 L 771 668 L 768 668 L 764 667 L 760 667 L 757 665 L 751 659 Z
      M 428 658 L 430 657 L 433 659 L 435 659 L 437 660 L 438 664 L 435 663 L 430 660 Z
      M 957 655 L 958 663 L 956 671 L 955 660 Z
      M 487 656 L 484 658 L 478 661 L 474 662 L 470 661 L 475 658 L 478 657 L 481 657 L 484 655 Z
      M 389 655 L 391 658 L 393 663 L 396 666 L 397 668 L 396 671 L 394 669 L 390 664 L 388 658 Z
      M 717 651 L 721 655 L 719 657 L 717 655 L 716 653 Z
      M 406 652 L 407 650 L 410 653 L 410 654 L 412 656 L 416 658 L 419 661 L 422 663 L 426 665 L 431 667 L 434 668 L 438 669 L 442 669 L 447 671 L 436 671 L 431 672 L 429 671 L 427 669 L 425 668 L 422 668 L 418 666 L 411 660 L 410 659 L 409 656 L 407 654 Z
      M 533 650 L 531 652 L 531 653 L 525 655 L 527 652 L 529 650 Z
      M 314 646 L 316 650 L 316 657 L 318 663 L 317 671 L 315 666 L 313 657 Z
      M 346 645 L 347 647 L 348 648 L 348 653 L 349 654 L 348 658 L 346 654 L 346 650 L 345 649 Z
      M 520 637 L 523 642 L 521 644 L 520 644 L 517 647 L 509 651 L 506 650 L 508 649 L 513 643 Z
      M 713 630 L 719 636 L 721 639 L 721 640 L 722 641 L 723 641 L 726 643 L 731 648 L 734 655 L 729 652 L 723 646 L 714 636 L 712 632 Z
      M 394 628 L 395 630 L 396 631 L 399 640 L 401 642 L 402 648 L 402 651 L 399 648 L 396 642 L 395 641 L 393 634 Z
      M 310 622 L 312 629 L 311 638 L 309 634 Z
      M 695 619 L 697 621 L 702 629 L 705 634 L 705 638 L 699 632 L 698 630 L 694 621 Z
      M 870 618 L 872 628 L 872 630 L 871 636 L 868 641 L 867 646 L 866 649 L 864 650 L 863 653 L 859 658 L 854 663 L 848 668 L 846 669 L 843 668 L 849 663 L 852 660 L 854 657 L 857 651 L 861 647 L 864 641 L 867 632 L 867 627 L 869 622 Z
      M 881 616 L 883 620 L 882 630 L 883 633 L 880 638 L 880 640 L 879 642 L 877 644 L 876 642 L 877 635 L 879 631 L 880 624 Z
      M 604 616 L 605 619 L 604 620 L 604 624 L 601 629 L 600 626 L 601 625 L 601 622 L 602 619 L 603 618 Z
      M 566 612 L 565 616 L 563 622 L 561 624 L 561 626 L 555 636 L 547 645 L 543 648 L 541 645 L 544 642 L 548 635 L 553 630 L 556 623 L 562 613 Z
      M 960 609 L 961 619 L 960 620 L 960 631 L 959 638 L 957 642 L 956 635 L 957 634 L 958 626 L 958 617 Z
      M 609 598 L 610 601 L 609 602 L 608 604 L 607 601 L 608 600 Z
      M 310 598 L 311 603 L 312 604 L 311 607 L 310 605 L 309 604 Z
      M 299 597 L 301 608 L 302 631 L 301 645 L 299 634 L 298 621 Z
      M 651 593 L 652 595 L 650 597 Z
      M 954 586 L 954 596 L 953 594 L 952 593 L 952 591 L 953 590 Z
      M 698 582 L 700 584 L 700 587 L 701 589 L 703 591 L 704 593 L 704 595 L 706 599 L 708 601 L 710 605 L 713 612 L 713 614 L 714 619 L 712 617 L 709 612 L 704 605 L 701 600 L 699 594 L 698 590 L 697 584 Z
      M 392 580 L 393 583 L 392 589 L 390 594 L 390 599 L 388 603 L 387 609 L 386 607 L 385 606 L 385 595 L 386 590 L 387 587 L 389 583 Z
      M 869 569 L 873 577 L 876 585 L 877 597 L 877 599 L 875 607 L 873 600 L 873 594 L 872 589 L 869 581 L 868 575 Z
      M 687 569 L 688 573 L 690 579 L 688 581 L 687 579 L 686 578 Z
      M 699 560 L 700 563 L 698 570 L 697 562 Z
      M 938 549 L 940 556 L 939 557 L 940 565 L 938 569 L 936 560 L 936 556 L 937 555 Z
      M 576 546 L 578 548 L 579 550 L 580 553 L 580 570 L 578 578 L 574 581 L 574 575 L 576 552 L 575 548 Z
      M 293 544 L 293 558 L 291 552 L 291 546 Z
      M 329 539 L 331 544 L 330 553 L 328 547 Z
      M 416 536 L 415 538 L 413 541 L 413 544 L 412 547 L 410 551 L 406 557 L 401 568 L 400 565 L 401 558 L 402 555 L 404 550 L 407 546 L 407 544 L 408 542 L 413 536 Z
      M 311 520 L 312 531 L 311 540 L 310 546 L 309 547 L 308 549 L 307 542 L 308 531 L 309 525 Z
      M 413 519 L 414 521 L 411 524 L 410 524 L 408 526 L 407 528 L 406 524 L 409 521 Z
      M 696 518 L 698 523 L 699 530 L 697 542 L 694 549 L 693 533 L 694 524 Z
      M 618 518 L 618 528 L 616 522 Z
      M 577 515 L 579 517 L 580 519 L 579 526 L 578 524 L 577 523 L 577 519 L 576 518 Z
      M 846 510 L 851 515 L 854 519 L 863 534 L 864 536 L 867 545 L 868 547 L 871 549 L 872 551 L 872 556 L 870 554 L 869 551 L 866 548 L 865 546 L 864 542 L 862 540 L 862 539 L 859 538 L 857 536 L 845 513 Z
      M 560 504 L 563 507 L 564 513 L 566 518 L 565 524 L 564 519 L 561 516 L 559 511 Z
      M 953 502 L 955 508 L 956 517 L 955 526 L 954 521 L 952 516 Z
      M 705 497 L 706 505 L 704 511 L 702 513 L 701 503 L 702 500 Z
      M 326 485 L 327 492 L 325 496 L 324 489 Z
      M 812 481 L 814 481 L 817 483 L 821 486 L 829 494 L 832 496 L 834 496 L 836 497 L 838 499 L 843 505 L 842 508 L 838 504 L 826 497 L 816 489 L 815 488 L 811 483 Z
      M 549 478 L 552 481 L 552 486 L 554 489 L 555 494 L 553 501 L 552 499 L 551 498 L 550 495 L 549 491 L 548 485 Z
      M 813 476 L 815 475 L 817 477 L 815 478 Z
      M 710 472 L 711 478 L 710 484 L 709 486 L 706 486 L 706 484 L 707 483 L 708 476 Z
      M 458 472 L 456 476 L 450 482 L 448 483 L 447 481 L 448 479 L 450 476 L 453 473 Z
      M 729 469 L 736 470 L 747 477 L 762 482 L 768 480 L 761 478 L 760 473 L 763 475 L 768 474 L 761 469 L 764 468 L 774 474 L 779 475 L 816 502 L 817 504 L 815 505 L 804 498 L 815 509 L 815 512 L 814 510 L 822 509 L 827 513 L 831 518 L 833 524 L 825 517 L 823 517 L 842 537 L 854 554 L 853 559 L 859 571 L 866 598 L 865 613 L 861 628 L 853 640 L 852 638 L 854 635 L 857 622 L 854 617 L 852 623 L 848 628 L 847 625 L 849 618 L 856 605 L 860 610 L 862 598 L 859 595 L 857 601 L 855 585 L 852 582 L 852 577 L 846 562 L 843 560 L 847 571 L 849 585 L 851 585 L 853 588 L 854 601 L 851 606 L 848 606 L 846 619 L 842 631 L 832 642 L 827 645 L 826 648 L 833 645 L 848 630 L 849 636 L 848 640 L 836 653 L 828 657 L 824 656 L 830 651 L 816 657 L 807 658 L 809 661 L 802 662 L 784 654 L 775 648 L 782 647 L 786 649 L 790 649 L 795 652 L 801 651 L 800 648 L 812 642 L 810 640 L 797 645 L 790 644 L 789 646 L 785 645 L 781 646 L 778 643 L 767 638 L 767 640 L 772 647 L 780 655 L 800 665 L 792 666 L 770 657 L 767 654 L 767 651 L 765 649 L 755 645 L 752 646 L 740 635 L 737 633 L 735 634 L 721 615 L 707 586 L 703 569 L 702 552 L 705 536 L 710 520 L 720 500 L 721 505 L 717 519 L 718 521 L 721 519 L 723 514 L 723 510 L 725 507 L 723 495 L 724 488 L 729 475 Z
      M 745 467 L 752 466 L 754 467 L 757 469 L 760 472 L 755 473 Z
      M 717 466 L 718 483 L 717 486 L 716 487 L 715 489 L 714 478 L 716 473 Z
      M 301 464 L 302 473 L 300 486 L 301 489 L 300 506 L 298 514 L 298 522 L 296 523 L 295 525 L 294 509 L 295 502 L 297 495 L 297 486 L 299 480 L 299 472 Z
      M 545 462 L 547 464 L 548 467 L 547 477 L 543 469 L 542 465 Z
      M 793 463 L 796 461 L 800 463 L 806 467 L 809 470 L 810 470 L 812 472 L 812 473 L 814 475 L 812 476 L 808 474 L 805 472 L 802 469 L 796 466 Z
      M 528 462 L 523 466 L 517 468 L 509 475 L 497 480 L 495 483 L 509 480 L 513 476 L 528 470 L 531 472 L 526 477 L 513 484 L 520 484 L 522 482 L 528 482 L 533 478 L 534 480 L 533 493 L 541 507 L 543 507 L 542 482 L 544 484 L 547 496 L 546 501 L 548 509 L 550 513 L 552 512 L 557 519 L 565 546 L 567 557 L 567 564 L 565 569 L 567 567 L 570 567 L 563 585 L 546 618 L 536 631 L 527 637 L 527 634 L 525 633 L 536 622 L 541 613 L 538 615 L 515 641 L 508 646 L 489 656 L 486 655 L 492 652 L 493 649 L 484 653 L 473 655 L 470 658 L 459 662 L 457 662 L 450 658 L 456 655 L 452 655 L 449 658 L 436 656 L 432 653 L 435 652 L 441 653 L 435 649 L 428 647 L 422 642 L 421 645 L 417 640 L 418 633 L 424 635 L 413 617 L 411 616 L 411 622 L 417 636 L 416 639 L 412 635 L 410 639 L 405 631 L 404 625 L 406 622 L 409 626 L 409 629 L 411 633 L 410 628 L 406 621 L 406 617 L 402 614 L 400 618 L 398 607 L 400 599 L 401 586 L 406 571 L 408 568 L 411 570 L 414 565 L 417 554 L 414 557 L 413 554 L 424 534 L 431 525 L 445 511 L 448 511 L 455 503 L 464 498 L 466 495 L 464 495 L 461 498 L 455 499 L 460 494 L 482 479 L 488 479 L 492 476 L 503 473 L 503 471 L 499 470 L 510 465 L 519 464 L 524 461 Z
      M 722 457 L 724 457 L 728 460 L 730 462 L 728 463 L 723 463 L 722 466 Z
      M 731 456 L 733 455 L 738 456 L 742 459 L 743 459 L 745 460 L 745 463 L 742 463 L 736 460 L 733 458 Z
      M 558 454 L 561 457 L 558 466 L 557 463 Z
      M 498 454 L 496 456 L 492 458 L 487 462 L 484 463 L 481 465 L 480 463 L 485 458 L 489 456 L 491 456 L 494 454 Z
      M 551 451 L 551 456 L 549 453 Z
      M 535 452 L 532 454 L 526 457 L 520 459 L 517 458 L 519 456 L 522 454 L 528 451 L 533 451 Z
      M 940 446 L 942 448 L 943 451 L 943 455 L 944 459 L 946 462 L 949 475 L 950 481 L 951 489 L 950 497 L 948 493 L 948 488 L 947 483 L 945 479 L 944 472 L 943 462 L 942 463 L 940 459 L 939 448 Z
      M 742 442 L 745 443 L 751 446 L 763 451 L 766 453 L 771 457 L 779 464 L 783 467 L 788 469 L 791 472 L 789 473 L 787 472 L 785 470 L 772 463 L 762 459 L 756 455 L 743 445 L 742 445 Z
      M 560 440 L 560 445 L 558 446 L 557 442 Z
      M 550 439 L 549 442 L 547 442 L 542 446 L 540 444 L 542 442 L 545 441 Z
      M 322 433 L 323 439 L 322 440 L 322 446 L 320 456 L 316 473 L 314 477 L 313 472 L 315 456 L 318 442 L 319 439 Z
      M 893 425 L 894 427 L 895 428 L 896 431 L 895 436 L 894 432 L 892 428 Z
      M 474 424 L 475 426 L 471 427 Z
      M 833 423 L 836 426 L 835 429 L 832 425 Z
      M 695 417 L 696 421 L 694 425 L 693 421 Z
      M 302 417 L 303 425 L 300 435 L 299 440 L 299 442 L 300 448 L 299 454 L 298 458 L 296 462 L 294 473 L 294 479 L 293 481 L 290 481 L 292 474 L 293 444 L 292 443 L 292 441 L 293 438 L 295 435 L 297 427 L 300 420 L 301 419 Z
      M 957 413 L 960 417 L 962 421 L 964 428 L 965 435 L 967 438 L 969 447 L 968 453 L 967 451 L 965 452 L 965 459 L 967 468 L 968 478 L 968 481 L 967 492 L 966 493 L 965 495 L 963 488 L 963 479 L 961 464 L 959 460 L 958 443 L 960 436 L 960 429 L 957 417 L 956 416 Z
      M 337 402 L 338 407 L 334 416 L 333 410 L 334 407 Z
      M 491 401 L 490 403 L 485 405 L 488 402 L 488 401 Z
      M 433 392 L 434 394 L 432 396 L 431 394 Z
      M 317 390 L 318 394 L 316 398 L 315 394 Z
      M 932 381 L 934 385 L 936 393 L 942 406 L 944 413 L 946 421 L 947 426 L 946 431 L 944 427 L 943 422 L 940 417 L 934 401 L 933 398 L 932 393 L 931 385 Z
      M 939 376 L 942 376 L 942 380 L 943 381 L 942 385 L 940 381 Z
      M 804 373 L 807 372 L 807 373 L 809 375 L 812 380 L 812 382 L 814 384 L 815 386 L 813 388 L 811 386 L 809 383 Z
      M 322 371 L 323 374 L 319 381 L 318 378 Z
      M 440 368 L 441 370 L 440 372 L 438 374 L 437 372 L 438 370 Z
      M 701 357 L 702 355 L 704 357 Z
      M 904 354 L 908 360 L 910 365 L 909 369 L 907 366 L 904 360 L 903 357 Z
      M 559 353 L 556 356 L 555 354 Z
      M 390 349 L 391 352 L 389 354 L 389 351 Z
      M 808 342 L 810 344 L 814 350 L 814 355 L 812 353 L 810 348 L 808 346 L 807 344 Z
      M 861 341 L 863 343 L 866 349 L 865 352 L 863 349 L 860 343 Z
      M 329 340 L 330 343 L 329 346 L 325 354 L 324 350 L 326 345 Z
      M 896 338 L 898 340 L 897 344 L 896 342 L 895 341 Z
      M 331 335 L 332 338 L 331 339 L 330 341 L 329 338 L 330 337 Z
      M 354 334 L 355 342 L 353 347 L 351 351 L 345 361 L 342 365 L 341 362 L 345 354 L 347 346 L 351 338 Z
      M 857 332 L 858 334 L 858 337 L 856 335 Z
      M 828 330 L 830 332 L 831 334 L 830 337 L 827 332 Z
      M 401 327 L 402 329 L 401 331 L 398 336 L 397 333 L 399 329 Z
      M 887 323 L 889 330 L 887 328 L 886 326 Z
      M 819 312 L 821 314 L 825 322 L 824 325 L 822 322 L 818 314 Z
      M 916 309 L 921 318 L 923 318 L 925 322 L 931 339 L 933 346 L 934 350 L 933 355 L 931 352 L 930 349 L 927 344 L 924 337 L 920 327 L 915 312 Z
      M 414 307 L 414 310 L 413 312 L 412 309 Z
      M 342 298 L 343 301 L 342 302 L 341 304 L 340 301 L 341 300 Z
      M 914 294 L 916 296 L 915 299 L 914 297 Z
      M 683 294 L 684 296 L 684 299 L 682 297 Z
      M 912 290 L 914 292 L 913 295 L 912 293 Z
      M 428 287 L 429 290 L 425 296 L 422 300 L 419 303 L 418 301 L 420 299 L 421 296 L 426 289 Z
      M 827 278 L 828 282 L 826 280 Z
      M 825 273 L 826 275 L 827 276 L 826 279 L 825 277 L 824 276 Z
      M 895 269 L 898 272 L 896 273 L 894 271 Z
      M 877 269 L 879 271 L 887 283 L 890 289 L 889 292 L 886 288 L 885 285 L 882 282 L 880 279 L 880 277 L 874 273 L 875 271 Z
      M 588 267 L 589 269 L 585 273 L 578 276 L 574 277 L 577 274 L 582 270 Z
      M 595 266 L 597 264 L 599 266 Z
      M 513 260 L 506 267 L 498 271 L 501 268 L 501 267 L 507 261 L 509 261 Z
      M 784 252 L 785 256 L 783 254 Z
      M 861 249 L 864 249 L 870 256 L 873 260 L 874 263 L 873 265 L 871 266 L 868 263 L 866 259 L 865 255 Z
      M 879 247 L 882 250 L 881 253 L 879 251 L 878 249 Z
      M 779 245 L 781 247 L 781 248 L 782 252 L 779 249 L 778 247 Z
      M 400 246 L 395 251 L 395 252 L 390 257 L 389 255 L 393 250 Z
      M 654 244 L 654 245 L 656 247 L 655 251 L 652 248 L 652 246 Z
      M 840 241 L 846 247 L 848 250 L 849 252 L 845 253 L 842 250 L 840 247 L 839 245 Z
      M 833 237 L 834 235 L 836 237 Z
      M 765 231 L 767 236 L 764 233 Z
      M 399 228 L 400 231 L 398 235 L 396 238 L 387 247 L 381 256 L 375 267 L 370 271 L 369 274 L 367 276 L 364 282 L 363 285 L 363 290 L 358 301 L 347 318 L 342 325 L 340 327 L 340 321 L 341 320 L 341 317 L 342 313 L 343 311 L 349 302 L 349 300 L 353 295 L 357 288 L 362 277 L 367 270 L 370 263 L 378 252 L 388 241 L 390 237 Z
      M 452 227 L 453 230 L 451 233 L 449 235 L 446 236 L 428 256 L 425 259 L 424 257 L 426 255 L 427 252 L 433 245 L 444 234 L 445 234 Z
      M 852 225 L 854 226 L 857 229 L 857 230 L 859 232 L 857 233 L 851 227 Z
      M 719 220 L 722 221 L 724 222 L 727 224 L 728 228 L 723 226 L 721 225 L 718 222 Z
      M 823 219 L 825 218 L 831 222 L 835 225 L 837 230 L 834 227 L 831 225 L 827 224 L 824 221 Z
      M 834 215 L 836 214 L 837 218 Z
      M 669 214 L 674 213 L 678 216 L 674 217 Z
      M 424 211 L 413 222 L 412 222 L 406 228 L 405 226 L 409 221 L 416 214 Z
      M 596 206 L 592 208 L 587 209 L 585 211 L 580 213 L 575 213 L 577 211 L 580 209 L 582 208 L 588 207 L 592 204 L 594 204 Z
      M 808 197 L 811 196 L 813 197 L 817 201 L 823 204 L 827 207 L 829 209 L 826 211 L 826 214 L 822 212 L 817 207 Z
      M 464 195 L 461 198 L 460 198 L 456 202 L 452 205 L 448 207 L 447 205 L 455 197 L 459 194 L 461 193 Z
      M 733 185 L 736 185 L 741 186 L 746 189 L 751 193 L 748 194 L 744 192 L 740 189 L 738 189 L 735 187 Z
      M 544 185 L 542 187 L 537 190 L 534 191 L 529 192 L 533 188 L 536 186 L 538 185 L 541 184 Z
      M 471 184 L 472 186 L 470 190 L 467 193 L 466 189 L 467 187 L 468 186 Z
      M 488 176 L 486 178 L 482 178 L 484 176 Z
      M 640 172 L 646 171 L 648 173 L 645 174 L 644 173 Z
      M 768 171 L 770 170 L 772 172 L 773 172 L 772 175 Z
      M 623 171 L 626 171 L 627 170 L 629 170 L 635 174 L 630 175 Z
      M 726 170 L 729 169 L 735 171 L 749 178 L 754 183 L 755 183 L 758 189 L 756 187 L 755 187 L 752 184 L 741 178 L 739 177 L 735 176 L 729 173 Z
      M 661 165 L 666 164 L 667 165 L 672 168 L 664 167 L 663 166 Z
      M 513 162 L 509 166 L 505 168 L 501 169 L 499 170 L 497 172 L 495 172 L 487 175 L 489 173 L 492 171 L 495 170 L 498 167 L 510 161 Z
      M 479 159 L 477 161 L 472 164 L 458 178 L 445 190 L 435 198 L 428 202 L 423 203 L 437 188 L 448 177 L 458 168 L 463 164 L 466 162 L 471 160 L 476 159 Z
      M 794 156 L 796 155 L 798 156 L 808 162 L 812 165 L 817 173 L 815 172 L 812 169 L 808 167 L 801 161 L 798 160 Z
      M 572 147 L 569 148 L 567 150 L 565 151 L 562 152 L 558 151 L 562 148 L 567 146 Z
      M 498 144 L 500 142 L 503 143 L 501 144 Z
      M 758 140 L 760 141 L 766 143 L 768 144 L 777 150 L 785 156 L 789 160 L 793 163 L 797 165 L 801 169 L 806 171 L 809 173 L 814 177 L 822 184 L 828 193 L 825 190 L 821 187 L 808 178 L 799 172 L 796 171 L 793 169 L 787 164 L 780 161 L 762 147 L 757 142 Z
      M 611 143 L 614 140 L 620 140 L 627 142 L 621 144 Z
      M 712 130 L 715 129 L 716 130 L 718 131 L 715 132 L 714 131 Z
      M 723 128 L 726 127 L 729 128 L 730 129 L 732 130 L 729 131 L 726 130 L 725 129 Z
      M 543 128 L 545 127 L 546 126 L 550 127 L 547 128 L 546 129 Z
      M 592 120 L 590 121 L 589 122 L 584 124 L 576 126 L 568 129 L 563 132 L 558 134 L 555 135 L 548 136 L 539 140 L 535 143 L 533 144 L 530 143 L 524 145 L 520 147 L 515 150 L 510 154 L 505 157 L 501 157 L 502 155 L 506 151 L 509 149 L 518 144 L 531 141 L 538 138 L 542 135 L 544 134 L 554 130 L 574 123 L 584 120 L 588 120 L 589 119 Z
      M 595 128 L 599 126 L 602 126 L 604 124 L 605 121 L 610 121 L 614 119 L 626 117 L 628 119 L 644 119 L 653 121 L 664 124 L 668 126 L 663 127 L 652 126 L 649 124 L 643 124 L 639 126 L 637 126 L 624 125 L 611 128 L 599 129 Z
      M 659 117 L 662 116 L 669 117 L 679 119 L 686 121 L 689 122 L 693 124 L 699 128 L 703 132 L 698 131 L 691 129 L 685 127 L 683 125 L 680 124 L 662 119 L 661 118 Z
      M 679 109 L 682 108 L 683 109 L 688 110 L 693 110 L 700 113 L 707 114 L 710 115 L 717 119 L 712 120 L 707 119 L 701 116 L 697 115 L 692 115 L 687 114 L 684 113 L 682 112 L 681 110 Z
      M 632 109 L 626 111 L 606 114 L 595 115 L 589 114 L 593 112 L 597 111 L 602 110 L 608 110 L 613 108 L 623 107 L 626 107 L 627 108 Z
      M 651 109 L 657 107 L 663 106 L 666 106 L 670 109 L 678 112 L 673 113 L 663 112 L 656 111 Z
      M 600 87 L 598 85 L 590 85 L 581 88 L 577 90 L 577 93 L 582 93 L 588 92 L 595 91 L 599 89 Z
    " fill="#000000" fill-rule="evenodd" clip-rule="evenodd"/>
</svg>
