<svg xmlns="http://www.w3.org/2000/svg" width="1254" height="1254" viewBox="0 0 1254 1254" fill="none">
  <rect width="1254" height="1254" fill="#fefefe"/>
  <path d="
      M 610 969 L 611 971 L 615 973 L 614 971 Z
      M 342 925 L 342 928 L 343 930 L 348 937 L 352 947 L 353 949 L 358 956 L 358 958 L 365 969 L 374 982 L 384 991 L 383 988 L 381 985 L 374 977 L 370 971 L 365 962 L 359 955 L 357 952 L 353 945 L 349 937 L 349 934 L 346 928 L 344 925 Z
      M 513 924 L 518 930 L 519 930 L 521 931 Z
      M 793 913 L 791 915 L 791 916 L 790 918 L 792 916 L 792 915 Z
      M 505 912 L 507 916 L 507 918 L 509 922 L 511 923 L 510 921 L 509 918 L 507 916 Z
      M 824 887 L 818 893 L 815 895 L 813 898 L 813 900 L 819 895 L 821 892 L 822 889 Z
      M 520 865 L 521 867 L 523 865 Z
      M 827 857 L 824 858 L 822 861 L 824 861 Z
      M 459 830 L 460 832 L 462 833 L 461 831 Z
      M 706 825 L 705 827 L 706 828 L 707 830 L 707 827 Z
      M 312 825 L 311 831 L 311 834 L 315 844 L 320 864 L 323 872 L 326 877 L 327 882 L 329 887 L 336 899 L 336 895 L 334 890 L 329 880 L 324 867 L 322 861 L 320 850 L 317 840 L 314 834 L 314 828 L 313 827 Z
      M 599 822 L 596 825 L 596 827 L 597 825 Z
      M 855 816 L 853 819 L 855 818 Z
      M 515 804 L 515 806 L 516 808 L 518 809 L 517 807 Z
      M 492 804 L 491 807 L 492 809 Z
      M 786 804 L 791 798 L 786 802 Z
      M 469 787 L 473 792 L 473 790 Z
      M 859 776 L 861 775 L 861 774 L 863 771 L 860 774 Z
      M 436 771 L 438 775 L 438 773 Z
      M 409 758 L 407 760 L 407 762 L 409 766 Z
      M 745 565 L 747 566 L 748 567 L 750 568 L 748 566 Z
      M 894 561 L 892 563 L 889 564 L 888 565 L 888 566 L 887 568 L 890 565 L 891 565 Z
      M 981 281 L 981 284 L 983 286 L 983 281 Z
      M 335 275 L 334 277 L 334 279 L 335 277 Z
      M 926 168 L 926 170 L 927 172 L 933 180 L 934 182 L 934 184 L 941 194 L 944 199 L 950 211 L 953 214 L 951 211 L 951 208 L 949 203 L 944 192 L 941 187 L 937 182 L 934 177 L 933 173 L 932 171 L 930 169 L 930 168 Z
      M 736 48 L 727 54 L 774 85 L 694 63 L 714 57 L 676 63 L 638 58 L 685 46 L 591 59 L 596 52 L 516 67 L 532 68 L 365 173 L 369 164 L 349 187 L 292 312 L 301 278 L 292 292 L 268 381 L 274 383 L 254 486 L 253 517 L 263 454 L 266 590 L 254 534 L 252 545 L 305 791 L 278 726 L 279 741 L 358 940 L 431 1045 L 479 1089 L 423 1019 L 525 1122 L 550 1134 L 506 1097 L 607 1149 L 584 1148 L 591 1153 L 695 1145 L 674 1153 L 680 1156 L 719 1144 L 743 1127 L 708 1140 L 775 1099 L 831 1050 L 760 1127 L 778 1116 L 851 1030 L 819 1081 L 838 1066 L 907 966 L 898 993 L 941 913 L 930 952 L 968 860 L 935 914 L 1015 727 L 1008 767 L 1026 700 L 1025 686 L 1006 741 L 1035 526 L 1019 612 L 1020 424 L 1029 459 L 1029 420 L 1019 374 L 1024 426 L 1014 349 L 982 252 L 1011 349 L 1016 402 L 964 254 L 927 187 L 842 96 L 817 80 L 928 193 L 945 236 L 922 203 L 944 241 L 874 156 L 904 183 L 878 154 L 739 55 L 806 97 L 777 63 L 766 60 L 770 67 Z
      M 688 1137 L 686 1139 L 682 1140 L 674 1140 L 676 1138 L 680 1138 L 684 1136 Z
      M 583 1136 L 587 1135 L 596 1137 L 614 1137 L 634 1142 L 645 1145 L 637 1146 L 630 1146 L 625 1144 L 610 1141 L 606 1142 L 606 1143 L 601 1144 L 598 1143 L 596 1141 L 594 1140 L 591 1140 L 586 1138 L 585 1137 Z
      M 714 1132 L 712 1134 L 709 1136 L 704 1139 L 700 1141 L 689 1140 L 691 1138 L 694 1137 L 699 1135 L 703 1135 L 706 1134 L 709 1132 Z
      M 608 1129 L 613 1128 L 614 1129 L 620 1129 L 622 1131 L 620 1132 L 613 1131 Z
      M 709 1128 L 711 1127 L 712 1126 L 715 1127 L 713 1129 Z
      M 695 1127 L 690 1130 L 683 1133 L 678 1134 L 673 1137 L 669 1137 L 666 1138 L 662 1139 L 660 1141 L 649 1140 L 634 1138 L 627 1136 L 655 1136 L 659 1135 L 660 1133 L 665 1132 L 669 1132 L 679 1129 L 685 1129 L 688 1127 L 691 1127 L 692 1126 Z
      M 599 1127 L 603 1126 L 604 1127 L 608 1128 L 603 1129 Z
      M 722 1123 L 719 1126 L 717 1127 L 714 1126 L 718 1124 Z
      M 710 1122 L 708 1123 L 707 1124 L 700 1127 L 697 1126 L 699 1124 L 701 1123 L 707 1121 Z
      M 557 1118 L 560 1117 L 563 1118 L 567 1119 L 572 1121 L 579 1125 L 586 1127 L 591 1129 L 593 1131 L 596 1131 L 597 1132 L 599 1133 L 587 1134 L 579 1133 L 575 1132 L 565 1127 L 561 1123 L 562 1122 L 561 1120 Z
      M 718 1115 L 716 1117 L 713 1118 L 710 1117 L 712 1116 L 713 1115 Z
      M 604 1115 L 610 1114 L 614 1116 L 618 1117 L 624 1118 L 616 1119 L 612 1117 L 608 1117 Z
      M 743 1114 L 741 1116 L 737 1116 L 739 1114 Z
      M 634 1107 L 640 1106 L 642 1108 L 639 1109 L 638 1108 Z
      M 753 1106 L 750 1109 L 749 1107 Z
      M 651 1105 L 653 1103 L 657 1104 L 654 1105 Z
      M 526 1104 L 528 1103 L 533 1104 L 535 1105 L 543 1110 L 546 1112 L 554 1118 L 556 1120 L 553 1121 L 547 1118 L 542 1114 L 535 1111 L 529 1107 Z
      M 743 1097 L 741 1099 L 733 1103 L 730 1102 L 733 1100 L 739 1097 Z
      M 736 1091 L 733 1094 L 730 1096 L 720 1099 L 722 1097 L 727 1095 L 732 1091 Z
      M 756 1088 L 756 1091 L 753 1092 L 749 1093 L 752 1090 Z
      M 752 1083 L 748 1087 L 745 1088 L 745 1085 L 748 1084 Z
      M 616 1083 L 620 1082 L 624 1086 L 619 1085 L 618 1084 Z
      M 587 1083 L 589 1082 L 591 1083 L 593 1085 L 595 1086 L 602 1089 L 605 1089 L 607 1091 L 604 1092 L 601 1091 L 594 1088 L 590 1086 Z
      M 528 1074 L 530 1076 L 534 1078 L 543 1084 L 548 1089 L 552 1091 L 556 1094 L 558 1096 L 556 1097 L 552 1095 L 547 1092 L 535 1084 L 527 1076 Z
      M 484 1071 L 486 1070 L 488 1072 L 486 1073 Z
      M 695 1066 L 697 1065 L 700 1065 L 698 1067 Z
      M 507 1063 L 509 1062 L 511 1063 L 516 1068 L 517 1068 L 520 1074 L 518 1073 L 514 1070 Z
      M 500 1055 L 502 1054 L 504 1059 Z
      M 455 1051 L 457 1050 L 462 1054 L 469 1060 L 478 1068 L 477 1071 L 473 1068 L 467 1063 Z
      M 471 1049 L 483 1060 L 485 1063 L 497 1074 L 501 1077 L 509 1082 L 515 1088 L 518 1090 L 521 1091 L 525 1094 L 527 1096 L 525 1097 L 522 1095 L 520 1095 L 518 1094 L 512 1090 L 505 1085 L 496 1078 L 494 1076 L 495 1075 L 492 1072 L 487 1069 L 474 1056 L 470 1051 Z
      M 464 1050 L 466 1049 L 470 1056 Z
      M 769 1049 L 766 1052 L 765 1050 Z
      M 814 1038 L 815 1041 L 813 1045 L 810 1049 L 804 1052 L 805 1050 L 808 1047 L 810 1043 Z
      M 724 1032 L 719 1035 L 716 1034 L 719 1032 L 721 1031 Z
      M 843 1029 L 844 1031 L 828 1043 L 835 1036 L 836 1036 Z
      M 849 1022 L 850 1024 L 848 1026 L 847 1024 Z
      M 498 1022 L 500 1021 L 502 1023 L 500 1024 Z
      M 791 1020 L 786 1025 L 784 1026 L 784 1023 Z
      M 860 1008 L 861 1010 L 859 1012 L 858 1010 Z
      M 873 1006 L 874 1008 L 872 1011 L 868 1016 L 865 1021 L 863 1026 L 852 1043 L 849 1047 L 836 1057 L 837 1055 L 840 1052 L 841 1049 L 845 1045 L 848 1041 L 856 1028 L 858 1023 L 863 1017 L 870 1009 Z
      M 847 1007 L 845 1009 L 845 1010 L 840 1015 L 837 1019 L 835 1023 L 830 1029 L 820 1039 L 819 1034 L 822 1030 L 828 1023 Z
      M 863 1004 L 864 1006 L 861 1009 L 860 1007 Z
      M 484 1002 L 485 1006 L 483 1004 Z
      M 805 999 L 801 1003 L 800 1001 Z
      M 868 997 L 869 999 L 867 1002 L 864 1005 L 863 1003 L 865 1000 Z
      M 871 992 L 872 994 L 870 996 L 869 994 Z
      M 810 992 L 811 994 L 804 998 Z
      M 418 992 L 420 996 L 430 1009 L 438 1017 L 451 1033 L 454 1038 L 460 1044 L 461 1046 L 459 1047 L 455 1045 L 433 1023 L 429 1017 L 425 1008 L 421 1003 L 417 995 Z
      M 878 988 L 879 990 L 877 992 L 876 990 Z
      M 684 989 L 680 991 L 676 990 L 680 988 Z
      M 651 989 L 653 987 L 657 988 L 660 990 L 665 991 L 662 993 L 660 992 L 651 992 Z
      M 646 988 L 645 993 L 635 992 L 629 993 L 627 993 L 620 990 L 632 989 L 635 987 Z
      M 869 984 L 870 986 L 868 988 L 867 991 L 862 998 L 858 1003 L 848 1014 L 843 1016 L 845 1014 L 845 1013 L 848 1010 L 850 1006 L 856 998 L 860 993 Z
      M 412 984 L 417 989 L 417 993 L 414 990 L 414 989 L 411 986 Z
      M 871 981 L 872 983 L 870 985 L 869 983 Z
      M 593 982 L 595 981 L 597 983 L 595 984 Z
      M 883 980 L 884 982 L 882 984 L 881 982 Z
      M 707 979 L 707 984 L 702 985 L 695 985 L 697 983 L 704 981 Z
      M 579 979 L 583 978 L 585 981 Z
      M 720 977 L 718 979 L 717 979 L 713 980 L 714 977 L 717 976 Z
      M 557 975 L 559 974 L 561 975 L 572 981 L 569 982 L 559 977 Z
      M 391 973 L 392 977 L 390 975 Z
      M 830 972 L 831 975 L 829 978 L 824 983 L 823 981 L 825 978 Z
      M 647 970 L 647 980 L 637 979 L 640 978 Z
      M 859 969 L 860 971 L 857 975 L 853 979 L 852 977 L 854 974 Z
      M 653 969 L 655 973 L 662 979 L 652 979 Z
      M 408 969 L 409 973 L 407 971 Z
      M 891 968 L 892 970 L 891 972 L 889 975 L 886 979 L 884 981 L 883 979 L 884 977 L 888 971 Z
      M 706 966 L 707 971 L 705 973 L 702 972 L 703 970 Z
      M 893 965 L 894 967 L 892 969 L 891 967 Z
      M 711 970 L 712 964 L 714 966 L 717 967 L 721 968 L 717 969 L 714 971 Z
      M 595 964 L 596 968 L 602 974 L 597 974 L 595 973 Z
      M 405 964 L 407 966 L 407 970 L 405 968 L 404 966 Z
      M 754 966 L 750 970 L 748 971 L 744 972 L 742 974 L 740 974 L 736 977 L 734 978 L 730 977 L 734 975 L 738 971 L 743 970 L 746 968 L 744 967 L 746 966 L 747 965 L 749 965 L 751 963 L 752 965 Z
      M 589 962 L 589 971 L 587 971 L 580 968 L 583 967 L 585 966 Z
      M 390 961 L 394 965 L 399 971 L 405 980 L 411 990 L 415 1000 L 422 1013 L 415 1006 L 408 997 L 395 975 L 394 973 L 394 971 L 393 969 L 391 967 L 389 963 Z
      M 541 961 L 543 960 L 545 962 L 554 966 L 551 967 L 544 964 Z
      M 908 956 L 909 958 L 907 960 L 906 958 Z
      M 437 956 L 440 962 L 436 958 Z
      M 533 956 L 535 955 L 537 957 L 535 958 Z
      M 376 954 L 377 958 L 375 956 Z
      M 530 952 L 532 953 L 534 955 L 530 955 Z
      M 434 952 L 435 956 L 433 954 Z
      M 913 948 L 914 950 L 912 952 L 912 953 L 910 955 L 909 953 L 910 951 Z
      M 485 950 L 486 948 L 488 950 Z
      M 377 947 L 381 953 L 385 962 L 388 967 L 391 971 L 390 974 L 388 972 L 384 966 L 376 950 Z
      M 512 948 L 515 948 L 516 946 L 519 947 L 520 952 L 521 952 L 523 954 L 521 955 L 519 954 L 514 950 Z
      M 372 946 L 374 948 L 376 952 L 375 955 L 373 952 L 371 948 Z
      M 542 944 L 544 946 L 544 949 L 546 954 L 544 953 L 542 951 L 541 946 Z
      M 508 945 L 510 944 L 513 947 L 511 948 Z
      M 916 943 L 917 945 L 916 947 L 914 949 L 913 947 L 914 945 Z
      M 370 943 L 371 947 L 369 945 Z
      M 759 942 L 760 944 L 761 945 L 761 947 L 753 952 L 756 948 Z
      M 374 942 L 375 946 L 373 944 Z
      M 794 940 L 788 946 L 784 949 L 779 953 L 773 956 L 768 958 L 771 955 L 770 953 L 774 949 L 780 945 L 783 945 L 789 939 Z
      M 537 939 L 538 941 L 539 942 L 537 948 L 535 946 L 532 945 L 530 943 L 534 942 Z
      M 891 938 L 892 940 L 891 942 L 888 947 L 884 952 L 878 959 L 874 963 L 873 961 L 874 959 L 879 954 L 886 945 L 889 940 Z
      M 367 938 L 368 942 L 366 940 Z
      M 761 936 L 762 939 L 764 941 L 772 942 L 768 945 L 763 948 L 761 945 L 762 943 L 760 943 L 760 940 Z
      M 505 935 L 507 934 L 509 936 L 507 937 Z
      M 503 931 L 506 934 L 504 935 L 502 933 Z
      M 916 930 L 917 932 L 915 934 L 914 932 Z
      M 924 928 L 924 933 L 923 935 L 919 942 L 917 944 L 916 942 L 917 940 L 922 932 L 922 930 Z
      M 495 928 L 496 932 L 494 930 Z
      M 365 919 L 367 921 L 367 925 L 365 923 L 364 921 Z
      M 923 918 L 924 920 L 922 925 L 919 929 L 917 931 L 916 929 L 918 926 L 919 923 L 921 920 Z
      M 910 918 L 911 924 L 909 928 L 907 930 L 906 927 L 908 924 Z
      M 487 918 L 488 922 L 486 920 Z
      M 363 916 L 364 920 L 362 918 Z
      M 819 914 L 806 924 L 810 919 L 813 916 Z
      M 370 909 L 374 915 L 378 924 L 390 945 L 393 952 L 389 948 L 387 945 L 383 937 L 380 934 L 369 912 Z
      M 811 910 L 809 911 L 808 912 L 801 920 L 801 915 L 803 912 L 805 908 Z
      M 918 907 L 919 909 L 917 912 L 917 914 L 914 919 L 912 917 L 915 913 L 915 911 L 916 909 Z
      M 494 907 L 494 915 L 489 910 L 492 909 Z
      M 934 905 L 935 908 L 934 909 L 933 911 L 932 908 L 933 907 Z
      M 599 906 L 601 905 L 612 906 L 617 905 L 619 905 L 623 907 L 643 907 L 646 910 L 646 916 L 648 922 L 649 933 L 648 952 L 646 956 L 646 960 L 645 964 L 643 969 L 638 974 L 636 975 L 633 976 L 629 976 L 626 978 L 623 978 L 620 977 L 617 975 L 613 975 L 610 974 L 608 973 L 606 971 L 606 970 L 600 965 L 600 960 L 597 954 L 594 943 L 593 937 L 594 929 L 593 923 L 593 919 L 595 911 L 596 909 Z
      M 699 905 L 703 907 L 705 911 L 706 914 L 707 934 L 705 940 L 705 946 L 704 952 L 702 953 L 701 955 L 699 961 L 701 962 L 701 964 L 700 966 L 692 974 L 690 975 L 687 975 L 684 977 L 680 978 L 675 978 L 666 977 L 661 973 L 657 969 L 658 967 L 656 965 L 655 958 L 654 947 L 653 946 L 654 923 L 655 915 L 657 913 L 657 910 L 660 907 L 670 906 L 690 906 L 696 904 Z
      M 593 901 L 597 903 L 594 904 L 593 906 Z
      M 466 901 L 468 906 L 465 903 Z
      M 407 900 L 409 902 L 409 906 L 407 904 L 406 902 Z
      M 838 899 L 839 901 L 837 903 L 836 901 Z
      M 654 893 L 656 896 L 653 896 Z
      M 843 892 L 844 894 L 843 896 L 839 900 L 838 898 L 841 894 Z
      M 753 893 L 755 895 L 757 898 L 758 911 L 757 920 L 754 937 L 752 943 L 748 951 L 742 957 L 739 959 L 735 961 L 732 962 L 726 962 L 722 963 L 721 962 L 717 962 L 715 961 L 713 959 L 712 957 L 711 945 L 711 934 L 713 928 L 714 922 L 713 910 L 715 907 L 715 903 L 718 900 L 720 899 L 723 899 L 731 895 L 738 895 L 746 892 L 749 892 Z
      M 546 893 L 549 892 L 553 893 L 559 896 L 562 897 L 565 895 L 567 895 L 569 896 L 571 898 L 574 899 L 577 899 L 580 900 L 582 901 L 584 903 L 586 910 L 586 921 L 589 937 L 589 944 L 587 949 L 587 956 L 585 960 L 582 961 L 578 963 L 570 963 L 568 961 L 564 960 L 556 955 L 551 950 L 549 947 L 548 945 L 548 942 L 546 939 L 545 936 L 542 920 L 542 904 L 543 898 L 544 895 Z
      M 478 892 L 480 897 L 477 894 Z
      M 403 892 L 405 894 L 404 897 L 403 895 Z
      M 926 890 L 927 893 L 925 899 L 922 904 L 920 906 L 919 904 L 920 902 L 924 893 L 925 892 Z
      M 352 889 L 357 896 L 361 904 L 361 906 L 362 911 L 360 909 L 357 904 L 351 892 Z
      M 718 886 L 721 889 L 717 889 Z
      M 939 884 L 940 886 L 937 891 L 936 888 L 937 886 Z
      M 850 883 L 851 885 L 849 888 L 844 893 L 843 891 L 846 887 Z
      M 941 881 L 942 883 L 940 885 L 939 883 Z
      M 944 875 L 944 878 L 943 880 L 942 877 Z
      M 462 875 L 463 877 L 464 878 L 463 881 L 462 879 L 461 878 Z
      M 797 874 L 799 875 L 801 880 L 802 889 L 802 891 L 800 895 L 800 901 L 798 904 L 798 907 L 796 910 L 795 913 L 796 917 L 794 921 L 791 925 L 786 930 L 779 935 L 776 935 L 773 937 L 767 937 L 764 934 L 763 930 L 763 913 L 765 906 L 765 898 L 766 891 L 767 888 L 769 884 L 776 880 L 780 881 L 783 880 L 787 878 L 789 876 L 793 874 Z
      M 504 874 L 506 874 L 509 876 L 520 882 L 523 881 L 529 884 L 531 886 L 533 890 L 532 895 L 531 891 L 529 889 L 529 891 L 531 895 L 533 896 L 533 902 L 535 907 L 536 912 L 537 926 L 536 931 L 535 934 L 534 936 L 532 938 L 526 938 L 519 935 L 516 933 L 508 925 L 505 919 L 503 914 L 503 911 L 501 908 L 499 901 L 498 891 L 498 884 L 499 878 L 502 875 Z
      M 529 871 L 530 873 L 528 875 L 527 873 Z
      M 840 868 L 842 871 L 844 872 L 841 876 L 836 882 L 835 879 L 836 876 L 838 873 L 838 870 Z
      M 942 860 L 943 863 L 941 867 L 939 869 L 938 867 L 939 865 Z
      M 436 858 L 438 860 L 437 863 L 436 861 Z
      M 434 855 L 435 859 L 433 857 Z
      M 867 850 L 868 852 L 866 854 L 865 857 L 862 860 L 861 858 L 863 856 L 863 854 Z
      M 834 851 L 835 856 L 835 864 L 834 870 L 833 874 L 831 877 L 831 880 L 830 883 L 829 885 L 823 894 L 820 897 L 820 898 L 818 900 L 812 904 L 808 903 L 808 902 L 806 900 L 806 897 L 807 887 L 809 872 L 811 866 L 819 859 L 824 855 Z
      M 464 849 L 466 850 L 471 854 L 476 856 L 479 858 L 486 864 L 488 866 L 488 870 L 490 874 L 490 884 L 491 893 L 492 894 L 492 901 L 491 903 L 488 904 L 486 903 L 484 901 L 487 900 L 485 896 L 482 892 L 475 886 L 476 892 L 471 887 L 469 883 L 463 863 Z
      M 484 848 L 485 852 L 483 850 Z
      M 330 839 L 333 844 L 333 846 L 335 850 L 337 852 L 339 856 L 344 867 L 348 877 L 349 880 L 349 883 L 350 884 L 349 887 L 346 884 L 345 881 L 343 877 L 341 870 L 337 863 L 332 850 L 331 845 L 329 842 Z
      M 865 824 L 865 828 L 864 833 L 862 837 L 862 841 L 861 843 L 855 853 L 852 856 L 850 859 L 849 862 L 848 864 L 847 865 L 845 866 L 842 865 L 842 859 L 844 853 L 844 851 L 843 850 L 843 848 L 844 841 L 850 835 Z
      M 436 824 L 437 827 L 440 830 L 449 838 L 454 840 L 455 846 L 455 859 L 456 863 L 459 869 L 455 870 L 455 868 L 451 864 L 452 859 L 449 854 L 445 848 L 442 845 L 444 849 L 443 852 L 438 845 L 437 843 L 437 839 L 435 837 L 435 831 L 434 827 L 433 826 Z
      M 411 818 L 413 820 L 414 822 L 413 825 L 410 820 Z
      M 664 813 L 661 814 L 657 818 L 655 823 L 655 827 L 653 831 L 653 812 Z
      M 597 817 L 601 815 L 604 815 L 607 813 L 613 812 L 621 812 L 631 814 L 636 817 L 638 819 L 638 821 L 642 826 L 644 830 L 647 839 L 649 856 L 649 877 L 647 886 L 645 889 L 645 893 L 643 895 L 638 896 L 636 896 L 635 895 L 633 895 L 625 897 L 621 897 L 617 895 L 611 895 L 605 893 L 597 892 L 597 889 L 594 889 L 592 887 L 591 885 L 589 876 L 588 868 L 587 853 L 589 842 L 588 838 L 589 834 L 591 831 L 591 828 L 592 825 L 595 819 Z
      M 698 813 L 701 816 L 704 817 L 707 821 L 710 828 L 712 838 L 713 847 L 713 865 L 711 871 L 711 878 L 710 883 L 709 886 L 708 888 L 705 891 L 703 891 L 701 893 L 697 894 L 689 894 L 683 896 L 674 896 L 665 895 L 661 894 L 659 893 L 657 888 L 656 884 L 655 873 L 655 858 L 656 838 L 658 831 L 659 826 L 661 824 L 661 822 L 667 816 L 671 814 L 676 812 L 682 811 L 688 811 Z
      M 635 812 L 639 811 L 649 813 L 647 826 L 646 823 L 645 821 L 643 819 L 642 816 L 641 815 L 640 815 L 638 813 Z
      M 598 811 L 594 813 L 590 817 L 588 821 L 588 809 L 595 809 L 596 810 Z
      M 962 808 L 963 812 L 961 820 L 959 826 L 952 842 L 949 848 L 947 850 L 946 848 L 948 845 L 952 832 L 954 830 L 955 828 L 956 822 L 960 815 L 960 812 Z
      M 699 810 L 706 808 L 710 809 L 712 808 L 714 810 L 712 819 L 710 817 L 709 814 L 707 812 Z
      M 421 808 L 423 810 L 427 815 L 426 818 L 428 821 L 427 825 L 426 822 L 424 820 L 422 813 L 420 810 Z
      M 571 808 L 574 807 L 582 809 L 581 819 L 579 815 Z
      M 880 806 L 881 808 L 879 810 L 876 818 L 874 822 L 873 814 L 874 812 Z
      M 730 807 L 726 809 L 723 812 L 721 815 L 721 817 L 720 818 L 719 820 L 719 807 L 724 806 Z
      M 542 808 L 547 806 L 553 806 L 559 807 L 562 808 L 569 812 L 574 817 L 574 819 L 576 820 L 577 824 L 577 828 L 579 832 L 579 835 L 578 836 L 578 839 L 579 843 L 581 847 L 582 878 L 581 884 L 579 886 L 577 887 L 571 888 L 567 887 L 564 885 L 561 884 L 556 884 L 552 882 L 548 882 L 546 880 L 543 880 L 537 877 L 539 876 L 538 874 L 537 877 L 536 872 L 534 868 L 532 856 L 531 846 L 532 844 L 531 840 L 532 830 L 534 819 L 535 816 L 536 814 Z
      M 753 804 L 755 806 L 757 806 L 760 809 L 756 809 L 757 811 L 759 811 L 760 809 L 763 812 L 765 816 L 768 830 L 768 846 L 767 855 L 765 868 L 762 875 L 759 878 L 754 879 L 745 884 L 738 884 L 731 886 L 724 886 L 720 882 L 719 864 L 719 852 L 721 847 L 721 839 L 722 831 L 724 826 L 724 821 L 726 817 L 732 811 L 737 810 L 736 812 L 739 810 L 736 809 L 738 808 L 739 807 L 747 807 L 748 805 Z
      M 542 803 L 538 804 L 532 811 L 533 801 L 535 801 Z
      M 759 802 L 761 801 L 762 800 L 767 801 L 768 803 L 769 809 L 768 812 L 767 810 L 766 809 L 766 807 L 764 805 Z
      M 653 804 L 653 800 L 659 799 L 672 801 L 665 803 L 662 803 L 656 802 Z
      M 313 799 L 314 801 L 315 802 L 318 812 L 318 815 L 319 816 L 318 819 L 317 817 L 316 816 L 313 807 L 312 803 Z
      M 647 801 L 646 804 L 645 802 L 639 804 L 637 804 L 636 803 L 632 802 L 622 801 L 629 799 L 635 799 L 636 798 L 641 799 L 638 801 L 643 800 Z
      M 587 800 L 588 798 L 591 800 Z
      M 779 798 L 777 800 L 773 805 L 773 798 Z
      M 520 798 L 523 797 L 526 798 L 528 800 L 527 809 L 524 803 L 523 800 L 522 800 Z
      M 707 797 L 705 799 L 699 800 L 692 799 L 698 797 L 702 797 L 703 796 Z
      M 498 795 L 504 795 L 511 797 L 514 799 L 516 801 L 520 806 L 520 808 L 524 814 L 523 819 L 524 826 L 526 831 L 527 836 L 527 838 L 526 848 L 527 864 L 525 868 L 519 869 L 516 868 L 514 867 L 510 864 L 506 862 L 504 863 L 500 860 L 497 859 L 494 856 L 492 852 L 490 841 L 490 835 L 488 825 L 487 824 L 487 821 L 489 813 L 489 806 L 490 802 L 496 796 Z
      M 803 794 L 806 796 L 808 798 L 809 800 L 810 803 L 811 810 L 812 820 L 812 826 L 810 831 L 810 838 L 808 847 L 806 850 L 807 852 L 806 855 L 804 857 L 801 859 L 794 863 L 789 864 L 787 865 L 785 867 L 783 868 L 780 869 L 776 869 L 774 867 L 773 865 L 773 831 L 774 821 L 775 816 L 778 806 L 780 803 L 782 801 L 786 799 L 790 795 L 793 794 Z
      M 533 791 L 537 790 L 546 792 L 547 793 L 549 794 L 546 795 L 538 794 Z
      M 973 788 L 974 798 L 972 804 L 967 815 L 966 819 L 965 814 L 970 795 Z
      M 730 790 L 734 788 L 739 789 L 735 791 Z
      M 495 791 L 492 792 L 488 796 L 487 792 L 489 788 L 492 789 L 493 790 Z
      M 807 788 L 810 787 L 811 789 L 812 790 L 811 795 L 810 793 L 807 791 Z
      M 481 785 L 484 788 L 483 792 L 480 788 L 479 786 Z
      M 819 785 L 815 790 L 815 785 Z
      M 889 781 L 890 784 L 889 786 L 887 788 L 886 785 Z
      M 842 782 L 842 784 L 844 787 L 846 797 L 846 806 L 843 825 L 842 828 L 839 832 L 833 838 L 828 840 L 824 844 L 821 846 L 818 846 L 816 844 L 817 827 L 816 817 L 816 814 L 817 804 L 819 799 L 818 796 L 820 793 L 821 790 L 825 785 L 830 784 L 835 781 L 839 782 Z
      M 459 781 L 467 781 L 469 782 L 474 787 L 476 790 L 476 792 L 480 798 L 479 801 L 481 806 L 482 812 L 483 820 L 483 844 L 480 846 L 476 845 L 471 841 L 466 839 L 460 835 L 458 833 L 456 829 L 455 826 L 455 820 L 452 810 L 452 801 L 453 792 L 454 788 L 455 785 Z
      M 974 777 L 975 782 L 974 783 L 973 785 L 972 781 Z
      M 805 778 L 807 777 L 810 777 L 808 779 Z
      M 841 776 L 845 774 L 845 779 L 843 777 Z
      M 457 776 L 455 778 L 454 778 L 453 779 L 452 781 L 454 775 Z
      M 853 772 L 852 774 L 850 777 L 848 774 Z
      M 320 770 L 321 774 L 322 775 L 321 779 L 319 775 Z
      M 619 767 L 631 766 L 639 768 L 630 769 L 629 768 Z
      M 869 766 L 872 769 L 873 773 L 874 778 L 874 780 L 873 789 L 871 794 L 871 800 L 870 805 L 865 811 L 856 820 L 855 820 L 851 824 L 851 820 L 850 805 L 853 790 L 853 782 L 855 780 L 855 777 L 858 772 L 867 766 Z
      M 430 765 L 433 765 L 436 767 L 438 769 L 440 772 L 444 780 L 447 796 L 448 810 L 448 819 L 447 821 L 444 821 L 441 817 L 440 817 L 436 813 L 436 812 L 431 808 L 429 806 L 428 803 L 427 799 L 427 791 L 425 788 L 425 773 L 426 770 L 427 768 Z
      M 388 762 L 390 764 L 391 767 L 393 775 L 392 779 L 390 773 L 388 769 L 388 766 L 387 765 Z
      M 875 759 L 874 763 L 872 761 Z
      M 912 759 L 911 764 L 909 772 L 908 773 L 907 775 L 906 771 L 908 767 L 909 763 Z
      M 424 758 L 427 761 L 424 763 Z
      M 890 753 L 892 755 L 893 760 L 893 764 L 892 776 L 889 777 L 888 780 L 886 783 L 885 787 L 884 790 L 879 795 L 879 786 L 878 779 L 880 773 L 880 761 L 883 757 L 885 757 L 884 755 L 885 755 L 887 753 Z
      M 437 754 L 440 753 L 442 754 L 444 756 L 442 757 Z
      M 411 752 L 416 757 L 419 763 L 420 770 L 419 777 L 420 789 L 422 793 L 421 798 L 420 794 L 416 789 L 413 787 L 413 785 L 412 787 L 409 782 L 407 777 L 406 774 L 405 768 L 405 758 L 406 755 L 408 753 Z
      M 903 747 L 904 749 L 902 755 L 901 749 Z
      M 897 747 L 897 753 L 896 751 L 894 749 Z
      M 402 749 L 403 747 L 405 749 Z
      M 399 746 L 401 748 L 402 751 L 399 757 L 397 750 Z
      M 385 747 L 384 760 L 382 753 Z
      M 420 743 L 422 742 L 424 744 L 422 745 Z
      M 296 736 L 299 742 L 305 761 L 308 775 L 307 780 L 306 776 L 304 769 L 302 766 L 299 756 L 299 752 L 295 740 Z
      M 401 732 L 405 731 L 407 732 L 406 735 Z
      M 632 728 L 633 726 L 636 728 Z
      M 651 724 L 656 724 L 653 726 Z
      M 295 720 L 298 727 L 298 731 L 300 735 L 299 739 L 296 732 L 294 724 Z
      M 344 715 L 345 717 L 346 718 L 345 722 L 344 719 L 343 718 Z
      M 951 714 L 952 718 L 950 720 L 950 717 Z
      M 313 714 L 314 718 L 318 731 L 317 737 L 315 733 L 314 724 L 312 719 Z
      M 979 706 L 980 709 L 979 710 L 978 713 L 977 709 L 978 708 Z
      M 517 705 L 525 705 L 522 707 Z
      M 974 693 L 975 697 L 974 698 L 974 702 L 972 706 L 971 700 Z
      M 288 693 L 290 698 L 289 703 L 287 699 Z
      M 958 683 L 958 686 L 957 688 L 956 685 Z
      M 400 682 L 402 680 L 406 684 L 404 685 L 402 684 Z
      M 393 668 L 394 672 L 392 670 Z
      M 982 658 L 983 662 L 982 666 L 980 670 L 979 665 Z
      M 984 646 L 985 653 L 983 659 L 982 653 L 983 652 Z
      M 956 645 L 957 650 L 955 655 L 954 650 Z
      M 879 642 L 876 645 L 872 644 L 875 641 Z
      M 887 636 L 882 641 L 880 642 L 878 640 L 881 637 L 883 636 Z
      M 385 633 L 388 633 L 388 634 L 390 636 L 391 638 L 389 639 L 387 637 Z
      M 1021 617 L 1022 626 L 1018 656 L 1015 674 L 1012 685 L 1012 691 L 1011 696 L 1009 700 L 1009 706 L 1004 725 L 1004 735 L 1003 739 L 1000 746 L 1000 750 L 993 774 L 987 790 L 980 803 L 979 800 L 980 799 L 980 796 L 990 764 L 992 761 L 995 751 L 1002 724 L 1002 719 L 1000 722 L 998 728 L 997 735 L 991 754 L 986 768 L 983 774 L 982 770 L 984 765 L 985 754 L 986 749 L 988 744 L 989 734 L 992 727 L 995 712 L 1000 698 L 1002 687 L 1005 676 L 1008 669 L 1010 657 L 1012 654 L 1015 644 L 1015 640 L 1017 636 L 1019 627 L 1019 623 Z
      M 780 615 L 786 614 L 789 615 L 791 617 L 788 618 L 782 617 Z
      M 975 611 L 976 621 L 975 622 L 975 632 L 974 634 L 972 636 L 971 634 L 973 631 L 973 620 Z
      M 457 609 L 458 607 L 463 607 L 464 609 L 467 608 L 472 607 L 478 609 L 487 610 L 480 612 L 469 612 L 461 611 Z
      M 814 609 L 820 608 L 821 606 L 830 605 L 832 605 L 833 606 L 836 607 L 831 609 L 834 608 L 844 608 L 850 609 L 846 611 L 816 611 Z
      M 489 605 L 493 603 L 499 603 L 505 601 L 510 602 L 505 604 L 508 604 L 509 603 L 514 602 L 518 602 L 519 601 L 522 602 L 520 603 L 519 604 L 511 606 L 506 607 L 495 607 Z
      M 1015 600 L 1017 622 L 1017 625 L 1016 629 L 1013 636 L 1010 647 L 1010 651 L 1008 655 L 1008 659 L 1006 666 L 1004 669 L 1003 673 L 1002 668 L 1004 658 L 1007 649 L 1008 643 L 1008 634 L 1010 621 L 1013 610 L 1013 604 Z
      M 402 601 L 406 600 L 410 602 L 414 606 L 409 606 L 407 605 L 404 603 Z
      M 777 597 L 783 596 L 786 597 L 794 601 L 797 602 L 803 603 L 800 605 L 792 604 L 786 602 Z
      M 868 594 L 866 596 L 862 598 L 861 597 L 858 599 L 853 600 L 849 601 L 843 601 L 842 602 L 837 601 L 841 600 L 845 598 L 849 597 L 855 597 L 858 596 L 864 593 Z
      M 920 593 L 915 598 L 914 596 Z
      M 529 594 L 531 593 L 534 593 L 532 595 Z
      M 513 593 L 506 596 L 501 597 L 495 596 L 499 595 L 508 592 Z
      M 269 590 L 271 596 L 271 604 L 272 605 L 271 612 L 269 607 L 267 597 L 267 593 L 268 592 Z
      M 972 589 L 973 594 L 971 598 L 970 594 L 971 593 Z
      M 418 591 L 422 591 L 423 589 L 425 590 L 432 594 L 434 594 L 436 595 L 437 596 L 438 598 L 435 599 L 432 597 L 429 597 L 424 595 L 420 593 Z
      M 900 589 L 897 592 L 893 594 L 891 594 L 887 597 L 880 599 L 877 598 L 882 595 L 887 594 L 896 589 Z
      M 926 586 L 927 588 L 925 590 L 925 591 L 924 592 L 922 593 L 921 591 Z
      M 899 588 L 901 587 L 904 587 L 902 589 Z
      M 564 586 L 558 590 L 554 592 L 549 590 L 552 589 L 560 584 L 562 582 Z
      M 737 582 L 739 581 L 741 582 L 746 586 L 749 587 L 751 588 L 752 589 L 752 590 L 753 591 L 757 593 L 754 594 L 753 593 L 750 593 L 747 591 L 740 585 Z
      M 364 582 L 365 580 L 367 582 Z
      M 724 580 L 726 579 L 729 582 L 727 583 Z
      M 286 579 L 288 589 L 289 598 L 289 610 L 291 612 L 290 625 L 288 621 L 288 612 L 286 603 L 286 591 L 285 590 Z
      M 1010 574 L 1011 591 L 1010 597 L 1008 603 L 1007 593 L 1008 579 Z
      M 276 570 L 277 580 L 280 601 L 282 608 L 283 615 L 283 623 L 285 630 L 285 638 L 287 652 L 289 655 L 289 662 L 290 670 L 292 675 L 292 680 L 294 685 L 293 692 L 292 686 L 288 670 L 286 667 L 283 658 L 282 653 L 281 642 L 279 637 L 279 627 L 277 617 L 277 605 L 276 595 L 274 592 L 273 583 L 273 575 Z
      M 713 569 L 716 568 L 718 571 L 724 575 L 726 577 L 724 580 L 719 574 L 718 574 Z
      M 380 570 L 383 570 L 382 568 L 384 567 L 391 574 L 395 576 L 397 578 L 394 579 L 399 584 L 404 587 L 404 590 L 402 589 L 400 587 L 398 587 L 394 584 L 391 581 L 391 580 L 388 577 Z
      M 714 565 L 716 564 L 718 565 L 720 567 L 715 567 Z
      M 591 562 L 591 564 L 586 570 L 578 574 L 573 578 L 569 578 L 572 575 L 576 573 L 583 567 Z
      M 932 551 L 934 555 L 929 560 L 924 564 L 923 562 L 925 560 L 926 557 Z
      M 333 549 L 334 552 L 333 553 L 332 557 L 331 552 L 332 551 Z
      M 311 548 L 313 557 L 313 559 L 311 576 L 309 566 L 309 557 Z
      M 364 546 L 367 550 L 367 554 L 365 553 L 363 549 Z
      M 937 545 L 938 547 L 936 550 L 936 552 L 934 554 L 932 551 L 933 549 Z
      M 274 545 L 276 552 L 276 565 L 275 566 L 274 568 Z
      M 685 542 L 685 546 L 682 545 Z
      M 524 542 L 534 541 L 541 543 L 534 544 L 533 543 Z
      M 372 541 L 378 550 L 371 543 Z
      M 946 540 L 947 542 L 945 544 L 944 542 Z
      M 948 536 L 949 539 L 947 541 L 947 538 Z
      M 927 537 L 925 539 L 925 540 L 920 545 L 918 545 L 914 549 L 914 550 L 911 553 L 907 555 L 899 563 L 893 568 L 887 570 L 882 574 L 873 577 L 869 580 L 860 584 L 853 586 L 850 586 L 849 585 L 839 586 L 837 588 L 833 588 L 829 590 L 816 590 L 800 589 L 795 587 L 787 587 L 782 586 L 763 577 L 756 577 L 754 575 L 754 574 L 749 570 L 738 564 L 733 564 L 723 556 L 718 553 L 728 552 L 731 550 L 747 549 L 767 549 L 772 547 L 781 547 L 790 544 L 808 544 L 813 542 L 818 541 L 836 542 L 846 541 L 849 539 L 859 540 L 865 540 L 872 538 L 886 539 L 898 537 L 916 536 Z
      M 376 537 L 388 536 L 414 537 L 419 539 L 427 540 L 445 541 L 469 540 L 477 541 L 479 543 L 485 543 L 493 542 L 494 543 L 502 543 L 505 545 L 515 547 L 525 546 L 528 547 L 531 549 L 550 549 L 556 551 L 567 550 L 575 551 L 581 553 L 579 555 L 557 569 L 553 569 L 557 566 L 555 566 L 552 568 L 549 571 L 543 575 L 531 581 L 518 585 L 504 588 L 490 588 L 486 590 L 472 590 L 457 587 L 449 584 L 444 584 L 430 580 L 426 576 L 424 576 L 422 574 L 419 574 L 415 572 L 411 568 L 408 566 L 406 566 L 399 561 L 396 558 L 397 556 L 394 553 L 391 552 L 385 546 L 384 546 L 379 541 L 379 540 Z
      M 934 535 L 935 537 L 932 540 L 931 538 Z
      M 571 534 L 574 533 L 575 534 L 578 534 L 583 536 L 586 539 L 580 539 L 578 537 Z
      M 903 532 L 908 530 L 916 531 L 910 533 Z
      M 736 531 L 734 534 L 733 535 L 731 536 L 728 537 L 721 539 L 724 536 L 727 535 L 730 532 L 733 530 Z
      M 875 530 L 881 528 L 888 529 L 882 531 Z
      M 735 530 L 737 529 L 738 528 L 742 529 L 739 530 L 738 531 Z
      M 308 528 L 306 546 L 306 538 L 307 537 Z
      M 588 527 L 590 526 L 591 530 Z
      M 485 527 L 488 526 L 491 526 L 494 527 L 504 527 L 507 529 L 524 529 L 531 530 L 534 532 L 541 532 L 545 534 L 547 532 L 549 533 L 552 535 L 556 536 L 551 537 L 543 536 L 532 533 L 527 533 L 524 535 L 515 534 L 511 532 L 501 532 L 497 530 L 491 530 L 489 528 Z
      M 745 534 L 747 532 L 752 528 L 757 525 L 762 524 L 770 525 L 768 526 L 767 527 L 765 527 L 763 529 L 775 529 L 781 528 L 787 526 L 793 525 L 798 525 L 799 526 L 814 528 L 805 530 L 796 530 L 788 531 L 781 533 L 772 532 L 762 534 L 756 533 L 748 535 Z
      M 584 524 L 585 522 L 587 524 Z
      M 853 522 L 846 525 L 837 526 L 836 527 L 832 526 L 841 522 L 847 522 L 848 521 Z
      M 906 521 L 913 520 L 919 522 L 911 523 Z
      M 395 520 L 389 521 L 384 523 L 376 522 L 380 521 L 384 519 L 390 518 L 392 518 L 393 519 Z
      M 402 519 L 406 517 L 408 518 L 412 517 L 431 520 L 435 522 L 444 523 L 448 524 L 450 526 L 459 526 L 464 528 L 452 529 L 445 528 L 429 524 L 423 523 L 416 523 L 406 521 Z
      M 923 515 L 928 514 L 933 517 L 934 518 L 936 521 L 938 522 L 934 523 L 927 517 L 925 517 Z
      M 903 516 L 896 517 L 889 519 L 882 520 L 870 521 L 857 520 L 859 519 L 860 518 L 868 516 L 875 515 L 893 514 L 901 514 Z
      M 475 515 L 485 514 L 490 516 L 482 517 Z
      M 1018 511 L 1019 525 L 1018 531 L 1016 535 L 1014 552 L 1013 564 L 1011 560 L 1011 548 L 1012 540 L 1014 527 L 1016 516 Z
      M 1001 499 L 1002 502 L 1001 509 L 999 516 L 998 507 L 999 502 L 1000 501 Z
      M 333 494 L 334 500 L 332 504 L 331 497 L 332 496 Z
      M 282 491 L 284 500 L 284 516 L 282 524 L 281 525 L 280 527 L 279 505 L 280 496 Z
      M 297 487 L 298 490 L 296 498 L 295 490 L 296 489 Z
      M 965 486 L 967 490 L 966 494 L 964 490 Z
      M 810 479 L 804 482 L 800 483 L 796 482 L 802 480 L 806 478 Z
      M 280 472 L 280 474 L 279 482 L 278 486 L 277 487 L 276 489 L 275 486 L 276 485 L 277 481 Z
      M 894 471 L 898 470 L 899 471 L 901 472 L 898 473 L 897 472 Z
      M 298 466 L 299 478 L 298 479 L 297 481 L 296 476 Z
      M 1013 465 L 1015 474 L 1016 483 L 1016 501 L 1013 518 L 1011 523 L 1010 515 L 1012 491 Z
      M 995 449 L 997 451 L 997 455 L 999 461 L 1001 473 L 1002 482 L 1002 486 L 1001 487 L 1001 492 L 998 496 L 996 494 L 997 490 L 998 485 L 996 480 L 996 463 L 994 460 Z
      M 970 446 L 972 452 L 973 458 L 972 466 L 971 459 L 969 455 Z
      M 865 443 L 870 444 L 871 448 L 866 447 L 864 446 Z
      M 579 442 L 581 444 L 581 448 L 578 445 Z
      M 304 440 L 305 445 L 303 447 L 303 444 Z
      M 338 436 L 339 439 L 338 440 L 337 444 L 336 439 L 337 438 Z
      M 267 435 L 267 448 L 265 447 L 264 444 L 265 443 Z
      M 944 431 L 945 433 L 946 434 L 945 440 L 944 436 L 943 435 Z
      M 1000 427 L 1002 433 L 1005 438 L 1004 461 L 1002 453 L 1002 447 L 999 434 Z
      M 821 422 L 822 420 L 824 420 L 826 422 Z
      M 340 423 L 340 425 L 339 426 L 338 428 L 337 424 Z
      M 496 414 L 496 416 L 494 419 L 491 422 L 488 421 L 489 419 L 491 416 Z
      M 978 407 L 979 411 L 980 412 L 979 415 L 978 413 L 977 412 Z
      M 936 402 L 937 404 L 938 405 L 940 412 L 939 418 L 938 416 L 937 415 L 935 407 Z
      M 933 392 L 934 394 L 935 395 L 936 399 L 935 403 L 933 399 L 933 396 L 932 395 Z
      M 460 391 L 461 393 L 459 396 L 456 399 L 455 402 L 453 404 L 452 402 L 454 399 L 455 396 Z
      M 1009 390 L 1011 394 L 1013 402 L 1015 409 L 1017 412 L 1018 440 L 1018 448 L 1017 451 L 1016 449 L 1015 448 L 1014 444 L 1011 424 L 1010 405 L 1009 397 L 1008 396 Z
      M 700 386 L 701 392 L 700 394 L 697 397 L 696 393 L 698 391 L 699 389 Z
      M 972 385 L 974 389 L 973 394 L 971 390 Z
      M 433 379 L 434 381 L 432 385 L 429 388 L 427 386 L 430 383 L 430 382 Z
      M 976 378 L 977 382 L 979 387 L 979 394 L 977 392 L 976 389 L 975 384 Z
      M 609 375 L 610 377 L 608 381 L 606 383 L 605 379 Z
      M 314 369 L 317 371 L 316 373 L 314 375 L 311 384 L 310 380 L 313 373 Z
      M 471 360 L 472 362 L 470 364 L 469 362 Z
      M 964 359 L 965 361 L 966 362 L 965 366 L 964 363 L 963 362 Z
      M 321 356 L 322 359 L 321 360 L 321 363 L 318 368 L 317 364 L 319 358 Z
      M 447 350 L 448 352 L 445 355 L 444 353 Z
      M 900 349 L 903 349 L 903 351 L 906 356 L 905 360 L 903 356 L 901 353 Z
      M 381 348 L 382 351 L 377 360 L 376 357 L 378 352 L 379 350 Z
      M 300 347 L 301 352 L 300 353 L 300 359 L 297 363 L 295 369 L 290 386 L 290 390 L 287 397 L 283 415 L 281 427 L 278 451 L 277 469 L 276 477 L 274 483 L 273 457 L 277 429 L 278 424 L 284 403 L 287 386 L 290 375 L 293 368 L 294 361 L 297 353 Z
      M 450 346 L 451 348 L 449 350 L 448 348 Z
      M 597 344 L 597 347 L 596 349 L 595 346 Z
      M 851 343 L 853 346 L 854 348 L 853 354 L 852 350 L 850 347 Z
      M 986 341 L 987 343 L 988 344 L 988 346 L 997 361 L 1000 367 L 1002 373 L 1003 382 L 1003 395 L 1004 409 L 1006 415 L 1005 432 L 1003 428 L 1001 425 L 997 414 L 995 404 L 995 392 L 994 385 L 992 379 L 991 373 L 991 366 L 986 345 L 985 344 Z
      M 763 340 L 764 342 L 765 343 L 767 349 L 766 353 L 765 351 L 764 350 L 764 347 L 762 345 Z
      M 993 339 L 994 341 L 995 342 L 996 345 L 996 348 L 999 355 L 998 358 L 996 356 L 994 352 L 994 350 L 990 342 L 992 341 Z
      M 954 336 L 955 338 L 956 339 L 958 344 L 957 348 L 956 346 L 955 345 L 953 340 Z
      M 313 335 L 314 338 L 313 339 L 312 341 L 311 338 L 312 337 Z
      M 568 333 L 569 338 L 564 350 L 563 343 L 566 336 L 567 335 Z
      M 330 332 L 331 336 L 326 351 L 324 355 L 321 355 L 321 353 L 322 350 L 324 345 L 327 340 Z
      M 846 330 L 848 333 L 846 335 Z
      M 362 330 L 363 332 L 362 334 L 360 336 L 359 334 L 360 332 Z
      M 602 328 L 602 334 L 600 336 L 599 332 L 600 330 Z
      M 917 327 L 919 330 L 922 336 L 924 341 L 926 347 L 925 350 L 922 345 L 921 340 L 919 335 L 916 330 Z
      M 890 315 L 892 317 L 891 320 L 890 318 Z
      M 834 312 L 836 314 L 837 316 L 838 321 L 840 324 L 839 327 L 836 322 L 834 317 Z
      M 366 312 L 367 314 L 365 318 L 363 321 L 359 326 L 358 323 L 364 314 Z
      M 306 312 L 307 314 L 306 319 L 304 325 L 299 333 L 297 338 L 297 342 L 299 343 L 296 348 L 292 360 L 286 381 L 281 403 L 278 410 L 275 423 L 274 429 L 274 435 L 272 441 L 271 435 L 273 406 L 274 397 L 276 391 L 275 389 L 276 383 L 278 377 L 278 371 L 280 360 L 283 352 L 289 340 L 303 315 Z
      M 754 309 L 755 313 L 753 311 Z
      M 976 306 L 978 309 L 979 312 L 982 317 L 987 328 L 989 336 L 991 339 L 990 342 L 988 339 L 984 331 L 978 320 L 977 318 L 976 315 L 975 311 Z
      M 438 306 L 439 309 L 435 310 L 437 308 Z
      M 683 301 L 684 305 L 682 303 Z
      M 624 299 L 625 302 L 624 304 L 618 314 L 615 318 L 614 313 L 615 311 L 617 309 L 618 309 L 619 308 L 620 306 L 620 303 Z
      M 414 295 L 415 297 L 414 299 L 410 306 L 409 302 L 410 300 L 412 297 Z
      M 653 295 L 656 295 L 655 298 L 652 297 Z
      M 365 294 L 366 296 L 363 300 L 361 302 L 360 300 L 361 298 Z
      M 509 289 L 510 292 L 509 294 L 506 297 L 505 295 L 507 291 Z
      M 416 278 L 417 280 L 415 282 L 414 280 Z
      M 859 275 L 863 283 L 862 287 L 860 284 L 859 282 L 856 277 Z
      M 476 270 L 477 272 L 472 274 Z
      M 848 260 L 851 263 L 851 267 L 849 265 L 849 264 L 847 262 Z
      M 932 258 L 934 262 L 936 267 L 943 279 L 953 302 L 955 308 L 954 311 L 952 308 L 950 303 L 946 296 L 944 289 L 943 287 L 939 282 L 937 278 L 937 274 L 933 267 L 931 261 Z
      M 409 257 L 410 259 L 408 261 L 407 259 Z
      M 389 256 L 390 259 L 384 267 L 380 271 L 379 269 L 382 266 L 385 262 L 385 261 Z
      M 815 251 L 819 257 L 818 261 L 815 257 L 813 253 Z
      M 352 251 L 353 253 L 351 255 L 349 260 L 346 265 L 339 275 L 336 282 L 333 287 L 329 292 L 322 304 L 318 312 L 317 309 L 319 305 L 319 302 L 321 296 L 326 284 L 329 278 L 331 275 L 338 266 L 347 256 Z
      M 610 250 L 608 253 L 603 255 L 603 253 Z
      M 955 244 L 958 249 L 959 254 L 966 271 L 969 278 L 973 285 L 977 295 L 977 300 L 974 297 L 972 294 L 970 290 L 967 282 L 966 276 L 965 273 L 963 268 L 960 263 L 956 253 L 954 247 Z
      M 661 246 L 656 246 L 659 245 Z
      M 460 244 L 457 247 L 455 248 L 454 246 Z
      M 636 242 L 636 244 L 633 247 L 632 243 Z
      M 659 238 L 661 236 L 665 239 L 665 240 L 663 241 L 661 240 Z
      M 932 233 L 943 244 L 946 248 L 949 253 L 953 263 L 952 266 L 950 264 L 940 249 L 937 242 L 935 239 L 933 238 L 933 237 L 931 235 Z
      M 929 230 L 932 233 L 930 234 L 928 232 Z
      M 885 230 L 889 234 L 891 237 L 891 241 L 889 239 L 887 235 L 884 232 Z
      M 782 230 L 785 233 L 783 234 L 781 232 Z
      M 915 228 L 918 231 L 919 236 L 916 233 L 914 230 Z
      M 657 230 L 658 228 L 661 228 L 662 229 L 664 230 Z
      M 776 225 L 777 229 L 775 227 Z
      M 354 224 L 355 226 L 353 228 L 352 226 Z
      M 911 223 L 912 227 L 910 225 Z
      M 635 225 L 633 227 L 629 226 L 631 224 L 634 223 Z
      M 772 223 L 774 222 L 775 226 Z
      M 513 219 L 513 223 L 511 223 L 511 225 L 508 228 L 502 233 L 498 233 L 510 221 L 511 221 Z
      M 358 218 L 359 220 L 357 222 L 356 220 Z
      M 468 216 L 469 218 L 467 220 L 466 218 Z
      M 905 215 L 906 219 L 904 217 Z
      M 422 215 L 420 217 L 420 218 L 418 220 L 413 224 L 409 224 L 412 220 L 414 218 L 419 214 Z
      M 901 210 L 903 215 L 900 212 Z
      M 838 207 L 839 211 L 837 209 Z
      M 876 206 L 884 214 L 885 219 L 876 210 L 875 208 Z
      M 427 198 L 428 201 L 423 206 L 419 206 L 421 204 L 421 203 L 425 199 Z
      M 744 197 L 745 195 L 747 197 Z
      M 675 198 L 672 199 L 670 197 L 674 196 Z
      M 801 194 L 803 193 L 804 197 Z
      M 684 194 L 691 193 L 695 194 L 699 196 L 695 197 L 694 198 L 692 198 L 686 196 Z
      M 453 187 L 454 189 L 449 191 L 450 189 L 451 188 Z
      M 440 186 L 441 190 L 434 197 L 431 199 L 430 196 L 437 189 L 439 189 Z
      M 496 182 L 498 181 L 501 181 L 499 183 Z
      M 508 177 L 506 179 L 502 179 L 504 177 Z
      M 796 177 L 797 175 L 799 177 Z
      M 545 173 L 542 176 L 538 177 L 536 178 L 534 180 L 528 181 L 530 179 L 535 176 L 542 172 Z
      M 843 167 L 845 169 L 846 169 L 849 172 L 847 173 L 844 171 L 842 169 Z
      M 558 168 L 553 171 L 553 168 L 555 167 Z
      M 670 166 L 675 165 L 676 166 L 681 167 L 675 168 Z
      M 523 165 L 524 167 L 520 171 L 518 172 L 517 170 L 519 168 Z
      M 593 162 L 591 163 L 590 164 L 585 166 L 580 167 L 577 167 L 579 165 L 584 163 L 590 161 Z
      M 824 155 L 827 161 L 823 157 Z
      M 840 151 L 841 149 L 843 151 Z
      M 613 150 L 611 152 L 608 152 L 605 154 L 602 153 L 599 155 L 595 155 L 589 157 L 586 157 L 589 154 L 593 154 L 596 152 L 601 151 L 606 151 L 610 150 Z
      M 409 150 L 405 154 L 405 155 L 390 171 L 389 174 L 385 178 L 382 183 L 379 184 L 371 192 L 355 214 L 350 222 L 348 227 L 344 232 L 339 241 L 339 243 L 338 245 L 336 247 L 332 257 L 327 264 L 319 281 L 315 288 L 310 295 L 305 304 L 298 319 L 292 328 L 286 340 L 285 337 L 291 325 L 293 317 L 300 303 L 305 291 L 308 281 L 313 269 L 322 250 L 325 246 L 329 235 L 334 228 L 335 226 L 335 224 L 340 215 L 345 208 L 349 199 L 356 187 L 363 181 L 369 177 L 375 171 L 380 167 L 382 167 L 384 166 L 389 161 L 405 150 Z
      M 668 149 L 675 148 L 679 149 L 682 151 L 687 151 L 691 154 L 691 157 L 688 156 L 679 152 L 676 151 Z
      M 433 149 L 431 151 L 431 152 L 425 160 L 414 172 L 401 185 L 397 190 L 394 195 L 382 208 L 380 202 L 380 204 L 378 208 L 372 216 L 365 229 L 359 237 L 353 244 L 345 252 L 340 259 L 338 261 L 337 259 L 342 249 L 350 236 L 353 233 L 354 230 L 356 227 L 361 221 L 366 216 L 370 211 L 372 207 L 391 188 L 409 168 Z
      M 812 147 L 814 146 L 817 149 L 815 150 Z
      M 806 144 L 809 144 L 811 145 L 808 146 Z
      M 496 143 L 492 147 L 484 151 L 480 152 L 485 147 L 491 143 L 493 142 Z
      M 461 137 L 454 144 L 447 150 L 441 152 L 451 141 L 452 140 L 455 139 L 457 137 Z
      M 626 137 L 628 136 L 629 135 L 631 138 Z
      M 509 136 L 505 139 L 502 141 L 498 140 L 500 138 L 506 135 Z
      M 492 134 L 489 137 L 484 140 L 480 140 L 482 138 L 485 136 L 488 135 Z
      M 810 132 L 812 131 L 815 133 L 818 134 L 824 138 L 828 141 L 833 145 L 836 148 L 834 149 L 832 147 L 829 146 L 818 139 L 814 136 Z
      M 479 130 L 475 134 L 467 138 L 462 142 L 458 142 L 460 140 L 467 134 L 472 131 L 475 129 Z
      M 444 130 L 440 134 L 431 141 L 424 148 L 424 150 L 418 156 L 412 160 L 405 168 L 380 192 L 380 194 L 378 197 L 373 203 L 366 210 L 362 216 L 359 219 L 358 217 L 369 202 L 376 193 L 382 187 L 390 176 L 409 154 L 418 145 L 423 143 L 429 137 L 436 132 L 439 131 Z
      M 834 130 L 836 128 L 838 129 L 854 142 L 857 145 L 857 146 L 860 149 L 863 151 L 864 151 L 865 152 L 868 157 L 874 163 L 878 168 L 878 169 L 882 173 L 883 175 L 881 176 L 875 171 L 861 158 L 853 148 L 849 144 L 846 143 Z
      M 502 130 L 504 128 L 507 129 L 505 130 Z
      M 514 126 L 509 129 L 506 128 L 509 126 L 511 125 Z
      M 506 115 L 503 117 L 501 118 L 496 121 L 484 127 L 481 125 L 484 124 L 486 123 L 488 121 L 492 119 L 494 119 L 498 116 L 503 114 Z
      M 468 115 L 465 118 L 459 122 L 450 129 L 454 125 L 454 124 L 453 122 L 456 120 L 459 119 L 464 115 Z
      M 779 114 L 781 113 L 783 115 L 781 116 Z
      M 488 114 L 486 116 L 483 118 L 476 122 L 474 123 L 472 123 L 464 126 L 470 120 L 474 117 L 476 116 L 479 116 L 482 114 L 485 113 Z
      M 702 113 L 705 112 L 711 114 L 716 117 L 713 118 L 710 117 L 705 115 L 704 114 Z
      M 687 110 L 696 109 L 697 110 L 699 111 L 693 112 Z
      M 573 110 L 570 110 L 567 112 L 564 113 L 557 115 L 553 114 L 559 112 L 561 110 L 567 108 L 570 108 L 571 107 Z
      M 625 107 L 623 108 L 622 109 L 616 108 L 621 107 L 622 106 Z
      M 606 105 L 600 107 L 594 106 L 600 104 Z
      M 594 92 L 590 94 L 586 94 L 582 95 L 578 97 L 574 98 L 570 97 L 572 96 L 573 95 L 580 93 L 584 92 L 589 91 Z
      M 692 84 L 697 83 L 698 84 L 703 84 L 707 85 L 720 90 L 716 91 L 709 90 L 703 87 L 696 85 Z
      M 532 84 L 530 85 L 529 86 L 526 88 L 528 89 L 526 91 L 517 97 L 515 98 L 511 99 L 509 100 L 507 102 L 503 104 L 500 104 L 498 106 L 495 107 L 490 108 L 487 110 L 484 111 L 481 110 L 483 108 L 488 104 L 492 101 L 495 99 L 501 96 L 514 89 L 518 87 L 525 84 L 528 83 Z
      M 674 82 L 679 81 L 684 83 L 679 84 Z
      M 619 82 L 615 84 L 608 84 L 600 86 L 593 85 L 599 83 L 605 82 L 615 81 Z
      M 571 75 L 568 77 L 559 81 L 554 84 L 551 86 L 545 91 L 542 93 L 533 98 L 524 102 L 512 107 L 507 108 L 504 108 L 506 106 L 514 101 L 516 100 L 518 100 L 528 95 L 537 89 L 564 75 L 567 74 Z
      M 596 76 L 592 77 L 590 79 L 588 79 L 587 81 L 586 80 L 581 82 L 579 83 L 578 81 L 576 81 L 567 86 L 558 89 L 555 88 L 557 86 L 560 84 L 574 77 L 581 74 L 584 73 L 590 73 Z
      M 678 73 L 692 72 L 695 73 L 703 76 L 704 77 L 706 78 L 702 79 L 701 78 L 697 78 L 692 76 L 687 76 L 682 75 Z
      M 709 71 L 715 70 L 716 71 L 722 71 L 727 72 L 737 75 L 745 78 L 750 81 L 748 82 L 750 82 L 751 81 L 753 81 L 756 82 L 758 83 L 765 88 L 774 92 L 782 97 L 788 101 L 792 105 L 799 109 L 801 111 L 799 112 L 796 110 L 791 109 L 778 103 L 765 96 L 758 94 L 754 91 L 745 88 L 735 82 L 730 81 L 717 74 Z
      M 698 71 L 702 70 L 704 72 L 701 72 Z
      M 771 67 L 773 66 L 775 68 L 773 69 Z
      M 618 68 L 611 68 L 607 69 L 603 71 L 599 72 L 593 71 L 597 69 L 604 66 L 609 65 L 615 65 Z
      M 683 65 L 697 65 L 695 67 L 686 67 L 685 66 Z
      M 618 68 L 626 67 L 634 69 L 643 68 L 640 67 L 637 64 L 648 63 L 661 65 L 668 67 L 666 68 L 665 69 L 659 69 L 655 71 L 652 71 L 655 73 L 652 74 L 651 75 L 649 75 L 632 73 L 629 74 L 623 72 L 623 70 L 621 70 L 620 69 Z
      M 578 66 L 580 65 L 581 64 L 587 63 L 597 64 L 590 67 L 587 67 L 584 68 L 581 68 Z
      M 565 64 L 560 65 L 557 66 L 546 71 L 542 73 L 533 79 L 528 80 L 526 82 L 517 86 L 514 87 L 511 86 L 516 82 L 526 75 L 532 71 L 537 68 L 543 65 L 546 64 L 555 63 Z
      M 635 60 L 631 61 L 627 63 L 622 62 L 626 60 L 629 59 Z
    " fill="#000000" fill-rule="evenodd" clip-rule="evenodd"/>
</svg>
