<svg xmlns="http://www.w3.org/2000/svg"
  viewBox="0 0 227 101"
  width="100%"
  height="100%"
  role="img"
  aria-labelledby="title desc"
  preserveAspectRatio="xMidYMid meet">
  <title id="title">Half-open pupil eye</title>
  <desc id="desc">Scratchy charcoal-style eye asset from grid row 2, column 1.</desc>
  <path d="M 191.0 73.0 L 190.0 73.0 L 189.0 74.0 L 188.0 74.0 L 187.0 75.0 L 184.0 76.0 L 185.0 76.0 L 188.0 74.0 L 190.0 74.0 Z M 206.0 65.0 L 205.0 66.0 L 202.0 67.0 L 200.0 69.0 L 199.0 69.0 L 198.0 70.0 L 196.0 70.0 L 196.0 71.0 L 199.0 70.0 L 201.0 68.0 L 202.0 68.0 L 204.0 66.0 L 205.0 66.0 Z M 197.0 61.0 L 196.0 62.0 L 194.0 62.0 L 192.0 64.0 L 189.0 65.0 L 187.0 67.0 L 184.0 68.0 L 182.0 70.0 L 179.0 71.0 L 177.0 73.0 L 176.0 73.0 L 175.0 74.0 L 174.0 74.0 L 173.0 75.0 L 170.0 76.0 L 168.0 78.0 L 167.0 78.0 L 162.0 81.0 L 160.0 81.0 L 159.0 82.0 L 157.0 82.0 L 156.0 83.0 L 154.0 83.0 L 153.0 84.0 L 148.0 84.0 L 147.0 85.0 L 145.0 85.0 L 144.0 86.0 L 140.0 86.0 L 139.0 87.0 L 136.0 87.0 L 135.0 88.0 L 110.0 88.0 L 109.0 87.0 L 104.0 87.0 L 103.0 86.0 L 98.0 86.0 L 97.0 85.0 L 95.0 85.0 L 94.0 84.0 L 91.0 83.0 L 89.0 81.0 L 88.0 81.0 L 87.0 80.0 L 85.0 80.0 L 84.0 79.0 L 83.0 79.0 L 78.0 76.0 L 77.0 76.0 L 77.0 77.0 L 78.0 77.0 L 83.0 80.0 L 85.0 80.0 L 86.0 81.0 L 86.0 82.0 L 85.0 83.0 L 84.0 83.0 L 83.0 82.0 L 83.0 83.0 L 84.0 84.0 L 86.0 84.0 L 91.0 88.0 L 93.0 86.0 L 94.0 86.0 L 95.0 87.0 L 98.0 87.0 L 99.0 88.0 L 100.0 88.0 L 102.0 90.0 L 103.0 90.0 L 104.0 91.0 L 106.0 91.0 L 109.0 93.0 L 111.0 93.0 L 108.0 91.0 L 109.0 90.0 L 115.0 90.0 L 116.0 91.0 L 118.0 91.0 L 119.0 90.0 L 126.0 90.0 L 127.0 89.0 L 134.0 89.0 L 135.0 88.0 L 139.0 88.0 L 140.0 87.0 L 143.0 87.0 L 144.0 86.0 L 146.0 86.0 L 147.0 87.0 L 148.0 86.0 L 151.0 86.0 L 152.0 87.0 L 151.0 88.0 L 152.0 88.0 L 155.0 85.0 L 156.0 86.0 L 156.0 87.0 L 158.0 87.0 L 159.0 86.0 L 161.0 86.0 L 162.0 85.0 L 163.0 85.0 L 168.0 82.0 L 170.0 82.0 L 171.0 81.0 L 172.0 81.0 L 173.0 80.0 L 172.0 79.0 L 173.0 78.0 L 174.0 78.0 L 176.0 76.0 L 177.0 76.0 L 180.0 73.0 L 181.0 73.0 L 183.0 71.0 L 184.0 71.0 L 186.0 69.0 L 187.0 69.0 L 191.0 65.0 L 192.0 65.0 L 195.0 62.0 L 196.0 62.0 Z M 155.0 85.0 L 157.0 83.0 L 158.0 83.0 L 159.0 82.0 L 161.0 82.0 L 162.0 83.0 L 159.0 86.0 L 156.0 86.0 Z M 161.0 82.0 L 162.0 81.0 L 163.0 82.0 L 162.0 83.0 Z M 169.0 81.0 L 170.0 80.0 L 171.0 81.0 L 170.0 82.0 Z M 171.0 80.0 L 172.0 79.0 L 173.0 80.0 L 172.0 81.0 Z M 55.0 59.0 L 55.0 60.0 L 58.0 61.0 L 60.0 63.0 L 61.0 63.0 L 63.0 65.0 L 66.0 66.0 L 68.0 68.0 L 67.0 69.0 L 65.0 69.0 L 62.0 67.0 L 60.0 67.0 L 65.0 70.0 L 67.0 70.0 L 70.0 72.0 L 71.0 72.0 L 72.0 71.0 L 73.0 72.0 L 74.0 72.0 L 75.0 73.0 L 75.0 74.0 L 80.0 74.0 L 81.0 75.0 L 84.0 75.0 L 85.0 76.0 L 88.0 76.0 L 89.0 77.0 L 92.0 77.0 L 93.0 78.0 L 96.0 78.0 L 97.0 79.0 L 101.0 79.0 L 102.0 80.0 L 107.0 80.0 L 108.0 81.0 L 122.0 81.0 L 120.0 81.0 L 119.0 80.0 L 120.0 79.0 L 129.0 79.0 L 130.0 80.0 L 129.0 81.0 L 130.0 81.0 L 130.0 80.0 L 129.0 79.0 L 130.0 78.0 L 137.0 78.0 L 138.0 77.0 L 142.0 77.0 L 143.0 76.0 L 146.0 75.0 L 144.0 75.0 L 143.0 76.0 L 141.0 76.0 L 140.0 77.0 L 136.0 77.0 L 135.0 78.0 L 114.0 78.0 L 113.0 77.0 L 103.0 77.0 L 102.0 76.0 L 98.0 76.0 L 97.0 75.0 L 95.0 75.0 L 96.0 75.0 L 97.0 76.0 L 99.0 76.0 L 100.0 77.0 L 99.0 78.0 L 96.0 78.0 L 95.0 77.0 L 92.0 77.0 L 91.0 76.0 L 88.0 76.0 L 87.0 75.0 L 85.0 75.0 L 84.0 74.0 L 82.0 74.0 L 81.0 73.0 L 80.0 73.0 L 79.0 72.0 L 78.0 72.0 L 77.0 71.0 L 76.0 71.0 L 75.0 70.0 L 74.0 70.0 L 73.0 69.0 L 72.0 69.0 L 71.0 68.0 L 70.0 68.0 L 69.0 67.0 L 68.0 67.0 L 67.0 66.0 L 64.0 65.0 L 62.0 63.0 L 61.0 63.0 L 60.0 62.0 L 57.0 61.0 Z M 105.0 79.0 L 106.0 78.0 L 113.0 78.0 L 114.0 79.0 L 113.0 80.0 L 106.0 80.0 Z M 67.0 69.0 L 68.0 68.0 L 69.0 69.0 L 68.0 70.0 Z M 41.0 57.0 L 42.0 58.0 L 43.0 58.0 L 42.0 57.0 Z M 206.0 54.0 L 203.0 54.0 L 202.0 53.0 L 203.0 52.0 L 204.0 52.0 L 204.0 51.0 L 203.0 52.0 L 201.0 52.0 L 199.0 54.0 L 200.0 54.0 L 201.0 55.0 L 198.0 57.0 L 197.0 57.0 L 196.0 56.0 L 197.0 55.0 L 195.0 55.0 L 194.0 56.0 L 192.0 56.0 L 189.0 59.0 L 188.0 59.0 L 187.0 60.0 L 185.0 60.0 L 184.0 61.0 L 182.0 61.0 L 180.0 64.0 L 179.0 64.0 L 178.0 65.0 L 175.0 65.0 L 172.0 68.0 L 170.0 68.0 L 168.0 70.0 L 167.0 70.0 L 166.0 69.0 L 167.0 68.0 L 166.0 68.0 L 163.0 70.0 L 161.0 70.0 L 160.0 71.0 L 159.0 71.0 L 158.0 72.0 L 157.0 72.0 L 152.0 75.0 L 150.0 75.0 L 149.0 76.0 L 150.0 76.0 L 151.0 75.0 L 153.0 75.0 L 154.0 74.0 L 155.0 74.0 L 156.0 75.0 L 155.0 74.0 L 158.0 72.0 L 160.0 72.0 L 161.0 73.0 L 162.0 73.0 L 163.0 72.0 L 165.0 72.0 L 175.0 66.0 L 177.0 66.0 L 178.0 65.0 L 180.0 65.0 L 182.0 63.0 L 183.0 63.0 L 184.0 62.0 L 186.0 62.0 L 187.0 61.0 L 190.0 61.0 L 189.0 60.0 L 192.0 57.0 L 194.0 57.0 L 195.0 56.0 L 196.0 56.0 L 197.0 57.0 L 196.0 58.0 L 199.0 58.0 L 203.0 54.0 Z M 160.0 72.0 L 161.0 71.0 L 162.0 71.0 L 163.0 72.0 L 162.0 73.0 L 161.0 73.0 Z M 162.0 71.0 L 163.0 70.0 L 164.0 70.0 L 165.0 71.0 L 164.0 72.0 L 163.0 72.0 Z M 164.0 70.0 L 165.0 69.0 L 166.0 69.0 L 167.0 70.0 L 166.0 71.0 L 165.0 71.0 Z M 200.0 54.0 L 201.0 53.0 L 202.0 53.0 L 203.0 54.0 L 202.0 55.0 L 201.0 55.0 Z M 195.0 46.0 L 193.0 46.0 L 188.0 49.0 L 189.0 49.0 L 192.0 47.0 L 194.0 47.0 Z M 117.0 46.0 L 116.0 47.0 L 116.0 49.0 L 119.0 49.0 L 120.0 48.0 L 119.0 47.0 L 119.0 46.0 Z M 219.0 44.0 L 220.0 44.0 L 221.0 45.0 L 223.0 45.0 L 222.0 45.0 L 221.0 44.0 Z M 19.0 44.0 L 20.0 45.0 L 26.0 45.0 L 27.0 46.0 L 28.0 45.0 L 29.0 45.0 L 32.0 47.0 L 34.0 47.0 L 37.0 49.0 L 40.0 49.0 L 43.0 51.0 L 45.0 51.0 L 46.0 52.0 L 48.0 52.0 L 51.0 54.0 L 53.0 54.0 L 53.0 53.0 L 54.0 52.0 L 56.0 54.0 L 57.0 54.0 L 60.0 57.0 L 61.0 57.0 L 62.0 58.0 L 64.0 58.0 L 69.0 61.0 L 71.0 61.0 L 72.0 62.0 L 74.0 62.0 L 75.0 63.0 L 76.0 63.0 L 79.0 65.0 L 81.0 65.0 L 82.0 66.0 L 85.0 66.0 L 86.0 67.0 L 85.0 66.0 L 84.0 66.0 L 83.0 65.0 L 81.0 65.0 L 80.0 64.0 L 81.0 63.0 L 84.0 63.0 L 85.0 64.0 L 88.0 64.0 L 89.0 65.0 L 91.0 65.0 L 92.0 66.0 L 96.0 66.0 L 97.0 67.0 L 101.0 67.0 L 102.0 68.0 L 101.0 69.0 L 98.0 69.0 L 98.0 70.0 L 103.0 70.0 L 103.0 69.0 L 104.0 68.0 L 107.0 68.0 L 108.0 69.0 L 113.0 69.0 L 114.0 70.0 L 113.0 71.0 L 105.0 71.0 L 126.0 71.0 L 127.0 70.0 L 134.0 70.0 L 135.0 69.0 L 139.0 69.0 L 140.0 68.0 L 143.0 68.0 L 144.0 67.0 L 149.0 67.0 L 152.0 65.0 L 154.0 65.0 L 155.0 64.0 L 156.0 64.0 L 157.0 63.0 L 160.0 62.0 L 163.0 59.0 L 164.0 59.0 L 170.0 53.0 L 171.0 53.0 L 172.0 52.0 L 172.0 51.0 L 179.0 44.0 L 178.0 44.0 L 177.0 45.0 L 176.0 44.0 L 171.0 44.0 L 169.0 46.0 L 168.0 45.0 L 135.0 45.0 L 134.0 46.0 L 134.0 48.0 L 133.0 49.0 L 133.0 50.0 L 131.0 52.0 L 131.0 53.0 L 129.0 55.0 L 128.0 55.0 L 123.0 58.0 L 114.0 58.0 L 113.0 57.0 L 110.0 57.0 L 106.0 53.0 L 106.0 52.0 L 105.0 53.0 L 102.0 50.0 L 102.0 49.0 L 100.0 47.0 L 101.0 46.0 L 100.0 45.0 L 85.0 45.0 L 84.0 46.0 L 83.0 46.0 L 82.0 45.0 L 79.0 45.0 L 79.0 46.0 L 80.0 46.0 L 81.0 47.0 L 80.0 48.0 L 73.0 48.0 L 72.0 47.0 L 71.0 47.0 L 70.0 48.0 L 67.0 48.0 L 66.0 47.0 L 50.0 47.0 L 49.0 46.0 L 50.0 45.0 L 57.0 45.0 L 58.0 44.0 L 67.0 44.0 L 66.0 43.0 L 59.0 43.0 L 58.0 44.0 L 53.0 44.0 L 52.0 43.0 L 40.0 43.0 L 39.0 44.0 L 36.0 44.0 L 34.0 42.0 L 31.0 42.0 L 33.0 42.0 L 34.0 43.0 L 33.0 44.0 L 28.0 44.0 L 27.0 43.0 L 25.0 43.0 L 24.0 44.0 Z M 115.0 69.0 L 116.0 68.0 L 117.0 69.0 L 116.0 70.0 Z M 125.0 68.0 L 126.0 67.0 L 127.0 67.0 L 128.0 68.0 L 127.0 69.0 L 126.0 69.0 Z M 129.0 67.0 L 130.0 66.0 L 132.0 66.0 L 133.0 67.0 L 132.0 68.0 L 130.0 68.0 Z M 134.0 66.0 L 135.0 65.0 L 136.0 65.0 L 137.0 66.0 L 136.0 67.0 L 135.0 67.0 Z M 78.0 63.0 L 79.0 62.0 L 80.0 62.0 L 81.0 63.0 L 80.0 64.0 L 79.0 64.0 Z M 91.0 62.0 L 92.0 61.0 L 93.0 62.0 L 92.0 63.0 Z M 75.0 61.0 L 76.0 60.0 L 77.0 61.0 L 76.0 62.0 Z M 73.0 60.0 L 74.0 59.0 L 75.0 59.0 L 76.0 60.0 L 75.0 61.0 L 74.0 61.0 Z M 80.0 58.0 L 81.0 57.0 L 82.0 58.0 L 81.0 59.0 Z M 107.0 57.0 L 108.0 56.0 L 109.0 57.0 L 108.0 58.0 Z M 106.0 56.0 L 107.0 55.0 L 108.0 56.0 L 107.0 57.0 Z M 97.0 48.0 L 98.0 47.0 L 99.0 48.0 L 98.0 49.0 Z M 46.0 47.0 L 47.0 46.0 L 48.0 47.0 L 47.0 48.0 Z M 12.0 42.0 L 10.0 42.0 L 9.0 43.0 L 7.0 43.0 L 11.0 43.0 Z M 161.0 39.0 L 161.0 40.0 L 164.0 40.0 L 164.0 39.0 Z M 64.0 39.0 L 64.0 40.0 L 67.0 40.0 L 67.0 39.0 Z M 70.0 39.0 L 71.0 40.0 L 81.0 40.0 L 82.0 41.0 L 88.0 41.0 L 91.0 39.0 L 92.0 40.0 L 94.0 40.0 L 95.0 41.0 L 98.0 41.0 L 99.0 42.0 L 101.0 42.0 L 102.0 41.0 L 127.0 41.0 L 128.0 40.0 L 135.0 40.0 L 136.0 39.0 L 147.0 39.0 L 148.0 40.0 L 153.0 40.0 L 153.0 39.0 L 146.0 39.0 L 145.0 38.0 L 146.0 37.0 L 154.0 37.0 L 155.0 36.0 L 144.0 36.0 L 143.0 35.0 L 117.0 35.0 L 116.0 36.0 L 110.0 36.0 L 109.0 35.0 L 101.0 35.0 L 100.0 36.0 L 88.0 36.0 L 87.0 37.0 L 76.0 37.0 L 78.0 37.0 L 79.0 38.0 L 84.0 38.0 L 85.0 39.0 L 84.0 40.0 L 75.0 40.0 L 74.0 39.0 Z M 110.0 38.0 L 111.0 37.0 L 113.0 37.0 L 114.0 38.0 L 113.0 39.0 L 111.0 39.0 Z M 93.0 38.0 L 94.0 37.0 L 101.0 37.0 L 102.0 38.0 L 101.0 39.0 L 94.0 39.0 Z M 212.0 33.0 L 212.0 34.0 L 214.0 34.0 L 215.0 35.0 L 218.0 35.0 Z M 121.0 28.0 L 132.0 28.0 L 133.0 29.0 L 135.0 29.0 L 136.0 28.0 L 137.0 29.0 L 147.0 29.0 L 148.0 28.0 L 151.0 28.0 L 147.0 28.0 L 146.0 29.0 L 142.0 29.0 L 141.0 28.0 Z M 106.0 24.0 L 103.0 24.0 L 102.0 25.0 L 97.0 25.0 L 96.0 26.0 L 90.0 26.0 L 97.0 26.0 L 98.0 25.0 L 105.0 25.0 Z M 111.0 24.0 L 125.0 24.0 L 126.0 23.0 L 127.0 24.0 L 128.0 24.0 L 128.0 23.0 L 122.0 23.0 L 121.0 24.0 L 119.0 24.0 L 118.0 23.0 L 113.0 23.0 L 112.0 24.0 Z M 74.0 15.0 L 72.0 15.0 L 71.0 16.0 L 68.0 17.0 L 70.0 17.0 L 71.0 16.0 L 73.0 16.0 Z M 217.0 43.0 L 216.0 43.0 L 214.0 41.0 L 212.0 41.0 L 211.0 40.0 L 209.0 40.0 L 207.0 38.0 L 206.0 38.0 L 201.0 35.0 L 196.0 35.0 L 193.0 33.0 L 191.0 33.0 L 190.0 32.0 L 189.0 32.0 L 187.0 30.0 L 186.0 30.0 L 183.0 27.0 L 182.0 27.0 L 181.0 26.0 L 182.0 25.0 L 184.0 25.0 L 185.0 26.0 L 187.0 26.0 L 188.0 27.0 L 191.0 27.0 L 193.0 29.0 L 193.0 28.0 L 192.0 27.0 L 193.0 26.0 L 194.0 26.0 L 197.0 29.0 L 199.0 29.0 L 200.0 30.0 L 201.0 30.0 L 206.0 33.0 L 210.0 33.0 L 208.0 33.0 L 207.0 32.0 L 206.0 32.0 L 205.0 31.0 L 204.0 31.0 L 199.0 28.0 L 199.0 27.0 L 200.0 26.0 L 201.0 27.0 L 203.0 27.0 L 202.0 27.0 L 201.0 26.0 L 198.0 26.0 L 197.0 27.0 L 195.0 25.0 L 192.0 24.0 L 190.0 22.0 L 189.0 22.0 L 193.0 26.0 L 192.0 27.0 L 191.0 27.0 L 188.0 25.0 L 186.0 25.0 L 185.0 24.0 L 183.0 24.0 L 181.0 22.0 L 180.0 22.0 L 179.0 21.0 L 178.0 21.0 L 173.0 18.0 L 171.0 18.0 L 168.0 15.0 L 167.0 15.0 L 166.0 14.0 L 163.0 13.0 L 161.0 11.0 L 159.0 11.0 L 156.0 9.0 L 154.0 9.0 L 157.0 11.0 L 159.0 11.0 L 160.0 12.0 L 161.0 12.0 L 164.0 15.0 L 166.0 15.0 L 167.0 16.0 L 168.0 16.0 L 171.0 19.0 L 173.0 19.0 L 175.0 21.0 L 176.0 21.0 L 177.0 22.0 L 180.0 23.0 L 182.0 25.0 L 181.0 26.0 L 178.0 26.0 L 175.0 24.0 L 172.0 24.0 L 171.0 23.0 L 169.0 23.0 L 166.0 21.0 L 164.0 21.0 L 162.0 19.0 L 161.0 19.0 L 160.0 18.0 L 157.0 18.0 L 156.0 17.0 L 150.0 17.0 L 149.0 16.0 L 146.0 16.0 L 145.0 17.0 L 144.0 17.0 L 143.0 16.0 L 143.0 15.0 L 144.0 14.0 L 140.0 14.0 L 139.0 13.0 L 137.0 13.0 L 136.0 12.0 L 111.0 12.0 L 110.0 13.0 L 104.0 13.0 L 103.0 14.0 L 101.0 14.0 L 100.0 15.0 L 96.0 15.0 L 95.0 16.0 L 93.0 16.0 L 92.0 17.0 L 89.0 17.0 L 88.0 18.0 L 86.0 18.0 L 85.0 19.0 L 82.0 19.0 L 81.0 20.0 L 79.0 20.0 L 78.0 21.0 L 75.0 21.0 L 74.0 22.0 L 72.0 22.0 L 71.0 23.0 L 69.0 23.0 L 68.0 24.0 L 67.0 24.0 L 68.0 25.0 L 67.0 26.0 L 67.0 28.0 L 66.0 29.0 L 63.0 29.0 L 62.0 30.0 L 60.0 30.0 L 59.0 31.0 L 57.0 31.0 L 52.0 34.0 L 50.0 34.0 L 50.0 35.0 L 53.0 33.0 L 56.0 33.0 L 57.0 32.0 L 59.0 32.0 L 62.0 30.0 L 64.0 30.0 L 65.0 29.0 L 67.0 29.0 L 69.0 27.0 L 71.0 27.0 L 72.0 26.0 L 74.0 26.0 L 76.0 24.0 L 80.0 24.0 L 81.0 23.0 L 83.0 23.0 L 84.0 22.0 L 86.0 22.0 L 87.0 21.0 L 89.0 21.0 L 90.0 20.0 L 93.0 20.0 L 94.0 19.0 L 97.0 18.0 L 95.0 18.0 L 94.0 17.0 L 95.0 16.0 L 98.0 16.0 L 99.0 17.0 L 102.0 17.0 L 103.0 16.0 L 104.0 17.0 L 105.0 17.0 L 106.0 16.0 L 110.0 16.0 L 111.0 15.0 L 114.0 15.0 L 115.0 16.0 L 116.0 15.0 L 122.0 15.0 L 123.0 14.0 L 124.0 14.0 L 125.0 15.0 L 125.0 16.0 L 128.0 16.0 L 129.0 15.0 L 131.0 15.0 L 133.0 17.0 L 138.0 17.0 L 139.0 18.0 L 144.0 18.0 L 145.0 19.0 L 147.0 19.0 L 148.0 20.0 L 152.0 20.0 L 153.0 21.0 L 155.0 21.0 L 156.0 22.0 L 158.0 22.0 L 155.0 20.0 L 156.0 19.0 L 158.0 19.0 L 159.0 20.0 L 161.0 20.0 L 164.0 22.0 L 166.0 22.0 L 169.0 24.0 L 168.0 25.0 L 166.0 25.0 L 165.0 24.0 L 164.0 24.0 L 164.0 25.0 L 165.0 25.0 L 166.0 26.0 L 168.0 26.0 L 169.0 27.0 L 171.0 27.0 L 172.0 28.0 L 173.0 28.0 L 178.0 31.0 L 180.0 31.0 L 183.0 33.0 L 185.0 33.0 L 186.0 34.0 L 188.0 34.0 L 189.0 35.0 L 191.0 35.0 L 192.0 36.0 L 194.0 36.0 L 195.0 37.0 L 197.0 37.0 L 200.0 39.0 L 203.0 39.0 L 204.0 40.0 L 206.0 40.0 L 209.0 42.0 L 208.0 43.0 L 205.0 43.0 L 204.0 44.0 L 203.0 44.0 L 202.0 43.0 L 193.0 43.0 L 193.0 44.0 L 207.0 44.0 L 208.0 45.0 L 209.0 45.0 L 210.0 44.0 L 216.0 44.0 Z M 201.0 38.0 L 202.0 37.0 L 203.0 37.0 L 204.0 38.0 L 203.0 39.0 L 202.0 39.0 Z M 200.0 37.0 L 201.0 36.0 L 202.0 37.0 L 201.0 38.0 Z M 197.0 27.0 L 198.0 26.0 L 199.0 27.0 L 198.0 28.0 Z M 172.0 26.0 L 173.0 25.0 L 176.0 25.0 L 177.0 26.0 L 179.0 26.0 L 182.0 28.0 L 181.0 29.0 L 178.0 29.0 L 177.0 28.0 L 175.0 28.0 Z M 70.0 25.0 L 71.0 24.0 L 72.0 25.0 L 71.0 26.0 Z M 72.0 24.0 L 77.0 21.0 L 81.0 21.0 L 82.0 22.0 L 81.0 23.0 L 78.0 23.0 L 75.0 25.0 L 73.0 25.0 Z M 152.0 19.0 L 153.0 18.0 L 154.0 18.0 L 155.0 19.0 L 154.0 20.0 L 153.0 20.0 Z M 151.0 18.0 L 152.0 17.0 L 153.0 18.0 L 152.0 19.0 Z M 102.0 15.0 L 103.0 14.0 L 105.0 14.0 L 106.0 15.0 L 105.0 16.0 L 103.0 16.0 Z M 92.0 9.0 L 91.0 9.0 L 88.0 11.0 L 86.0 11.0 L 85.0 12.0 L 86.0 11.0 L 89.0 11.0 L 90.0 10.0 L 92.0 10.0 Z M 133.0 8.0 L 135.0 8.0 L 136.0 9.0 L 139.0 9.0 L 138.0 9.0 L 137.0 8.0 Z M 104.0 7.0 L 103.0 8.0 L 99.0 8.0 L 98.0 9.0 L 94.0 9.0 L 99.0 9.0 L 100.0 8.0 L 104.0 8.0 Z"
    fill="currentColor"
    fill-rule="evenodd"
    clip-rule="evenodd"/>
</svg>
