<svg xmlns="http://www.w3.org/2000/svg"
  viewBox="0 0 220 131"
  width="100%"
  height="100%"
  role="img"
  aria-labelledby="title desc"
  preserveAspectRatio="xMidYMid meet">
  <title id="title">Ring pupil eye</title>
  <desc id="desc">Scratchy charcoal-style eye asset from grid row 1, column 1.</desc>
  <path d="M 151.0 122.0 L 149.0 122.0 L 148.0 123.0 L 144.0 123.0 L 150.0 123.0 Z M 64.0 125.0 L 68.0 125.0 L 68.0 124.0 L 69.0 123.0 L 72.0 123.0 L 73.0 124.0 L 75.0 124.0 L 76.0 125.0 L 78.0 125.0 L 79.0 126.0 L 81.0 126.0 L 79.0 126.0 L 78.0 125.0 L 76.0 125.0 L 71.0 122.0 L 69.0 122.0 L 66.0 125.0 Z M 56.0 114.0 L 57.0 114.0 L 58.0 115.0 L 63.0 115.0 L 64.0 116.0 L 66.0 116.0 L 65.0 115.0 L 60.0 115.0 L 59.0 114.0 Z M 166.0 112.0 L 165.0 113.0 L 164.0 113.0 L 158.0 119.0 L 155.0 120.0 L 156.0 121.0 L 158.0 119.0 L 159.0 119.0 L 160.0 120.0 L 160.0 119.0 L 159.0 118.0 L 161.0 116.0 L 162.0 116.0 Z M 30.0 105.0 L 31.0 106.0 L 32.0 105.0 L 33.0 105.0 L 34.0 106.0 L 39.0 106.0 L 39.0 104.0 L 34.0 101.0 L 33.0 101.0 L 34.0 101.0 L 36.0 103.0 L 37.0 103.0 L 38.0 104.0 L 38.0 105.0 L 37.0 106.0 L 35.0 106.0 L 34.0 105.0 Z M 191.0 102.0 L 190.0 103.0 L 189.0 102.0 L 186.0 101.0 L 185.0 100.0 L 185.0 99.0 L 183.0 101.0 L 180.0 102.0 L 178.0 104.0 L 177.0 104.0 L 174.0 107.0 L 173.0 107.0 L 168.0 112.0 L 167.0 115.0 L 168.0 114.0 L 168.0 113.0 L 172.0 109.0 L 173.0 109.0 L 176.0 106.0 L 177.0 106.0 L 180.0 103.0 L 181.0 103.0 L 183.0 101.0 L 185.0 101.0 L 186.0 102.0 L 188.0 102.0 L 189.0 103.0 L 189.0 104.0 L 190.0 104.0 L 191.0 103.0 Z M 55.0 98.0 L 57.0 100.0 L 58.0 100.0 Z M 12.0 96.0 L 11.0 97.0 L 8.0 97.0 L 8.0 98.0 L 11.0 98.0 L 12.0 97.0 Z M 13.0 84.0 L 19.0 86.0 L 20.0 87.0 L 18.0 89.0 L 18.0 90.0 L 19.0 90.0 L 20.0 91.0 L 19.0 90.0 L 19.0 89.0 L 20.0 88.0 L 23.0 88.0 L 28.0 91.0 L 28.0 92.0 L 27.0 93.0 L 26.0 92.0 L 22.0 92.0 L 22.0 94.0 L 21.0 95.0 L 14.0 95.0 L 15.0 96.0 L 24.0 96.0 L 25.0 95.0 L 29.0 95.0 L 30.0 94.0 L 35.0 94.0 L 37.0 96.0 L 38.0 95.0 L 39.0 95.0 L 41.0 97.0 L 42.0 97.0 L 39.0 94.0 L 38.0 94.0 L 35.0 91.0 L 32.0 90.0 L 29.0 87.0 L 27.0 87.0 L 25.0 85.0 L 23.0 85.0 L 22.0 86.0 L 21.0 85.0 L 21.0 83.0 L 19.0 85.0 L 16.0 85.0 L 15.0 84.0 Z M 207.0 85.0 L 205.0 85.0 L 204.0 86.0 L 201.0 84.0 L 202.0 83.0 L 201.0 84.0 L 200.0 84.0 L 199.0 83.0 L 199.0 82.0 L 200.0 81.0 L 201.0 81.0 L 200.0 81.0 L 199.0 82.0 L 198.0 81.0 L 198.0 80.0 L 200.0 78.0 L 201.0 78.0 L 200.0 78.0 L 199.0 79.0 L 196.0 79.0 L 195.0 80.0 L 194.0 80.0 L 192.0 82.0 L 190.0 82.0 L 185.0 87.0 L 184.0 87.0 L 182.0 89.0 L 181.0 89.0 L 180.0 90.0 L 180.0 91.0 L 174.0 97.0 L 173.0 97.0 L 171.0 99.0 L 170.0 99.0 L 167.0 102.0 L 166.0 101.0 L 166.0 100.0 L 169.0 97.0 L 169.0 96.0 L 174.0 91.0 L 172.0 93.0 L 171.0 93.0 L 166.0 98.0 L 165.0 98.0 L 162.0 101.0 L 161.0 101.0 L 156.0 105.0 L 155.0 105.0 L 154.0 106.0 L 151.0 107.0 L 149.0 109.0 L 148.0 109.0 L 145.0 111.0 L 143.0 111.0 L 140.0 113.0 L 138.0 113.0 L 137.0 112.0 L 135.0 112.0 L 134.0 113.0 L 131.0 113.0 L 130.0 114.0 L 128.0 114.0 L 127.0 115.0 L 124.0 115.0 L 123.0 116.0 L 121.0 116.0 L 120.0 117.0 L 117.0 117.0 L 116.0 118.0 L 112.0 118.0 L 110.0 116.0 L 108.0 118.0 L 101.0 118.0 L 100.0 117.0 L 95.0 117.0 L 94.0 116.0 L 90.0 116.0 L 89.0 115.0 L 84.0 115.0 L 83.0 114.0 L 81.0 114.0 L 82.0 115.0 L 81.0 116.0 L 78.0 116.0 L 77.0 115.0 L 76.0 116.0 L 75.0 115.0 L 73.0 115.0 L 72.0 114.0 L 70.0 114.0 L 69.0 113.0 L 68.0 113.0 L 67.0 112.0 L 66.0 112.0 L 65.0 111.0 L 64.0 111.0 L 63.0 110.0 L 60.0 109.0 L 59.0 108.0 L 59.0 107.0 L 60.0 106.0 L 61.0 107.0 L 61.0 106.0 L 60.0 106.0 L 59.0 105.0 L 58.0 105.0 L 57.0 104.0 L 54.0 103.0 L 52.0 101.0 L 49.0 100.0 L 47.0 98.0 L 46.0 98.0 L 46.0 99.0 L 49.0 102.0 L 50.0 102.0 L 53.0 105.0 L 53.0 106.0 L 51.0 108.0 L 50.0 107.0 L 47.0 107.0 L 46.0 106.0 L 44.0 106.0 L 43.0 105.0 L 41.0 105.0 L 46.0 108.0 L 45.0 109.0 L 44.0 109.0 L 44.0 110.0 L 46.0 110.0 L 47.0 109.0 L 52.0 109.0 L 53.0 110.0 L 60.0 110.0 L 62.0 112.0 L 68.0 114.0 L 69.0 115.0 L 69.0 116.0 L 70.0 116.0 L 71.0 115.0 L 72.0 116.0 L 75.0 116.0 L 76.0 117.0 L 76.0 118.0 L 77.0 117.0 L 81.0 117.0 L 82.0 118.0 L 84.0 118.0 L 86.0 120.0 L 91.0 120.0 L 92.0 121.0 L 98.0 121.0 L 99.0 122.0 L 109.0 122.0 L 110.0 123.0 L 111.0 122.0 L 112.0 123.0 L 120.0 123.0 L 121.0 124.0 L 122.0 123.0 L 123.0 123.0 L 124.0 124.0 L 125.0 123.0 L 129.0 123.0 L 131.0 121.0 L 134.0 122.0 L 135.0 121.0 L 136.0 121.0 L 141.0 118.0 L 143.0 118.0 L 144.0 119.0 L 142.0 121.0 L 141.0 121.0 L 139.0 123.0 L 138.0 123.0 L 135.0 125.0 L 132.0 125.0 L 131.0 126.0 L 126.0 126.0 L 125.0 127.0 L 114.0 127.0 L 113.0 128.0 L 109.0 128.0 L 119.0 128.0 L 120.0 127.0 L 126.0 127.0 L 127.0 126.0 L 132.0 126.0 L 133.0 125.0 L 134.0 125.0 L 135.0 126.0 L 130.0 130.0 L 131.0 130.0 L 133.0 128.0 L 136.0 127.0 L 136.0 126.0 L 137.0 125.0 L 138.0 125.0 L 139.0 124.0 L 142.0 124.0 L 141.0 123.0 L 144.0 120.0 L 147.0 119.0 L 149.0 117.0 L 150.0 117.0 L 153.0 114.0 L 155.0 114.0 L 158.0 111.0 L 161.0 110.0 L 161.0 109.0 L 166.0 104.0 L 167.0 104.0 L 169.0 102.0 L 170.0 102.0 L 171.0 101.0 L 172.0 101.0 L 173.0 100.0 L 174.0 100.0 L 175.0 99.0 L 178.0 98.0 L 180.0 96.0 L 181.0 96.0 L 182.0 97.0 L 182.0 98.0 L 183.0 98.0 L 182.0 97.0 L 182.0 96.0 L 185.0 93.0 L 188.0 93.0 L 189.0 92.0 L 192.0 91.0 L 191.0 91.0 L 190.0 92.0 L 188.0 92.0 L 187.0 93.0 L 185.0 93.0 L 184.0 94.0 L 180.0 94.0 L 179.0 93.0 L 179.0 92.0 L 181.0 90.0 L 183.0 90.0 L 185.0 88.0 L 186.0 88.0 L 189.0 85.0 L 190.0 85.0 L 192.0 83.0 L 193.0 84.0 L 196.0 84.0 L 197.0 85.0 L 201.0 85.0 L 203.0 87.0 L 204.0 87.0 L 206.0 85.0 Z M 132.0 121.0 L 133.0 120.0 L 134.0 121.0 L 133.0 122.0 Z M 133.0 120.0 L 134.0 119.0 L 135.0 119.0 L 136.0 120.0 L 135.0 121.0 L 134.0 121.0 Z M 101.0 119.0 L 102.0 118.0 L 103.0 119.0 L 102.0 120.0 Z M 122.0 118.0 L 122.0 119.0 L 121.0 120.0 L 117.0 120.0 L 116.0 119.0 L 117.0 118.0 L 120.0 118.0 L 121.0 117.0 Z M 128.0 117.0 L 129.0 116.0 L 130.0 116.0 L 131.0 117.0 L 130.0 118.0 L 129.0 118.0 Z M 81.0 116.0 L 82.0 115.0 L 84.0 115.0 L 85.0 116.0 L 85.0 117.0 L 84.0 118.0 Z M 137.0 115.0 L 138.0 114.0 L 139.0 115.0 L 138.0 116.0 Z M 138.0 114.0 L 139.0 113.0 L 141.0 113.0 L 142.0 114.0 L 141.0 115.0 L 139.0 115.0 Z M 132.0 115.0 L 134.0 113.0 L 137.0 113.0 L 138.0 114.0 L 137.0 115.0 L 135.0 115.0 L 134.0 116.0 L 133.0 116.0 Z M 141.0 113.0 L 142.0 112.0 L 143.0 112.0 L 144.0 113.0 L 143.0 114.0 L 142.0 114.0 Z M 143.0 112.0 L 144.0 111.0 L 146.0 111.0 L 147.0 112.0 L 146.0 113.0 L 144.0 113.0 Z M 146.0 111.0 L 147.0 110.0 L 148.0 110.0 L 149.0 111.0 L 148.0 112.0 L 147.0 112.0 Z M 55.0 109.0 L 56.0 108.0 L 57.0 109.0 L 56.0 110.0 Z M 52.0 108.0 L 53.0 107.0 L 55.0 107.0 L 56.0 108.0 L 55.0 109.0 L 53.0 109.0 Z M 35.0 63.0 L 30.0 68.0 L 30.0 69.0 L 28.0 71.0 L 25.0 72.0 L 22.0 75.0 L 21.0 75.0 L 19.0 77.0 L 16.0 77.0 L 15.0 78.0 L 14.0 78.0 L 18.0 78.0 L 19.0 79.0 L 22.0 79.0 L 23.0 80.0 L 24.0 80.0 L 24.0 78.0 L 23.0 77.0 L 23.0 76.0 L 27.0 72.0 L 28.0 73.0 L 28.0 74.0 L 26.0 76.0 L 26.0 80.0 L 27.0 81.0 L 27.0 82.0 L 29.0 84.0 L 31.0 84.0 L 37.0 90.0 L 37.0 89.0 L 32.0 84.0 L 31.0 81.0 L 30.0 80.0 L 29.0 80.0 L 27.0 78.0 L 27.0 77.0 L 30.0 75.0 L 30.0 72.0 L 32.0 70.0 L 33.0 67.0 L 35.0 65.0 L 35.0 64.0 L 36.0 63.0 Z M 209.0 61.0 L 212.0 61.0 L 212.0 60.0 L 210.0 60.0 Z M 188.0 57.0 L 188.0 58.0 L 193.0 63.0 L 194.0 63.0 L 196.0 65.0 L 197.0 65.0 L 200.0 67.0 L 199.0 66.0 L 202.0 64.0 L 198.0 64.0 L 197.0 63.0 L 199.0 61.0 L 207.0 61.0 L 206.0 60.0 L 199.0 60.0 L 199.0 61.0 L 198.0 62.0 L 197.0 62.0 L 196.0 61.0 L 195.0 62.0 L 194.0 62.0 L 193.0 61.0 L 192.0 61.0 Z M 16.0 56.0 L 15.0 56.0 L 14.0 57.0 L 12.0 57.0 L 15.0 57.0 Z M 178.0 54.0 L 180.0 56.0 L 180.0 57.0 L 182.0 59.0 L 182.0 60.0 L 186.0 65.0 L 185.0 66.0 L 185.0 67.0 L 187.0 69.0 L 187.0 71.0 L 186.0 72.0 L 187.0 75.0 L 186.0 76.0 L 186.0 77.0 L 183.0 80.0 L 183.0 82.0 L 181.0 84.0 L 182.0 84.0 L 186.0 80.0 L 189.0 80.0 L 189.0 79.0 L 191.0 77.0 L 192.0 77.0 L 194.0 75.0 L 195.0 75.0 L 196.0 74.0 L 199.0 74.0 L 200.0 73.0 L 204.0 73.0 L 203.0 72.0 L 200.0 72.0 L 199.0 71.0 L 198.0 72.0 L 195.0 71.0 L 188.0 64.0 L 188.0 63.0 L 180.0 55.0 L 179.0 55.0 Z M 186.0 78.0 L 187.0 77.0 L 188.0 78.0 L 187.0 79.0 Z M 189.0 71.0 L 190.0 70.0 L 191.0 70.0 L 194.0 73.0 L 194.0 74.0 L 193.0 75.0 L 190.0 74.0 L 189.0 73.0 Z M 26.0 50.0 L 25.0 50.0 L 23.0 52.0 L 24.0 52.0 Z M 202.0 49.0 L 203.0 49.0 L 204.0 48.0 L 202.0 48.0 Z M 44.0 41.0 L 41.0 42.0 L 38.0 45.0 L 37.0 45.0 L 33.0 49.0 L 33.0 50.0 L 37.0 46.0 L 38.0 46.0 L 42.0 42.0 L 43.0 42.0 Z M 40.0 36.0 L 39.0 37.0 L 38.0 37.0 L 33.0 40.0 L 31.0 40.0 L 29.0 42.0 L 28.0 42.0 L 29.0 42.0 L 30.0 41.0 L 32.0 41.0 L 33.0 40.0 L 36.0 39.0 L 38.0 37.0 L 39.0 37.0 Z M 89.0 37.0 L 88.0 38.0 L 90.0 38.0 L 91.0 39.0 L 85.0 45.0 L 84.0 45.0 L 83.0 46.0 L 83.0 47.0 L 80.0 50.0 L 80.0 51.0 L 79.0 52.0 L 77.0 52.0 L 77.0 53.0 L 76.0 54.0 L 76.0 56.0 L 77.0 56.0 L 78.0 53.0 L 81.0 50.0 L 82.0 51.0 L 82.0 53.0 L 79.0 58.0 L 79.0 61.0 L 78.0 62.0 L 78.0 65.0 L 76.0 68.0 L 74.0 68.0 L 75.0 71.0 L 76.0 71.0 L 77.0 70.0 L 79.0 72.0 L 79.0 75.0 L 80.0 76.0 L 80.0 78.0 L 81.0 79.0 L 81.0 80.0 L 79.0 82.0 L 77.0 80.0 L 77.0 79.0 L 77.0 80.0 L 78.0 81.0 L 78.0 83.0 L 79.0 84.0 L 79.0 85.0 L 78.0 86.0 L 76.0 84.0 L 76.0 83.0 L 75.0 82.0 L 75.0 80.0 L 74.0 79.0 L 74.0 80.0 L 75.0 81.0 L 75.0 82.0 L 76.0 83.0 L 76.0 84.0 L 77.0 85.0 L 77.0 86.0 L 78.0 87.0 L 79.0 90.0 L 82.0 93.0 L 82.0 92.0 L 83.0 91.0 L 89.0 97.0 L 89.0 98.0 L 91.0 98.0 L 92.0 99.0 L 92.0 100.0 L 95.0 102.0 L 96.0 102.0 L 97.0 101.0 L 100.0 102.0 L 102.0 100.0 L 103.0 101.0 L 111.0 101.0 L 112.0 100.0 L 115.0 100.0 L 117.0 98.0 L 118.0 98.0 L 121.0 100.0 L 120.0 101.0 L 118.0 101.0 L 117.0 102.0 L 115.0 102.0 L 114.0 103.0 L 111.0 103.0 L 120.0 103.0 L 121.0 102.0 L 124.0 102.0 L 124.0 101.0 L 127.0 98.0 L 128.0 99.0 L 129.0 98.0 L 131.0 98.0 L 132.0 97.0 L 133.0 98.0 L 133.0 99.0 L 132.0 100.0 L 134.0 98.0 L 133.0 97.0 L 138.0 93.0 L 140.0 93.0 L 140.0 92.0 L 143.0 89.0 L 142.0 86.0 L 144.0 83.0 L 144.0 81.0 L 145.0 80.0 L 146.0 80.0 L 145.0 79.0 L 147.0 77.0 L 147.0 76.0 L 146.0 75.0 L 147.0 74.0 L 148.0 74.0 L 147.0 73.0 L 147.0 74.0 L 146.0 75.0 L 145.0 74.0 L 145.0 72.0 L 144.0 71.0 L 145.0 70.0 L 145.0 66.0 L 144.0 65.0 L 144.0 61.0 L 143.0 60.0 L 143.0 58.0 L 142.0 57.0 L 142.0 54.0 L 141.0 53.0 L 141.0 52.0 L 142.0 51.0 L 144.0 53.0 L 144.0 52.0 L 142.0 50.0 L 142.0 51.0 L 141.0 52.0 L 140.0 51.0 L 140.0 49.0 L 136.0 45.0 L 137.0 44.0 L 136.0 43.0 L 135.0 43.0 L 133.0 41.0 L 132.0 41.0 L 130.0 39.0 L 131.0 38.0 L 132.0 38.0 L 129.0 36.0 L 129.0 37.0 L 128.0 38.0 L 127.0 38.0 L 125.0 36.0 L 124.0 36.0 L 123.0 35.0 L 120.0 35.0 L 119.0 34.0 L 117.0 34.0 L 118.0 35.0 L 119.0 35.0 L 122.0 38.0 L 121.0 39.0 L 116.0 39.0 L 117.0 40.0 L 116.0 41.0 L 115.0 41.0 L 114.0 40.0 L 114.0 41.0 L 115.0 42.0 L 113.0 44.0 L 109.0 44.0 L 108.0 45.0 L 101.0 45.0 L 100.0 44.0 L 100.0 43.0 L 101.0 42.0 L 102.0 42.0 L 104.0 40.0 L 108.0 40.0 L 105.0 40.0 L 104.0 39.0 L 103.0 39.0 L 102.0 40.0 L 100.0 40.0 L 99.0 41.0 L 97.0 41.0 L 96.0 42.0 L 94.0 42.0 L 93.0 43.0 L 91.0 43.0 L 90.0 42.0 L 93.0 39.0 L 95.0 39.0 L 98.0 37.0 L 104.0 37.0 L 105.0 36.0 L 116.0 36.0 L 103.0 36.0 L 102.0 35.0 L 103.0 34.0 L 100.0 34.0 L 99.0 35.0 L 98.0 35.0 L 95.0 38.0 L 93.0 38.0 L 92.0 37.0 Z M 104.0 100.0 L 105.0 99.0 L 108.0 99.0 L 109.0 100.0 L 108.0 101.0 L 105.0 101.0 Z M 120.0 99.0 L 121.0 98.0 L 122.0 99.0 L 121.0 100.0 Z M 121.0 98.0 L 122.0 97.0 L 123.0 98.0 L 122.0 99.0 Z M 93.0 95.0 L 94.0 94.0 L 97.0 94.0 L 98.0 95.0 L 102.0 95.0 L 103.0 94.0 L 104.0 95.0 L 110.0 95.0 L 111.0 96.0 L 110.0 97.0 L 108.0 97.0 L 107.0 98.0 L 97.0 98.0 L 96.0 97.0 L 95.0 97.0 Z M 132.0 91.0 L 133.0 90.0 L 134.0 91.0 L 133.0 92.0 Z M 81.0 91.0 L 82.0 90.0 L 83.0 91.0 L 82.0 92.0 Z M 133.0 90.0 L 134.0 89.0 L 135.0 90.0 L 134.0 91.0 Z M 85.0 90.0 L 86.0 89.0 L 87.0 89.0 L 88.0 90.0 L 89.0 90.0 L 91.0 92.0 L 92.0 92.0 L 94.0 94.0 L 93.0 95.0 L 91.0 95.0 L 90.0 94.0 L 89.0 94.0 Z M 134.0 89.0 L 135.0 88.0 L 136.0 89.0 L 135.0 90.0 Z M 126.0 89.0 L 127.0 88.0 L 128.0 89.0 L 127.0 90.0 Z M 80.0 89.0 L 81.0 88.0 L 82.0 89.0 L 82.0 90.0 L 81.0 91.0 L 80.0 90.0 Z M 141.0 88.0 L 142.0 87.0 L 143.0 88.0 L 142.0 89.0 Z M 107.0 88.0 L 108.0 87.0 L 111.0 87.0 L 112.0 88.0 L 111.0 89.0 L 108.0 89.0 Z M 79.0 87.0 L 80.0 86.0 L 81.0 87.0 L 81.0 88.0 L 80.0 89.0 L 79.0 88.0 Z M 138.0 86.0 L 139.0 85.0 L 140.0 86.0 L 139.0 87.0 Z M 87.0 86.0 L 88.0 85.0 L 91.0 88.0 L 92.0 88.0 L 93.0 89.0 L 93.0 90.0 L 92.0 91.0 L 91.0 91.0 L 87.0 87.0 Z M 78.0 86.0 L 79.0 85.0 L 80.0 86.0 L 79.0 87.0 Z M 88.0 85.0 L 89.0 84.0 L 90.0 84.0 L 92.0 86.0 L 91.0 87.0 L 90.0 87.0 Z M 140.0 84.0 L 141.0 83.0 L 142.0 84.0 L 141.0 85.0 Z M 86.0 83.0 L 87.0 82.0 L 88.0 82.0 L 89.0 83.0 L 88.0 84.0 L 87.0 84.0 Z M 79.0 83.0 L 80.0 82.0 L 81.0 82.0 L 83.0 85.0 L 82.0 86.0 L 81.0 86.0 Z M 121.0 80.0 L 122.0 79.0 L 123.0 80.0 L 122.0 81.0 Z M 122.0 79.0 L 123.0 78.0 L 124.0 79.0 L 123.0 80.0 Z M 80.0 74.0 L 81.0 73.0 L 82.0 74.0 L 81.0 75.0 Z M 141.0 70.0 L 142.0 71.0 L 142.0 75.0 L 141.0 76.0 L 140.0 76.0 L 139.0 75.0 L 140.0 74.0 L 140.0 71.0 Z M 83.0 71.0 L 84.0 70.0 L 86.0 72.0 L 86.0 73.0 L 85.0 74.0 L 83.0 72.0 Z M 138.0 65.0 L 139.0 64.0 L 140.0 65.0 L 139.0 66.0 Z M 78.0 65.0 L 79.0 64.0 L 80.0 65.0 L 79.0 66.0 Z M 84.0 64.0 L 85.0 63.0 L 86.0 64.0 L 85.0 65.0 Z M 141.0 58.0 L 143.0 60.0 L 143.0 61.0 L 144.0 62.0 L 144.0 63.0 L 143.0 64.0 L 141.0 62.0 L 141.0 61.0 L 140.0 60.0 L 140.0 59.0 Z M 122.0 59.0 L 123.0 58.0 L 124.0 59.0 L 123.0 60.0 Z M 82.0 58.0 L 83.0 59.0 L 83.0 60.0 L 80.0 65.0 L 79.0 64.0 L 79.0 62.0 L 80.0 61.0 L 80.0 60.0 Z M 102.0 55.0 L 104.0 55.0 L 105.0 54.0 L 108.0 54.0 L 109.0 53.0 L 111.0 53.0 L 112.0 54.0 L 117.0 54.0 L 120.0 57.0 L 120.0 58.0 L 122.0 60.0 L 123.0 60.0 L 124.0 59.0 L 126.0 61.0 L 127.0 61.0 L 128.0 62.0 L 128.0 63.0 L 127.0 64.0 L 126.0 64.0 L 126.0 65.0 L 127.0 66.0 L 127.0 73.0 L 126.0 74.0 L 126.0 76.0 L 125.0 77.0 L 123.0 77.0 L 120.0 80.0 L 121.0 80.0 L 122.0 81.0 L 120.0 83.0 L 119.0 83.0 L 118.0 84.0 L 111.0 84.0 L 110.0 85.0 L 109.0 84.0 L 103.0 84.0 L 101.0 82.0 L 101.0 81.0 L 100.0 80.0 L 98.0 80.0 L 95.0 77.0 L 95.0 75.0 L 94.0 74.0 L 94.0 66.0 L 98.0 62.0 L 98.0 61.0 L 97.0 62.0 L 96.0 61.0 L 96.0 60.0 L 99.0 57.0 L 100.0 57.0 Z M 123.0 53.0 L 124.0 52.0 L 127.0 53.0 L 130.0 56.0 L 130.0 58.0 L 129.0 59.0 L 128.0 58.0 L 128.0 57.0 Z M 137.0 51.0 L 138.0 50.0 L 139.0 51.0 L 138.0 52.0 Z M 81.0 50.0 L 82.0 49.0 L 83.0 50.0 L 82.0 51.0 Z M 121.0 48.0 L 122.0 47.0 L 123.0 47.0 L 124.0 48.0 L 124.0 49.0 L 123.0 50.0 Z M 134.0 47.0 L 135.0 46.0 L 136.0 46.0 L 137.0 47.0 L 138.0 50.0 L 137.0 51.0 L 134.0 48.0 Z M 101.0 49.0 L 101.0 48.0 L 104.0 46.0 L 106.0 46.0 L 107.0 47.0 L 104.0 50.0 L 102.0 50.0 Z M 128.0 45.0 L 129.0 44.0 L 130.0 44.0 L 135.0 49.0 L 134.0 50.0 L 133.0 50.0 Z M 98.0 44.0 L 99.0 43.0 L 100.0 44.0 L 99.0 45.0 Z M 115.0 42.0 L 116.0 41.0 L 117.0 42.0 L 116.0 43.0 Z M 116.0 41.0 L 117.0 40.0 L 118.0 41.0 L 117.0 42.0 Z M 129.0 38.0 L 130.0 37.0 L 131.0 38.0 L 130.0 39.0 Z M 51.0 25.0 L 50.0 25.0 L 48.0 27.0 L 45.0 28.0 L 43.0 30.0 L 42.0 30.0 L 41.0 31.0 L 39.0 31.0 L 38.0 32.0 L 38.0 33.0 L 39.0 32.0 L 40.0 32.0 L 42.0 30.0 L 43.0 30.0 L 44.0 29.0 L 47.0 28.0 L 49.0 26.0 L 50.0 26.0 Z M 138.0 14.0 L 139.0 15.0 L 142.0 16.0 L 141.0 15.0 L 139.0 15.0 Z M 197.0 56.0 L 194.0 53.0 L 194.0 52.0 L 192.0 52.0 L 191.0 53.0 L 189.0 53.0 L 188.0 52.0 L 185.0 51.0 L 183.0 49.0 L 182.0 49.0 L 179.0 46.0 L 180.0 45.0 L 181.0 45.0 L 183.0 47.0 L 184.0 47.0 L 181.0 44.0 L 180.0 44.0 L 177.0 42.0 L 178.0 41.0 L 180.0 41.0 L 181.0 42.0 L 182.0 42.0 L 185.0 45.0 L 187.0 45.0 L 188.0 46.0 L 190.0 46.0 L 191.0 47.0 L 194.0 48.0 L 192.0 46.0 L 191.0 46.0 L 190.0 45.0 L 186.0 45.0 L 183.0 42.0 L 182.0 42.0 L 179.0 40.0 L 175.0 40.0 L 173.0 38.0 L 172.0 38.0 L 171.0 37.0 L 168.0 36.0 L 163.0 32.0 L 164.0 31.0 L 166.0 31.0 L 167.0 32.0 L 169.0 32.0 L 172.0 35.0 L 173.0 35.0 L 178.0 38.0 L 173.0 34.0 L 174.0 33.0 L 175.0 33.0 L 176.0 34.0 L 177.0 33.0 L 178.0 34.0 L 179.0 34.0 L 179.0 33.0 L 171.0 33.0 L 170.0 32.0 L 168.0 32.0 L 163.0 29.0 L 161.0 29.0 L 156.0 24.0 L 155.0 24.0 L 152.0 21.0 L 151.0 21.0 L 149.0 19.0 L 148.0 19.0 L 145.0 17.0 L 144.0 17.0 L 145.0 18.0 L 146.0 18.0 L 150.0 22.0 L 151.0 22.0 L 152.0 23.0 L 152.0 24.0 L 151.0 25.0 L 150.0 24.0 L 149.0 24.0 L 147.0 22.0 L 145.0 22.0 L 144.0 21.0 L 141.0 20.0 L 140.0 19.0 L 140.0 18.0 L 134.0 18.0 L 132.0 16.0 L 131.0 16.0 L 130.0 15.0 L 127.0 15.0 L 124.0 13.0 L 121.0 13.0 L 120.0 12.0 L 118.0 12.0 L 119.0 12.0 L 120.0 13.0 L 123.0 13.0 L 126.0 16.0 L 125.0 17.0 L 123.0 17.0 L 122.0 16.0 L 117.0 16.0 L 116.0 15.0 L 110.0 15.0 L 109.0 14.0 L 110.0 13.0 L 109.0 13.0 L 108.0 14.0 L 100.0 14.0 L 99.0 15.0 L 92.0 15.0 L 91.0 16.0 L 89.0 16.0 L 88.0 15.0 L 90.0 13.0 L 89.0 13.0 L 88.0 14.0 L 86.0 14.0 L 83.0 16.0 L 82.0 16.0 L 81.0 15.0 L 80.0 16.0 L 78.0 16.0 L 77.0 17.0 L 75.0 17.0 L 74.0 18.0 L 70.0 18.0 L 69.0 19.0 L 67.0 19.0 L 66.0 20.0 L 64.0 20.0 L 63.0 21.0 L 60.0 21.0 L 58.0 23.0 L 59.0 23.0 L 62.0 21.0 L 64.0 21.0 L 65.0 20.0 L 68.0 20.0 L 69.0 19.0 L 71.0 19.0 L 72.0 18.0 L 74.0 18.0 L 75.0 19.0 L 75.0 20.0 L 73.0 22.0 L 72.0 22.0 L 71.0 23.0 L 69.0 23.0 L 68.0 24.0 L 66.0 24.0 L 65.0 25.0 L 62.0 26.0 L 60.0 28.0 L 59.0 28.0 L 58.0 29.0 L 57.0 29.0 L 56.0 30.0 L 55.0 30.0 L 54.0 31.0 L 53.0 31.0 L 52.0 32.0 L 49.0 33.0 L 46.0 36.0 L 52.0 32.0 L 53.0 32.0 L 54.0 33.0 L 47.0 39.0 L 48.0 42.0 L 33.0 57.0 L 33.0 58.0 L 32.0 59.0 L 29.0 59.0 L 28.0 58.0 L 27.0 59.0 L 26.0 59.0 L 25.0 58.0 L 29.0 54.0 L 30.0 54.0 L 32.0 52.0 L 31.0 52.0 L 27.0 56.0 L 26.0 56.0 L 24.0 58.0 L 23.0 58.0 L 22.0 57.0 L 20.0 57.0 L 19.0 58.0 L 22.0 57.0 L 23.0 58.0 L 23.0 59.0 L 18.0 64.0 L 17.0 64.0 L 15.0 66.0 L 14.0 66.0 L 12.0 68.0 L 11.0 68.0 L 12.0 68.0 L 13.0 67.0 L 16.0 66.0 L 18.0 64.0 L 19.0 64.0 L 23.0 60.0 L 26.0 60.0 L 27.0 61.0 L 25.0 63.0 L 25.0 65.0 L 24.0 66.0 L 23.0 66.0 L 22.0 65.0 L 23.0 64.0 L 22.0 65.0 L 21.0 65.0 L 18.0 68.0 L 18.0 69.0 L 12.0 75.0 L 13.0 74.0 L 16.0 73.0 L 18.0 71.0 L 19.0 71.0 L 22.0 68.0 L 24.0 68.0 L 26.0 65.0 L 27.0 65.0 L 34.0 58.0 L 36.0 58.0 L 47.0 47.0 L 48.0 47.0 L 49.0 48.0 L 48.0 49.0 L 48.0 50.0 L 52.0 46.0 L 52.0 45.0 L 54.0 43.0 L 55.0 43.0 L 56.0 42.0 L 57.0 43.0 L 66.0 34.0 L 67.0 34.0 L 72.0 30.0 L 75.0 29.0 L 77.0 27.0 L 78.0 27.0 L 79.0 26.0 L 81.0 26.0 L 84.0 24.0 L 88.0 24.0 L 91.0 22.0 L 94.0 22.0 L 95.0 21.0 L 97.0 21.0 L 98.0 20.0 L 100.0 20.0 L 101.0 19.0 L 108.0 19.0 L 110.0 21.0 L 111.0 21.0 L 111.0 20.0 L 109.0 20.0 L 108.0 19.0 L 110.0 17.0 L 111.0 17.0 L 114.0 20.0 L 116.0 20.0 L 117.0 19.0 L 119.0 19.0 L 120.0 20.0 L 122.0 20.0 L 123.0 19.0 L 126.0 21.0 L 130.0 21.0 L 131.0 22.0 L 133.0 22.0 L 134.0 23.0 L 136.0 23.0 L 135.0 23.0 L 134.0 22.0 L 131.0 21.0 L 129.0 18.0 L 130.0 17.0 L 133.0 17.0 L 134.0 18.0 L 134.0 19.0 L 135.0 19.0 L 136.0 20.0 L 137.0 20.0 L 138.0 21.0 L 139.0 21.0 L 140.0 22.0 L 141.0 22.0 L 142.0 23.0 L 143.0 23.0 L 144.0 24.0 L 147.0 25.0 L 149.0 27.0 L 150.0 27.0 L 153.0 30.0 L 154.0 30.0 L 159.0 35.0 L 159.0 36.0 L 160.0 36.0 L 162.0 38.0 L 165.0 39.0 L 168.0 42.0 L 169.0 42.0 L 173.0 46.0 L 174.0 45.0 L 175.0 46.0 L 177.0 46.0 L 179.0 48.0 L 182.0 49.0 L 184.0 51.0 L 184.0 52.0 L 185.0 52.0 L 187.0 54.0 L 188.0 54.0 L 193.0 58.0 L 191.0 55.0 L 191.0 54.0 L 192.0 53.0 L 193.0 53.0 L 195.0 55.0 L 196.0 55.0 Z M 21.0 66.0 L 22.0 67.0 L 22.0 68.0 L 20.0 70.0 L 19.0 70.0 L 18.0 69.0 Z M 21.0 66.0 L 22.0 65.0 L 23.0 66.0 L 22.0 67.0 Z M 35.0 57.0 L 36.0 56.0 L 37.0 57.0 L 36.0 58.0 Z M 36.0 56.0 L 37.0 55.0 L 38.0 56.0 L 37.0 57.0 Z M 37.0 55.0 L 38.0 54.0 L 39.0 55.0 L 38.0 56.0 Z M 178.0 45.0 L 179.0 44.0 L 180.0 45.0 L 179.0 46.0 Z M 56.0 42.0 L 57.0 41.0 L 58.0 42.0 L 57.0 43.0 Z M 173.0 41.0 L 174.0 40.0 L 175.0 41.0 L 174.0 42.0 Z M 57.0 41.0 L 58.0 40.0 L 59.0 41.0 L 58.0 42.0 Z M 172.0 40.0 L 173.0 39.0 L 174.0 40.0 L 173.0 41.0 Z M 170.0 39.0 L 171.0 38.0 L 172.0 39.0 L 171.0 40.0 Z M 168.0 38.0 L 169.0 37.0 L 170.0 38.0 L 169.0 39.0 Z M 60.0 32.0 L 51.0 40.0 L 50.0 40.0 L 49.0 41.0 L 48.0 41.0 L 47.0 40.0 L 50.0 37.0 L 51.0 37.0 L 56.0 32.0 L 57.0 32.0 L 58.0 31.0 L 59.0 31.0 Z M 54.0 32.0 L 55.0 31.0 L 56.0 32.0 L 55.0 33.0 Z M 68.0 28.0 L 69.0 27.0 L 70.0 28.0 L 69.0 29.0 Z M 74.0 25.0 L 75.0 24.0 L 76.0 25.0 L 75.0 26.0 Z M 75.0 24.0 L 76.0 23.0 L 77.0 24.0 L 76.0 25.0 Z M 95.0 19.0 L 93.0 21.0 L 91.0 21.0 L 90.0 22.0 L 88.0 22.0 L 87.0 23.0 L 85.0 23.0 L 84.0 24.0 L 82.0 24.0 L 81.0 25.0 L 79.0 25.0 L 78.0 24.0 L 80.0 22.0 L 81.0 22.0 L 82.0 21.0 L 84.0 21.0 L 87.0 19.0 L 90.0 19.0 L 91.0 18.0 L 94.0 18.0 Z M 96.0 18.0 L 97.0 17.0 L 98.0 18.0 L 97.0 19.0 Z M 77.0 18.0 L 78.0 17.0 L 79.0 18.0 L 78.0 19.0 Z M 78.0 17.0 L 79.0 16.0 L 80.0 17.0 L 79.0 18.0 Z M 122.0 10.0 L 123.0 10.0 L 124.0 11.0 L 127.0 11.0 L 128.0 12.0 L 131.0 12.0 L 132.0 13.0 L 131.0 12.0 L 129.0 12.0 L 128.0 11.0 L 125.0 11.0 L 124.0 10.0 Z M 108.0 10.0 L 109.0 10.0 L 112.0 12.0 L 115.0 12.0 L 115.0 11.0 L 111.0 11.0 L 110.0 10.0 Z M 105.0 10.0 L 104.0 9.0 L 100.0 9.0 L 99.0 10.0 L 94.0 10.0 L 94.0 11.0 L 97.0 11.0 L 98.0 10.0 Z M 78.0 8.0 L 77.0 8.0 L 76.0 9.0 L 75.0 9.0 L 74.0 10.0 L 71.0 11.0 L 74.0 11.0 L 76.0 9.0 L 78.0 9.0 Z M 137.0 7.0 L 141.0 11.0 L 143.0 11.0 L 146.0 13.0 L 146.0 12.0 L 144.0 12.0 L 143.0 11.0 L 142.0 11.0 L 139.0 8.0 L 138.0 8.0 Z M 86.0 7.0 L 84.0 7.0 L 83.0 8.0 L 81.0 8.0 L 85.0 8.0 Z"
    fill="currentColor"
    fill-rule="evenodd"
    clip-rule="evenodd"/>
</svg>
